<svg width="211.16" height="215.559" viewBox="110 100 220.6 240.559" fill="none" xmlns="http://www.w3.org/2000/svg">
<rect width="211.16" height="215.559" rx="20" transform="matrix(0.998864 0.0476502 -0.00731349 0.999973 108.752 100.546)" fill="#D13FBC" fill-opacity="0.21"/>
<path d="M108.453 120.999C108.534 109.954 117.544 101.427 128.577 101.953L299.543 110.109C310.576 110.635 319.455 120.016 319.374 131.061L318.09 306.616C318.009 317.661 308.999 326.189 297.966 325.662L127 317.507C115.967 316.98 107.089 307.6 107.169 296.554L108.453 120.999Z" fill="url(#paint0_linear_1280_1358)"/>
<path d="M110.979 306.777L111.37 306.408C115.487 312.584 122.375 316.825 130.205 317.199L295.068 325.064C307.787 325.67 318.172 315.84 318.265 303.108L319.505 133.662C319.554 126.949 316.732 120.769 312.188 116.338L312.54 116.004L326.256 130.496L325.876 130.856C329.74 135.17 332.087 140.853 332.042 146.98L330.803 316.426C330.709 329.158 320.324 338.988 307.606 338.381L142.742 330.516C135.503 330.171 129.068 326.519 124.885 321.089L124.695 321.268L110.979 306.777Z" fill="url(#paint1_linear_1280_1358)"/>
<path d="M206.277 247.514C202.679 247.115 199.14 246.296 195.732 245.075C195.836 242.625 195.898 240.072 195.898 237.415V233.917C199.116 235.453 202.613 236.522 206.277 237.051V211.466C206.277 207.336 207.918 203.376 210.838 200.457C213.757 197.537 217.718 195.896 221.847 195.896H247.432C246.605 190.145 244.409 184.676 241.031 179.948C237.652 175.221 233.189 171.373 228.015 168.727C222.842 166.081 217.109 164.715 211.299 164.743C205.488 164.771 199.769 166.193 194.621 168.889C193.8 165.494 192.448 162.25 190.615 159.277C197.343 155.919 204.784 154.235 212.303 154.368C219.822 154.501 227.198 156.448 233.803 160.044C240.409 163.639 246.048 168.776 250.243 175.018C254.437 181.26 257.062 188.422 257.895 195.896H273.745C277.874 195.896 281.834 197.537 284.754 200.457C287.674 203.376 289.314 207.336 289.314 211.466V263.364C289.314 267.493 287.674 271.453 284.754 274.373C281.834 277.293 277.874 278.933 273.745 278.933H221.847C217.718 278.933 213.757 277.293 210.838 274.373C207.918 271.453 206.277 267.493 206.277 263.364V247.514ZM257.895 206.276C256.716 216.807 251.992 226.625 244.499 234.118C237.006 241.611 227.188 246.335 216.657 247.514V263.364C216.657 264.74 217.204 266.06 218.177 267.033C219.15 268.007 220.47 268.553 221.847 268.553H273.745C275.121 268.553 276.441 268.007 277.414 267.033C278.388 266.06 278.934 264.74 278.934 263.364V211.466C278.934 210.089 278.388 208.769 277.414 207.796C276.441 206.823 275.121 206.276 273.745 206.276H257.895ZM247.432 206.276H228.015C226.639 206.276 219.15 206.823 218.177 207.796C217.204 208.769 216.657 210.089 216.657 211.466V237.051C224.421 235.929 231.613 232.326 237.16 226.779C242.707 221.232 246.31 214.04 247.432 206.276ZM183.39 212.099C182.301 208.092 180.536 204.075 177.505 200.993C182.404 196.353 185.518 188.963 185.518 180.327C185.518 173.092 184.055 168.121 181.408 164.145C180.234 162.435 178.876 160.859 177.36 159.443C176.779 158.882 176.191 158.329 175.595 157.783C174.962 157.191 174.381 156.651 173.623 155.893C172.066 154.337 171.89 153.091 171.89 152.437C171.892 152.074 171.951 151.713 172.066 151.368C172.541 150.342 172.667 149.189 172.426 148.084C172.185 146.979 171.59 145.983 170.732 145.248C169.873 144.512 168.797 144.078 167.669 144.009C166.54 143.941 165.42 144.244 164.479 144.87L164.458 144.881L164.427 144.902L164.334 144.964L164.022 145.171C162.465 146.282 160.965 147.47 159.528 148.732C156.933 151.025 153.549 154.42 151.152 158.468C149.058 161.824 147.379 165.42 146.149 169.179C144.903 172.906 144 176.943 144 180.327C144 188.963 147.114 196.343 152.013 201.003C148.982 204.075 147.218 208.092 146.128 212.109C144 219.915 144 229.568 144 237.031V237.415C144 258.776 147.996 271.46 152.522 279.006C154.795 282.784 157.161 285.223 159.144 286.759C160.2 287.583 161.35 288.28 162.569 288.835C163.274 289.092 164.011 289.253 164.759 289.312C165.631 289.312 166.949 288.835 166.949 288.835C168.168 288.28 169.318 287.583 170.374 286.759C172.347 285.223 174.734 282.784 176.997 279.006C181.522 271.47 185.518 258.776 185.518 237.415V237.041C185.518 229.568 185.518 219.925 183.39 212.099ZM159.434 208.258C160.607 207.075 162.175 206.276 164.759 206.276C167.354 206.276 168.911 207.086 170.084 208.248C171.392 209.566 172.523 211.704 173.374 214.829C175.097 221.171 175.139 229.495 175.139 237.415C175.139 257.572 171.35 268.242 168.091 273.67C166.845 275.746 165.673 277.085 164.759 277.926C163.454 276.671 162.332 275.239 161.427 273.67C158.168 268.232 154.38 257.572 154.38 237.415C154.38 229.495 154.421 221.171 156.144 214.829C156.995 211.715 158.127 209.577 159.434 208.258ZM164.759 195.896C160.763 195.896 154.38 191.454 154.38 180.327C154.38 178.531 154.919 175.687 155.999 172.47C156.982 169.432 158.339 166.528 160.036 163.823C160.939 162.298 162.112 160.813 163.379 159.454C164.095 160.72 165.039 161.997 166.285 163.242C167.043 164 168.029 164.913 168.869 165.702L170.157 166.906C171.246 167.965 172.087 168.889 172.762 169.916C174.007 171.774 175.139 174.587 175.139 180.327C175.139 191.454 168.755 195.896 164.759 195.896Z" fill="white"/>
<defs>
<linearGradient id="paint0_linear_1280_1358" x1="108.6" y1="101" x2="322.509" y2="322.201" gradientUnits="userSpaceOnUse">
<stop stop-color="#7928CA"/>
<stop offset="1" stop-color="#FF0080"/>
</linearGradient>
<linearGradient id="paint1_linear_1280_1358" x1="110.979" y1="306.777" x2="383.863" y2="384.21" gradientUnits="userSpaceOnUse">
<stop stop-color="#FF0080"/>
<stop offset="1" stop-color="#7928CA"/>
</linearGradient>
</defs>
</svg>
