<svg width="211" height="215.559" viewBox="110 100 220.6 240.559" fill="none" xmlns="http://www.w3.org/2000/svg">
<rect width="211.16" height="215.559" rx="20" transform="matrix(0.998864 0.0476502 -0.00731349 0.999973 108.686 101.406)" fill="#D13FBC" fill-opacity="0.21"/>
<path d="M108.513 121.859C108.594 110.813 117.604 102.286 128.637 102.812L299.603 110.968C310.636 111.494 319.515 120.875 319.434 131.921L318.15 307.475C318.069 318.521 309.06 327.048 298.026 326.522L127.06 318.366C116.027 317.84 107.149 308.459 107.229 297.413L108.513 121.859Z" fill="url(#paint0_linear_1278_1258)"/>
<path d="M110.913 307.636L111.303 307.267C115.42 313.443 122.308 317.685 130.138 318.058L295.002 325.923C307.72 326.529 318.105 316.7 318.198 303.967L319.438 134.521C319.487 127.808 316.665 121.628 312.121 117.197L312.473 116.864L326.189 131.355L325.809 131.715C329.673 136.03 332.02 141.712 331.975 147.839L330.736 317.285C330.643 330.017 320.257 339.847 307.539 339.24L142.675 331.376C135.436 331.03 129.002 327.378 124.818 321.948L124.628 322.128L110.913 307.636Z" fill="url(#paint1_linear_1278_1258)"/>
<path d="M279.756 234.396C279.49 235.164 279.039 235.821 278.46 236.283C277.881 236.745 277.201 236.992 276.504 236.993L256.586 236.993C256.123 236.992 255.665 236.883 255.238 236.671C254.811 236.458 254.423 236.148 254.096 235.757L240.188 219.158L226.713 219.158C225.882 221.962 224.248 224.325 222.099 225.83C219.949 227.335 217.423 227.885 214.967 227.382C212.511 226.879 210.283 225.356 208.677 223.082C207.071 220.809 206.19 217.93 206.19 214.957C206.19 211.983 207.071 209.104 208.677 206.831C210.283 204.557 212.511 203.034 214.967 202.531C217.423 202.028 219.949 202.578 222.099 204.083C224.248 205.588 225.882 207.951 226.713 210.755L240.188 210.755L254.096 194.156C254.423 193.765 254.811 193.455 255.238 193.242C255.665 193.03 256.123 192.921 256.586 192.92L276.504 192.92C277.202 192.919 277.884 193.165 278.464 193.627C279.044 194.089 279.496 194.746 279.762 195.515C280.029 196.284 280.098 197.13 279.962 197.946C279.825 198.762 279.488 199.512 278.994 200.099L266.545 214.956L278.994 229.814C279.487 230.402 279.822 231.151 279.958 231.967C280.093 232.782 280.023 233.628 279.756 234.396V234.396ZM268.004 228.584L259.076 217.928C258.415 217.14 258.044 216.071 258.044 214.956C258.044 213.842 258.415 212.773 259.076 211.985L268.004 201.329L258.045 201.329L246.626 214.956L258.045 228.584L268.004 228.584ZM267.003 245.396C264.379 251.559 260.903 257.347 256.586 262.5C248.169 272.541 237.303 279.143 225.548 281.359C213.793 283.575 201.752 281.292 191.151 274.837C180.55 268.381 171.935 258.085 166.54 245.425C161.145 232.765 159.248 218.391 161.121 204.365C162.994 190.338 168.541 177.38 176.966 167.349C185.39 157.317 196.261 150.727 208.018 148.524C219.775 146.32 231.814 148.617 242.41 155.084C253.006 161.551 261.613 171.857 266.998 184.523L258.951 184.523C253.382 173.526 244.949 165.007 234.941 160.269C224.933 155.53 213.901 154.833 203.529 158.282C193.158 161.731 184.018 169.138 177.506 179.371C170.993 189.604 167.467 202.099 167.466 214.949C167.465 227.798 170.989 240.295 177.5 250.529C184.01 260.763 193.149 268.172 203.52 271.624C213.891 275.076 224.924 274.381 234.932 269.644C244.941 264.908 253.375 256.392 258.946 245.396L267.003 245.396V245.396ZM246.129 238.134C241.954 245.669 235.856 251.397 228.74 254.471C221.623 257.545 213.865 257.8 206.617 255.199C199.369 252.598 193.016 247.279 188.5 240.03C183.984 232.782 181.546 223.989 181.546 214.957C181.546 205.924 183.984 197.131 188.5 189.883C193.016 182.634 199.369 177.315 206.617 174.714C213.865 172.113 221.623 172.368 228.74 175.442C235.857 178.516 241.954 184.244 246.129 191.779L241.019 197.876C237.88 191.525 233.079 186.582 227.354 183.808C221.63 181.034 215.3 180.583 209.339 182.525C203.379 184.466 198.118 188.693 194.369 194.553C190.619 200.414 188.588 207.583 188.588 214.957C188.588 222.33 190.619 229.499 194.369 235.36C198.118 241.22 203.379 245.447 209.339 247.388C215.3 249.33 221.63 248.879 227.354 246.105C233.079 243.331 237.88 238.388 241.019 232.036L246.129 238.134Z" fill="white"/>
<defs>
<linearGradient id="paint0_linear_1278_1258" x1="108.66" y1="101.859" x2="322.569" y2="323.06" gradientUnits="userSpaceOnUse">
<stop stop-color="#7928CA"/>
<stop offset="1" stop-color="#FF0080"/>
</linearGradient>
<linearGradient id="paint1_linear_1278_1258" x1="110.913" y1="307.636" x2="383.796" y2="385.069" gradientUnits="userSpaceOnUse">
<stop stop-color="#FF0080"/>
<stop offset="1" stop-color="#7928CA"/>
</linearGradient>
</defs>
</svg>
