<svg width="211.16" height="215.559" viewBox="110 100 220.6 240.559" fill="none" xmlns="http://www.w3.org/2000/svg">
<rect width="211.16" height="215.559" rx="20" transform="matrix(0.998864 0.0476502 -0.00731349 0.999973 109.603 100.546)" fill="#D13FBC" fill-opacity="0.21"/>
<path d="M109.43 120.999C109.511 109.954 118.521 101.427 129.554 101.953L300.52 110.109C311.553 110.635 320.432 120.016 320.351 131.061L319.067 306.616C318.986 317.661 309.977 326.189 298.943 325.663L127.977 317.507C116.944 316.98 108.066 307.6 108.146 296.554L109.43 120.999Z" fill="url(#paint0_linear_1280_1359)"/>
<path d="M112 306.772L112.39 306.403C116.507 312.579 123.396 316.821 131.225 317.194L296.089 325.059C308.807 325.666 319.193 315.836 319.286 303.104L320.525 133.658C320.574 126.944 317.752 120.765 313.209 116.333L313.561 116L327.277 130.491L326.896 130.851C330.761 135.166 333.107 140.848 333.062 146.975L331.823 316.421C331.73 329.154 321.344 338.983 308.626 338.377L143.762 330.512C136.523 330.167 130.089 326.515 125.906 321.084L125.716 321.264L112 306.772Z" fill="url(#paint1_linear_1280_1359)"/>
<path d="M216.5 187.895C212.743 187.895 209.024 188.635 205.553 190.072C202.083 191.51 198.929 193.617 196.273 196.273C193.617 198.929 191.51 202.083 190.072 205.553C188.634 209.024 187.895 212.744 187.895 216.5C187.895 220.257 188.634 223.976 190.072 227.447C191.51 230.917 193.617 234.071 196.273 236.727C198.929 239.383 202.083 241.49 205.553 242.928C209.024 244.365 212.743 245.105 216.5 245.105C224.087 245.105 231.362 242.092 236.727 236.727C242.092 231.363 245.105 224.087 245.105 216.5C245.105 208.913 242.092 201.638 236.727 196.273C231.362 190.908 224.087 187.895 216.5 187.895V187.895ZM196.707 216.5C196.707 211.251 198.792 206.216 202.504 202.504C206.216 198.792 211.251 196.707 216.5 196.707C221.749 196.707 226.784 198.792 230.496 202.504C234.207 206.216 236.293 211.251 236.293 216.5C236.293 221.749 234.207 226.784 230.496 230.496C226.784 234.208 221.749 236.293 216.5 236.293C211.251 236.293 206.216 234.208 202.504 230.496C198.792 226.784 196.707 221.749 196.707 216.5Z" fill="white"/>
<path d="M232.323 157.831C227.679 142.057 205.313 142.057 200.669 157.831L199.841 160.642C199.516 161.744 198.95 162.758 198.182 163.612C197.415 164.466 196.466 165.137 195.406 165.576C194.345 166.016 193.2 166.212 192.053 166.151C190.907 166.091 189.789 165.774 188.781 165.225L186.208 163.815C171.755 155.954 155.954 171.764 163.824 186.208L165.225 188.781C165.774 189.789 166.091 190.907 166.151 192.053C166.212 193.2 166.016 194.345 165.576 195.406C165.137 196.466 164.466 197.415 163.612 198.182C162.758 198.95 161.744 199.516 160.642 199.841L157.831 200.669C142.057 205.313 142.057 227.679 157.831 232.323L160.642 233.152C161.744 233.476 162.758 234.043 163.612 234.81C164.466 235.578 165.137 236.526 165.576 237.587C166.016 238.647 166.212 239.793 166.151 240.939C166.091 242.085 165.774 243.203 165.225 244.212L163.815 246.785C155.954 261.237 171.755 277.047 186.208 269.169L188.781 267.767C189.789 267.218 190.907 266.902 192.053 266.841C193.2 266.78 194.345 266.977 195.406 267.416C196.466 267.856 197.415 268.527 198.182 269.38C198.95 270.234 199.516 271.249 199.841 272.35L200.669 275.161C205.313 290.936 227.679 290.936 232.323 275.161L233.152 272.35C233.476 271.249 234.043 270.234 234.81 269.38C235.578 268.527 236.526 267.856 237.587 267.416C238.647 266.977 239.793 266.78 240.939 266.841C242.085 266.902 243.203 267.218 244.212 267.767L246.785 269.177C261.237 277.047 277.047 261.229 269.169 246.785L267.767 244.212C267.218 243.203 266.902 242.085 266.841 240.939C266.78 239.793 266.977 238.647 267.416 237.587C267.856 236.526 268.527 235.578 269.38 234.81C270.234 234.043 271.249 233.476 272.35 233.152L275.161 232.323C290.936 227.679 290.936 205.313 275.161 200.669L272.35 199.841C271.249 199.516 270.234 198.95 269.38 198.182C268.527 197.415 267.856 196.466 267.416 195.406C266.977 194.345 266.78 193.2 266.841 192.053C266.902 190.907 267.218 189.789 267.767 188.781L269.177 186.208C277.047 171.755 261.229 155.954 246.785 163.824L244.212 165.225C243.203 165.774 242.085 166.091 240.939 166.151C239.793 166.212 238.647 166.016 237.587 165.576C236.526 165.137 235.578 164.466 234.81 163.612C234.043 162.758 233.476 161.744 233.152 160.642L232.323 157.831V157.831ZM209.12 160.325C211.288 152.967 221.704 152.967 223.872 160.325L224.701 163.136C225.397 165.499 226.613 167.676 228.26 169.507C229.907 171.338 231.943 172.778 234.219 173.72C236.495 174.662 238.952 175.083 241.412 174.952C243.871 174.821 246.27 174.141 248.433 172.962L250.997 171.552C257.73 167.895 265.097 175.254 261.431 181.995L260.03 184.568C258.853 186.731 258.175 189.13 258.045 191.589C257.915 194.048 258.338 196.505 259.281 198.779C260.223 201.054 261.663 203.089 263.495 204.735C265.326 206.381 267.503 207.596 269.865 208.292L272.667 209.12C280.026 211.288 280.026 221.704 272.667 223.872L269.856 224.701C267.493 225.397 265.317 226.613 263.485 228.26C261.654 229.907 260.215 231.943 259.272 234.219C258.33 236.495 257.909 238.952 258.04 241.412C258.171 243.871 258.851 246.27 260.03 248.433L261.44 250.997C265.097 257.73 257.739 265.097 250.997 261.431L248.433 260.03C246.27 258.851 243.87 258.172 241.41 258.041C238.95 257.911 236.492 258.332 234.216 259.276C231.94 260.219 229.905 261.659 228.258 263.492C226.612 265.324 225.396 267.502 224.701 269.865L223.872 272.667C221.704 280.026 211.288 280.026 209.12 272.667L208.292 269.856C207.595 267.495 206.379 265.319 204.733 263.489C203.086 261.658 201.051 260.219 198.777 259.277C196.502 258.335 194.046 257.914 191.587 258.044C189.129 258.174 186.731 258.853 184.568 260.03L181.995 261.44C175.262 265.097 167.895 257.739 171.561 250.997L172.962 248.433C174.143 246.27 174.824 243.87 174.956 241.409C175.088 238.949 174.667 236.49 173.725 234.213C172.783 231.936 171.343 229.9 169.51 228.252C167.678 226.604 165.5 225.388 163.136 224.692L160.325 223.863C152.967 221.696 152.967 211.279 160.325 209.111L163.136 208.283C165.496 207.586 167.671 206.37 169.5 204.724C171.33 203.079 172.768 201.045 173.71 198.771C174.652 196.498 175.074 194.043 174.944 191.585C174.815 189.128 174.138 186.73 172.962 184.568L171.552 181.995C167.895 175.262 175.254 167.895 181.995 171.561L184.568 172.962C186.731 174.14 189.129 174.818 191.587 174.948C194.046 175.079 196.502 174.657 198.777 173.715C201.051 172.773 203.086 171.334 204.733 169.504C206.379 167.673 207.595 165.498 208.292 163.136L209.12 160.325V160.325Z" fill="white"/>
<defs>
<linearGradient id="paint0_linear_1280_1359" x1="109.577" y1="101" x2="323.486" y2="322.201" gradientUnits="userSpaceOnUse">
<stop stop-color="#7928CA"/>
<stop offset="1" stop-color="#FF0080"/>
</linearGradient>
<linearGradient id="paint1_linear_1280_1359" x1="112" y1="306.772" x2="384.883" y2="384.205" gradientUnits="userSpaceOnUse">
<stop stop-color="#FF0080"/>
<stop offset="1" stop-color="#7928CA"/>
</linearGradient>
</defs>
</svg>
