<svg width="211.16" height="215.559" viewBox="110 100 220.6 240.559" fill="none" xmlns="http://www.w3.org/2000/svg">
<rect width="211.16" height="215.559" rx="20" transform="matrix(0.997621 0.0689396 -0.0286357 0.99959 115.855 103.117)" fill="#D13FBC" fill-opacity="0.21"/>
<path d="M115.601 122.851C115.917 111.81 125.106 103.477 136.126 104.238L306.879 116.038C317.898 116.799 326.575 126.367 326.259 137.408L321.231 312.896C320.915 323.937 311.726 332.27 300.706 331.509L129.953 319.709C118.934 318.948 110.257 309.38 110.573 298.339L115.601 122.851Z" fill="url(#paint0_linear_1280_1357)"/>
<path d="M114 308.29L114.399 307.929C118.383 314.192 125.179 318.579 132.999 319.12L297.658 330.498C310.36 331.376 320.953 321.77 321.317 309.042L326.17 139.661C326.362 132.951 323.672 126.712 319.225 122.185L319.584 121.859L332.987 136.64L332.6 136.991C336.371 141.388 338.596 147.119 338.42 153.243L333.568 322.624C333.203 335.352 322.61 344.958 309.908 344.08L145.249 332.701C138.019 332.202 131.664 328.414 127.598 322.895L127.404 323.071L114 308.29Z" fill="url(#paint1_linear_1280_1357)"/>
<path d="M203.101 215.644L221.101 233.644L269.101 185.644" stroke="white" stroke-width="8" stroke-linecap="round" stroke-linejoin="round"/>
<path d="M269.1 221.644V257.644C269.1 260.827 267.836 263.879 265.586 266.129C263.335 268.38 260.283 269.644 257.1 269.644H185.101C181.918 269.644 178.866 268.38 176.615 266.129C174.365 263.879 173.101 260.827 173.101 257.644V185.644C173.101 182.462 174.365 179.409 176.615 177.159C178.866 174.909 181.918 173.644 185.101 173.644H239.101" stroke="white" stroke-width="8" stroke-linecap="round" stroke-linejoin="round"/>
<defs>
<linearGradient id="paint0_linear_1280_1357" x1="116.173" y1="102.859" x2="325.317" y2="328.572" gradientUnits="userSpaceOnUse">
<stop stop-color="#7928CA"/>
<stop offset="1" stop-color="#FF0080"/>
</linearGradient>
<linearGradient id="paint1_linear_1280_1357" x1="114" y1="308.29" x2="385.17" y2="391.524" gradientUnits="userSpaceOnUse">
<stop stop-color="#FF0080"/>
<stop offset="1" stop-color="#7928CA"/>
</linearGradient>
</defs>
</svg>
