<svg width="641" height="896" viewBox="0 0 641 896" fill="none" xmlns="http://www.w3.org/2000/svg">
<g clip-path="url(#clip0_718_1271)">
<path d="M198.651 -406.07L230.677 -348.231C262.704 -290.391 326.757 -174.712 349.951 -83.1221C372.744 8.23197 355.681 76.0879 288.546 114.424C221.411 152.759 106.207 162.755 55.3949 210.715C4.98369 258.91 19.9662 345.659 26.7369 427.567C33.9082 509.71 31.8663 586.422 -18.2445 634.795C-68.3553 683.167 -168.538 702.02 -243.184 735.927C-317.83 769.835 -368.942 817.617 -419.053 865.989C-469.163 914.362 -520.276 962.144 -570.386 1010.52C-620.497 1058.89 -671.609 1106.67 -713.508 1159.89C-755.808 1212.86 -789.896 1270.68 -815.772 1333.34C-842.048 1395.77 -859.112 1463.62 -860.853 1540.51C-862.194 1617.64 -847.212 1704.39 -848.553 1781.51C-850.294 1858.4 -867.358 1926.26 -860.887 2007.99C-854.417 2089.72 -822.41 2186.5 -865.01 2239.3C-907.61 2292.1 -1022.81 2302.1 -1057.2 2359.74C-1090.99 2417.74 -1043.96 2523.38 -1069.54 2586.22C-1095.11 2649.06 -1195.3 2667.91 -1253.62 2711.44C-1312.54 2754.62 -1329.6 2822.47 -1331.35 2899.36C-1332.69 2976.49 -1317.7 3063.24 -1327.26 3135.52C-1336.81 3207.8 -1370.9 3265.62 -1454.06 3294.51C-1537.21 3323.4 -1669.44 3323.36 -1760.81 3347.41C-1851.78 3371.69 -1902.89 3419.47 -1887.61 3506.4C-1872.93 3592.97 -1791.85 3718.69 -1793.59 3795.58C-1794.93 3872.7 -1878.09 3901.59 -1919.67 3916.04L-1961.25 3930.48L-2304.74 3727.97L-2287.7 3699.06C-2270.65 3670.15 -2236.57 3612.33 -2202.48 3554.51C-2168.39 3496.69 -2134.3 3438.88 -2100.22 3381.06C-2066.13 3323.24 -2032.04 3265.42 -1997.95 3207.6C-1963.86 3149.78 -1929.78 3091.96 -1895.69 3034.14C-1861.6 2976.32 -1827.51 2918.5 -1793.42 2860.68C-1759.34 2802.87 -1725.25 2745.05 -1691.16 2687.23C-1657.07 2629.41 -1622.99 2571.59 -1588.9 2513.77C-1554.81 2455.95 -1520.72 2398.13 -1486.63 2340.31C-1452.55 2282.49 -1418.46 2224.68 -1384.37 2166.86C-1350.28 2109.04 -1316.2 2051.22 -1282.11 1993.4C-1248.02 1935.58 -1213.93 1877.76 -1179.84 1819.94C-1145.76 1762.12 -1111.67 1704.3 -1077.58 1646.49C-1043.49 1588.67 -1009.41 1530.85 -975.317 1473.03C-941.229 1415.21 -907.142 1357.39 -873.054 1299.57C-838.966 1241.75 -804.878 1183.93 -770.79 1126.11C-736.703 1068.29 -702.615 1010.48 -668.527 952.657C-634.439 894.838 -600.351 837.019 -566.263 779.2C-532.176 721.381 -498.088 663.562 -464 605.743C-429.912 547.924 -395.824 490.105 -361.737 432.286C-327.649 374.466 -293.561 316.647 -259.473 258.828C-225.385 201.009 -191.297 143.19 -157.21 85.3713C-123.122 27.5523 -89.034 -30.2668 -54.9462 -88.0858C-20.8584 -145.905 13.2294 -203.724 47.3172 -261.543C81.4051 -319.362 115.493 -377.181 132.537 -406.09L149.581 -435L198.651 -406.07Z" fill="url(#paint0_linear_718_1271)" fill-opacity="0.73"/>
</g>
<defs>
<linearGradient id="paint0_linear_718_1271" x1="149.581" y1="-435" x2="631.865" y2="-150.665" gradientUnits="userSpaceOnUse">
<stop stop-color="#CE41A4"/>
<stop offset="1" stop-color="#EA007D"/>
</linearGradient>
<clipPath id="clip0_718_1271">
<rect width="1208.15" height="569.634" fill="white" transform="translate(640.284 -145.701) rotate(120.522)"/>
</clipPath>
</defs>
</svg>
