<svg width="90" height="90" viewBox="0 0 90 90" fill="none" xmlns="http://www.w3.org/2000/svg">
<g filter="url(#filter0_d_838_1649)">
<circle cx="43" cy="41" r="25" fill="#EE2A52"/>
</g>
<g clip-path="url(#clip0_838_1649)">
<path d="M39.4364 35.0095H37.6542C39.1393 33.7223 40.9215 33.0293 42.9017 33.0293C43.1988 33.0293 43.4958 33.0293 43.7928 33.1283C44.2879 33.2273 44.7829 32.8313 44.8819 32.2372C44.9809 31.7421 44.5849 31.2471 43.9908 31.1481C43.5948 31.0491 43.2978 31.0491 42.9017 31.0491C40.5255 31.0491 38.2483 31.9402 36.4661 33.4253V32.0392C36.4661 31.4451 36.07 31.0491 35.476 31.0491C34.8819 31.0491 34.4859 31.4451 34.4859 32.0392V35.9996C34.4859 36.5936 34.8819 36.9897 35.476 36.9897H39.4364C40.0304 36.9897 40.4265 36.5936 40.4265 35.9996C40.4265 35.4055 40.0304 35.0095 39.4364 35.0095ZM37.9512 43.4253C37.3572 43.4253 36.9611 43.8214 36.9611 44.4154V46.1976C35.674 44.7124 34.9809 42.9303 34.9809 40.9501C34.9809 40.653 34.9809 40.356 35.0799 40.059C35.179 39.5639 34.7829 39.0689 34.1889 38.9699C33.6938 38.8709 33.1988 39.2669 33.0997 39.861C33.0007 40.257 33.0007 40.554 33.0007 40.9501C33.0007 43.3263 33.8918 45.6035 35.377 47.3857H33.9908C33.3968 47.3857 33.0007 47.7817 33.0007 48.3758C33.0007 48.9699 33.3968 49.3659 33.9908 49.3659H37.9512C38.2483 49.3659 38.5453 49.1679 38.7433 48.9699C38.7433 48.8709 38.8423 48.7718 38.8423 48.6728C38.8423 48.5738 38.8423 48.5738 38.8423 48.4748V48.3758V44.4154C38.9413 43.8214 38.5453 43.4253 37.9512 43.4253ZM51.8126 34.5144C52.4067 34.5144 52.8027 34.1184 52.8027 33.5243C52.8027 32.9303 52.4067 32.5342 51.8126 32.5342H47.8522C47.7532 32.5342 47.7532 32.5342 47.6542 32.5342C47.5552 32.5342 47.4562 32.6332 47.3572 32.6332C47.2582 32.7322 47.1591 32.7322 47.1591 32.8313C47.1591 32.9303 47.0601 33.0293 47.0601 33.0293C47.0601 33.1283 47.0601 33.1283 47.0601 33.2273V33.3263V37.2867C47.0601 37.8808 47.4562 38.2768 48.0502 38.2768C48.6443 38.2768 49.0403 37.8808 49.0403 37.2867V35.7025C50.3275 37.0887 51.0205 38.9699 51.0205 40.9501C51.0205 41.2471 51.0205 41.5441 50.9215 41.8412C50.8225 42.3362 51.2186 42.8313 51.8126 42.9303H51.9116C52.4067 42.9303 52.8027 42.5342 52.9017 42.0392C52.9017 41.6431 53.0007 41.3461 53.0007 40.9501C53.0007 38.5738 52.1096 36.2966 50.6245 34.5144H51.8126ZM51.1195 45.4055C51.0205 45.3065 50.9215 45.2075 50.8225 45.1085C50.7235 45.0095 50.6245 45.0095 50.5255 45.0095H50.4265H50.3275H46.3671C45.773 45.0095 45.377 45.4055 45.377 45.9996C45.377 46.5936 45.773 46.9897 46.3671 46.9897H48.1492C46.7631 48.2768 44.8819 48.9699 42.9017 48.9699C42.6047 48.9699 42.3077 48.9699 42.0106 48.8709C41.5156 48.7718 41.0205 49.1679 40.9215 49.7619C40.8225 50.356 41.2186 50.752 41.8126 50.8511C42.2087 50.8511 42.5057 50.9501 42.9017 50.9501C45.278 50.9501 47.5552 50.059 49.3374 48.5738V49.861C49.3374 50.455 49.7334 50.8511 50.3275 50.8511C50.9215 50.8511 51.3176 50.455 51.3176 49.861V45.9006C51.3176 45.7025 51.2186 45.5045 51.1195 45.4055Z" fill="white"/>
</g>
<defs>
<filter id="filter0_d_838_1649" x="0" y="0" width="90" height="90" filterUnits="userSpaceOnUse" color-interpolation-filters="sRGB">
<feFlood flood-opacity="0" result="BackgroundImageFix"/>
<feColorMatrix in="SourceAlpha" type="matrix" values="0 0 0 0 0 0 0 0 0 0 0 0 0 0 0 0 0 0 127 0" result="hardAlpha"/>
<feOffset dx="2" dy="4"/>
<feGaussianBlur stdDeviation="10"/>
<feColorMatrix type="matrix" values="0 0 0 0 1 0 0 0 0 0.313726 0 0 0 0 0.298039 0 0 0 0.2 0"/>
<feBlend mode="normal" in2="BackgroundImageFix" result="effect1_dropShadow_838_1649"/>
<feBlend mode="normal" in="SourceGraphic" in2="effect1_dropShadow_838_1649" result="shape"/>
</filter>
<clipPath id="clip0_838_1649">
<rect width="20" height="20" fill="white" transform="translate(33 31)"/>
</clipPath>
</defs>
</svg>
