<svg width="200" height="200" viewBox="0 0 200 200" fill="none" xmlns="http://www.w3.org/2000/svg">
<circle cx="100" cy="100" r="100" fill="#D13FBC" fill-opacity="0.21"/>
<path d="M117.554 97.5586L123.896 103.906L115.993 111.816C115.408 112.402 115.408 112.988 115.993 113.574L117.652 115.234C118.237 115.82 118.823 115.82 119.408 115.234L127.31 107.324L139.506 119.531L131.603 127.441C131.018 128.027 131.018 128.581 131.603 129.102L133.262 130.859C133.847 131.445 134.432 131.445 135.018 130.859L142.92 122.949L149.067 129.102C149.652 129.688 149.945 130.404 149.945 131.25C149.945 132.096 149.652 132.845 149.067 133.496L133.457 149.121C132.806 149.707 132.058 150 131.213 150C130.367 150 129.652 149.707 129.066 149.121L97.5543 117.578L79.2128 135.938C78.1721 136.979 76.9038 137.5 75.4079 137.5C73.9119 137.5 72.6436 136.979 71.603 135.938L64.1884 128.418C63.1477 127.376 62.6274 126.123 62.6274 124.658C62.6274 123.193 63.1477 121.94 64.1884 120.898L82.5298 102.539L50.92 70.8984C50.3347 70.3125 50.042 69.5964 50.042 68.75C50.042 67.9036 50.3347 67.1875 50.92 66.6016L66.5298 50.8789C67.1802 50.293 67.9282 50 68.7737 50C69.6193 50 70.3347 50.293 70.9201 50.8789L77.0664 57.0312L69.164 64.9414C68.5786 65.5273 68.5786 66.1133 69.164 66.6992L70.8225 68.3594C71.4079 68.9453 71.9932 68.9453 72.5786 68.3594L80.4811 60.4492L92.6762 72.6562L84.7737 80.5664C84.1884 81.1523 84.1884 81.7383 84.7737 82.3242L86.4323 83.9844C87.0177 84.5703 87.603 84.5703 88.1884 83.9844L96.0908 76.0742L102.432 82.5195L133.359 51.5625C134.4 50.5208 135.652 50 137.115 50C138.579 50 139.831 50.5208 140.871 51.5625L148.384 59.082C149.424 60.1237 149.945 61.377 149.945 62.8418C149.945 64.3066 149.424 65.5599 148.384 66.6016L117.554 97.5586ZM56.481 128.906C56.6111 129.427 56.8387 129.85 57.164 130.176L69.8469 142.871C70.1721 143.197 70.5949 143.424 71.1152 143.555C70.79 144.206 70.5298 144.596 70.3347 144.727L53.1639 150C51.603 150 50.6924 149.87 50.4322 149.609C50.1721 149.349 50.042 148.438 50.042 146.875L55.3103 129.688C55.4404 129.557 55.8306 129.297 56.481 128.906Z" fill="url(#paint0_linear_1187_1206)"/>
<defs>
<linearGradient id="paint0_linear_1187_1206" x1="50.042" y1="50" x2="150.042" y2="149.903" gradientUnits="userSpaceOnUse">
<stop stop-color="#FF0080"/>
<stop offset="1" stop-color="#7928CA"/>
</linearGradient>
</defs>
</svg>
