<svg width="200" height="200" viewBox="0 0 200 200" fill="none" xmlns="http://www.w3.org/2000/svg">
<path d="M200 100C200 155.228 155.228 200 100 200C44.7715 200 0 155.228 0 100C0 44.7715 44.7715 0 100 0C155.228 0 200 44.7715 200 100Z" fill="#D13FBC" fill-opacity="0.21"/>
<path d="M142.016 48.125H59.9844C57.0547 48.125 54.125 51.0547 54.125 53.9844V119.903C54.125 122.833 57.0547 125.762 59.9844 125.762H89.2812V131.622C89.2812 135.691 84.0031 137.481 77.5625 137.481V141.875H124.438V137.48C117.995 137.48 112.719 135.689 112.719 131.62V125.761H142.016C144.945 125.761 147.875 122.831 147.875 119.902V53.9844C147.875 51.0547 144.945 48.125 142.016 48.125ZM144.75 119.903C144.75 121.105 143.216 122.637 142.016 122.637H59.9844C58.7828 122.637 57.25 121.105 57.25 119.903V114.044H144.75V119.903Z" fill="url(#paint0_linear_402_3142)"/>
<path d="M101 121.369C101.809 121.369 102.465 120.713 102.465 119.903C102.465 119.094 101.809 118.438 101 118.438C100.19 118.438 99.5342 119.094 99.5342 119.903C99.5342 120.713 100.19 121.369 101 121.369Z" fill="black"/>
<path d="M80.8307 96.9531H112.732M76.2734 69.6094H117.289H76.2734ZM85.388 83.2812H108.174H85.388Z" stroke="white" stroke-width="2" stroke-linecap="round"/>
<g clip-path="url(#clip0_402_3142)">
<path d="M60.8276 108.21C60.0009 105.407 56.0291 105.407 55.2024 108.21L55.0022 108.891C54.8786 109.31 54.6628 109.697 54.3704 110.022C54.078 110.348 53.7165 110.603 53.3124 110.771C52.9083 110.938 52.4719 111.013 52.0351 110.99C51.5983 110.966 51.1723 110.846 50.7882 110.636L50.1676 110.296C47.5992 108.899 44.7906 111.707 46.1899 114.274L46.5282 114.896C47.4211 116.538 46.5743 118.582 44.7826 119.11L44.102 119.311C41.2993 120.137 41.2993 124.109 44.102 124.936L44.7826 125.136C45.2022 125.26 45.5888 125.475 45.9141 125.768C46.2394 126.06 46.4951 126.422 46.6625 126.826C46.8299 127.23 46.9047 127.666 46.8815 128.103C46.8583 128.54 46.7376 128.966 46.5282 129.35L46.1879 129.971C44.7906 132.539 47.5992 135.348 50.1656 133.948L50.7882 133.61C51.1723 133.401 51.5983 133.28 52.0351 133.257C52.4719 133.233 52.9083 133.308 53.3124 133.476C53.7165 133.643 54.078 133.899 54.3704 134.224C54.6628 134.549 54.8786 134.936 55.0022 135.356L55.2024 136.036C56.0291 138.839 60.0009 138.839 60.8276 136.036L61.0278 135.356C61.1514 134.936 61.3672 134.549 61.6596 134.224C61.952 133.899 62.3135 133.643 62.7176 133.476C63.1217 133.308 63.5581 133.233 63.9949 133.257C64.4317 133.28 64.8577 133.401 65.2418 133.61L65.8623 133.95C68.4308 135.348 71.2394 132.539 69.8401 129.973L69.5018 129.35C69.2924 128.966 69.1717 128.54 69.1485 128.103C69.1253 127.666 69.2001 127.23 69.3675 126.826C69.5349 126.422 69.7906 126.06 70.1159 125.768C70.4412 125.475 70.8278 125.26 71.2474 125.136L71.928 124.936C74.7307 124.109 74.7307 120.137 71.928 119.311L71.2474 119.11C70.8278 118.987 70.4412 118.771 70.1159 118.479C69.7906 118.186 69.5349 117.825 69.3675 117.421C69.2001 117.016 69.1253 116.58 69.1485 116.143C69.1717 115.706 69.2924 115.28 69.5018 114.896L69.8421 114.276C71.2394 111.707 68.4308 108.899 65.8643 110.298L65.2418 110.636C64.8577 110.846 64.4317 110.966 63.9949 110.99C63.5581 111.013 63.1217 110.938 62.7176 110.771C62.3135 110.603 61.952 110.348 61.6596 110.022C61.3672 109.697 61.1514 109.31 61.0278 108.891L60.8276 108.21ZM58.015 127.989C56.4594 127.989 54.9675 127.371 53.8675 126.271C52.7675 125.171 52.1495 123.679 52.1495 122.123C52.1495 120.568 52.7675 119.076 53.8675 117.976C54.9675 116.876 56.4594 116.258 58.015 116.258C59.5701 116.258 61.0615 116.875 62.1611 117.975C63.2607 119.075 63.8785 120.566 63.8785 122.121C63.8785 123.676 63.2607 125.168 62.1611 126.267C61.0615 127.367 59.5701 127.985 58.015 127.985V127.989Z" fill="#D03FFF"/>
</g>
<path d="M165.865 50.1013C165.865 61.203 155.579 70.2027 142.892 70.2027C140.617 70.2058 138.351 69.9103 136.152 69.324C134.475 70.174 130.624 71.8051 124.146 72.8676C123.572 72.9595 123.135 72.3622 123.362 71.828C124.379 69.4274 125.297 66.2284 125.573 63.3108C122.055 59.7787 119.919 55.1554 119.919 50.1013C119.919 38.9997 130.205 30 142.892 30C155.579 30 165.865 38.9997 165.865 50.1013Z" fill="#D03FFF"/>
<path d="M145.836 43.1062C145.456 43.4863 145.243 44.0015 145.243 44.5387C145.243 45.0758 145.456 45.591 145.836 45.9711L149.809 49.9441L145.836 53.9171C145.637 54.1026 145.477 54.3264 145.366 54.5751C145.255 54.8237 145.196 55.0921 145.191 55.3643C145.186 55.6365 145.236 55.9068 145.338 56.1592C145.44 56.4116 145.592 56.6409 145.784 56.8334C145.977 57.0259 146.206 57.1776 146.459 57.2796C146.711 57.3815 146.981 57.4316 147.253 57.4268C147.526 57.422 147.794 57.3624 148.043 57.2516C148.291 57.1408 148.515 56.9811 148.701 56.7819L154.106 51.3765C154.486 50.9964 154.699 50.4812 154.699 49.9441C154.699 49.4069 154.486 48.8917 154.106 48.5116L148.701 43.1062C148.321 42.7266 147.805 42.5134 147.268 42.5134C146.731 42.5134 146.216 42.7266 145.836 43.1062ZM140.593 45.9711C140.951 45.5868 141.146 45.0786 141.136 44.5535C141.127 44.0283 140.914 43.5273 140.543 43.1559C140.172 42.7845 139.67 42.5718 139.145 42.5625C138.62 42.5533 138.112 42.7482 137.728 43.1062L132.322 48.5116C131.943 48.8917 131.729 49.4069 131.729 49.9441C131.729 50.4812 131.943 50.9964 132.322 51.3765L137.728 56.7819C137.913 56.9811 138.137 57.1408 138.386 57.2516C138.634 57.3624 138.903 57.422 139.175 57.4268C139.447 57.4316 139.717 57.3815 139.97 57.2796C140.222 57.1776 140.452 57.0259 140.644 56.8334C140.837 56.6409 140.988 56.4116 141.09 56.1592C141.192 55.9068 141.242 55.6365 141.237 55.3643C141.233 55.0921 141.173 54.8237 141.062 54.5751C140.951 54.3264 140.792 54.1026 140.593 53.9171L136.62 49.9441L140.593 45.9711Z" fill="#F7F7F7"/>
<defs>
<linearGradient id="paint0_linear_402_3142" x1="54.125" y1="48.125" x2="147.875" y2="141.875" gradientUnits="userSpaceOnUse">
<stop stop-color="#FF0080"/>
<stop offset="1" stop-color="#7928CA"/>
</linearGradient>
<clipPath id="clip0_402_3142">
<rect width="32.03" height="32.03" fill="white" transform="translate(42 106.108)"/>
</clipPath>
</defs>
</svg>
