<svg width="428" height="238" viewBox="0 0 428 238" fill="none" xmlns="http://www.w3.org/2000/svg">
<g filter="url(#filter0_d_402_3328)">
<rect x="68" y="52" width="292" height="102" rx="10" fill="white"/>
</g>
<path d="M145.364 87H140.435V72.4545H145.463C146.907 72.4545 148.148 72.7457 149.185 73.3281C150.226 73.9058 151.027 74.7367 151.585 75.821C152.144 76.9053 152.423 78.2027 152.423 79.7131C152.423 81.2282 152.142 82.5303 151.578 83.6193C151.019 84.7083 150.212 85.544 149.156 86.1264C148.105 86.7088 146.841 87 145.364 87ZM143.07 84.7202H145.236C146.249 84.7202 147.094 84.5355 147.771 84.1662C148.448 83.7921 148.957 83.2358 149.298 82.4972C149.639 81.7538 149.81 80.8258 149.81 79.7131C149.81 78.6004 149.639 77.6771 149.298 76.9432C148.957 76.2045 148.453 75.6529 147.786 75.2884C147.123 74.919 146.299 74.7344 145.314 74.7344H143.07V84.7202ZM159.643 87.2131C158.549 87.2131 157.604 86.9858 156.809 86.5312C156.018 86.072 155.41 85.4233 154.984 84.5852C154.558 83.7424 154.344 82.7505 154.344 81.6094C154.344 80.4872 154.558 79.5024 154.984 78.6548C155.415 77.8026 156.016 77.1397 156.788 76.6662C157.559 76.188 158.466 75.9489 159.508 75.9489C160.18 75.9489 160.815 76.0578 161.411 76.2756C162.013 76.4886 162.543 76.8201 163.002 77.2699C163.466 77.7197 163.831 78.2926 164.096 78.9886C164.361 79.6799 164.494 80.5038 164.494 81.4602V82.2486H155.552V80.5156H162.029C162.024 80.0232 161.918 79.5852 161.71 79.2017C161.501 78.8134 161.21 78.508 160.836 78.2855C160.467 78.063 160.036 77.9517 159.543 77.9517C159.018 77.9517 158.556 78.0795 158.158 78.3352C157.761 78.5862 157.451 78.9176 157.228 79.3295C157.01 79.7367 156.899 80.1842 156.894 80.6719V82.1847C156.894 82.8191 157.01 83.3636 157.242 83.8182C157.474 84.268 157.799 84.6136 158.215 84.8551C158.632 85.0919 159.12 85.2102 159.678 85.2102C160.052 85.2102 160.391 85.1581 160.694 85.054C160.997 84.9451 161.26 84.7865 161.482 84.5781C161.705 84.3698 161.873 84.1117 161.987 83.804L164.387 84.0739C164.236 84.7083 163.947 85.2623 163.521 85.7358C163.099 86.2045 162.559 86.5691 161.901 86.8295C161.243 87.0852 160.49 87.2131 159.643 87.2131ZM176.1 76.0909L172.216 87H169.375L165.49 76.0909H168.231L170.738 84.1946H170.852L173.366 76.0909H176.1ZM182.338 87.2131C181.244 87.2131 180.3 86.9858 179.504 86.5312C178.714 86.072 178.105 85.4233 177.679 84.5852C177.253 83.7424 177.04 82.7505 177.04 81.6094C177.04 80.4872 177.253 79.5024 177.679 78.6548C178.11 77.8026 178.711 77.1397 179.483 76.6662C180.255 76.188 181.161 75.9489 182.203 75.9489C182.875 75.9489 183.51 76.0578 184.107 76.2756C184.708 76.4886 185.238 76.8201 185.697 77.2699C186.161 77.7197 186.526 78.2926 186.791 78.9886C187.056 79.6799 187.189 80.5038 187.189 81.4602V82.2486H178.247V80.5156H184.724C184.72 80.0232 184.613 79.5852 184.405 79.2017C184.196 78.8134 183.905 78.508 183.531 78.2855C183.162 78.063 182.731 77.9517 182.239 77.9517C181.713 77.9517 181.251 78.0795 180.854 78.3352C180.456 78.5862 180.146 78.9176 179.923 79.3295C179.705 79.7367 179.594 80.1842 179.589 80.6719V82.1847C179.589 82.8191 179.705 83.3636 179.938 83.8182C180.17 84.268 180.494 84.6136 180.911 84.8551C181.327 85.0919 181.815 85.2102 182.374 85.2102C182.748 85.2102 183.086 85.1581 183.389 85.054C183.692 84.9451 183.955 84.7865 184.178 84.5781C184.4 84.3698 184.568 84.1117 184.682 83.804L187.082 84.0739C186.931 84.7083 186.642 85.2623 186.216 85.7358C185.795 86.2045 185.255 86.5691 184.597 86.8295C183.938 87.0852 183.186 87.2131 182.338 87.2131ZM191.935 72.4545V87H189.364V72.4545H191.935ZM199.337 87.2131C198.272 87.2131 197.349 86.9787 196.567 86.5099C195.786 86.0412 195.18 85.3854 194.749 84.5426C194.323 83.6998 194.11 82.715 194.11 81.5881C194.11 80.4612 194.323 79.474 194.749 78.6264C195.18 77.7789 195.786 77.1207 196.567 76.652C197.349 76.1832 198.272 75.9489 199.337 75.9489C200.403 75.9489 201.326 76.1832 202.107 76.652C202.888 77.1207 203.492 77.7789 203.918 78.6264C204.349 79.474 204.565 80.4612 204.565 81.5881C204.565 82.715 204.349 83.6998 203.918 84.5426C203.492 85.3854 202.888 86.0412 202.107 86.5099C201.326 86.9787 200.403 87.2131 199.337 87.2131ZM199.352 85.1534C199.929 85.1534 200.412 84.9948 200.8 84.6776C201.189 84.3556 201.478 83.9247 201.667 83.3849C201.861 82.8452 201.958 82.2438 201.958 81.581C201.958 80.9134 201.861 80.3097 201.667 79.7699C201.478 79.2254 201.189 78.7921 200.8 78.4702C200.412 78.1482 199.929 77.9872 199.352 77.9872C198.76 77.9872 198.267 78.1482 197.874 78.4702C197.486 78.7921 197.195 79.2254 197.001 79.7699C196.811 80.3097 196.717 80.9134 196.717 81.581C196.717 82.2438 196.811 82.8452 197.001 83.3849C197.195 83.9247 197.486 84.3556 197.874 84.6776C198.267 84.9948 198.76 85.1534 199.352 85.1534ZM206.747 91.0909V76.0909H209.275V77.8949H209.424C209.557 77.6297 209.744 77.348 209.985 77.0497C210.227 76.7467 210.554 76.4886 210.966 76.2756C211.377 76.0578 211.903 75.9489 212.542 75.9489C213.385 75.9489 214.145 76.1643 214.822 76.5952C215.504 77.0213 216.044 77.6534 216.441 78.4915C216.844 79.3248 217.045 80.3475 217.045 81.5597C217.045 82.7576 216.849 83.7756 216.456 84.6136C216.063 85.4517 215.528 86.0909 214.85 86.5312C214.173 86.9716 213.406 87.1918 212.549 87.1918C211.924 87.1918 211.406 87.0876 210.994 86.8793C210.582 86.6709 210.251 86.42 210 86.1264C209.753 85.8281 209.562 85.5464 209.424 85.2812H209.318V91.0909H206.747ZM209.268 81.5455C209.268 82.2509 209.368 82.8688 209.566 83.3991C209.77 83.9295 210.061 84.3437 210.44 84.642C210.824 84.9356 211.288 85.0824 211.832 85.0824C212.4 85.0824 212.876 84.9309 213.26 84.6278C213.643 84.3201 213.932 83.901 214.126 83.3707C214.325 82.8357 214.424 82.2273 214.424 81.5455C214.424 80.8684 214.327 80.267 214.133 79.7415C213.939 79.2159 213.65 78.804 213.267 78.5057C212.883 78.2074 212.405 78.0582 211.832 78.0582C211.283 78.0582 210.816 78.2027 210.433 78.4915C210.049 78.7803 209.758 79.1851 209.559 79.706C209.365 80.2268 209.268 80.84 209.268 81.5455ZM224.076 87.2131C222.983 87.2131 222.038 86.9858 221.243 86.5312C220.452 86.072 219.843 85.4233 219.417 84.5852C218.991 83.7424 218.778 82.7505 218.778 81.6094C218.778 80.4872 218.991 79.5024 219.417 78.6548C219.848 77.8026 220.449 77.1397 221.221 76.6662C221.993 76.188 222.9 75.9489 223.941 75.9489C224.614 75.9489 225.248 76.0578 225.845 76.2756C226.446 76.4886 226.976 76.8201 227.436 77.2699C227.9 77.7197 228.264 78.2926 228.529 78.9886C228.795 79.6799 228.927 80.5038 228.927 81.4602V82.2486H219.985V80.5156H226.463C226.458 80.0232 226.351 79.5852 226.143 79.2017C225.935 78.8134 225.644 78.508 225.27 78.2855C224.9 78.063 224.469 77.9517 223.977 77.9517C223.451 77.9517 222.99 78.0795 222.592 78.3352C222.194 78.5862 221.884 78.9176 221.662 79.3295C221.444 79.7367 221.333 80.1842 221.328 80.6719V82.1847C221.328 82.8191 221.444 83.3636 221.676 83.8182C221.908 84.268 222.232 84.6136 222.649 84.8551C223.065 85.0919 223.553 85.2102 224.112 85.2102C224.486 85.2102 224.824 85.1581 225.127 85.054C225.431 84.9451 225.693 84.7865 225.916 84.5781C226.138 84.3698 226.306 84.1117 226.42 83.804L228.821 84.0739C228.669 84.7083 228.38 85.2623 227.954 85.7358C227.533 86.2045 226.993 86.5691 226.335 86.8295C225.677 87.0852 224.924 87.2131 224.076 87.2131ZM231.102 87V76.0909H233.56V77.9446H233.688C233.915 77.3196 234.291 76.8319 234.817 76.4815C235.342 76.1264 235.97 75.9489 236.699 75.9489C237.438 75.9489 238.06 76.1288 238.567 76.4886C239.078 76.8437 239.438 77.3291 239.646 77.9446H239.76C240.001 77.3385 240.409 76.8556 240.982 76.4957C241.559 76.1312 242.243 75.9489 243.034 75.9489C244.038 75.9489 244.857 76.2661 245.491 76.9006C246.126 77.535 246.443 78.4607 246.443 79.6776V87H243.865V80.0753C243.865 79.3982 243.685 78.9034 243.325 78.5909C242.965 78.2737 242.525 78.1151 242.004 78.1151C241.384 78.1151 240.899 78.3092 240.548 78.6974C240.203 79.081 240.03 79.5805 240.03 80.196V87H237.509V79.9688C237.509 79.4053 237.338 78.9555 236.997 78.6193C236.661 78.2831 236.221 78.1151 235.676 78.1151C235.307 78.1151 234.971 78.2098 234.668 78.3991C234.365 78.5838 234.123 78.8466 233.943 79.1875C233.763 79.5237 233.673 79.9167 233.673 80.3665V87H231.102ZM253.881 87.2131C252.787 87.2131 251.843 86.9858 251.047 86.5312C250.257 86.072 249.648 85.4233 249.222 84.5852C248.796 83.7424 248.583 82.7505 248.583 81.6094C248.583 80.4872 248.796 79.5024 249.222 78.6548C249.653 77.8026 250.254 77.1397 251.026 76.6662C251.798 76.188 252.704 75.9489 253.746 75.9489C254.418 75.9489 255.053 76.0578 255.65 76.2756C256.251 76.4886 256.781 76.8201 257.24 77.2699C257.704 77.7197 258.069 78.2926 258.334 78.9886C258.599 79.6799 258.732 80.5038 258.732 81.4602V82.2486H249.79V80.5156H256.267C256.263 80.0232 256.156 79.5852 255.948 79.2017C255.739 78.8134 255.448 78.508 255.074 78.2855C254.705 78.063 254.274 77.9517 253.782 77.9517C253.256 77.9517 252.794 78.0795 252.397 78.3352C251.999 78.5862 251.689 78.9176 251.466 79.3295C251.248 79.7367 251.137 80.1842 251.132 80.6719V82.1847C251.132 82.8191 251.248 83.3636 251.48 83.8182C251.712 84.268 252.037 84.6136 252.453 84.8551C252.87 85.0919 253.358 85.2102 253.917 85.2102C254.291 85.2102 254.629 85.1581 254.932 85.054C255.235 84.9451 255.498 84.7865 255.721 84.5781C255.943 84.3698 256.111 84.1117 256.225 83.804L258.625 84.0739C258.474 84.7083 258.185 85.2623 257.759 85.7358C257.337 86.2045 256.798 86.5691 256.14 86.8295C255.481 87.0852 254.729 87.2131 253.881 87.2131ZM263.478 80.608V87H260.907V76.0909H263.364V77.9446H263.492C263.743 77.3338 264.143 76.8485 264.692 76.4886C265.246 76.1288 265.931 75.9489 266.745 75.9489C267.498 75.9489 268.154 76.1098 268.712 76.4318C269.276 76.7538 269.711 77.2202 270.019 77.831C270.332 78.4418 270.486 79.1828 270.481 80.054V87H267.91V80.4517C267.91 79.7225 267.72 79.152 267.342 78.7401C266.968 78.3281 266.449 78.1222 265.786 78.1222C265.336 78.1222 264.936 78.2216 264.586 78.4205C264.24 78.6146 263.968 78.8963 263.769 79.2656C263.575 79.6349 263.478 80.0824 263.478 80.608ZM278.542 76.0909V78.0795H272.271V76.0909H278.542ZM273.819 73.4773H276.39V83.7188C276.39 84.0644 276.442 84.3295 276.546 84.5142C276.655 84.6941 276.797 84.8172 276.972 84.8835C277.147 84.9498 277.342 84.983 277.555 84.983C277.716 84.983 277.862 84.9711 277.995 84.9474C278.132 84.9238 278.237 84.9025 278.308 84.8835L278.741 86.8935C278.603 86.9408 278.407 86.9929 278.151 87.0497C277.9 87.1065 277.593 87.1397 277.228 87.1491C276.584 87.1681 276.004 87.071 275.488 86.858C274.972 86.6402 274.562 86.304 274.259 85.8494C273.961 85.3949 273.814 84.8267 273.819 84.1449V73.4773Z" fill="#03009B" fill-opacity="0.93"/>
<path d="M93.5904 100.818H95.0023L97.8262 105.571H97.9455L100.769 100.818H102.181L98.5023 106.804V111H97.2694V106.804L93.5904 100.818ZM105.639 111.159C104.95 111.159 104.345 110.995 103.824 110.667C103.307 110.339 102.903 109.88 102.611 109.29C102.323 108.7 102.179 108.01 102.179 107.222C102.179 106.426 102.323 105.732 102.611 105.138C102.903 104.545 103.307 104.085 103.824 103.756C104.345 103.428 104.95 103.264 105.639 103.264C106.328 103.264 106.932 103.428 107.449 103.756C107.969 104.085 108.373 104.545 108.662 105.138C108.953 105.732 109.099 106.426 109.099 107.222C109.099 108.01 108.953 108.7 108.662 109.29C108.373 109.88 107.969 110.339 107.449 110.667C106.932 110.995 106.328 111.159 105.639 111.159ZM105.639 110.105C106.163 110.105 106.594 109.971 106.932 109.702C107.27 109.434 107.52 109.081 107.682 108.643C107.845 108.206 107.926 107.732 107.926 107.222C107.926 106.711 107.845 106.236 107.682 105.795C107.52 105.354 107.27 104.998 106.932 104.726C106.594 104.454 106.163 104.318 105.639 104.318C105.115 104.318 104.684 104.454 104.346 104.726C104.008 104.998 103.758 105.354 103.596 105.795C103.433 106.236 103.352 106.711 103.352 107.222C103.352 107.732 103.433 108.206 103.596 108.643C103.758 109.081 104.008 109.434 104.346 109.702C104.684 109.971 105.115 110.105 105.639 110.105ZM115.703 107.878V103.364H116.876V111H115.703V109.707H115.623C115.444 110.095 115.166 110.425 114.788 110.697C114.41 110.965 113.933 111.099 113.356 111.099C112.879 111.099 112.455 110.995 112.083 110.786C111.712 110.574 111.421 110.256 111.208 109.832C110.996 109.404 110.89 108.866 110.89 108.216V103.364H112.064V108.136C112.064 108.693 112.219 109.137 112.531 109.469C112.846 109.8 113.247 109.966 113.734 109.966C114.026 109.966 114.322 109.891 114.624 109.742C114.929 109.593 115.184 109.364 115.39 109.056C115.598 108.748 115.703 108.355 115.703 107.878ZM124.136 106.406V111H122.963V103.364H124.096V104.557H124.195C124.374 104.169 124.646 103.857 125.011 103.622C125.375 103.384 125.846 103.264 126.423 103.264C126.94 103.264 127.392 103.37 127.78 103.582C128.168 103.791 128.469 104.109 128.685 104.537C128.9 104.961 129.008 105.498 129.008 106.148V111H127.835V106.227C127.835 105.627 127.679 105.16 127.367 104.825C127.056 104.487 126.628 104.318 126.085 104.318C125.71 104.318 125.375 104.399 125.08 104.562C124.789 104.724 124.558 104.961 124.389 105.273C124.22 105.584 124.136 105.962 124.136 106.406ZM134.354 111.159C133.618 111.159 132.983 110.997 132.45 110.672C131.919 110.344 131.51 109.886 131.222 109.3C130.937 108.71 130.794 108.024 130.794 107.241C130.794 106.459 130.937 105.77 131.222 105.173C131.51 104.573 131.911 104.106 132.425 103.771C132.942 103.433 133.545 103.264 134.234 103.264C134.632 103.264 135.025 103.33 135.413 103.463C135.8 103.596 136.153 103.811 136.472 104.109C136.79 104.404 137.043 104.795 137.232 105.283C137.421 105.77 137.516 106.37 137.516 107.082V107.58H131.629V106.565H136.322C136.322 106.134 136.236 105.75 136.064 105.412C135.895 105.074 135.653 104.807 135.338 104.612C135.027 104.416 134.659 104.318 134.234 104.318C133.767 104.318 133.363 104.434 133.021 104.666C132.683 104.895 132.423 105.193 132.241 105.561C132.058 105.929 131.967 106.323 131.967 106.744V107.42C131.967 107.997 132.067 108.486 132.266 108.887C132.468 109.285 132.748 109.588 133.106 109.797C133.464 110.002 133.88 110.105 134.354 110.105C134.662 110.105 134.94 110.062 135.189 109.976C135.441 109.886 135.658 109.754 135.84 109.578C136.022 109.399 136.163 109.177 136.263 108.912L137.396 109.23C137.277 109.615 137.076 109.953 136.795 110.244C136.513 110.533 136.165 110.758 135.751 110.92C135.336 111.08 134.871 111.159 134.354 111.159ZM142.502 111.159C141.766 111.159 141.132 110.997 140.598 110.672C140.068 110.344 139.658 109.886 139.37 109.3C139.085 108.71 138.942 108.024 138.942 107.241C138.942 106.459 139.085 105.77 139.37 105.173C139.658 104.573 140.059 104.106 140.573 103.771C141.09 103.433 141.693 103.264 142.383 103.264C142.781 103.264 143.173 103.33 143.561 103.463C143.949 103.596 144.302 103.811 144.62 104.109C144.938 104.404 145.192 104.795 145.381 105.283C145.57 105.77 145.664 106.37 145.664 107.082V107.58H139.778V106.565H144.471C144.471 106.134 144.385 105.75 144.212 105.412C144.043 105.074 143.801 104.807 143.487 104.612C143.175 104.416 142.807 104.318 142.383 104.318C141.915 104.318 141.511 104.434 141.17 104.666C140.832 104.895 140.571 105.193 140.389 105.561C140.207 105.929 140.116 106.323 140.116 106.744V107.42C140.116 107.997 140.215 108.486 140.414 108.887C140.616 109.285 140.896 109.588 141.254 109.797C141.612 110.002 142.028 110.105 142.502 110.105C142.81 110.105 143.089 110.062 143.337 109.976C143.589 109.886 143.806 109.754 143.989 109.578C144.171 109.399 144.312 109.177 144.411 108.912L145.545 109.23C145.425 109.615 145.225 109.953 144.943 110.244C144.661 110.533 144.313 110.758 143.899 110.92C143.485 111.08 143.019 111.159 142.502 111.159ZM150.332 111.159C149.696 111.159 149.134 110.998 148.647 110.677C148.16 110.352 147.779 109.895 147.504 109.305C147.228 108.711 147.091 108.01 147.091 107.202C147.091 106.4 147.228 105.704 147.504 105.114C147.779 104.524 148.161 104.068 148.652 103.746C149.143 103.425 149.709 103.264 150.352 103.264C150.849 103.264 151.242 103.347 151.531 103.513C151.822 103.675 152.044 103.861 152.197 104.07C152.353 104.275 152.473 104.444 152.56 104.577H152.659V100.818H153.832V111H152.699V109.827H152.56C152.473 109.966 152.351 110.142 152.192 110.354C152.033 110.562 151.806 110.75 151.511 110.915C151.216 111.078 150.823 111.159 150.332 111.159ZM150.491 110.105C150.962 110.105 151.36 109.982 151.685 109.737C152.009 109.489 152.256 109.146 152.425 108.708C152.594 108.267 152.679 107.759 152.679 107.182C152.679 106.612 152.596 106.113 152.43 105.685C152.265 105.254 152.019 104.92 151.695 104.681C151.37 104.439 150.969 104.318 150.491 104.318C149.994 104.318 149.58 104.446 149.249 104.701C148.92 104.953 148.674 105.296 148.508 105.73C148.345 106.161 148.264 106.645 148.264 107.182C148.264 107.725 148.347 108.219 148.513 108.663C148.682 109.104 148.93 109.455 149.259 109.717C149.59 109.976 150.001 110.105 150.491 110.105ZM162.329 111.179C161.845 111.179 161.406 111.088 161.011 110.906C160.617 110.72 160.304 110.453 160.072 110.105C159.84 109.754 159.724 109.33 159.724 108.832C159.724 108.395 159.81 108.04 159.982 107.768C160.155 107.493 160.385 107.278 160.673 107.122C160.962 106.966 161.28 106.85 161.628 106.774C161.979 106.695 162.332 106.632 162.687 106.585C163.151 106.526 163.527 106.481 163.815 106.451C164.107 106.418 164.319 106.363 164.452 106.287C164.588 106.211 164.656 106.078 164.656 105.889V105.849C164.656 105.359 164.521 104.978 164.253 104.706C163.988 104.434 163.585 104.298 163.045 104.298C162.485 104.298 162.045 104.421 161.727 104.666C161.409 104.911 161.185 105.173 161.056 105.452L159.942 105.054C160.141 104.59 160.406 104.229 160.738 103.97C161.073 103.708 161.437 103.526 161.832 103.423C162.229 103.317 162.621 103.264 163.005 103.264C163.25 103.264 163.532 103.294 163.85 103.354C164.172 103.41 164.482 103.528 164.78 103.707C165.081 103.886 165.332 104.156 165.531 104.517C165.729 104.878 165.829 105.362 165.829 105.969V111H164.656V109.966H164.596C164.516 110.132 164.384 110.309 164.198 110.498C164.013 110.687 163.766 110.848 163.457 110.98C163.149 111.113 162.773 111.179 162.329 111.179ZM162.508 110.125C162.972 110.125 163.363 110.034 163.681 109.852C164.003 109.669 164.245 109.434 164.407 109.146C164.573 108.857 164.656 108.554 164.656 108.236V107.162C164.606 107.222 164.496 107.276 164.327 107.326C164.162 107.372 163.969 107.414 163.751 107.45C163.535 107.483 163.325 107.513 163.119 107.54C162.917 107.563 162.753 107.583 162.627 107.599C162.322 107.639 162.037 107.704 161.772 107.793C161.51 107.879 161.298 108.01 161.136 108.186C160.977 108.358 160.897 108.594 160.897 108.892C160.897 109.3 161.048 109.608 161.349 109.817C161.654 110.022 162.04 110.125 162.508 110.125ZM173.638 111L171.311 103.364H172.544L174.195 109.21H174.274L175.905 103.364H177.158L178.769 109.19H178.848L180.499 103.364H181.732L179.405 111H178.252L176.581 105.134H176.462L174.791 111H173.638ZM186.225 111.159C185.489 111.159 184.854 110.997 184.321 110.672C183.79 110.344 183.381 109.886 183.093 109.3C182.808 108.71 182.665 108.024 182.665 107.241C182.665 106.459 182.808 105.77 183.093 105.173C183.381 104.573 183.782 104.106 184.296 103.771C184.813 103.433 185.416 103.264 186.105 103.264C186.503 103.264 186.896 103.33 187.284 103.463C187.672 103.596 188.025 103.811 188.343 104.109C188.661 104.404 188.914 104.795 189.103 105.283C189.292 105.77 189.387 106.37 189.387 107.082V107.58H183.5V106.565H188.194C188.194 106.134 188.107 105.75 187.935 105.412C187.766 105.074 187.524 104.807 187.209 104.612C186.898 104.416 186.53 104.318 186.105 104.318C185.638 104.318 185.234 104.434 184.892 104.666C184.554 104.895 184.294 105.193 184.112 105.561C183.93 105.929 183.838 106.323 183.838 106.744V107.42C183.838 107.997 183.938 108.486 184.137 108.887C184.339 109.285 184.619 109.588 184.977 109.797C185.335 110.002 185.751 110.105 186.225 110.105C186.533 110.105 186.811 110.062 187.06 109.976C187.312 109.886 187.529 109.754 187.711 109.578C187.894 109.399 188.034 109.177 188.134 108.912L189.267 109.23C189.148 109.615 188.948 109.953 188.666 110.244C188.384 110.533 188.036 110.758 187.622 110.92C187.208 111.08 186.742 111.159 186.225 111.159ZM191.331 111V100.818H192.504V104.577H192.603C192.69 104.444 192.809 104.275 192.961 104.07C193.117 103.861 193.339 103.675 193.627 103.513C193.919 103.347 194.314 103.264 194.811 103.264C195.454 103.264 196.02 103.425 196.511 103.746C197.002 104.068 197.384 104.524 197.659 105.114C197.935 105.704 198.072 106.4 198.072 107.202C198.072 108.01 197.935 108.711 197.659 109.305C197.384 109.895 197.003 110.352 196.516 110.677C196.029 110.998 195.467 111.159 194.831 111.159C194.34 111.159 193.947 111.078 193.652 110.915C193.357 110.75 193.13 110.562 192.971 110.354C192.812 110.142 192.69 109.966 192.603 109.827H192.464V111H191.331ZM192.484 107.182C192.484 107.759 192.569 108.267 192.738 108.708C192.907 109.146 193.154 109.489 193.478 109.737C193.803 109.982 194.201 110.105 194.672 110.105C195.162 110.105 195.571 109.976 195.9 109.717C196.231 109.455 196.48 109.104 196.645 108.663C196.814 108.219 196.899 107.725 196.899 107.182C196.899 106.645 196.816 106.161 196.65 105.73C196.488 105.296 196.241 104.953 195.909 104.701C195.581 104.446 195.169 104.318 194.672 104.318C194.194 104.318 193.793 104.439 193.468 104.681C193.144 104.92 192.898 105.254 192.733 105.685C192.567 106.113 192.484 106.612 192.484 107.182ZM206.051 111.179C205.568 111.179 205.128 111.088 204.734 110.906C204.34 110.72 204.026 110.453 203.794 110.105C203.562 109.754 203.446 109.33 203.446 108.832C203.446 108.395 203.533 108.04 203.705 107.768C203.877 107.493 204.108 107.278 204.396 107.122C204.684 106.966 205.002 106.85 205.35 106.774C205.702 106.695 206.055 106.632 206.409 106.585C206.873 106.526 207.25 106.481 207.538 106.451C207.83 106.418 208.042 106.363 208.174 106.287C208.31 106.211 208.378 106.078 208.378 105.889V105.849C208.378 105.359 208.244 104.978 207.975 104.706C207.71 104.434 207.308 104.298 206.767 104.298C206.207 104.298 205.768 104.421 205.45 104.666C205.132 104.911 204.908 105.173 204.779 105.452L203.665 105.054C203.864 104.59 204.129 104.229 204.461 103.97C204.795 103.708 205.16 103.526 205.554 103.423C205.952 103.317 206.343 103.264 206.728 103.264C206.973 103.264 207.255 103.294 207.573 103.354C207.894 103.41 208.204 103.528 208.502 103.707C208.804 103.886 209.054 104.156 209.253 104.517C209.452 104.878 209.551 105.362 209.551 105.969V111H208.378V109.966H208.319C208.239 110.132 208.106 110.309 207.921 110.498C207.735 110.687 207.488 110.848 207.18 110.98C206.872 111.113 206.496 111.179 206.051 111.179ZM206.23 110.125C206.694 110.125 207.086 110.034 207.404 109.852C207.725 109.669 207.967 109.434 208.13 109.146C208.295 108.857 208.378 108.554 208.378 108.236V107.162C208.328 107.222 208.219 107.276 208.05 107.326C207.884 107.372 207.692 107.414 207.473 107.45C207.258 107.483 207.047 107.513 206.842 107.54C206.64 107.563 206.476 107.583 206.35 107.599C206.045 107.639 205.76 107.704 205.495 107.793C205.233 107.879 205.021 108.01 204.858 108.186C204.699 108.358 204.62 108.594 204.62 108.892C204.62 109.3 204.77 109.608 205.072 109.817C205.377 110.022 205.763 110.125 206.23 110.125ZM211.693 113.864V103.364H212.827V104.577H212.966C213.052 104.444 213.171 104.275 213.324 104.07C213.479 103.861 213.702 103.675 213.99 103.513C214.282 103.347 214.676 103.264 215.173 103.264C215.816 103.264 216.383 103.425 216.873 103.746C217.364 104.068 217.747 104.524 218.022 105.114C218.297 105.704 218.434 106.4 218.434 107.202C218.434 108.01 218.297 108.711 218.022 109.305C217.747 109.895 217.366 110.352 216.878 110.677C216.391 110.998 215.829 111.159 215.193 111.159C214.702 111.159 214.31 111.078 214.015 110.915C213.72 110.75 213.493 110.562 213.334 110.354C213.175 110.142 213.052 109.966 212.966 109.827H212.866V113.864H211.693ZM212.846 107.182C212.846 107.759 212.931 108.267 213.1 108.708C213.269 109.146 213.516 109.489 213.841 109.737C214.166 109.982 214.563 110.105 215.034 110.105C215.524 110.105 215.934 109.976 216.262 109.717C216.593 109.455 216.842 109.104 217.008 108.663C217.177 108.219 217.261 107.725 217.261 107.182C217.261 106.645 217.178 106.161 217.013 105.73C216.85 105.296 216.603 104.953 216.272 104.701C215.944 104.446 215.531 104.318 215.034 104.318C214.557 104.318 214.156 104.439 213.831 104.681C213.506 104.92 213.261 105.254 213.095 105.685C212.929 106.113 212.846 106.612 212.846 107.182ZM220.224 113.864V103.364H221.358V104.577H221.497C221.583 104.444 221.702 104.275 221.855 104.07C222.011 103.861 222.233 103.675 222.521 103.513C222.813 103.347 223.207 103.264 223.704 103.264C224.347 103.264 224.914 103.425 225.405 103.746C225.895 104.068 226.278 104.524 226.553 105.114C226.828 105.704 226.966 106.4 226.966 107.202C226.966 108.01 226.828 108.711 226.553 109.305C226.278 109.895 225.897 110.352 225.41 110.677C224.922 110.998 224.361 111.159 223.724 111.159C223.234 111.159 222.841 111.078 222.546 110.915C222.251 110.75 222.024 110.562 221.865 110.354C221.706 110.142 221.583 109.966 221.497 109.827H221.398V113.864H220.224ZM221.378 107.182C221.378 107.759 221.462 108.267 221.631 108.708C221.8 109.146 222.047 109.489 222.372 109.737C222.697 109.982 223.095 110.105 223.565 110.105C224.056 110.105 224.465 109.976 224.793 109.717C225.125 109.455 225.373 109.104 225.539 108.663C225.708 108.219 225.792 107.725 225.792 107.182C225.792 106.645 225.71 106.161 225.544 105.73C225.381 105.296 225.135 104.953 224.803 104.701C224.475 104.446 224.062 104.318 223.565 104.318C223.088 104.318 222.687 104.439 222.362 104.681C222.037 104.92 221.792 105.254 221.626 105.685C221.461 106.113 221.378 106.612 221.378 107.182ZM230.506 109.608L230.426 110.145C230.37 110.523 230.283 110.927 230.167 111.358C230.055 111.789 229.937 112.195 229.814 112.576C229.692 112.957 229.591 113.26 229.511 113.486H228.616C228.659 113.274 228.716 112.994 228.785 112.646C228.855 112.298 228.925 111.908 228.994 111.477C229.067 111.05 229.127 110.612 229.173 110.165L229.233 109.608H230.506ZM236.617 111V103.364H237.75V104.557H237.85C238.009 104.149 238.266 103.833 238.62 103.607C238.975 103.379 239.401 103.264 239.898 103.264C240.402 103.264 240.821 103.379 241.156 103.607C241.494 103.833 241.757 104.149 241.946 104.557H242.026C242.221 104.162 242.515 103.849 242.906 103.617C243.297 103.382 243.766 103.264 244.313 103.264C244.996 103.264 245.554 103.478 245.988 103.906C246.422 104.33 246.64 104.991 246.64 105.889V111H245.466V105.889C245.466 105.326 245.312 104.923 245.004 104.681C244.696 104.439 244.333 104.318 243.915 104.318C243.378 104.318 242.962 104.481 242.667 104.805C242.372 105.127 242.225 105.535 242.225 106.028V111H241.032V105.77C241.032 105.336 240.891 104.986 240.609 104.721C240.327 104.452 239.964 104.318 239.52 104.318C239.215 104.318 238.93 104.399 238.665 104.562C238.403 104.724 238.191 104.95 238.029 105.238C237.87 105.523 237.79 105.853 237.79 106.227V111H236.617ZM251.887 111.159C251.198 111.159 250.593 110.995 250.072 110.667C249.555 110.339 249.151 109.88 248.859 109.29C248.571 108.7 248.427 108.01 248.427 107.222C248.427 106.426 248.571 105.732 248.859 105.138C249.151 104.545 249.555 104.085 250.072 103.756C250.593 103.428 251.198 103.264 251.887 103.264C252.576 103.264 253.18 103.428 253.697 103.756C254.217 104.085 254.621 104.545 254.91 105.138C255.201 105.732 255.347 106.426 255.347 107.222C255.347 108.01 255.201 108.7 254.91 109.29C254.621 109.88 254.217 110.339 253.697 110.667C253.18 110.995 252.576 111.159 251.887 111.159ZM251.887 110.105C252.411 110.105 252.842 109.971 253.18 109.702C253.518 109.434 253.768 109.081 253.93 108.643C254.093 108.206 254.174 107.732 254.174 107.222C254.174 106.711 254.093 106.236 253.93 105.795C253.768 105.354 253.518 104.998 253.18 104.726C252.842 104.454 252.411 104.318 251.887 104.318C251.363 104.318 250.933 104.454 250.594 104.726C250.256 104.998 250.006 105.354 249.844 105.795C249.681 106.236 249.6 106.711 249.6 107.222C249.6 107.732 249.681 108.206 249.844 108.643C250.006 109.081 250.256 109.434 250.594 109.702C250.933 109.971 251.363 110.105 251.887 110.105ZM257.297 111V100.818H258.471V104.577H258.57C258.656 104.444 258.776 104.275 258.928 104.07C259.084 103.861 259.306 103.675 259.594 103.513C259.886 103.347 260.28 103.264 260.778 103.264C261.421 103.264 261.987 103.425 262.478 103.746C262.968 104.068 263.351 104.524 263.626 105.114C263.901 105.704 264.039 106.4 264.039 107.202C264.039 108.01 263.901 108.711 263.626 109.305C263.351 109.895 262.97 110.352 262.483 110.677C261.996 110.998 261.434 111.159 260.797 111.159C260.307 111.159 259.914 111.078 259.619 110.915C259.324 110.75 259.097 110.562 258.938 110.354C258.779 110.142 258.656 109.966 258.57 109.827H258.431V111H257.297ZM258.451 107.182C258.451 107.759 258.535 108.267 258.704 108.708C258.873 109.146 259.12 109.489 259.445 109.737C259.77 109.982 260.168 110.105 260.638 110.105C261.129 110.105 261.538 109.976 261.866 109.717C262.198 109.455 262.446 109.104 262.612 108.663C262.781 108.219 262.866 107.725 262.866 107.182C262.866 106.645 262.783 106.161 262.617 105.73C262.455 105.296 262.208 104.953 261.876 104.701C261.548 104.446 261.135 104.318 260.638 104.318C260.161 104.318 259.76 104.439 259.435 104.681C259.11 104.92 258.865 105.254 258.699 105.685C258.534 106.113 258.451 106.612 258.451 107.182ZM265.834 111V103.364H267.007V111H265.834ZM266.43 102.091C266.202 102.091 266.004 102.013 265.839 101.857C265.676 101.701 265.595 101.514 265.595 101.295C265.595 101.077 265.676 100.889 265.839 100.734C266.004 100.578 266.202 100.5 266.43 100.5C266.659 100.5 266.854 100.578 267.017 100.734C267.183 100.889 267.265 101.077 267.265 101.295C267.265 101.514 267.183 101.701 267.017 101.857C266.854 102.013 266.659 102.091 266.43 102.091ZM270.329 100.818V111H269.156V100.818H270.329ZM275.68 111.159C274.944 111.159 274.309 110.997 273.776 110.672C273.245 110.344 272.836 109.886 272.548 109.3C272.263 108.71 272.12 108.024 272.12 107.241C272.12 106.459 272.263 105.77 272.548 105.173C272.836 104.573 273.237 104.106 273.751 103.771C274.268 103.433 274.871 103.264 275.561 103.264C275.958 103.264 276.351 103.33 276.739 103.463C277.127 103.596 277.48 103.811 277.798 104.109C278.116 104.404 278.369 104.795 278.558 105.283C278.747 105.77 278.842 106.37 278.842 107.082V107.58H272.955V106.565H277.649C277.649 106.134 277.562 105.75 277.39 105.412C277.221 105.074 276.979 104.807 276.664 104.612C276.353 104.416 275.985 104.318 275.561 104.318C275.093 104.318 274.689 104.434 274.347 104.666C274.009 104.895 273.749 105.193 273.567 105.561C273.385 105.929 273.294 106.323 273.294 106.744V107.42C273.294 107.997 273.393 108.486 273.592 108.887C273.794 109.285 274.074 109.588 274.432 109.797C274.79 110.002 275.206 110.105 275.68 110.105C275.988 110.105 276.267 110.062 276.515 109.976C276.767 109.886 276.984 109.754 277.166 109.578C277.349 109.399 277.49 109.177 277.589 108.912L278.722 109.23C278.603 109.615 278.403 109.953 278.121 110.244C277.839 110.533 277.491 110.758 277.077 110.92C276.663 111.08 276.197 111.159 275.68 111.159ZM286.811 111.179C286.327 111.179 285.888 111.088 285.494 110.906C285.099 110.72 284.786 110.453 284.554 110.105C284.322 109.754 284.206 109.33 284.206 108.832C284.206 108.395 284.292 108.04 284.465 107.768C284.637 107.493 284.867 107.278 285.156 107.122C285.444 106.966 285.762 106.85 286.11 106.774C286.462 106.695 286.815 106.632 287.169 106.585C287.633 106.526 288.009 106.481 288.298 106.451C288.589 106.418 288.802 106.363 288.934 106.287C289.07 106.211 289.138 106.078 289.138 105.889V105.849C289.138 105.359 289.004 104.978 288.735 104.706C288.47 104.434 288.067 104.298 287.527 104.298C286.967 104.298 286.528 104.421 286.21 104.666C285.892 104.911 285.668 105.173 285.539 105.452L284.425 105.054C284.624 104.59 284.889 104.229 285.22 103.97C285.555 103.708 285.92 103.526 286.314 103.423C286.712 103.317 287.103 103.264 287.487 103.264C287.733 103.264 288.014 103.294 288.333 103.354C288.654 103.41 288.964 103.528 289.262 103.707C289.564 103.886 289.814 104.156 290.013 104.517C290.212 104.878 290.311 105.362 290.311 105.969V111H289.138V109.966H289.078C288.999 110.132 288.866 110.309 288.681 110.498C288.495 110.687 288.248 110.848 287.94 110.98C287.632 111.113 287.255 111.179 286.811 111.179ZM286.99 110.125C287.454 110.125 287.845 110.034 288.164 109.852C288.485 109.669 288.727 109.434 288.889 109.146C289.055 108.857 289.138 108.554 289.138 108.236V107.162C289.088 107.222 288.979 107.276 288.81 107.326C288.644 107.372 288.452 107.414 288.233 107.45C288.018 107.483 287.807 107.513 287.602 107.54C287.4 107.563 287.235 107.583 287.11 107.599C286.805 107.639 286.52 107.704 286.254 107.793C285.993 107.879 285.78 108.01 285.618 108.186C285.459 108.358 285.379 108.594 285.379 108.892C285.379 109.3 285.53 109.608 285.832 109.817C286.137 110.022 286.523 110.125 286.99 110.125ZM292.453 113.864V103.364H293.586V104.577H293.725C293.812 104.444 293.931 104.275 294.083 104.07C294.239 103.861 294.461 103.675 294.75 103.513C295.041 103.347 295.436 103.264 295.933 103.264C296.576 103.264 297.143 103.425 297.633 103.746C298.124 104.068 298.507 104.524 298.782 105.114C299.057 105.704 299.194 106.4 299.194 107.202C299.194 108.01 299.057 108.711 298.782 109.305C298.507 109.895 298.125 110.352 297.638 110.677C297.151 110.998 296.589 111.159 295.953 111.159C295.462 111.159 295.069 111.078 294.775 110.915C294.48 110.75 294.252 110.562 294.093 110.354C293.934 110.142 293.812 109.966 293.725 109.827H293.626V113.864H292.453ZM293.606 107.182C293.606 107.759 293.691 108.267 293.86 108.708C294.029 109.146 294.276 109.489 294.6 109.737C294.925 109.982 295.323 110.105 295.794 110.105C296.284 110.105 296.694 109.976 297.022 109.717C297.353 109.455 297.602 109.104 297.767 108.663C297.936 108.219 298.021 107.725 298.021 107.182C298.021 106.645 297.938 106.161 297.772 105.73C297.61 105.296 297.363 104.953 297.032 104.701C296.703 104.446 296.291 104.318 295.794 104.318C295.316 104.318 294.915 104.439 294.591 104.681C294.266 104.92 294.02 105.254 293.855 105.685C293.689 106.113 293.606 106.612 293.606 107.182ZM300.984 113.864V103.364H302.118V104.577H302.257C302.343 104.444 302.462 104.275 302.615 104.07C302.77 103.861 302.993 103.675 303.281 103.513C303.573 103.347 303.967 103.264 304.464 103.264C305.107 103.264 305.674 103.425 306.164 103.746C306.655 104.068 307.038 104.524 307.313 105.114C307.588 105.704 307.725 106.4 307.725 107.202C307.725 108.01 307.588 108.711 307.313 109.305C307.038 109.895 306.657 110.352 306.169 110.677C305.682 110.998 305.12 111.159 304.484 111.159C303.993 111.159 303.601 111.078 303.306 110.915C303.011 110.75 302.784 110.562 302.625 110.354C302.466 110.142 302.343 109.966 302.257 109.827H302.157V113.864H300.984ZM302.137 107.182C302.137 107.759 302.222 108.267 302.391 108.708C302.56 109.146 302.807 109.489 303.132 109.737C303.457 109.982 303.854 110.105 304.325 110.105C304.815 110.105 305.225 109.976 305.553 109.717C305.884 109.455 306.133 109.104 306.299 108.663C306.468 108.219 306.552 107.725 306.552 107.182C306.552 106.645 306.469 106.161 306.304 105.73C306.141 105.296 305.894 104.953 305.563 104.701C305.235 104.446 304.822 104.318 304.325 104.318C303.848 104.318 303.447 104.439 303.122 104.681C302.797 104.92 302.552 105.254 302.386 105.685C302.22 106.113 302.137 106.612 302.137 107.182ZM316.555 111.159C315.866 111.159 315.261 110.995 314.74 110.667C314.223 110.339 313.819 109.88 313.527 109.29C313.239 108.7 313.095 108.01 313.095 107.222C313.095 106.426 313.239 105.732 313.527 105.138C313.819 104.545 314.223 104.085 314.74 103.756C315.261 103.428 315.866 103.264 316.555 103.264C317.244 103.264 317.848 103.428 318.365 103.756C318.885 104.085 319.289 104.545 319.578 105.138C319.869 105.732 320.015 106.426 320.015 107.222C320.015 108.01 319.869 108.7 319.578 109.29C319.289 109.88 318.885 110.339 318.365 110.667C317.848 110.995 317.244 111.159 316.555 111.159ZM316.555 110.105C317.079 110.105 317.51 109.971 317.848 109.702C318.186 109.434 318.436 109.081 318.598 108.643C318.761 108.206 318.842 107.732 318.842 107.222C318.842 106.711 318.761 106.236 318.598 105.795C318.436 105.354 318.186 104.998 317.848 104.726C317.51 104.454 317.079 104.318 316.555 104.318C316.031 104.318 315.6 104.454 315.262 104.726C314.924 104.998 314.674 105.354 314.512 105.795C314.349 106.236 314.268 106.711 314.268 107.222C314.268 107.732 314.349 108.206 314.512 108.643C314.674 109.081 314.924 109.434 315.262 109.702C315.6 109.971 316.031 110.105 316.555 110.105ZM321.806 111V103.364H322.94V104.517H323.019C323.159 104.139 323.41 103.833 323.775 103.597C324.14 103.362 324.551 103.244 325.008 103.244C325.094 103.244 325.202 103.246 325.331 103.249C325.46 103.253 325.558 103.258 325.624 103.264V104.457C325.585 104.447 325.494 104.433 325.351 104.413C325.212 104.389 325.064 104.378 324.909 104.378C324.537 104.378 324.206 104.456 323.914 104.612C323.626 104.764 323.397 104.976 323.228 105.248C323.062 105.516 322.98 105.823 322.98 106.168V111H321.806ZM333.2 111.179C332.716 111.179 332.277 111.088 331.882 110.906C331.488 110.72 331.175 110.453 330.943 110.105C330.711 109.754 330.595 109.33 330.595 108.832C330.595 108.395 330.681 108.04 330.853 107.768C331.026 107.493 331.256 107.278 331.544 107.122C331.833 106.966 332.151 106.85 332.499 106.774C332.85 106.695 333.203 106.632 333.558 106.585C334.022 106.526 334.398 106.481 334.686 106.451C334.978 106.418 335.19 106.363 335.323 106.287C335.459 106.211 335.527 106.078 335.527 105.889V105.849C335.527 105.359 335.392 104.978 335.124 104.706C334.859 104.434 334.456 104.298 333.916 104.298C333.356 104.298 332.917 104.421 332.598 104.666C332.28 104.911 332.056 105.173 331.927 105.452L330.814 105.054C331.012 104.59 331.278 104.229 331.609 103.97C331.944 103.708 332.308 103.526 332.703 103.423C333.1 103.317 333.492 103.264 333.876 103.264C334.121 103.264 334.403 103.294 334.721 103.354C335.043 103.41 335.353 103.528 335.651 103.707C335.953 103.886 336.203 104.156 336.402 104.517C336.6 104.878 336.7 105.362 336.7 105.969V111H335.527V109.966H335.467C335.387 110.132 335.255 110.309 335.069 110.498C334.884 110.687 334.637 110.848 334.328 110.98C334.02 111.113 333.644 111.179 333.2 111.179ZM333.379 110.125C333.843 110.125 334.234 110.034 334.552 109.852C334.874 109.669 335.116 109.434 335.278 109.146C335.444 108.857 335.527 108.554 335.527 108.236V107.162C335.477 107.222 335.368 107.276 335.199 107.326C335.033 107.372 334.841 107.414 334.622 107.45C334.406 107.483 334.196 107.513 333.99 107.54C333.788 107.563 333.624 107.583 333.498 107.599C333.193 107.639 332.908 107.704 332.643 107.793C332.381 107.879 332.169 108.01 332.007 108.186C331.848 108.358 331.768 108.594 331.768 108.892C331.768 109.3 331.919 109.608 332.221 109.817C332.525 110.022 332.912 110.125 333.379 110.125ZM94.2025 135.159C93.5661 135.159 93.0044 134.998 92.5171 134.677C92.0299 134.352 91.6488 133.895 91.3737 133.305C91.0986 132.711 90.961 132.01 90.961 131.202C90.961 130.4 91.0986 129.704 91.3737 129.114C91.6488 128.524 92.0316 128.068 92.5221 127.746C93.0126 127.425 93.5794 127.264 94.2224 127.264C94.7195 127.264 95.1123 127.347 95.4007 127.513C95.6923 127.675 95.9144 127.861 96.0669 128.07C96.2226 128.275 96.3436 128.444 96.4298 128.577H96.5292V124.818H97.7025V135H96.569V133.827H96.4298C96.3436 133.966 96.221 134.142 96.0619 134.354C95.9028 134.562 95.6758 134.75 95.3808 134.915C95.0858 135.078 94.693 135.159 94.2025 135.159ZM94.3616 134.105C94.8322 134.105 95.23 133.982 95.5548 133.737C95.8796 133.489 96.1265 133.146 96.2955 132.708C96.4646 132.267 96.5491 131.759 96.5491 131.182C96.5491 130.612 96.4662 130.113 96.3005 129.685C96.1348 129.254 95.8895 128.92 95.5647 128.681C95.2399 128.439 94.8389 128.318 94.3616 128.318C93.8644 128.318 93.4501 128.446 93.1187 128.701C92.7906 128.953 92.5436 129.296 92.3779 129.73C92.2155 130.161 92.1343 130.645 92.1343 131.182C92.1343 131.725 92.2172 132.219 92.3829 132.663C92.5519 133.104 92.8005 133.455 93.1286 133.717C93.4601 133.976 93.8711 134.105 94.3616 134.105ZM103.216 135.159C102.48 135.159 101.845 134.997 101.312 134.672C100.782 134.344 100.372 133.886 100.084 133.3C99.7989 132.71 99.6563 132.024 99.6563 131.241C99.6563 130.459 99.7989 129.77 100.084 129.173C100.372 128.573 100.773 128.106 101.287 127.771C101.804 127.433 102.407 127.264 103.097 127.264C103.494 127.264 103.887 127.33 104.275 127.463C104.663 127.596 105.016 127.811 105.334 128.109C105.652 128.404 105.906 128.795 106.095 129.283C106.283 129.77 106.378 130.37 106.378 131.082V131.58H100.492V130.565H105.185C105.185 130.134 105.099 129.75 104.926 129.412C104.757 129.074 104.515 128.807 104.2 128.612C103.889 128.416 103.521 128.318 103.097 128.318C102.629 128.318 102.225 128.434 101.884 128.666C101.546 128.895 101.285 129.193 101.103 129.561C100.921 129.929 100.83 130.323 100.83 130.744V131.42C100.83 131.997 100.929 132.486 101.128 132.887C101.33 133.285 101.61 133.588 101.968 133.797C102.326 134.002 102.742 134.105 103.216 134.105C103.524 134.105 103.803 134.062 104.051 133.976C104.303 133.886 104.52 133.754 104.703 133.578C104.885 133.399 105.026 133.177 105.125 132.912L106.259 133.23C106.139 133.615 105.939 133.953 105.657 134.244C105.375 134.533 105.027 134.758 104.613 134.92C104.199 135.08 103.733 135.159 103.216 135.159ZM113.572 129.074L112.518 129.372C112.452 129.196 112.354 129.026 112.225 128.86C112.099 128.691 111.926 128.552 111.707 128.442C111.489 128.333 111.209 128.278 110.867 128.278C110.4 128.278 110.011 128.386 109.699 128.602C109.391 128.814 109.237 129.084 109.237 129.412C109.237 129.704 109.343 129.934 109.555 130.103C109.767 130.272 110.098 130.413 110.549 130.526L111.683 130.804C112.365 130.97 112.874 131.223 113.209 131.565C113.544 131.903 113.711 132.339 113.711 132.872C113.711 133.31 113.585 133.701 113.333 134.045C113.085 134.39 112.737 134.662 112.289 134.861C111.842 135.06 111.321 135.159 110.728 135.159C109.949 135.159 109.305 134.99 108.794 134.652C108.284 134.314 107.961 133.82 107.825 133.17L108.938 132.892C109.044 133.303 109.245 133.611 109.54 133.817C109.838 134.022 110.228 134.125 110.708 134.125C111.255 134.125 111.689 134.009 112.011 133.777C112.336 133.542 112.498 133.26 112.498 132.932C112.498 132.667 112.405 132.445 112.22 132.266C112.034 132.083 111.749 131.947 111.364 131.858L110.092 131.56C109.392 131.394 108.879 131.137 108.551 130.789C108.226 130.438 108.063 129.999 108.063 129.472C108.063 129.041 108.184 128.66 108.426 128.328C108.671 127.997 109.005 127.737 109.426 127.548C109.85 127.359 110.33 127.264 110.867 127.264C111.623 127.264 112.216 127.43 112.647 127.761C113.081 128.093 113.39 128.53 113.572 129.074ZM116.571 132.216L116.551 130.764H116.79L120.131 127.364H121.582L118.023 130.963H117.923L116.571 132.216ZM115.477 135V124.818H116.65V135H115.477ZM120.329 135L117.347 131.222L118.182 130.406L121.821 135H120.329ZM126.413 127.364V128.358H122.456V127.364H126.413ZM123.609 125.534H124.783V132.812C124.783 133.144 124.831 133.393 124.927 133.558C125.026 133.721 125.152 133.83 125.305 133.886C125.461 133.939 125.625 133.966 125.797 133.966C125.926 133.966 126.032 133.959 126.115 133.946C126.198 133.929 126.264 133.916 126.314 133.906L126.553 134.96C126.473 134.99 126.362 135.02 126.22 135.05C126.077 135.083 125.896 135.099 125.678 135.099C125.346 135.099 125.021 135.028 124.703 134.886C124.388 134.743 124.127 134.526 123.918 134.234C123.712 133.943 123.609 133.575 123.609 133.131V125.534ZM131.199 135.159C130.509 135.159 129.904 134.995 129.384 134.667C128.867 134.339 128.463 133.88 128.171 133.29C127.883 132.7 127.738 132.01 127.738 131.222C127.738 130.426 127.883 129.732 128.171 129.138C128.463 128.545 128.867 128.085 129.384 127.756C129.904 127.428 130.509 127.264 131.199 127.264C131.888 127.264 132.491 127.428 133.008 127.756C133.529 128.085 133.933 128.545 134.221 129.138C134.513 129.732 134.659 130.426 134.659 131.222C134.659 132.01 134.513 132.7 134.221 133.29C133.933 133.88 133.529 134.339 133.008 134.667C132.491 134.995 131.888 135.159 131.199 135.159ZM131.199 134.105C131.722 134.105 132.153 133.971 132.491 133.702C132.829 133.434 133.08 133.081 133.242 132.643C133.404 132.206 133.486 131.732 133.486 131.222C133.486 130.711 133.404 130.236 133.242 129.795C133.08 129.354 132.829 128.998 132.491 128.726C132.153 128.454 131.722 128.318 131.199 128.318C130.675 128.318 130.244 128.454 129.906 128.726C129.568 128.998 129.318 129.354 129.155 129.795C128.993 130.236 128.912 130.711 128.912 131.222C128.912 131.732 128.993 132.206 129.155 132.643C129.318 133.081 129.568 133.434 129.906 133.702C130.244 133.971 130.675 134.105 131.199 134.105ZM136.45 137.864V127.364H137.583V128.577H137.723C137.809 128.444 137.928 128.275 138.081 128.07C138.236 127.861 138.458 127.675 138.747 127.513C139.038 127.347 139.433 127.264 139.93 127.264C140.573 127.264 141.14 127.425 141.63 127.746C142.121 128.068 142.504 128.524 142.779 129.114C143.054 129.704 143.191 130.4 143.191 131.202C143.191 132.01 143.054 132.711 142.779 133.305C142.504 133.895 142.122 134.352 141.635 134.677C141.148 134.998 140.586 135.159 139.95 135.159C139.459 135.159 139.067 135.078 138.772 134.915C138.477 134.75 138.25 134.562 138.09 134.354C137.931 134.142 137.809 133.966 137.723 133.827H137.623V137.864H136.45ZM137.603 131.182C137.603 131.759 137.688 132.267 137.857 132.708C138.026 133.146 138.273 133.489 138.598 133.737C138.922 133.982 139.32 134.105 139.791 134.105C140.281 134.105 140.691 133.976 141.019 133.717C141.35 133.455 141.599 133.104 141.764 132.663C141.934 132.219 142.018 131.725 142.018 131.182C142.018 130.645 141.935 130.161 141.769 129.73C141.607 129.296 141.36 128.953 141.029 128.701C140.701 128.446 140.288 128.318 139.791 128.318C139.313 128.318 138.912 128.439 138.588 128.681C138.263 128.92 138.018 129.254 137.852 129.685C137.686 130.113 137.603 130.612 137.603 131.182ZM151.166 135.179C150.682 135.179 150.243 135.088 149.848 134.906C149.454 134.72 149.141 134.453 148.909 134.105C148.677 133.754 148.561 133.33 148.561 132.832C148.561 132.395 148.647 132.04 148.819 131.768C148.992 131.493 149.222 131.278 149.51 131.122C149.799 130.966 150.117 130.85 150.465 130.774C150.816 130.695 151.169 130.632 151.524 130.585C151.988 130.526 152.364 130.481 152.652 130.451C152.944 130.418 153.156 130.363 153.289 130.287C153.425 130.211 153.492 130.078 153.492 129.889V129.849C153.492 129.359 153.358 128.978 153.09 128.706C152.825 128.434 152.422 128.298 151.882 128.298C151.322 128.298 150.882 128.421 150.564 128.666C150.246 128.911 150.022 129.173 149.893 129.452L148.779 129.054C148.978 128.59 149.243 128.229 149.575 127.97C149.91 127.708 150.274 127.526 150.669 127.423C151.066 127.317 151.457 127.264 151.842 127.264C152.087 127.264 152.369 127.294 152.687 127.354C153.009 127.41 153.318 127.528 153.617 127.707C153.918 127.886 154.169 128.156 154.367 128.517C154.566 128.878 154.666 129.362 154.666 129.969V135H153.492V133.966H153.433C153.353 134.132 153.221 134.309 153.035 134.498C152.849 134.687 152.603 134.848 152.294 134.98C151.986 135.113 151.61 135.179 151.166 135.179ZM151.345 134.125C151.809 134.125 152.2 134.034 152.518 133.852C152.84 133.669 153.081 133.434 153.244 133.146C153.41 132.857 153.492 132.554 153.492 132.236V131.162C153.443 131.222 153.333 131.276 153.164 131.326C152.999 131.372 152.806 131.414 152.588 131.45C152.372 131.483 152.162 131.513 151.956 131.54C151.754 131.563 151.59 131.583 151.464 131.599C151.159 131.639 150.874 131.704 150.609 131.793C150.347 131.879 150.135 132.01 149.973 132.186C149.813 132.358 149.734 132.594 149.734 132.892C149.734 133.3 149.885 133.608 150.186 133.817C150.491 134.022 150.877 134.125 151.345 134.125ZM156.807 137.864V127.364H157.941V128.577H158.08C158.166 128.444 158.285 128.275 158.438 128.07C158.594 127.861 158.816 127.675 159.104 127.513C159.396 127.347 159.79 127.264 160.287 127.264C160.93 127.264 161.497 127.425 161.988 127.746C162.478 128.068 162.861 128.524 163.136 129.114C163.411 129.704 163.549 130.4 163.549 131.202C163.549 132.01 163.411 132.711 163.136 133.305C162.861 133.895 162.48 134.352 161.993 134.677C161.505 134.998 160.944 135.159 160.307 135.159C159.817 135.159 159.424 135.078 159.129 134.915C158.834 134.75 158.607 134.562 158.448 134.354C158.289 134.142 158.166 133.966 158.08 133.827H157.981V137.864H156.807ZM157.961 131.182C157.961 131.759 158.045 132.267 158.214 132.708C158.383 133.146 158.63 133.489 158.955 133.737C159.28 133.982 159.678 134.105 160.148 134.105C160.639 134.105 161.048 133.976 161.376 133.717C161.708 133.455 161.956 133.104 162.122 132.663C162.291 132.219 162.375 131.725 162.375 131.182C162.375 130.645 162.293 130.161 162.127 129.73C161.964 129.296 161.718 128.953 161.386 128.701C161.058 128.446 160.645 128.318 160.148 128.318C159.671 128.318 159.27 128.439 158.945 128.681C158.62 128.92 158.375 129.254 158.209 129.685C158.044 130.113 157.961 130.612 157.961 131.182ZM165.339 137.864V127.364H166.472V128.577H166.611C166.697 128.444 166.817 128.275 166.969 128.07C167.125 127.861 167.347 127.675 167.635 127.513C167.927 127.347 168.321 127.264 168.819 127.264C169.462 127.264 170.028 127.425 170.519 127.746C171.009 128.068 171.392 128.524 171.667 129.114C171.942 129.704 172.08 130.4 172.08 131.202C172.08 132.01 171.942 132.711 171.667 133.305C171.392 133.895 171.011 134.352 170.524 134.677C170.037 134.998 169.475 135.159 168.839 135.159C168.348 135.159 167.955 135.078 167.66 134.915C167.365 134.75 167.138 134.562 166.979 134.354C166.82 134.142 166.697 133.966 166.611 133.827H166.512V137.864H165.339ZM166.492 131.182C166.492 131.759 166.576 132.267 166.745 132.708C166.915 133.146 167.161 133.489 167.486 133.737C167.811 133.982 168.209 134.105 168.679 134.105C169.17 134.105 169.579 133.976 169.907 133.717C170.239 133.455 170.487 133.104 170.653 132.663C170.822 132.219 170.907 131.725 170.907 131.182C170.907 130.645 170.824 130.161 170.658 129.73C170.496 129.296 170.249 128.953 169.917 128.701C169.589 128.446 169.177 128.318 168.679 128.318C168.202 128.318 167.801 128.439 167.476 128.681C167.151 128.92 166.906 129.254 166.741 129.685C166.575 130.113 166.492 130.612 166.492 131.182ZM178.563 137.864C178.364 137.864 178.187 137.847 178.031 137.814C177.875 137.784 177.767 137.754 177.708 137.724L178.006 136.69C178.291 136.763 178.543 136.79 178.762 136.77C178.981 136.75 179.174 136.652 179.343 136.477C179.516 136.304 179.673 136.024 179.816 135.636L180.035 135.04L177.211 127.364H178.483L180.591 133.449H180.671L182.779 127.364H184.052L180.81 136.114C180.664 136.508 180.484 136.835 180.268 137.093C180.053 137.355 179.803 137.549 179.517 137.675C179.236 137.801 178.918 137.864 178.563 137.864ZM188.429 135.159C187.74 135.159 187.135 134.995 186.614 134.667C186.097 134.339 185.693 133.88 185.401 133.29C185.113 132.7 184.969 132.01 184.969 131.222C184.969 130.426 185.113 129.732 185.401 129.138C185.693 128.545 186.097 128.085 186.614 127.756C187.135 127.428 187.74 127.264 188.429 127.264C189.118 127.264 189.722 127.428 190.239 127.756C190.759 128.085 191.163 128.545 191.452 129.138C191.743 129.732 191.889 130.426 191.889 131.222C191.889 132.01 191.743 132.7 191.452 133.29C191.163 133.88 190.759 134.339 190.239 134.667C189.722 134.995 189.118 135.159 188.429 135.159ZM188.429 134.105C188.953 134.105 189.384 133.971 189.722 133.702C190.06 133.434 190.31 133.081 190.472 132.643C190.635 132.206 190.716 131.732 190.716 131.222C190.716 130.711 190.635 130.236 190.472 129.795C190.31 129.354 190.06 128.998 189.722 128.726C189.384 128.454 188.953 128.318 188.429 128.318C187.905 128.318 187.475 128.454 187.136 128.726C186.798 128.998 186.548 129.354 186.386 129.795C186.223 130.236 186.142 130.711 186.142 131.222C186.142 131.732 186.223 132.206 186.386 132.643C186.548 133.081 186.798 133.434 187.136 133.702C187.475 133.971 187.905 134.105 188.429 134.105ZM198.493 131.878V127.364H199.666V135H198.493V133.707H198.413C198.234 134.095 197.956 134.425 197.578 134.697C197.2 134.965 196.723 135.099 196.146 135.099C195.669 135.099 195.245 134.995 194.873 134.786C194.502 134.574 194.211 134.256 193.998 133.832C193.786 133.404 193.68 132.866 193.68 132.216V127.364H194.854V132.136C194.854 132.693 195.009 133.137 195.321 133.469C195.636 133.8 196.037 133.966 196.524 133.966C196.816 133.966 197.112 133.891 197.414 133.742C197.719 133.593 197.974 133.364 198.18 133.056C198.388 132.748 198.493 132.355 198.493 131.878ZM208 135.179C207.516 135.179 207.077 135.088 206.682 134.906C206.288 134.72 205.975 134.453 205.743 134.105C205.511 133.754 205.395 133.33 205.395 132.832C205.395 132.395 205.481 132.04 205.653 131.768C205.825 131.493 206.056 131.278 206.344 131.122C206.633 130.966 206.951 130.85 207.299 130.774C207.65 130.695 208.003 130.632 208.358 130.585C208.822 130.526 209.198 130.481 209.486 130.451C209.778 130.418 209.99 130.363 210.123 130.287C210.258 130.211 210.326 130.078 210.326 129.889V129.849C210.326 129.359 210.192 128.978 209.924 128.706C209.659 128.434 209.256 128.298 208.716 128.298C208.156 128.298 207.716 128.421 207.398 128.666C207.08 128.911 206.856 129.173 206.727 129.452L205.613 129.054C205.812 128.59 206.077 128.229 206.409 127.97C206.744 127.708 207.108 127.526 207.503 127.423C207.9 127.317 208.291 127.264 208.676 127.264C208.921 127.264 209.203 127.294 209.521 127.354C209.843 127.41 210.152 127.528 210.451 127.707C210.752 127.886 211.003 128.156 211.201 128.517C211.4 128.878 211.5 129.362 211.5 129.969V135H210.326V133.966H210.267C210.187 134.132 210.055 134.309 209.869 134.498C209.683 134.687 209.437 134.848 209.128 134.98C208.82 135.113 208.444 135.179 208 135.179ZM208.179 134.125C208.643 134.125 209.034 134.034 209.352 133.852C209.674 133.669 209.915 133.434 210.078 133.146C210.244 132.857 210.326 132.554 210.326 132.236V131.162C210.277 131.222 210.167 131.276 209.998 131.326C209.833 131.372 209.64 131.414 209.422 131.45C209.206 131.483 208.996 131.513 208.79 131.54C208.588 131.563 208.424 131.583 208.298 131.599C207.993 131.639 207.708 131.704 207.443 131.793C207.181 131.879 206.969 132.01 206.807 132.186C206.647 132.358 206.568 132.594 206.568 132.892C206.568 133.3 206.719 133.608 207.02 133.817C207.325 134.022 207.711 134.125 208.179 134.125ZM213.641 135V127.364H214.775V128.517H214.854C214.994 128.139 215.245 127.833 215.61 127.597C215.975 127.362 216.386 127.244 216.843 127.244C216.929 127.244 217.037 127.246 217.166 127.249C217.295 127.253 217.393 127.258 217.459 127.264V128.457C217.42 128.447 217.329 128.433 217.186 128.413C217.047 128.389 216.899 128.378 216.744 128.378C216.372 128.378 216.041 128.456 215.749 128.612C215.461 128.764 215.232 128.976 215.063 129.248C214.897 129.516 214.815 129.823 214.815 130.168V135H213.641ZM221.82 135.159C221.084 135.159 220.449 134.997 219.915 134.672C219.385 134.344 218.976 133.886 218.687 133.3C218.402 132.71 218.26 132.024 218.26 131.241C218.26 130.459 218.402 129.77 218.687 129.173C218.976 128.573 219.377 128.106 219.891 127.771C220.408 127.433 221.011 127.264 221.7 127.264C222.098 127.264 222.491 127.33 222.878 127.463C223.266 127.596 223.619 127.811 223.937 128.109C224.256 128.404 224.509 128.795 224.698 129.283C224.887 129.77 224.981 130.37 224.981 131.082V131.58H219.095V130.565H223.788C223.788 130.134 223.702 129.75 223.53 129.412C223.361 129.074 223.119 128.807 222.804 128.612C222.492 128.416 222.124 128.318 221.7 128.318C221.233 128.318 220.829 128.434 220.487 128.666C220.149 128.895 219.889 129.193 219.707 129.561C219.524 129.929 219.433 130.323 219.433 130.744V131.42C219.433 131.997 219.533 132.486 219.731 132.887C219.934 133.285 220.214 133.588 220.572 133.797C220.93 134.002 221.346 134.105 221.82 134.105C222.128 134.105 222.406 134.062 222.655 133.976C222.907 133.886 223.124 133.754 223.306 133.578C223.488 133.399 223.629 133.177 223.729 132.912L224.862 133.23C224.743 133.615 224.542 133.953 224.261 134.244C223.979 134.533 223.631 134.758 223.217 134.92C222.802 135.08 222.337 135.159 221.82 135.159ZM230.704 135V127.364H231.877V135H230.704ZM231.3 126.091C231.072 126.091 230.874 126.013 230.709 125.857C230.546 125.701 230.465 125.514 230.465 125.295C230.465 125.077 230.546 124.889 230.709 124.734C230.874 124.578 231.072 124.5 231.3 124.5C231.529 124.5 231.725 124.578 231.887 124.734C232.053 124.889 232.136 125.077 232.136 125.295C232.136 125.514 232.053 125.701 231.887 125.857C231.725 126.013 231.529 126.091 231.3 126.091ZM235.199 130.406V135H234.026V127.364H235.16V128.557H235.259C235.438 128.169 235.71 127.857 236.074 127.622C236.439 127.384 236.91 127.264 237.486 127.264C238.003 127.264 238.456 127.37 238.843 127.582C239.231 127.791 239.533 128.109 239.748 128.537C239.964 128.961 240.071 129.498 240.071 130.148V135H238.898V130.227C238.898 129.627 238.742 129.16 238.431 128.825C238.119 128.487 237.692 128.318 237.148 128.318C236.774 128.318 236.439 128.399 236.144 128.562C235.852 128.724 235.622 128.961 235.453 129.273C235.284 129.584 235.199 129.962 235.199 130.406ZM249.474 127.364V128.358H245.517V127.364H249.474ZM246.67 125.534H247.843V132.812C247.843 133.144 247.891 133.393 247.987 133.558C248.087 133.721 248.213 133.83 248.365 133.886C248.521 133.939 248.685 133.966 248.858 133.966C248.987 133.966 249.093 133.959 249.176 133.946C249.259 133.929 249.325 133.916 249.375 133.906L249.613 134.96C249.534 134.99 249.423 135.02 249.28 135.05C249.138 135.083 248.957 135.099 248.738 135.099C248.407 135.099 248.082 135.028 247.764 134.886C247.449 134.743 247.187 134.526 246.978 134.234C246.773 133.943 246.67 133.575 246.67 133.131V125.534ZM252.576 130.406V135H251.403V124.818H252.576V128.557H252.676C252.855 128.162 253.123 127.849 253.481 127.617C253.842 127.382 254.323 127.264 254.923 127.264C255.443 127.264 255.899 127.369 256.29 127.577C256.681 127.783 256.984 128.099 257.2 128.527C257.419 128.951 257.528 129.491 257.528 130.148V135H256.355V130.227C256.355 129.621 256.197 129.152 255.882 128.82C255.571 128.486 255.138 128.318 254.585 128.318C254.2 128.318 253.856 128.399 253.551 128.562C253.249 128.724 253.01 128.961 252.835 129.273C252.662 129.584 252.576 129.962 252.576 130.406ZM262.876 135.159C262.14 135.159 261.506 134.997 260.972 134.672C260.442 134.344 260.032 133.886 259.744 133.3C259.459 132.71 259.316 132.024 259.316 131.241C259.316 130.459 259.459 129.77 259.744 129.173C260.032 128.573 260.433 128.106 260.947 127.771C261.464 127.433 262.067 127.264 262.757 127.264C263.155 127.264 263.547 127.33 263.935 127.463C264.323 127.596 264.676 127.811 264.994 128.109C265.312 128.404 265.566 128.795 265.755 129.283C265.944 129.77 266.038 130.37 266.038 131.082V131.58H260.152V130.565H264.845C264.845 130.134 264.759 129.75 264.586 129.412C264.417 129.074 264.175 128.807 263.861 128.612C263.549 128.416 263.181 128.318 262.757 128.318C262.29 128.318 261.885 128.434 261.544 128.666C261.206 128.895 260.946 129.193 260.763 129.561C260.581 129.929 260.49 130.323 260.49 130.744V131.42C260.49 131.997 260.589 132.486 260.788 132.887C260.99 133.285 261.27 133.588 261.628 133.797C261.986 134.002 262.402 134.105 262.876 134.105C263.184 134.105 263.463 134.062 263.711 133.976C263.963 133.886 264.18 133.754 264.363 133.578C264.545 133.399 264.686 133.177 264.785 132.912L265.919 133.23C265.799 133.615 265.599 133.953 265.317 134.244C265.035 134.533 264.687 134.758 264.273 134.92C263.859 135.08 263.393 135.159 262.876 135.159ZM271.76 135V127.364H272.894V128.517H272.973C273.113 128.139 273.365 127.833 273.729 127.597C274.094 127.362 274.505 127.244 274.962 127.244C275.048 127.244 275.156 127.246 275.285 127.249C275.415 127.253 275.512 127.258 275.579 127.264V128.457C275.539 128.447 275.448 128.433 275.305 128.413C275.166 128.389 275.018 128.378 274.863 128.378C274.491 128.378 274.16 128.456 273.868 128.612C273.58 128.764 273.351 128.976 273.182 129.248C273.017 129.516 272.934 129.823 272.934 130.168V135H271.76ZM276.969 135V127.364H278.143V135H276.969ZM277.566 126.091C277.337 126.091 277.14 126.013 276.974 125.857C276.812 125.701 276.731 125.514 276.731 125.295C276.731 125.077 276.812 124.889 276.974 124.734C277.14 124.578 277.337 124.5 277.566 124.5C277.795 124.5 277.99 124.578 278.153 124.734C278.318 124.889 278.401 125.077 278.401 125.295C278.401 125.514 278.318 125.701 278.153 125.857C277.99 126.013 277.795 126.091 277.566 126.091ZM283.374 138.023C282.807 138.023 282.32 137.95 281.912 137.804C281.505 137.661 281.165 137.473 280.893 137.237C280.625 137.005 280.411 136.757 280.252 136.491L281.187 135.835C281.293 135.974 281.427 136.134 281.589 136.312C281.752 136.495 281.974 136.652 282.255 136.785C282.54 136.921 282.913 136.989 283.374 136.989C283.991 136.989 284.499 136.839 284.9 136.541C285.301 136.243 285.502 135.776 285.502 135.139V133.588H285.402C285.316 133.727 285.194 133.9 285.035 134.105C284.879 134.307 284.653 134.488 284.358 134.647C284.067 134.803 283.672 134.881 283.175 134.881C282.559 134.881 282.005 134.735 281.515 134.443C281.027 134.152 280.641 133.727 280.356 133.17C280.075 132.614 279.934 131.937 279.934 131.142C279.934 130.36 280.071 129.679 280.346 129.099C280.621 128.515 281.004 128.065 281.495 127.746C281.985 127.425 282.552 127.264 283.195 127.264C283.692 127.264 284.087 127.347 284.378 127.513C284.673 127.675 284.899 127.861 285.054 128.07C285.214 128.275 285.336 128.444 285.422 128.577H285.542V127.364H286.675V135.219C286.675 135.875 286.526 136.409 286.228 136.82C285.933 137.234 285.535 137.537 285.035 137.729C284.537 137.925 283.984 138.023 283.374 138.023ZM283.334 133.827C283.805 133.827 284.203 133.719 284.527 133.504C284.852 133.288 285.099 132.978 285.268 132.574C285.437 132.17 285.522 131.686 285.522 131.122C285.522 130.572 285.439 130.086 285.273 129.665C285.107 129.245 284.862 128.915 284.537 128.676C284.213 128.437 283.812 128.318 283.334 128.318C282.837 128.318 282.423 128.444 282.091 128.696C281.763 128.948 281.516 129.286 281.351 129.71C281.188 130.134 281.107 130.605 281.107 131.122C281.107 131.652 281.19 132.121 281.356 132.529C281.525 132.933 281.773 133.252 282.101 133.484C282.433 133.712 282.844 133.827 283.334 133.827ZM289.996 130.406V135H288.823V124.818H289.996V128.557H290.096C290.275 128.162 290.543 127.849 290.901 127.617C291.262 127.382 291.743 127.264 292.343 127.264C292.863 127.264 293.319 127.369 293.71 127.577C294.101 127.783 294.404 128.099 294.62 128.527C294.839 128.951 294.948 129.491 294.948 130.148V135H293.775V130.227C293.775 129.621 293.617 129.152 293.302 128.82C292.991 128.486 292.558 128.318 292.005 128.318C291.62 128.318 291.276 128.399 290.971 128.562C290.669 128.724 290.43 128.961 290.255 129.273C290.082 129.584 289.996 129.962 289.996 130.406ZM300.415 127.364V128.358H296.458V127.364H300.415ZM297.611 125.534H298.785V132.812C298.785 133.144 298.833 133.393 298.929 133.558C299.028 133.721 299.154 133.83 299.307 133.886C299.463 133.939 299.627 133.966 299.799 133.966C299.928 133.966 300.034 133.959 300.117 133.946C300.2 133.929 300.266 133.916 300.316 133.906L300.555 134.96C300.475 134.99 300.364 135.02 300.222 135.05C300.079 135.083 299.898 135.099 299.68 135.099C299.348 135.099 299.023 135.028 298.705 134.886C298.39 134.743 298.128 134.526 297.92 134.234C297.714 133.943 297.611 133.575 297.611 133.131V125.534ZM306.118 137.864V127.364H307.251V128.577H307.391C307.477 128.444 307.596 128.275 307.748 128.07C307.904 127.861 308.126 127.675 308.415 127.513C308.706 127.347 309.101 127.264 309.598 127.264C310.241 127.264 310.808 127.425 311.298 127.746C311.789 128.068 312.172 128.524 312.447 129.114C312.722 129.704 312.859 130.4 312.859 131.202C312.859 132.01 312.722 132.711 312.447 133.305C312.172 133.895 311.79 134.352 311.303 134.677C310.816 134.998 310.254 135.159 309.618 135.159C309.127 135.159 308.735 135.078 308.44 134.915C308.145 134.75 307.918 134.562 307.758 134.354C307.599 134.142 307.477 133.966 307.391 133.827H307.291V137.864H306.118ZM307.271 131.182C307.271 131.759 307.356 132.267 307.525 132.708C307.694 133.146 307.941 133.489 308.266 133.737C308.59 133.982 308.988 134.105 309.459 134.105C309.949 134.105 310.359 133.976 310.687 133.717C311.018 133.455 311.267 133.104 311.432 132.663C311.601 132.219 311.686 131.725 311.686 131.182C311.686 130.645 311.603 130.161 311.437 129.73C311.275 129.296 311.028 128.953 310.697 128.701C310.369 128.446 309.956 128.318 309.459 128.318C308.981 128.318 308.58 128.439 308.256 128.681C307.931 128.92 307.686 129.254 307.52 129.685C307.354 130.113 307.271 130.612 307.271 131.182ZM315.822 124.818V135H314.649V124.818H315.822ZM320.218 135.179C319.735 135.179 319.295 135.088 318.901 134.906C318.507 134.72 318.193 134.453 317.961 134.105C317.729 133.754 317.613 133.33 317.613 132.832C317.613 132.395 317.7 132.04 317.872 131.768C318.044 131.493 318.275 131.278 318.563 131.122C318.851 130.966 319.169 130.85 319.517 130.774C319.869 130.695 320.222 130.632 320.576 130.585C321.04 130.526 321.417 130.481 321.705 130.451C321.997 130.418 322.209 130.363 322.341 130.287C322.477 130.211 322.545 130.078 322.545 129.889V129.849C322.545 129.359 322.411 128.978 322.142 128.706C321.877 128.434 321.475 128.298 320.934 128.298C320.374 128.298 319.935 128.421 319.617 128.666C319.299 128.911 319.075 129.173 318.946 129.452L317.832 129.054C318.031 128.59 318.296 128.229 318.628 127.97C318.962 127.708 319.327 127.526 319.721 127.423C320.119 127.317 320.51 127.264 320.895 127.264C321.14 127.264 321.422 127.294 321.74 127.354C322.061 127.41 322.371 127.528 322.669 127.707C322.971 127.886 323.221 128.156 323.42 128.517C323.619 128.878 323.718 129.362 323.718 129.969V135H322.545V133.966H322.486C322.406 134.132 322.273 134.309 322.088 134.498C321.902 134.687 321.655 134.848 321.347 134.98C321.039 135.113 320.663 135.179 320.218 135.179ZM320.397 134.125C320.861 134.125 321.253 134.034 321.571 133.852C321.892 133.669 322.134 133.434 322.297 133.146C322.462 132.857 322.545 132.554 322.545 132.236V131.162C322.495 131.222 322.386 131.276 322.217 131.326C322.051 131.372 321.859 131.414 321.64 131.45C321.425 131.483 321.214 131.513 321.009 131.54C320.807 131.563 320.643 131.583 320.517 131.599C320.212 131.639 319.927 131.704 319.662 131.793C319.4 131.879 319.188 132.01 319.025 132.186C318.866 132.358 318.787 132.594 318.787 132.892C318.787 133.3 318.937 133.608 319.239 133.817C319.544 134.022 319.93 134.125 320.397 134.125ZM328.962 135.159C328.246 135.159 327.63 134.99 327.113 134.652C326.596 134.314 326.198 133.848 325.92 133.255C325.641 132.662 325.502 131.984 325.502 131.222C325.502 130.446 325.645 129.762 325.93 129.168C326.218 128.572 326.619 128.106 327.133 127.771C327.65 127.433 328.253 127.264 328.942 127.264C329.479 127.264 329.963 127.364 330.394 127.562C330.825 127.761 331.178 128.04 331.453 128.398C331.728 128.756 331.899 129.173 331.965 129.651H330.792C330.702 129.303 330.503 128.994 330.195 128.726C329.89 128.454 329.479 128.318 328.962 128.318C328.505 128.318 328.104 128.437 327.759 128.676C327.418 128.911 327.151 129.245 326.959 129.675C326.77 130.103 326.675 130.605 326.675 131.182C326.675 131.772 326.768 132.286 326.954 132.723C327.143 133.161 327.408 133.5 327.749 133.742C328.094 133.984 328.498 134.105 328.962 134.105C329.267 134.105 329.544 134.052 329.793 133.946C330.041 133.84 330.252 133.688 330.424 133.489C330.596 133.29 330.719 133.051 330.792 132.773H331.965C331.899 133.223 331.735 133.629 331.473 133.991C331.214 134.349 330.871 134.634 330.444 134.846C330.02 135.055 329.526 135.159 328.962 135.159ZM336.882 135.159C336.146 135.159 335.512 134.997 334.978 134.672C334.448 134.344 334.038 133.886 333.75 133.3C333.465 132.71 333.322 132.024 333.322 131.241C333.322 130.459 333.465 129.77 333.75 129.173C334.038 128.573 334.439 128.106 334.953 127.771C335.47 127.433 336.073 127.264 336.763 127.264C337.16 127.264 337.553 127.33 337.941 127.463C338.329 127.596 338.682 127.811 339 128.109C339.318 128.404 339.572 128.795 339.761 129.283C339.949 129.77 340.044 130.37 340.044 131.082V131.58H334.158V130.565H338.851C338.851 130.134 338.765 129.75 338.592 129.412C338.423 129.074 338.181 128.807 337.866 128.612C337.555 128.416 337.187 128.318 336.763 128.318C336.295 128.318 335.891 128.434 335.55 128.666C335.212 128.895 334.951 129.193 334.769 129.561C334.587 129.929 334.496 130.323 334.496 130.744V131.42C334.496 131.997 334.595 132.486 334.794 132.887C334.996 133.285 335.276 133.588 335.634 133.797C335.992 134.002 336.408 134.105 336.882 134.105C337.19 134.105 337.469 134.062 337.717 133.976C337.969 133.886 338.186 133.754 338.369 133.578C338.551 133.399 338.692 133.177 338.791 132.912L339.925 133.23C339.805 133.615 339.605 133.953 339.323 134.244C339.041 134.533 338.693 134.758 338.279 134.92C337.865 135.08 337.399 135.159 336.882 135.159Z" fill="black"/>
<defs>
<filter id="filter0_d_402_3328" x="0" y="0" width="428" height="238" filterUnits="userSpaceOnUse" color-interpolation-filters="sRGB">
<feFlood flood-opacity="0" result="BackgroundImageFix"/>
<feColorMatrix in="SourceAlpha" type="matrix" values="0 0 0 0 0 0 0 0 0 0 0 0 0 0 0 0 0 0 127 0" result="hardAlpha"/>
<feOffset dy="16"/>
<feGaussianBlur stdDeviation="34"/>
<feComposite in2="hardAlpha" operator="out"/>
<feColorMatrix type="matrix" values="0 0 0 0 0.917647 0 0 0 0 0 0 0 0 0 0.490196 0 0 0 0.27 0"/>
<feBlend mode="normal" in2="BackgroundImageFix" result="effect1_dropShadow_402_3328"/>
<feBlend mode="normal" in="SourceGraphic" in2="effect1_dropShadow_402_3328" result="shape"/>
</filter>
</defs>
</svg>
