<svg width="773" height="207" viewBox="0 0 773 207" fill="none" xmlns="http://www.w3.org/2000/svg">
<path d="M253.43 74.3799H265.37V164.49H253.43V122.57H217.62V164.49H205.68V74.3799H217.62V112.38H253.43V74.3799ZM338.88 130.72C338.941 135.671 338.153 140.595 336.55 145.28C335.216 149.345 333.088 153.104 330.29 156.34C327.591 159.429 324.268 161.91 320.54 163.62C316.633 165.31 312.417 166.168 308.16 166.14C303.958 166.171 299.796 165.327 295.94 163.66C292.267 161.925 288.994 159.446 286.33 156.38C283.523 153.124 281.349 149.373 279.92 145.32C278.416 140.615 277.68 135.699 277.74 130.76C277.673 125.801 278.41 120.864 279.92 116.14C281.315 112.089 283.493 108.351 286.33 105.14C288.973 102.089 292.253 99.6549 295.94 98.0099C299.772 96.2511 303.944 95.3566 308.16 95.3899C312.428 95.3462 316.655 96.2406 320.54 98.0099C324.281 99.6284 327.613 102.065 330.29 105.14C333.117 108.332 335.249 112.078 336.55 116.14C338.155 120.831 338.943 125.762 338.88 130.72ZM326.51 130.72C326.51 123.047 324.86 117.047 321.56 112.72C320.054 110.582 318.042 108.851 315.704 107.682C313.365 106.513 310.773 105.942 308.16 106.02C305.571 105.954 303.006 106.532 300.695 107.701C298.384 108.87 296.4 110.595 294.92 112.72C291.72 117.087 290.116 123.087 290.11 130.72C290.103 138.353 291.706 144.37 294.92 148.77C296.423 150.861 298.416 152.551 300.724 153.693C303.032 154.835 305.585 155.394 308.16 155.32C310.758 155.406 313.339 154.854 315.675 153.712C318.011 152.571 320.031 150.874 321.56 148.77C324.86 144.31 326.51 138.293 326.51 130.72ZM380.09 96.9499H408.62V106.95H380.09V138.44C380.031 141.222 380.275 144.001 380.82 146.73C381.179 148.623 381.954 150.413 383.09 151.97C384.267 153.242 385.783 154.15 387.46 154.59C389.554 155.12 391.71 155.365 393.87 155.32C396.709 155.392 399.545 155.1 402.31 154.45C404.432 153.888 406.492 153.114 408.46 152.14L410.21 162.33C408.876 162.91 406.693 163.687 403.66 164.66C400.121 165.727 396.435 166.226 392.74 166.14C388.545 166.251 384.361 165.646 380.37 164.35C377.408 163.358 374.784 161.552 372.8 159.14C370.955 156.587 369.71 153.651 369.16 150.55C368.443 146.564 368.108 142.519 368.16 138.47V106.99H353.87V96.9899H368.14V78.0199L380.08 76.0199L380.09 96.9499Z" fill="#EEEEEE"/>
<path d="M92.3906 179.26C100.546 179.26 108.367 176.02 114.134 170.253C119.901 164.487 123.141 156.665 123.141 148.51C123.141 144.472 122.345 140.473 120.8 136.742C119.255 133.011 116.99 129.622 114.134 126.766C108.367 120.999 100.546 117.76 92.3906 117.76C88.3525 117.76 84.3539 118.555 80.6231 120.1C76.8923 121.646 73.5025 123.911 70.6471 126.766C64.8803 132.533 61.6406 140.354 61.6406 148.51C61.6406 156.665 64.8803 164.487 70.6471 170.253C76.4138 176.02 84.2352 179.26 92.3906 179.26V179.26Z" fill="url(#paint0_linear_1564_1279)"/>
<path d="M76.82 147.89H67.82L82.57 139.89V145.63L76.82 147.89ZM82.54 155.89L67.79 147.89H76.79L82.51 150.29L82.54 155.89Z" fill="white"/>
<path d="M89.41 164.5H83.79L97.84 130.06H103.47L89.41 164.5Z" fill="white"/>
<path d="M103.469 139.9L118.219 147.9H109.189L103.469 145.64V139.9ZM109.189 147.9H118.189L103.439 155.9V150.3L109.189 147.9Z" fill="white"/>
<path d="M460.58 166.39C447.867 166.39 438.163 162.313 431.47 154.16C424.777 146.007 421.427 134.41 421.42 119.37C421.31 112.595 422.344 105.85 424.48 99.42C426.284 94.0057 429.154 89.0074 432.92 84.72C436.505 80.7208 440.95 77.5857 445.92 75.55C451.13 73.3804 456.727 72.2917 462.37 72.35C465.257 72.3175 468.138 72.6094 470.96 73.22C473.281 73.631 475.567 74.216 477.8 74.97C479.473 75.524 481.082 76.2548 482.6 77.15L485.66 78.9L480.96 93.14C478.427 91.5507 475.684 90.3254 472.81 89.5C469.347 88.3925 465.726 87.8588 462.09 87.92C459.248 87.9283 456.432 88.471 453.79 89.52C451.021 90.5953 448.565 92.349 446.65 94.62C444.361 97.417 442.633 100.629 441.56 104.08C440.186 108.907 439.549 113.913 439.67 118.93C439.67 129.217 441.417 137.127 444.91 142.66C448.503 148.093 454.327 150.81 462.38 150.81C466.276 150.923 470.163 150.382 473.88 149.21C476.446 148.373 478.93 147.302 481.3 146.01L485.76 160.14C482.507 162.006 479.038 163.467 475.43 164.49C470.597 165.833 465.596 166.473 460.58 166.39V166.39ZM558.99 130.14C559.05 135.186 558.262 140.205 556.66 144.99C555.211 149.156 552.981 153.008 550.09 156.34C547.28 159.534 543.801 162.071 539.9 163.77C535.769 165.564 531.303 166.457 526.8 166.39C522.249 166.448 517.736 165.556 513.55 163.77C509.684 162.022 506.221 159.492 503.38 156.34C500.489 153.012 498.266 149.158 496.83 144.99C495.223 140.206 494.435 135.186 494.5 130.14C494.434 125.189 495.222 120.263 496.83 115.58C498.311 111.402 500.582 107.549 503.52 104.23C506.379 101.061 509.912 98.573 513.86 96.95C517.961 95.1739 522.391 94.2813 526.86 94.33C531.314 94.2673 535.73 95.1607 539.81 96.95C543.727 98.5504 547.216 101.043 550 104.23C553.007 107.5 555.29 111.367 556.7 115.58C558.29 120.267 559.064 125.191 558.99 130.14V130.14ZM512.7 130.28C512.7 136.4 513.767 141.35 515.9 145.13C518.033 148.91 521.573 150.803 526.52 150.81C528.62 150.913 530.707 150.439 532.557 149.439C534.406 148.44 535.946 146.953 537.01 145.14C539.43 141.36 540.64 136.41 540.64 130.29C540.64 124.17 539.527 119.27 537.3 115.59C535.16 111.81 531.667 109.917 526.82 109.91C524.702 109.819 522.599 110.299 520.729 111.298C518.859 112.297 517.292 113.779 516.19 115.59C513.857 119.29 512.693 124.187 512.7 130.28V130.28ZM585.34 129.85C585.34 135.957 586.453 140.957 588.68 144.85C591.013 148.73 594.703 150.67 599.75 150.67C601.2 150.67 602.56 150.67 603.82 150.53C605.08 150.39 606.39 150.29 607.76 150.09V112.82C606.287 111.998 604.719 111.36 603.09 110.92C601.306 110.333 599.438 110.04 597.56 110.05C593.3 110.05 590.197 111.747 588.25 115.14C586.303 118.533 585.333 123.437 585.34 129.85V129.85ZM625.66 162.46C621.713 163.666 617.672 164.542 613.58 165.08C608.943 165.745 604.265 166.079 599.58 166.08C588.913 166.08 580.81 162.923 575.27 156.61C569.73 150.297 567.013 141.66 567.12 130.7C567.12 119.54 569.4 110.757 573.96 104.35C578.627 97.85 585.47 94.6 594.49 94.6C596.893 94.5978 599.288 94.89 601.62 95.47C603.757 95.893 605.82 96.631 607.74 97.66V66.52L625.64 63.52L625.66 162.46ZM640.36 130.87C640.238 125.453 641.165 120.064 643.09 115C644.724 110.76 647.201 106.896 650.37 103.64C653.275 100.597 656.797 98.2098 660.7 96.64C664.493 95.1005 668.547 94.3093 672.64 94.31C682.727 94.31 690.393 97.31 695.64 103.31C700.887 109.31 703.507 117.997 703.5 129.37C703.5 130.54 703.45 131.75 703.36 133.01C703.373 134.032 703.323 135.054 703.21 136.07H658.81C658.759 138.163 659.24 140.235 660.207 142.092C661.174 143.95 662.596 145.531 664.34 146.69C668.033 149.217 672.79 150.48 678.61 150.48C682.041 150.498 685.462 150.105 688.8 149.31C691.604 148.677 694.374 147.903 697.1 146.99L699.57 162.27C696.335 163.373 693.027 164.248 689.67 164.89C685.811 165.733 681.871 166.152 677.92 166.14C672.599 166.211 667.299 165.473 662.2 163.95C657.864 162.528 653.855 160.253 650.41 157.26C647.143 154.147 644.605 150.35 642.98 146.14C641.147 141.262 640.258 136.08 640.36 130.87V130.87ZM686.22 123.73C686.231 121.957 685.986 120.192 685.49 118.49C685.033 116.796 684.241 115.212 683.16 113.83C682.07 112.458 680.672 111.362 679.08 110.63C677.18 109.703 675.083 109.253 672.97 109.32C670.874 109.274 668.791 109.672 666.86 110.49C665.239 111.239 663.799 112.331 662.64 113.69C661.54 115.104 660.657 116.675 660.02 118.35C659.435 120.095 659.042 121.899 658.85 123.73H686.22ZM741.82 150.96C745.176 151.049 748.531 150.754 751.82 150.08C754.153 149.413 755.32 148.103 755.32 146.15C755.351 144.973 754.933 143.829 754.15 142.95C753.33 141.977 752.278 141.227 751.09 140.77C749.643 140.011 748.134 139.376 746.58 138.87C744.933 138.29 743.187 137.71 741.34 137.13C738.72 136.35 736.053 135.477 733.34 134.51C730.723 133.491 728.233 132.172 725.92 130.58C723.699 129.034 721.817 127.05 720.39 124.75C718.854 122.006 718.1 118.893 718.21 115.75C718.187 112.954 718.728 110.182 719.8 107.6C721 104.926 722.812 102.573 725.09 100.73C727.788 98.5541 730.912 96.9668 734.26 96.07C738.56 94.8254 743.024 94.2388 747.5 94.33C751.648 94.2967 755.791 94.6314 759.88 95.33C763.32 95.8874 766.678 96.8647 769.88 98.24L767.12 113.38C765.47 112.89 762.89 112.12 759.4 111.05C755.59 109.833 751.609 109.242 747.61 109.3C743.05 109.3 739.943 109.883 738.29 111.05C736.74 112.12 735.96 113.28 735.96 114.54C735.95 115.596 736.303 116.623 736.96 117.45C737.835 118.303 738.816 119.039 739.88 119.64C741.14 120.307 742.543 120.973 744.09 121.64C745.75 122.22 747.49 122.8 749.34 123.38C751.96 124.26 754.67 125.23 757.49 126.29C760.202 127.314 762.759 128.707 765.09 130.43C767.433 131.997 769.378 134.089 770.77 136.54C772.299 139.287 773.052 142.398 772.95 145.54C772.962 148.287 772.418 151.009 771.35 153.54C770.2 156.189 768.347 158.471 765.99 160.14C763.098 162.2 759.835 163.681 756.38 164.5C751.571 165.677 746.63 166.229 741.68 166.14C736.56 166.265 731.452 165.591 726.54 164.14C722.367 162.807 719.033 161.593 716.54 160.5L719.3 145.5C722.7 146.833 726.293 148.097 730.08 149.29C733.892 150.413 737.846 150.975 741.82 150.96V150.96Z" fill="url(#paint1_linear_1564_1279)"/>
<path d="M155.7 125.9C147.7 99.81 147.09 90.14 152.84 81.14C152.84 81.14 131.11 93.04 134.54 121.98C134.54 121.98 128.77 100.15 139.68 82.27C144.8 73.87 136.68 64.12 136.68 64.12C138.97 72.63 132.68 86.24 132.11 71.49C131.54 56.74 121.81 40.58 121.81 40.58C133.81 81.14 121.24 84.68 121.24 84.68C127.24 71.55 112.45 36.18 112.45 36.18C114.09 52.72 110.69 55.28 110.69 55.28C102.09 49.32 109.26 30.03 108.09 19.82C106.92 9.60999 101.34 -4 101.34 -4C102.94 22.37 83.61 24.36 87.62 52.15C87.62 52.15 80.75 35.71 87.62 18.69C87.62 18.69 61.31 54.43 80.18 96.97C80.18 96.97 60.18 80.52 66.46 49.89C66.46 49.89 47.59 75.41 59.59 98.1C71.59 120.79 36.15 124.2 44.15 72.58C44.15 72.58 24.71 90.73 24.71 124.76C24.71 156.23 44.77 176.05 86.65 178.86C65.39 176.86 55.2 166.26 55.2 149.76C55.2 131.35 65.72 121.53 65.72 121.53C61.41 149.45 80.6 147.61 74.09 135.34C67.58 123.07 77.8 109.25 77.8 109.25C74.4 125.83 85.23 134.72 85.23 134.72C75.02 111.72 89.23 92.39 89.23 92.39C85.52 101.6 89.23 110.5 89.23 110.5C87.09 95.46 97.55 94.38 96.68 80.14C96.68 80.14 99.68 87.51 100.33 93.04C100.98 98.57 97.09 109.04 101.73 112.22C101.73 112.22 103.58 110.84 102.73 101.86C102.73 101.86 110.73 121 107.49 128.11C107.49 128.11 114.3 126.19 107.8 104.24C107.8 104.24 113.06 112.99 113.37 120.97C113.68 128.95 117.08 121.58 115.84 116.97C115.84 116.97 120.22 122.26 117.45 126.79C111.55 136.47 114.67 148.28 114.67 148.28C112.77 132.61 124.53 126.14 124.53 126.14C121.43 131.05 121.74 136.27 126.07 150.38C130.34 164.3 121.41 178.79 95.74 179.24H97.36C146.55 179.22 163.7 151.99 155.7 125.9Z" fill="url(#paint2_linear_1564_1279)"/>
<g opacity="0.9">
<path opacity="0.9" d="M91.64 206.33C142.25 206.33 183.28 202.46 183.28 197.69C183.28 192.92 142.28 189.05 91.64 189.05C41 189.05 0 192.92 0 197.69C0 202.46 41.03 206.33 91.64 206.33Z" fill="url(#paint3_radial_1564_1279)"/>
</g>
<defs>
<linearGradient id="paint0_linear_1564_1279" x1="61.6406" y1="148.51" x2="123.141" y2="148.51" gradientUnits="userSpaceOnUse">
<stop stop-color="#FF0080"/>
<stop offset="1" stop-color="#7928CA"/>
</linearGradient>
<linearGradient id="paint1_linear_1564_1279" x1="565.27" y1="-33.8" x2="613.9" y2="201.22" gradientUnits="userSpaceOnUse">
<stop stop-color="#FF0080"/>
<stop offset="1" stop-color="#7928CA"/>
</linearGradient>
<linearGradient id="paint2_linear_1564_1279" x1="91.16" y1="-4" x2="91.16" y2="179.26" gradientUnits="userSpaceOnUse">
<stop stop-color="#FF0080"/>
<stop offset="1" stop-color="#7928CA"/>
</linearGradient>
<radialGradient id="paint3_radial_1564_1279" cx="0" cy="0" r="1" gradientUnits="userSpaceOnUse" gradientTransform="translate(93.6972 194.491) rotate(180) scale(69.8026 9.0447)">
<stop stop-color="#D0D2D3"/>
<stop offset="1" stop-color="#EA007D" stop-opacity="0"/>
</radialGradient>
</defs>
</svg>
