<svg width="773" height="211" viewBox="0 0 773 211" fill="none" xmlns="http://www.w3.org/2000/svg">
<path d="M253.43 78.3799H265.37V168.49H253.43V126.57H217.62V168.49H205.68V78.3799H217.62V116.38H253.43V78.3799ZM338.88 134.72C338.941 139.671 338.153 144.595 336.55 149.28C335.216 153.345 333.088 157.104 330.29 160.34C327.591 163.429 324.268 165.91 320.54 167.62C316.633 169.31 312.417 170.168 308.16 170.14C303.958 170.171 299.796 169.327 295.94 167.66C292.267 165.925 288.994 163.446 286.33 160.38C283.523 157.124 281.349 153.373 279.92 149.32C278.416 144.615 277.68 139.699 277.74 134.76C277.673 129.801 278.41 124.864 279.92 120.14C281.315 116.089 283.493 112.351 286.33 109.14C288.973 106.089 292.253 103.655 295.94 102.01C299.772 100.251 303.944 99.3566 308.16 99.3899C312.428 99.3462 316.655 100.241 320.54 102.01C324.281 103.628 327.613 106.065 330.29 109.14C333.117 112.332 335.249 116.078 336.55 120.14C338.155 124.831 338.943 129.762 338.88 134.72ZM326.51 134.72C326.51 127.047 324.86 121.047 321.56 116.72C320.054 114.582 318.042 112.851 315.704 111.682C313.365 110.513 310.773 109.942 308.16 110.02C305.571 109.954 303.006 110.532 300.695 111.701C298.384 112.87 296.4 114.595 294.92 116.72C291.72 121.087 290.116 127.087 290.11 134.72C290.103 142.353 291.706 148.37 294.92 152.77C296.423 154.861 298.416 156.551 300.724 157.693C303.032 158.835 305.585 159.394 308.16 159.32C310.758 159.406 313.339 158.854 315.675 157.712C318.011 156.571 320.031 154.874 321.56 152.77C324.86 148.31 326.51 142.293 326.51 134.72ZM380.09 100.95H408.62V110.95H380.09V142.44C380.031 145.222 380.275 148.001 380.82 150.73C381.179 152.623 381.954 154.413 383.09 155.97C384.267 157.242 385.783 158.15 387.46 158.59C389.554 159.12 391.71 159.365 393.87 159.32C396.709 159.392 399.545 159.1 402.31 158.45C404.432 157.888 406.492 157.114 408.46 156.14L410.21 166.33C408.876 166.91 406.693 167.687 403.66 168.66C400.121 169.727 396.435 170.226 392.74 170.14C388.545 170.251 384.361 169.646 380.37 168.35C377.408 167.358 374.784 165.552 372.8 163.14C370.955 160.587 369.71 157.651 369.16 154.55C368.443 150.564 368.108 146.519 368.16 142.47V110.99H353.87V100.99H368.14V82.0199L380.08 80.0199L380.09 100.95Z" fill="#393938"/>
<path d="M92.3906 183.26C100.546 183.26 108.367 180.02 114.134 174.253C119.901 168.487 123.141 160.665 123.141 152.51C123.141 148.472 122.345 144.473 120.8 140.742C119.255 137.011 116.99 133.622 114.134 130.766C108.367 124.999 100.546 121.76 92.3906 121.76C88.3525 121.76 84.3539 122.555 80.6231 124.1C76.8923 125.646 73.5025 127.911 70.6471 130.766C64.8803 136.533 61.6406 144.354 61.6406 152.51C61.6406 160.665 64.8803 168.487 70.6471 174.253C76.4138 180.02 84.2352 183.26 92.3906 183.26V183.26Z" fill="url(#paint0_linear_1564_1279)"/>
<path d="M76.82 151.89H67.82L82.57 143.89V149.63L76.82 151.89ZM82.54 159.89L67.79 151.89H76.79L82.51 154.29L82.54 159.89Z" fill="white"/>
<path d="M89.41 168.5H83.79L97.84 134.06H103.47L89.41 168.5Z" fill="white"/>
<path d="M103.469 143.9L118.219 151.9H109.189L103.469 149.64V143.9ZM109.189 151.9H118.189L103.439 159.9V154.3L109.189 151.9Z" fill="white"/>
<path d="M460.58 170.39C447.867 170.39 438.163 166.313 431.47 158.16C424.777 150.007 421.427 138.41 421.42 123.37C421.31 116.595 422.344 109.85 424.48 103.42C426.284 98.0057 429.154 93.0074 432.92 88.72C436.505 84.7208 440.95 81.5857 445.92 79.55C451.13 77.3804 456.727 76.2917 462.37 76.35C465.257 76.3175 468.138 76.6094 470.96 77.22C473.281 77.631 475.567 78.216 477.8 78.97C479.473 79.524 481.082 80.2548 482.6 81.15L485.66 82.9L480.96 97.14C478.427 95.5507 475.684 94.3254 472.81 93.5C469.347 92.3925 465.726 91.8588 462.09 91.92C459.248 91.9283 456.432 92.471 453.79 93.52C451.021 94.5953 448.565 96.349 446.65 98.62C444.361 101.417 442.633 104.629 441.56 108.08C440.186 112.907 439.549 117.913 439.67 122.93C439.67 133.217 441.417 141.127 444.91 146.66C448.503 152.093 454.327 154.81 462.38 154.81C466.276 154.923 470.163 154.382 473.88 153.21C476.446 152.373 478.93 151.302 481.3 150.01L485.76 164.14C482.507 166.006 479.038 167.467 475.43 168.49C470.597 169.833 465.596 170.473 460.58 170.39V170.39ZM558.99 134.14C559.05 139.186 558.262 144.205 556.66 148.99C555.211 153.156 552.981 157.008 550.09 160.34C547.28 163.534 543.801 166.071 539.9 167.77C535.769 169.564 531.303 170.457 526.8 170.39C522.249 170.448 517.736 169.556 513.55 167.77C509.684 166.022 506.221 163.492 503.38 160.34C500.489 157.012 498.266 153.158 496.83 148.99C495.223 144.206 494.435 139.186 494.5 134.14C494.434 129.189 495.222 124.263 496.83 119.58C498.311 115.402 500.582 111.549 503.52 108.23C506.379 105.061 509.912 102.573 513.86 100.95C517.961 99.1739 522.391 98.2813 526.86 98.33C531.314 98.2673 535.73 99.1607 539.81 100.95C543.727 102.55 547.216 105.043 550 108.23C553.007 111.5 555.29 115.367 556.7 119.58C558.29 124.267 559.064 129.191 558.99 134.14V134.14ZM512.7 134.28C512.7 140.4 513.767 145.35 515.9 149.13C518.033 152.91 521.573 154.803 526.52 154.81C528.62 154.913 530.707 154.439 532.557 153.439C534.406 152.44 535.946 150.953 537.01 149.14C539.43 145.36 540.64 140.41 540.64 134.29C540.64 128.17 539.527 123.27 537.3 119.59C535.16 115.81 531.667 113.917 526.82 113.91C524.702 113.819 522.599 114.299 520.729 115.298C518.859 116.297 517.292 117.779 516.19 119.59C513.857 123.29 512.693 128.187 512.7 134.28V134.28ZM585.34 133.85C585.34 139.957 586.453 144.957 588.68 148.85C591.013 152.73 594.703 154.67 599.75 154.67C601.2 154.67 602.56 154.67 603.82 154.53C605.08 154.39 606.39 154.29 607.76 154.09V116.82C606.287 115.998 604.719 115.36 603.09 114.92C601.306 114.333 599.438 114.04 597.56 114.05C593.3 114.05 590.197 115.747 588.25 119.14C586.303 122.533 585.333 127.437 585.34 133.85V133.85ZM625.66 166.46C621.713 167.666 617.672 168.542 613.58 169.08C608.943 169.745 604.265 170.079 599.58 170.08C588.913 170.08 580.81 166.923 575.27 160.61C569.73 154.297 567.013 145.66 567.12 134.7C567.12 123.54 569.4 114.757 573.96 108.35C578.627 101.85 585.47 98.6 594.49 98.6C596.893 98.5978 599.288 98.89 601.62 99.47C603.757 99.893 605.82 100.631 607.74 101.66V70.52L625.64 67.52L625.66 166.46ZM640.36 134.87C640.238 129.453 641.165 124.064 643.09 119C644.724 114.76 647.201 110.896 650.37 107.64C653.275 104.597 656.797 102.21 660.7 100.64C664.493 99.1005 668.547 98.3093 672.64 98.31C682.727 98.31 690.393 101.31 695.64 107.31C700.887 113.31 703.507 121.997 703.5 133.37C703.5 134.54 703.45 135.75 703.36 137.01C703.373 138.032 703.323 139.054 703.21 140.07H658.81C658.759 142.163 659.24 144.235 660.207 146.092C661.174 147.95 662.596 149.531 664.34 150.69C668.033 153.217 672.79 154.48 678.61 154.48C682.041 154.498 685.462 154.105 688.8 153.31C691.604 152.677 694.374 151.903 697.1 150.99L699.57 166.27C696.335 167.373 693.027 168.248 689.67 168.89C685.811 169.733 681.871 170.152 677.92 170.14C672.599 170.211 667.299 169.473 662.2 167.95C657.864 166.528 653.855 164.253 650.41 161.26C647.143 158.147 644.605 154.35 642.98 150.14C641.147 145.262 640.258 140.08 640.36 134.87V134.87ZM686.22 127.73C686.231 125.957 685.986 124.192 685.49 122.49C685.033 120.796 684.241 119.212 683.16 117.83C682.07 116.458 680.672 115.362 679.08 114.63C677.18 113.703 675.083 113.253 672.97 113.32C670.874 113.274 668.791 113.672 666.86 114.49C665.239 115.239 663.799 116.331 662.64 117.69C661.54 119.104 660.657 120.675 660.02 122.35C659.435 124.095 659.042 125.899 658.85 127.73H686.22ZM741.82 154.96C745.176 155.049 748.531 154.754 751.82 154.08C754.153 153.413 755.32 152.103 755.32 150.15C755.351 148.973 754.933 147.829 754.15 146.95C753.33 145.977 752.278 145.227 751.09 144.77C749.643 144.011 748.134 143.376 746.58 142.87C744.933 142.29 743.187 141.71 741.34 141.13C738.72 140.35 736.053 139.477 733.34 138.51C730.723 137.491 728.233 136.172 725.92 134.58C723.699 133.034 721.817 131.05 720.39 128.75C718.854 126.006 718.1 122.893 718.21 119.75C718.187 116.954 718.728 114.182 719.8 111.6C721 108.926 722.812 106.573 725.09 104.73C727.788 102.554 730.912 100.967 734.26 100.07C738.56 98.8254 743.024 98.2388 747.5 98.33C751.648 98.2967 755.791 98.6314 759.88 99.33C763.32 99.8874 766.678 100.865 769.88 102.24L767.12 117.38C765.47 116.89 762.89 116.12 759.4 115.05C755.59 113.833 751.609 113.242 747.61 113.3C743.05 113.3 739.943 113.883 738.29 115.05C736.74 116.12 735.96 117.28 735.96 118.54C735.95 119.596 736.303 120.623 736.96 121.45C737.835 122.303 738.816 123.039 739.88 123.64C741.14 124.307 742.543 124.973 744.09 125.64C745.75 126.22 747.49 126.8 749.34 127.38C751.96 128.26 754.67 129.23 757.49 130.29C760.202 131.314 762.759 132.707 765.09 134.43C767.433 135.997 769.378 138.089 770.77 140.54C772.299 143.287 773.052 146.398 772.95 149.54C772.962 152.287 772.418 155.009 771.35 157.54C770.2 160.189 768.347 162.471 765.99 164.14C763.098 166.2 759.835 167.681 756.38 168.5C751.571 169.677 746.63 170.229 741.68 170.14C736.56 170.265 731.452 169.591 726.54 168.14C722.367 166.807 719.033 165.593 716.54 164.5L719.3 149.5C722.7 150.833 726.293 152.097 730.08 153.29C733.892 154.413 737.846 154.975 741.82 154.96V154.96Z" fill="url(#paint1_linear_1564_1279)"/>
<path d="M155.7 129.9C147.7 103.81 147.09 94.14 152.84 85.14C152.84 85.14 131.11 97.04 134.54 125.98C134.54 125.98 128.77 104.15 139.68 86.27C144.8 77.87 136.68 68.12 136.68 68.12C138.97 76.63 132.68 90.24 132.11 75.49C131.54 60.74 121.81 44.58 121.81 44.58C133.81 85.14 121.24 88.68 121.24 88.68C127.24 75.55 112.45 40.18 112.45 40.18C114.09 56.72 110.69 59.28 110.69 59.28C102.09 53.32 109.26 34.03 108.09 23.82C106.92 13.61 101.34 0 101.34 0C102.94 26.37 83.61 28.36 87.62 56.15C87.62 56.15 80.75 39.71 87.62 22.69C87.62 22.69 61.31 58.43 80.18 100.97C80.18 100.97 60.18 84.52 66.46 53.89C66.46 53.89 47.59 79.41 59.59 102.1C71.59 124.79 36.15 128.2 44.15 76.58C44.15 76.58 24.71 94.73 24.71 128.76C24.71 160.23 44.77 180.05 86.65 182.86C65.39 180.86 55.2 170.26 55.2 153.76C55.2 135.35 65.72 125.53 65.72 125.53C61.41 153.45 80.6 151.61 74.09 139.34C67.58 127.07 77.8 113.25 77.8 113.25C74.4 129.83 85.23 138.72 85.23 138.72C75.02 115.72 89.23 96.39 89.23 96.39C85.52 105.6 89.23 114.5 89.23 114.5C87.09 99.46 97.55 98.38 96.68 84.14C96.68 84.14 99.68 91.51 100.33 97.04C100.98 102.57 97.09 113.04 101.73 116.22C101.73 116.22 103.58 114.84 102.73 105.86C102.73 105.86 110.73 125 107.49 132.11C107.49 132.11 114.3 130.19 107.8 108.24C107.8 108.24 113.06 116.99 113.37 124.97C113.68 132.95 117.08 125.58 115.84 120.97C115.84 120.97 120.22 126.26 117.45 130.79C111.55 140.47 114.67 152.28 114.67 152.28C112.77 136.61 124.53 130.14 124.53 130.14C121.43 135.05 121.74 140.27 126.07 154.38C130.34 168.3 121.41 182.79 95.74 183.24H97.36C146.55 183.22 163.7 155.99 155.7 129.9Z" fill="url(#paint2_linear_1564_1279)"/>
<g opacity="0.9">
<path opacity="0.9" d="M91.64 210.33C142.25 210.33 183.28 206.46 183.28 201.69C183.28 196.92 142.28 193.05 91.64 193.05C41 193.05 0 196.92 0 201.69C0 206.46 41.03 210.33 91.64 210.33Z" fill="url(#paint3_radial_1564_1279)"/>
</g>
<defs>
<linearGradient id="paint0_linear_1564_1279" x1="61.6406" y1="152.51" x2="123.141" y2="152.51" gradientUnits="userSpaceOnUse">
<stop stop-color="#FF0080"/>
<stop offset="1" stop-color="#7928CA"/>
</linearGradient>
<linearGradient id="paint1_linear_1564_1279" x1="565.27" y1="-29.8" x2="613.9" y2="205.22" gradientUnits="userSpaceOnUse">
<stop stop-color="#FF0080"/>
<stop offset="1" stop-color="#7928CA"/>
</linearGradient>
<linearGradient id="paint2_linear_1564_1279" x1="91.16" y1="0" x2="91.16" y2="183.26" gradientUnits="userSpaceOnUse">
<stop stop-color="#FF0080"/>
<stop offset="1" stop-color="#7928CA"/>
</linearGradient>
<radialGradient id="paint3_radial_1564_1279" cx="0" cy="0" r="1" gradientUnits="userSpaceOnUse" gradientTransform="translate(93.6972 198.491) rotate(180) scale(69.8026 9.0447)">
<stop stop-color="#D0D2D3"/>
<stop offset="1" stop-color="#EA007D" stop-opacity="0"/>
</radialGradient>
</defs>
</svg>
