<svg width="428" height="262" viewBox="0 0 428 262" fill="none" xmlns="http://www.w3.org/2000/svg">
<g filter="url(#filter0_d_402_3244)">
<rect x="68" y="52" width="292" height="126" rx="10" fill="white"/>
</g>
<path d="M133.364 86H128.435V71.4545H133.463C134.907 71.4545 136.148 71.7457 137.185 72.3281C138.226 72.9058 139.027 73.7367 139.585 74.821C140.144 75.9053 140.423 77.2027 140.423 78.7131C140.423 80.2282 140.142 81.5303 139.578 82.6193C139.019 83.7083 138.212 84.544 137.156 85.1264C136.105 85.7088 134.841 86 133.364 86ZM131.07 83.7202H133.236C134.249 83.7202 135.094 83.5355 135.771 83.1662C136.448 82.7921 136.957 82.2358 137.298 81.4972C137.639 80.7538 137.81 79.8258 137.81 78.7131C137.81 77.6004 137.639 76.6771 137.298 75.9432C136.957 75.2045 136.453 74.6529 135.786 74.2884C135.123 73.919 134.299 73.7344 133.314 73.7344H131.07V83.7202ZM142.813 86V75.0909H145.384V86H142.813ZM144.106 73.5426C143.699 73.5426 143.348 73.4077 143.055 73.1378C142.761 72.8632 142.614 72.5341 142.614 72.1506C142.614 71.7623 142.761 71.4332 143.055 71.1634C143.348 70.8887 143.699 70.7514 144.106 70.7514C144.518 70.7514 144.868 70.8887 145.157 71.1634C145.451 71.4332 145.597 71.7623 145.597 72.1506C145.597 72.5341 145.451 72.8632 145.157 73.1378C144.868 73.4077 144.518 73.5426 144.106 73.5426ZM152.772 90.3182C151.849 90.3182 151.056 90.1927 150.393 89.9418C149.73 89.6955 149.198 89.3641 148.795 88.9474C148.393 88.5308 148.113 88.0691 147.957 87.5625L150.272 87.0014C150.377 87.2145 150.528 87.4252 150.727 87.6335C150.926 87.8466 151.193 88.0218 151.529 88.1591C151.87 88.3011 152.299 88.3722 152.815 88.3722C153.544 88.3722 154.148 88.1946 154.626 87.8395C155.104 87.4891 155.343 86.9115 155.343 86.1065V84.0398H155.216C155.083 84.3049 154.889 84.5772 154.633 84.8565C154.382 85.1359 154.048 85.3703 153.632 85.5597C153.22 85.7491 152.701 85.8438 152.076 85.8438C151.238 85.8438 150.478 85.6473 149.797 85.2543C149.119 84.8565 148.58 84.2647 148.177 83.4787C147.779 82.688 147.581 81.6984 147.581 80.5099C147.581 79.312 147.779 78.3011 148.177 77.4773C148.58 76.6487 149.122 76.0213 149.804 75.5952C150.485 75.1643 151.245 74.9489 152.083 74.9489C152.723 74.9489 153.248 75.0578 153.66 75.2756C154.077 75.4886 154.408 75.7467 154.654 76.0497C154.901 76.348 155.088 76.6297 155.216 76.8949H155.358V75.0909H157.893V86.1776C157.893 87.1103 157.671 87.8821 157.225 88.4929C156.78 89.1037 156.172 89.5606 155.4 89.8636C154.628 90.1667 153.752 90.3182 152.772 90.3182ZM152.794 83.8267C153.338 83.8267 153.802 83.6941 154.186 83.429C154.569 83.1638 154.86 82.7827 155.059 82.2855C155.258 81.7884 155.358 81.1918 155.358 80.4957C155.358 79.8092 155.258 79.2079 155.059 78.6918C154.865 78.1757 154.576 77.7756 154.193 77.4915C153.814 77.2027 153.348 77.0582 152.794 77.0582C152.221 77.0582 151.743 77.2074 151.359 77.5057C150.975 77.804 150.687 78.2135 150.493 78.7344C150.298 79.2505 150.201 79.8376 150.201 80.4957C150.201 81.1634 150.298 81.7481 150.493 82.25C150.691 82.7472 150.983 83.1354 151.366 83.4148C151.754 83.6894 152.23 83.8267 152.794 83.8267ZM160.528 86V75.0909H163.099V86H160.528ZM161.821 73.5426C161.413 73.5426 161.063 73.4077 160.77 73.1378C160.476 72.8632 160.329 72.5341 160.329 72.1506C160.329 71.7623 160.476 71.4332 160.77 71.1634C161.063 70.8887 161.413 70.7514 161.821 70.7514C162.233 70.7514 162.583 70.8887 162.872 71.1634C163.165 71.4332 163.312 71.7623 163.312 72.1506C163.312 72.5341 163.165 72.8632 162.872 73.1378C162.583 73.4077 162.233 73.5426 161.821 73.5426ZM171.19 75.0909V77.0795H164.919V75.0909H171.19ZM166.467 72.4773H169.038V82.7188C169.038 83.0644 169.09 83.3295 169.195 83.5142C169.304 83.6941 169.446 83.8172 169.621 83.8835C169.796 83.9498 169.99 83.983 170.203 83.983C170.364 83.983 170.511 83.9711 170.643 83.9474C170.781 83.9238 170.885 83.9025 170.956 83.8835L171.389 85.8935C171.252 85.9408 171.055 85.9929 170.8 86.0497C170.549 86.1065 170.241 86.1397 169.876 86.1491C169.232 86.1681 168.652 86.071 168.136 85.858C167.62 85.6402 167.211 85.304 166.908 84.8494C166.609 84.3949 166.463 83.8267 166.467 83.1449V72.4773ZM176.48 86.2202C175.788 86.2202 175.166 86.0971 174.612 85.8509C174.063 85.5999 173.627 85.2306 173.305 84.7429C172.988 84.2552 172.829 83.6539 172.829 82.9389C172.829 82.3234 172.943 81.8144 173.17 81.4119C173.397 81.0095 173.708 80.6875 174.1 80.446C174.493 80.2045 174.936 80.0223 175.429 79.8991C175.926 79.7713 176.44 79.679 176.97 79.6222C177.609 79.5559 178.127 79.4967 178.525 79.4446C178.923 79.3878 179.212 79.3026 179.392 79.1889C179.576 79.0705 179.669 78.8883 179.669 78.642V78.5994C179.669 78.0644 179.51 77.6501 179.193 77.3565C178.876 77.063 178.419 76.9162 177.822 76.9162C177.192 76.9162 176.693 77.0535 176.324 77.3281C175.959 77.6027 175.713 77.9271 175.585 78.3011L173.184 77.9602C173.374 77.2973 173.686 76.7434 174.122 76.2983C174.557 75.8485 175.09 75.5123 175.72 75.2898C176.35 75.0625 177.046 74.9489 177.808 74.9489C178.333 74.9489 178.857 75.0104 179.377 75.1335C179.898 75.2566 180.374 75.4602 180.805 75.7443C181.236 76.0237 181.582 76.4048 181.842 76.8878C182.107 77.3707 182.24 77.9744 182.24 78.6989V86H179.768V84.5014H179.683C179.527 84.8045 179.306 85.0885 179.022 85.3537C178.743 85.6141 178.39 85.8248 177.964 85.9858C177.543 86.142 177.048 86.2202 176.48 86.2202ZM177.147 84.331C177.663 84.331 178.111 84.2292 178.49 84.0256C178.868 83.8172 179.16 83.5426 179.363 83.2017C179.572 82.8608 179.676 82.4891 179.676 82.0866V80.8011C179.595 80.8674 179.458 80.929 179.264 80.9858C179.074 81.0426 178.861 81.0923 178.625 81.1349C178.388 81.1776 178.154 81.2154 177.922 81.2486C177.69 81.2817 177.488 81.3101 177.318 81.3338C176.934 81.3859 176.591 81.4711 176.288 81.5895C175.985 81.7079 175.746 81.8736 175.571 82.0866C175.395 82.295 175.308 82.5649 175.308 82.8963C175.308 83.3698 175.481 83.7273 175.826 83.9688C176.172 84.2102 176.612 84.331 177.147 84.331ZM187.396 71.4545V86H184.825V71.4545H187.396ZM195.114 71.4545H198.339L202.657 81.9943H202.827L207.146 71.4545H210.37V86H207.842V76.0071H207.707L203.687 85.9574H201.798L197.778 75.9858H197.643V86H195.114V71.4545ZM216.265 86.2202C215.574 86.2202 214.951 86.0971 214.397 85.8509C213.848 85.5999 213.412 85.2306 213.09 84.7429C212.773 84.2552 212.614 83.6539 212.614 82.9389C212.614 82.3234 212.728 81.8144 212.955 81.4119C213.183 81.0095 213.493 80.6875 213.886 80.446C214.279 80.2045 214.721 80.0223 215.214 79.8991C215.711 79.7713 216.225 79.679 216.755 79.6222C217.394 79.5559 217.913 79.4967 218.31 79.4446C218.708 79.3878 218.997 79.3026 219.177 79.1889C219.362 79.0705 219.454 78.8883 219.454 78.642V78.5994C219.454 78.0644 219.295 77.6501 218.978 77.3565C218.661 77.063 218.204 76.9162 217.607 76.9162C216.978 76.9162 216.478 77.0535 216.109 77.3281C215.744 77.6027 215.498 77.9271 215.37 78.3011L212.969 77.9602C213.159 77.2973 213.471 76.7434 213.907 76.2983C214.343 75.8485 214.875 75.5123 215.505 75.2898C216.135 75.0625 216.831 74.9489 217.593 74.9489C218.119 74.9489 218.642 75.0104 219.163 75.1335C219.683 75.2566 220.159 75.4602 220.59 75.7443C221.021 76.0237 221.367 76.4048 221.627 76.8878C221.892 77.3707 222.025 77.9744 222.025 78.6989V86H219.553V84.5014H219.468C219.312 84.8045 219.092 85.0885 218.808 85.3537C218.528 85.6141 218.175 85.8248 217.749 85.9858C217.328 86.142 216.833 86.2202 216.265 86.2202ZM216.933 84.331C217.449 84.331 217.896 84.2292 218.275 84.0256C218.654 83.8172 218.945 83.5426 219.148 83.2017C219.357 82.8608 219.461 82.4891 219.461 82.0866V80.8011C219.38 80.8674 219.243 80.929 219.049 80.9858C218.86 81.0426 218.647 81.0923 218.41 81.1349C218.173 81.1776 217.939 81.2154 217.707 81.2486C217.475 81.2817 217.273 81.3101 217.103 81.3338C216.719 81.3859 216.376 81.4711 216.073 81.5895C215.77 81.7079 215.531 81.8736 215.356 82.0866C215.181 82.295 215.093 82.5649 215.093 82.8963C215.093 83.3698 215.266 83.7273 215.612 83.9688C215.957 84.2102 216.397 84.331 216.933 84.331ZM224.61 86V75.0909H227.103V76.9091H227.217C227.415 76.2794 227.756 75.794 228.239 75.4531C228.727 75.1075 229.283 74.9347 229.908 74.9347C230.05 74.9347 230.209 74.9418 230.384 74.956C230.564 74.9654 230.713 74.982 230.832 75.0057V77.3707C230.723 77.3329 230.55 77.2997 230.313 77.2713C230.081 77.2382 229.856 77.2216 229.638 77.2216C229.17 77.2216 228.748 77.3234 228.374 77.527C228.005 77.7259 227.714 78.0028 227.501 78.358C227.288 78.7131 227.181 79.1226 227.181 79.5866V86H224.61ZM234.884 82.5767L234.876 79.473H235.288L239.209 75.0909H242.213L237.391 80.4602H236.858L234.884 82.5767ZM232.54 86V71.4545H235.111V86H232.54ZM239.386 86L235.835 81.0355L237.568 79.2244L242.462 86H239.386ZM248.307 86.2131C247.213 86.2131 246.268 85.9858 245.473 85.5312C244.682 85.072 244.074 84.4233 243.648 83.5852C243.222 82.7424 243.009 81.7505 243.009 80.6094C243.009 79.4872 243.222 78.5024 243.648 77.6548C244.079 76.8026 244.68 76.1397 245.452 75.6662C246.223 75.188 247.13 74.9489 248.172 74.9489C248.844 74.9489 249.479 75.0578 250.075 75.2756C250.677 75.4886 251.207 75.8201 251.666 76.2699C252.13 76.7197 252.495 77.2926 252.76 77.9886C253.025 78.6799 253.158 79.5038 253.158 80.4602V81.2486H244.216V79.5156H250.693C250.688 79.0232 250.582 78.5852 250.374 78.2017C250.165 77.8134 249.874 77.508 249.5 77.2855C249.131 77.063 248.7 76.9517 248.207 76.9517C247.682 76.9517 247.22 77.0795 246.822 77.3352C246.425 77.5862 246.115 77.9176 245.892 78.3295C245.674 78.7367 245.563 79.1842 245.558 79.6719V81.1847C245.558 81.8191 245.674 82.3636 245.906 82.8182C246.138 83.268 246.463 83.6136 246.879 83.8551C247.296 84.0919 247.784 84.2102 248.342 84.2102C248.716 84.2102 249.055 84.1581 249.358 84.054C249.661 83.9451 249.924 83.7865 250.146 83.5781C250.369 83.3698 250.537 83.1117 250.651 82.804L253.051 83.0739C252.9 83.7083 252.611 84.2623 252.185 84.7358C251.763 85.2045 251.223 85.5691 250.565 85.8295C249.907 86.0852 249.154 86.2131 248.307 86.2131ZM260.78 75.0909V77.0795H254.509V75.0909H260.78ZM256.057 72.4773H258.628V82.7188C258.628 83.0644 258.68 83.3295 258.784 83.5142C258.893 83.6941 259.035 83.8172 259.211 83.8835C259.386 83.9498 259.58 83.983 259.793 83.983C259.954 83.983 260.101 83.9711 260.233 83.9474C260.371 83.9238 260.475 83.9025 260.546 83.8835L260.979 85.8935C260.842 85.9408 260.645 85.9929 260.39 86.0497C260.139 86.1065 259.831 86.1397 259.466 86.1491C258.822 86.1681 258.242 86.071 257.726 85.858C257.21 85.6402 256.801 85.304 256.498 84.8494C256.199 84.3949 256.052 83.8267 256.057 83.1449V72.4773ZM262.93 86V75.0909H265.501V86H262.93ZM264.223 73.5426C263.816 73.5426 263.465 73.4077 263.172 73.1378C262.878 72.8632 262.732 72.5341 262.732 72.1506C262.732 71.7623 262.878 71.4332 263.172 71.1634C263.465 70.8887 263.816 70.7514 264.223 70.7514C264.635 70.7514 264.985 70.8887 265.274 71.1634C265.568 71.4332 265.714 71.7623 265.714 72.1506C265.714 72.5341 265.568 72.8632 265.274 73.1378C264.985 73.4077 264.635 73.5426 264.223 73.5426ZM270.716 79.608V86H268.145V75.0909H270.603V76.9446H270.73C270.981 76.3338 271.382 75.8485 271.931 75.4886C272.485 75.1288 273.169 74.9489 273.983 74.9489C274.736 74.9489 275.392 75.1098 275.951 75.4318C276.514 75.7538 276.95 76.2202 277.257 76.831C277.57 77.4418 277.724 78.1828 277.719 79.054V86H275.148V79.4517C275.148 78.7225 274.959 78.152 274.58 77.7401C274.206 77.3281 273.687 77.1222 273.025 77.1222C272.575 77.1222 272.175 77.2216 271.824 77.4205C271.479 77.6146 271.206 77.8963 271.007 78.2656C270.813 78.6349 270.716 79.0824 270.716 79.608ZM285.077 90.3182C284.154 90.3182 283.361 90.1927 282.698 89.9418C282.035 89.6955 281.502 89.3641 281.1 88.9474C280.697 88.5308 280.418 88.0691 280.262 87.5625L282.577 87.0014C282.681 87.2145 282.833 87.4252 283.032 87.6335C283.23 87.8466 283.498 88.0218 283.834 88.1591C284.175 88.3011 284.604 88.3722 285.12 88.3722C285.849 88.3722 286.453 88.1946 286.931 87.8395C287.409 87.4891 287.648 86.9115 287.648 86.1065V84.0398H287.52C287.388 84.3049 287.194 84.5772 286.938 84.8565C286.687 85.1359 286.353 85.3703 285.936 85.5597C285.525 85.7491 285.006 85.8438 284.381 85.8438C283.543 85.8438 282.783 85.6473 282.101 85.2543C281.424 84.8565 280.884 84.2647 280.482 83.4787C280.084 82.688 279.885 81.6984 279.885 80.5099C279.885 79.312 280.084 78.3011 280.482 77.4773C280.884 76.6487 281.426 76.0213 282.108 75.5952C282.79 75.1643 283.55 74.9489 284.388 74.9489C285.027 74.9489 285.553 75.0578 285.965 75.2756C286.382 75.4886 286.713 75.7467 286.959 76.0497C287.205 76.348 287.392 76.6297 287.52 76.8949H287.662V75.0909H290.198V86.1776C290.198 87.1103 289.975 87.8821 289.53 88.4929C289.085 89.1037 288.477 89.5606 287.705 89.8636C286.933 90.1667 286.057 90.3182 285.077 90.3182ZM285.098 83.8267C285.643 83.8267 286.107 83.6941 286.49 83.429C286.874 83.1638 287.165 82.7827 287.364 82.2855C287.563 81.7884 287.662 81.1918 287.662 80.4957C287.662 79.8092 287.563 79.2079 287.364 78.6918C287.17 78.1757 286.881 77.7756 286.498 77.4915C286.119 77.2027 285.652 77.0582 285.098 77.0582C284.525 77.0582 284.047 77.2074 283.664 77.5057C283.28 77.804 282.991 78.2135 282.797 78.7344C282.603 79.2505 282.506 79.8376 282.506 80.4957C282.506 81.1634 282.603 81.7481 282.797 82.25C282.996 82.7472 283.287 83.1354 283.671 83.4148C284.059 83.6894 284.535 83.8267 285.098 83.8267Z" fill="#F1018A"/>
<path d="M92.8637 99.4097H94.2757L97.0995 104.163H97.2189L100.043 99.4097H101.455L97.7757 105.396V109.592H96.5427V105.396L92.8637 99.4097ZM104.912 109.751C104.223 109.751 103.618 109.587 103.098 109.258C102.581 108.93 102.176 108.471 101.885 107.881C101.596 107.291 101.452 106.602 101.452 105.813C101.452 105.018 101.596 104.323 101.885 103.73C102.176 103.137 102.581 102.676 103.098 102.348C103.618 102.02 104.223 101.856 104.912 101.856C105.602 101.856 106.205 102.02 106.722 102.348C107.242 102.676 107.647 103.137 107.935 103.73C108.227 104.323 108.373 105.018 108.373 105.813C108.373 106.602 108.227 107.291 107.935 107.881C107.647 108.471 107.242 108.93 106.722 109.258C106.205 109.587 105.602 109.751 104.912 109.751ZM104.912 108.697C105.436 108.697 105.867 108.562 106.205 108.294C106.543 108.026 106.793 107.673 106.956 107.235C107.118 106.798 107.199 106.324 107.199 105.813C107.199 105.303 107.118 104.827 106.956 104.386C106.793 103.945 106.543 103.589 106.205 103.317C105.867 103.046 105.436 102.91 104.912 102.91C104.389 102.91 103.958 103.046 103.62 103.317C103.282 103.589 103.031 103.945 102.869 104.386C102.707 104.827 102.625 105.303 102.625 105.813C102.625 106.324 102.707 106.798 102.869 107.235C103.031 107.673 103.282 108.026 103.62 108.294C103.958 108.562 104.389 108.697 104.912 108.697ZM114.976 106.469V101.955H116.149V109.592H114.976V108.299H114.897C114.718 108.687 114.439 109.017 114.061 109.288C113.684 109.557 113.206 109.691 112.63 109.691C112.152 109.691 111.728 109.587 111.357 109.378C110.986 109.166 110.694 108.847 110.482 108.423C110.27 107.996 110.164 107.457 110.164 106.807V101.955H111.337V106.728C111.337 107.285 111.493 107.729 111.804 108.06C112.119 108.392 112.52 108.557 113.007 108.557C113.299 108.557 113.596 108.483 113.897 108.334C114.202 108.185 114.457 107.956 114.663 107.648C114.872 107.339 114.976 106.947 114.976 106.469ZM123.966 109.592L121.639 101.955H122.872L124.523 107.802H124.602L126.233 101.955H127.486L129.097 107.782H129.176L130.827 101.955H132.06L129.733 109.592H128.58L126.909 103.725H126.79L125.119 109.592H123.966ZM133.611 109.592V101.955H134.784V109.592H133.611ZM134.207 100.682C133.979 100.682 133.782 100.605 133.616 100.449C133.453 100.293 133.372 100.106 133.372 99.887C133.372 99.6683 133.453 99.481 133.616 99.3252C133.782 99.1694 133.979 99.0916 134.207 99.0916C134.436 99.0916 134.632 99.1694 134.794 99.3252C134.96 99.481 135.043 99.6683 135.043 99.887C135.043 100.106 134.96 100.293 134.794 100.449C134.632 100.605 134.436 100.682 134.207 100.682ZM138.106 99.4097V109.592H136.933V99.4097H138.106ZM141.429 99.4097V109.592H140.255V99.4097H141.429ZM147.515 109.592V101.955H148.649V103.148H148.748C148.907 102.741 149.164 102.424 149.519 102.199C149.873 101.97 150.299 101.856 150.796 101.856C151.3 101.856 151.72 101.97 152.054 102.199C152.392 102.424 152.656 102.741 152.845 103.148H152.924C153.12 102.754 153.413 102.441 153.804 102.209C154.195 101.973 154.664 101.856 155.211 101.856C155.894 101.856 156.452 102.07 156.887 102.497C157.321 102.921 157.538 103.583 157.538 104.481V109.592H156.365V104.481C156.365 103.917 156.211 103.515 155.902 103.273C155.594 103.031 155.231 102.91 154.813 102.91C154.277 102.91 153.861 103.072 153.566 103.397C153.271 103.718 153.123 104.126 153.123 104.62V109.592H151.93V104.361C151.93 103.927 151.789 103.578 151.507 103.312C151.226 103.044 150.863 102.91 150.419 102.91C150.114 102.91 149.829 102.991 149.563 103.153C149.302 103.316 149.09 103.541 148.927 103.829C148.768 104.115 148.688 104.444 148.688 104.819V109.592H147.515ZM161.93 109.771C161.446 109.771 161.007 109.679 160.613 109.497C160.218 109.311 159.905 109.045 159.673 108.697C159.441 108.345 159.325 107.921 159.325 107.424C159.325 106.986 159.411 106.632 159.584 106.36C159.756 106.085 159.986 105.869 160.275 105.714C160.563 105.558 160.881 105.442 161.229 105.366C161.581 105.286 161.934 105.223 162.288 105.177C162.752 105.117 163.128 105.072 163.417 105.043C163.708 105.009 163.921 104.955 164.053 104.878C164.189 104.802 164.257 104.67 164.257 104.481V104.441C164.257 103.95 164.123 103.569 163.854 103.298C163.589 103.026 163.186 102.89 162.646 102.89C162.086 102.89 161.647 103.012 161.329 103.258C161.011 103.503 160.787 103.765 160.658 104.043L159.544 103.646C159.743 103.182 160.008 102.82 160.339 102.562C160.674 102.3 161.039 102.118 161.433 102.015C161.831 101.909 162.222 101.856 162.606 101.856C162.852 101.856 163.133 101.886 163.452 101.945C163.773 102.002 164.083 102.119 164.381 102.298C164.683 102.477 164.933 102.747 165.132 103.109C165.331 103.47 165.43 103.954 165.43 104.56V109.592H164.257V108.557H164.197C164.118 108.723 163.985 108.901 163.8 109.089C163.614 109.278 163.367 109.439 163.059 109.572C162.751 109.704 162.374 109.771 161.93 109.771ZM162.109 108.717C162.573 108.717 162.964 108.625 163.283 108.443C163.604 108.261 163.846 108.026 164.008 107.737C164.174 107.449 164.257 107.146 164.257 106.827V105.753C164.207 105.813 164.098 105.868 163.929 105.918C163.763 105.964 163.571 106.005 163.352 106.042C163.137 106.075 162.926 106.105 162.721 106.131C162.519 106.155 162.355 106.174 162.229 106.191C161.924 106.231 161.639 106.295 161.374 106.385C161.112 106.471 160.9 106.602 160.737 106.778C160.578 106.95 160.499 107.185 160.499 107.484C160.499 107.891 160.649 108.2 160.951 108.408C161.256 108.614 161.642 108.717 162.109 108.717ZM168.666 106.807L168.646 105.356H168.884L172.225 101.955H173.677L170.117 105.555H170.018L168.666 106.807ZM167.572 109.592V99.4097H168.745V109.592H167.572ZM172.424 109.592L169.441 105.813L170.276 104.998L173.916 109.592H172.424ZM178.074 109.751C177.339 109.751 176.704 109.588 176.17 109.263C175.64 108.935 175.231 108.478 174.942 107.891C174.657 107.301 174.515 106.615 174.515 105.833C174.515 105.051 174.657 104.361 174.942 103.765C175.231 103.165 175.632 102.698 176.145 102.363C176.662 102.025 177.266 101.856 177.955 101.856C178.353 101.856 178.745 101.922 179.133 102.055C179.521 102.187 179.874 102.403 180.192 102.701C180.51 102.996 180.764 103.387 180.953 103.874C181.142 104.361 181.236 104.961 181.236 105.674V106.171H175.35V105.157H180.043C180.043 104.726 179.957 104.342 179.785 104.003C179.616 103.665 179.374 103.399 179.059 103.203C178.747 103.008 178.379 102.91 177.955 102.91C177.488 102.91 177.083 103.026 176.742 103.258C176.404 103.486 176.144 103.785 175.961 104.153C175.779 104.521 175.688 104.915 175.688 105.336V106.012C175.688 106.589 175.787 107.078 175.986 107.479C176.188 107.876 176.468 108.18 176.826 108.388C177.184 108.594 177.6 108.697 178.074 108.697C178.383 108.697 178.661 108.654 178.91 108.567C179.161 108.478 179.379 108.345 179.561 108.17C179.743 107.991 179.884 107.769 179.983 107.503L181.117 107.822C180.998 108.206 180.797 108.544 180.515 108.836C180.234 109.124 179.886 109.35 179.471 109.512C179.057 109.671 178.591 109.751 178.074 109.751ZM187.714 112.455C187.515 112.455 187.338 112.439 187.182 112.405C187.026 112.376 186.919 112.346 186.859 112.316L187.157 111.282C187.442 111.355 187.694 111.381 187.913 111.361C188.132 111.342 188.326 111.244 188.495 111.068C188.667 110.896 188.825 110.616 188.967 110.228L189.186 109.631L186.362 101.955H187.635L189.743 108.04H189.822L191.93 101.955H193.203L189.961 110.705C189.816 111.1 189.635 111.426 189.419 111.685C189.204 111.946 188.954 112.14 188.669 112.266C188.387 112.392 188.069 112.455 187.714 112.455ZM197.58 109.751C196.891 109.751 196.286 109.587 195.766 109.258C195.249 108.93 194.844 108.471 194.553 107.881C194.264 107.291 194.12 106.602 194.12 105.813C194.12 105.018 194.264 104.323 194.553 103.73C194.844 103.137 195.249 102.676 195.766 102.348C196.286 102.02 196.891 101.856 197.58 101.856C198.27 101.856 198.873 102.02 199.39 102.348C199.91 102.676 200.315 103.137 200.603 103.73C200.895 104.323 201.041 105.018 201.041 105.813C201.041 106.602 200.895 107.291 200.603 107.881C200.315 108.471 199.91 108.93 199.39 109.258C198.873 109.587 198.27 109.751 197.58 109.751ZM197.58 108.697C198.104 108.697 198.535 108.562 198.873 108.294C199.211 108.026 199.461 107.673 199.624 107.235C199.786 106.798 199.867 106.324 199.867 105.813C199.867 105.303 199.786 104.827 199.624 104.386C199.461 103.945 199.211 103.589 198.873 103.317C198.535 103.046 198.104 102.91 197.58 102.91C197.057 102.91 196.626 103.046 196.288 103.317C195.95 103.589 195.699 103.945 195.537 104.386C195.375 104.827 195.293 105.303 195.293 105.813C195.293 106.324 195.375 106.798 195.537 107.235C195.699 107.673 195.95 108.026 196.288 108.294C196.626 108.562 197.057 108.697 197.58 108.697ZM207.644 106.469V101.955H208.817V109.592H207.644V108.299H207.565C207.386 108.687 207.107 109.017 206.729 109.288C206.351 109.557 205.874 109.691 205.298 109.691C204.82 109.691 204.396 109.587 204.025 109.378C203.654 109.166 203.362 108.847 203.15 108.423C202.938 107.996 202.832 107.457 202.832 106.807V101.955H204.005V106.728C204.005 107.285 204.161 107.729 204.472 108.06C204.787 108.392 205.188 108.557 205.675 108.557C205.967 108.557 206.264 108.483 206.565 108.334C206.87 108.185 207.125 107.956 207.331 107.648C207.54 107.339 207.644 106.947 207.644 106.469ZM210.966 109.592V101.955H212.1V103.109H212.179C212.319 102.731 212.571 102.424 212.935 102.189C213.3 101.954 213.711 101.836 214.168 101.836C214.254 101.836 214.362 101.838 214.491 101.841C214.62 101.844 214.718 101.849 214.785 101.856V103.049C214.745 103.039 214.654 103.024 214.511 103.004C214.372 102.981 214.224 102.969 214.069 102.969C213.697 102.969 213.366 103.047 213.074 103.203C212.786 103.356 212.557 103.568 212.388 103.839C212.223 104.108 212.14 104.414 212.14 104.759V109.592H210.966ZM220.113 112.455V101.955H221.246V103.168H221.386C221.472 103.036 221.591 102.867 221.744 102.661C221.899 102.452 222.121 102.267 222.41 102.104C222.701 101.939 223.096 101.856 223.593 101.856C224.236 101.856 224.803 102.017 225.293 102.338C225.784 102.659 226.167 103.115 226.442 103.705C226.717 104.295 226.854 104.991 226.854 105.793C226.854 106.602 226.717 107.303 226.442 107.896C226.167 108.486 225.785 108.944 225.298 109.268C224.811 109.59 224.249 109.751 223.613 109.751C223.122 109.751 222.73 109.669 222.435 109.507C222.14 109.341 221.913 109.154 221.753 108.945C221.594 108.733 221.472 108.557 221.386 108.418H221.286V112.455H220.113ZM221.266 105.773C221.266 106.35 221.351 106.859 221.52 107.3C221.689 107.737 221.936 108.08 222.261 108.329C222.585 108.574 222.983 108.697 223.454 108.697C223.944 108.697 224.354 108.567 224.682 108.309C225.013 108.047 225.262 107.696 225.427 107.255C225.597 106.811 225.681 106.317 225.681 105.773C225.681 105.236 225.598 104.753 225.432 104.322C225.27 103.887 225.023 103.544 224.692 103.293C224.364 103.037 223.951 102.91 223.454 102.91C222.976 102.91 222.575 103.031 222.251 103.273C221.926 103.511 221.681 103.846 221.515 104.277C221.349 104.704 221.266 105.203 221.266 105.773ZM228.644 109.592V101.955H229.778V103.109H229.857C229.996 102.731 230.248 102.424 230.613 102.189C230.977 101.954 231.388 101.836 231.846 101.836C231.932 101.836 232.04 101.838 232.169 101.841C232.298 101.844 232.396 101.849 232.462 101.856V103.049C232.423 103.039 232.331 103.024 232.189 103.004C232.05 102.981 231.902 102.969 231.746 102.969C231.375 102.969 231.044 103.047 230.752 103.203C230.464 103.356 230.235 103.568 230.066 103.839C229.9 104.108 229.817 104.414 229.817 104.759V109.592H228.644ZM236.723 109.751C236.034 109.751 235.429 109.587 234.908 109.258C234.391 108.93 233.987 108.471 233.695 107.881C233.407 107.291 233.263 106.602 233.263 105.813C233.263 105.018 233.407 104.323 233.695 103.73C233.987 103.137 234.391 102.676 234.908 102.348C235.429 102.02 236.034 101.856 236.723 101.856C237.412 101.856 238.016 102.02 238.533 102.348C239.053 102.676 239.457 103.137 239.746 103.73C240.037 104.323 240.183 105.018 240.183 105.813C240.183 106.602 240.037 107.291 239.746 107.881C239.457 108.471 239.053 108.93 238.533 109.258C238.016 109.587 237.412 109.751 236.723 109.751ZM236.723 108.697C237.247 108.697 237.677 108.562 238.016 108.294C238.354 108.026 238.604 107.673 238.766 107.235C238.929 106.798 239.01 106.324 239.01 105.813C239.01 105.303 238.929 104.827 238.766 104.386C238.604 103.945 238.354 103.589 238.016 103.317C237.677 103.046 237.247 102.91 236.723 102.91C236.199 102.91 235.768 103.046 235.43 103.317C235.092 103.589 234.842 103.945 234.68 104.386C234.517 104.827 234.436 105.303 234.436 105.813C234.436 106.324 234.517 106.798 234.68 107.235C234.842 107.673 235.092 108.026 235.43 108.294C235.768 108.562 236.199 108.697 236.723 108.697ZM244.858 109.751C244.221 109.751 243.66 109.59 243.172 109.268C242.685 108.944 242.304 108.486 242.029 107.896C241.754 107.303 241.616 106.602 241.616 105.793C241.616 104.991 241.754 104.295 242.029 103.705C242.304 103.115 242.687 102.659 243.177 102.338C243.668 102.017 244.235 101.856 244.878 101.856C245.375 101.856 245.768 101.939 246.056 102.104C246.348 102.267 246.57 102.452 246.722 102.661C246.878 102.867 246.999 103.036 247.085 103.168H247.184V99.4097H248.358V109.592H247.224V108.418H247.085C246.999 108.557 246.876 108.733 246.717 108.945C246.558 109.154 246.331 109.341 246.036 109.507C245.741 109.669 245.348 109.751 244.858 109.751ZM245.017 108.697C245.487 108.697 245.885 108.574 246.21 108.329C246.535 108.08 246.782 107.737 246.951 107.3C247.12 106.859 247.204 106.35 247.204 105.773C247.204 105.203 247.121 104.704 246.956 104.277C246.79 103.846 246.545 103.511 246.22 103.273C245.895 103.031 245.494 102.91 245.017 102.91C244.52 102.91 244.105 103.037 243.774 103.293C243.446 103.544 243.199 103.887 243.033 104.322C242.871 104.753 242.79 105.236 242.79 105.773C242.79 106.317 242.872 106.811 243.038 107.255C243.207 107.696 243.456 108.047 243.784 108.309C244.115 108.567 244.526 108.697 245.017 108.697ZM255.482 106.469V101.955H256.655V109.592H255.482V108.299H255.402C255.223 108.687 254.945 109.017 254.567 109.288C254.189 109.557 253.712 109.691 253.135 109.691C252.658 109.691 252.234 109.587 251.863 109.378C251.491 109.166 251.2 108.847 250.988 108.423C250.776 107.996 250.669 107.457 250.669 106.807V101.955H251.843V106.728C251.843 107.285 251.999 107.729 252.31 108.06C252.625 108.392 253.026 108.557 253.513 108.557C253.805 108.557 254.102 108.483 254.403 108.334C254.708 108.185 254.963 107.956 255.169 107.648C255.378 107.339 255.482 106.947 255.482 106.469ZM261.907 109.751C261.191 109.751 260.574 109.582 260.057 109.244C259.54 108.905 259.142 108.44 258.864 107.847C258.586 107.253 258.446 106.575 258.446 105.813C258.446 105.038 258.589 104.353 258.874 103.76C259.162 103.163 259.563 102.698 260.077 102.363C260.594 102.025 261.197 101.856 261.887 101.856C262.424 101.856 262.907 101.955 263.338 102.154C263.769 102.353 264.122 102.631 264.397 102.989C264.672 103.347 264.843 103.765 264.909 104.242H263.736C263.647 103.894 263.448 103.586 263.139 103.317C262.835 103.046 262.424 102.91 261.907 102.91C261.449 102.91 261.048 103.029 260.703 103.268C260.362 103.503 260.095 103.836 259.903 104.267C259.714 104.695 259.62 105.197 259.62 105.773C259.62 106.363 259.712 106.877 259.898 107.315C260.087 107.752 260.352 108.092 260.693 108.334C261.038 108.576 261.443 108.697 261.907 108.697C262.211 108.697 262.488 108.644 262.737 108.538C262.985 108.432 263.196 108.279 263.368 108.08C263.541 107.881 263.663 107.643 263.736 107.364H264.909C264.843 107.815 264.679 108.221 264.417 108.582C264.159 108.94 263.816 109.225 263.388 109.437C262.964 109.646 262.47 109.751 261.907 109.751ZM269.946 101.955V102.95H265.988V101.955H269.946ZM267.142 100.126H268.315V107.404C268.315 107.735 268.363 107.984 268.459 108.15C268.559 108.312 268.684 108.422 268.837 108.478C268.993 108.531 269.157 108.557 269.329 108.557C269.458 108.557 269.564 108.551 269.647 108.538C269.73 108.521 269.796 108.508 269.846 108.498L270.085 109.552C270.005 109.582 269.894 109.611 269.752 109.641C269.609 109.674 269.429 109.691 269.21 109.691C268.878 109.691 268.554 109.62 268.235 109.477C267.92 109.335 267.659 109.118 267.45 108.826C267.244 108.534 267.142 108.166 267.142 107.722V100.126ZM276.742 106.807L276.722 105.356H276.961L280.301 101.955H281.753L278.193 105.555H278.094L276.742 106.807ZM275.648 109.592V99.4097H276.821V109.592H275.648ZM280.5 109.592L277.517 105.813L278.353 104.998L281.992 109.592H280.5ZM284.437 104.998V109.592H283.263V101.955H284.397V103.148H284.496C284.675 102.761 284.947 102.449 285.312 102.214C285.676 101.975 286.147 101.856 286.723 101.856C287.241 101.856 287.693 101.962 288.081 102.174C288.468 102.383 288.77 102.701 288.986 103.128C289.201 103.553 289.309 104.09 289.309 104.739V109.592H288.135V104.819C288.135 104.219 287.98 103.752 287.668 103.417C287.357 103.079 286.929 102.91 286.385 102.91C286.011 102.91 285.676 102.991 285.381 103.153C285.089 103.316 284.859 103.553 284.69 103.864C284.521 104.176 284.437 104.554 284.437 104.998ZM294.555 109.751C293.866 109.751 293.261 109.587 292.74 109.258C292.223 108.93 291.819 108.471 291.527 107.881C291.239 107.291 291.095 106.602 291.095 105.813C291.095 105.018 291.239 104.323 291.527 103.73C291.819 103.137 292.223 102.676 292.74 102.348C293.261 102.02 293.866 101.856 294.555 101.856C295.244 101.856 295.848 102.02 296.365 102.348C296.885 102.676 297.289 103.137 297.578 103.73C297.869 104.323 298.015 105.018 298.015 105.813C298.015 106.602 297.869 107.291 297.578 107.881C297.289 108.471 296.885 108.93 296.365 109.258C295.848 109.587 295.244 109.751 294.555 109.751ZM294.555 108.697C295.079 108.697 295.51 108.562 295.848 108.294C296.186 108.026 296.436 107.673 296.598 107.235C296.761 106.798 296.842 106.324 296.842 105.813C296.842 105.303 296.761 104.827 296.598 104.386C296.436 103.945 296.186 103.589 295.848 103.317C295.51 103.046 295.079 102.91 294.555 102.91C294.031 102.91 293.6 103.046 293.262 103.317C292.924 103.589 292.674 103.945 292.512 104.386C292.349 104.827 292.268 105.303 292.268 105.813C292.268 106.324 292.349 106.798 292.512 107.235C292.674 107.673 292.924 108.026 293.262 108.294C293.6 108.562 294.031 108.697 294.555 108.697ZM301.277 109.592L298.95 101.955H300.183L301.833 107.802H301.913L303.544 101.955H304.796L306.407 107.782H306.487L308.137 101.955H309.37L307.044 109.592H305.89L304.22 103.725H304.1L302.43 109.592H301.277ZM312.095 104.998V109.592H310.921V101.955H312.055V103.148H312.154C312.333 102.761 312.605 102.449 312.97 102.214C313.334 101.975 313.805 101.856 314.382 101.856C314.899 101.856 315.351 101.962 315.739 102.174C316.127 102.383 316.428 102.701 316.644 103.128C316.859 103.553 316.967 104.09 316.967 104.739V109.592H315.794V104.819C315.794 104.219 315.638 103.752 315.326 103.417C315.015 103.079 314.587 102.91 314.044 102.91C313.669 102.91 313.334 102.991 313.039 103.153C312.748 103.316 312.517 103.553 312.348 103.864C312.179 104.176 312.095 104.554 312.095 104.998ZM323.207 109.592V99.4097H324.381V103.168H324.48C324.566 103.036 324.686 102.867 324.838 102.661C324.994 102.452 325.216 102.267 325.504 102.104C325.796 101.939 326.19 101.856 326.688 101.856C327.331 101.856 327.897 102.017 328.388 102.338C328.878 102.659 329.261 103.115 329.536 103.705C329.811 104.295 329.949 104.991 329.949 105.793C329.949 106.602 329.811 107.303 329.536 107.896C329.261 108.486 328.88 108.944 328.393 109.268C327.906 109.59 327.344 109.751 326.707 109.751C326.217 109.751 325.824 109.669 325.529 109.507C325.234 109.341 325.007 109.154 324.848 108.945C324.689 108.733 324.566 108.557 324.48 108.418H324.341V109.592H323.207ZM324.361 105.773C324.361 106.35 324.445 106.859 324.614 107.3C324.783 107.737 325.03 108.08 325.355 108.329C325.68 108.574 326.078 108.697 326.548 108.697C327.039 108.697 327.448 108.567 327.776 108.309C328.108 108.047 328.356 107.696 328.522 107.255C328.691 106.811 328.776 106.317 328.776 105.773C328.776 105.236 328.693 104.753 328.527 104.322C328.365 103.887 328.118 103.544 327.786 103.293C327.458 103.037 327.046 102.91 326.548 102.91C326.071 102.91 325.67 103.031 325.345 103.273C325.02 103.511 324.775 103.846 324.609 104.277C324.444 104.704 324.361 105.203 324.361 105.773ZM332.226 112.455C332.027 112.455 331.85 112.439 331.694 112.405C331.538 112.376 331.43 112.346 331.371 112.316L331.669 111.282C331.954 111.355 332.206 111.381 332.425 111.361C332.644 111.342 332.837 111.244 333.006 111.068C333.179 110.896 333.336 110.616 333.479 110.228L333.698 109.631L330.874 101.955H332.146L334.254 108.04H334.334L336.442 101.955H337.715L334.473 110.705C334.327 111.1 334.147 111.426 333.931 111.685C333.716 111.946 333.466 112.14 333.18 112.266C332.899 112.392 332.581 112.455 332.226 112.455ZM109.079 133.751C108.343 133.751 107.709 133.588 107.175 133.263C106.645 132.935 106.235 132.478 105.947 131.891C105.662 131.301 105.52 130.615 105.52 129.833C105.52 129.051 105.662 128.361 105.947 127.765C106.235 127.165 106.636 126.698 107.15 126.363C107.667 126.025 108.27 125.856 108.96 125.856C109.358 125.856 109.75 125.922 110.138 126.055C110.526 126.187 110.879 126.403 111.197 126.701C111.515 126.996 111.769 127.387 111.958 127.874C112.147 128.361 112.241 128.961 112.241 129.674V130.171H106.355V129.157H111.048C111.048 128.726 110.962 128.342 110.789 128.003C110.62 127.665 110.378 127.399 110.064 127.203C109.752 127.008 109.384 126.91 108.96 126.91C108.493 126.91 108.088 127.026 107.747 127.258C107.409 127.486 107.149 127.785 106.966 128.153C106.784 128.521 106.693 128.915 106.693 129.336V130.012C106.693 130.589 106.792 131.078 106.991 131.479C107.193 131.876 107.473 132.18 107.831 132.388C108.189 132.594 108.605 132.697 109.079 132.697C109.387 132.697 109.666 132.654 109.914 132.567C110.166 132.478 110.383 132.345 110.566 132.17C110.748 131.991 110.889 131.769 110.988 131.503L112.122 131.822C112.002 132.206 111.802 132.544 111.52 132.836C111.239 133.124 110.891 133.35 110.476 133.512C110.062 133.671 109.596 133.751 109.079 133.751ZM120.038 125.955L117.214 133.592H116.021L113.197 125.955H114.47L116.578 132.04H116.657L118.765 125.955H120.038ZM124.515 133.751C123.779 133.751 123.144 133.588 122.611 133.263C122.08 132.935 121.671 132.478 121.383 131.891C121.098 131.301 120.955 130.615 120.955 129.833C120.955 129.051 121.098 128.361 121.383 127.765C121.671 127.165 122.072 126.698 122.586 126.363C123.103 126.025 123.706 125.856 124.395 125.856C124.793 125.856 125.186 125.922 125.574 126.055C125.961 126.187 126.314 126.403 126.633 126.701C126.951 126.996 127.204 127.387 127.393 127.874C127.582 128.361 127.677 128.961 127.677 129.674V130.171H121.79V129.157H126.484C126.484 128.726 126.397 128.342 126.225 128.003C126.056 127.665 125.814 127.399 125.499 127.203C125.188 127.008 124.82 126.91 124.395 126.91C123.928 126.91 123.524 127.026 123.182 127.258C122.844 127.486 122.584 127.785 122.402 128.153C122.22 128.521 122.128 128.915 122.128 129.336V130.012C122.128 130.589 122.228 131.078 122.427 131.479C122.629 131.876 122.909 132.18 123.267 132.388C123.625 132.594 124.041 132.697 124.515 132.697C124.823 132.697 125.101 132.654 125.35 132.567C125.602 132.478 125.819 132.345 126.001 132.17C126.184 131.991 126.324 131.769 126.424 131.503L127.557 131.822C127.438 132.206 127.238 132.544 126.956 132.836C126.674 133.124 126.326 133.35 125.912 133.512C125.497 133.671 125.032 133.751 124.515 133.751ZM129.461 133.592V125.955H130.595V127.109H130.675C130.814 126.731 131.066 126.424 131.43 126.189C131.795 125.954 132.206 125.836 132.663 125.836C132.749 125.836 132.857 125.838 132.986 125.841C133.116 125.844 133.213 125.849 133.28 125.856V127.049C133.24 127.039 133.149 127.024 133.006 127.004C132.867 126.981 132.72 126.969 132.564 126.969C132.193 126.969 131.861 127.047 131.569 127.203C131.281 127.356 131.052 127.568 130.883 127.839C130.718 128.108 130.635 128.414 130.635 128.759V133.592H129.461ZM135.659 136.455C135.46 136.455 135.282 136.439 135.127 136.405C134.971 136.376 134.863 136.346 134.803 136.316L135.102 135.282C135.387 135.355 135.639 135.381 135.857 135.361C136.076 135.342 136.27 135.244 136.439 135.068C136.611 134.896 136.769 134.616 136.911 134.228L137.13 133.631L134.306 125.955H135.579L137.687 132.04H137.767L139.874 125.955H141.147L137.906 134.705C137.76 135.1 137.579 135.426 137.364 135.685C137.148 135.946 136.898 136.14 136.613 136.266C136.331 136.392 136.013 136.455 135.659 136.455ZM145.525 133.751C144.835 133.751 144.23 133.587 143.71 133.258C143.193 132.93 142.789 132.471 142.497 131.881C142.209 131.291 142.064 130.602 142.064 129.813C142.064 129.018 142.209 128.323 142.497 127.73C142.789 127.137 143.193 126.676 143.71 126.348C144.23 126.02 144.835 125.856 145.525 125.856C146.214 125.856 146.817 126.02 147.334 126.348C147.855 126.676 148.259 127.137 148.547 127.73C148.839 128.323 148.985 129.018 148.985 129.813C148.985 130.602 148.839 131.291 148.547 131.881C148.259 132.471 147.855 132.93 147.334 133.258C146.817 133.587 146.214 133.751 145.525 133.751ZM145.525 132.697C146.048 132.697 146.479 132.562 146.817 132.294C147.155 132.026 147.406 131.673 147.568 131.235C147.73 130.798 147.812 130.324 147.812 129.813C147.812 129.303 147.73 128.827 147.568 128.386C147.406 127.945 147.155 127.589 146.817 127.317C146.479 127.046 146.048 126.91 145.525 126.91C145.001 126.91 144.57 127.046 144.232 127.317C143.894 127.589 143.644 127.945 143.481 128.386C143.319 128.827 143.238 129.303 143.238 129.813C143.238 130.324 143.319 130.798 143.481 131.235C143.644 131.673 143.894 132.026 144.232 132.294C144.57 132.562 145.001 132.697 145.525 132.697ZM151.949 128.998V133.592H150.776V125.955H151.909V127.148H152.009C152.188 126.761 152.46 126.449 152.824 126.214C153.189 125.975 153.659 125.856 154.236 125.856C154.753 125.856 155.206 125.962 155.593 126.174C155.981 126.383 156.283 126.701 156.498 127.128C156.714 127.553 156.821 128.09 156.821 128.739V133.592H155.648V128.819C155.648 128.219 155.492 127.752 155.181 127.417C154.869 127.079 154.442 126.91 153.898 126.91C153.524 126.91 153.189 126.991 152.894 127.153C152.602 127.316 152.372 127.553 152.203 127.864C152.034 128.176 151.949 128.554 151.949 128.998ZM162.167 133.751C161.431 133.751 160.797 133.588 160.263 133.263C159.733 132.935 159.323 132.478 159.035 131.891C158.75 131.301 158.607 130.615 158.607 129.833C158.607 129.051 158.75 128.361 159.035 127.765C159.323 127.165 159.724 126.698 160.238 126.363C160.755 126.025 161.358 125.856 162.048 125.856C162.446 125.856 162.838 125.922 163.226 126.055C163.614 126.187 163.967 126.403 164.285 126.701C164.603 126.996 164.857 127.387 165.046 127.874C165.235 128.361 165.329 128.961 165.329 129.674V130.171H159.443V129.157H164.136C164.136 128.726 164.05 128.342 163.877 128.003C163.708 127.665 163.466 127.399 163.151 127.203C162.84 127.008 162.472 126.91 162.048 126.91C161.58 126.91 161.176 127.026 160.835 127.258C160.497 127.486 160.236 127.785 160.054 128.153C159.872 128.521 159.781 128.915 159.781 129.336V130.012C159.781 130.589 159.88 131.078 160.079 131.479C160.281 131.876 160.561 132.18 160.919 132.388C161.277 132.594 161.693 132.697 162.167 132.697C162.475 132.697 162.754 132.654 163.002 132.567C163.254 132.478 163.471 132.345 163.654 132.17C163.836 131.991 163.977 131.769 164.076 131.503L165.21 131.822C165.09 132.206 164.89 132.544 164.608 132.836C164.326 133.124 163.978 133.35 163.564 133.512C163.15 133.671 162.684 133.751 162.167 133.751ZM173.298 133.771C172.815 133.771 172.375 133.679 171.981 133.497C171.587 133.311 171.273 133.045 171.041 132.697C170.809 132.345 170.693 131.921 170.693 131.424C170.693 130.986 170.78 130.632 170.952 130.36C171.124 130.085 171.355 129.869 171.643 129.714C171.931 129.558 172.249 129.442 172.597 129.366C172.949 129.286 173.302 129.223 173.656 129.177C174.12 129.117 174.497 129.072 174.785 129.043C175.077 129.009 175.289 128.955 175.421 128.878C175.557 128.802 175.625 128.67 175.625 128.481V128.441C175.625 127.95 175.491 127.569 175.222 127.298C174.957 127.026 174.555 126.89 174.014 126.89C173.454 126.89 173.015 127.012 172.697 127.258C172.379 127.503 172.155 127.765 172.026 128.043L170.912 127.646C171.111 127.182 171.376 126.82 171.708 126.562C172.042 126.3 172.407 126.118 172.801 126.015C173.199 125.909 173.59 125.856 173.975 125.856C174.22 125.856 174.502 125.886 174.82 125.945C175.141 126.002 175.451 126.119 175.749 126.298C176.051 126.477 176.301 126.747 176.5 127.109C176.699 127.47 176.798 127.954 176.798 128.56V133.592H175.625V132.557H175.566C175.486 132.723 175.353 132.901 175.168 133.089C174.982 133.278 174.735 133.439 174.427 133.572C174.119 133.704 173.743 133.771 173.298 133.771ZM173.477 132.717C173.941 132.717 174.333 132.625 174.651 132.443C174.972 132.261 175.214 132.026 175.377 131.737C175.542 131.449 175.625 131.146 175.625 130.827V129.753C175.575 129.813 175.466 129.868 175.297 129.918C175.131 129.964 174.939 130.005 174.72 130.042C174.505 130.075 174.294 130.105 174.089 130.131C173.887 130.155 173.723 130.174 173.597 130.191C173.292 130.231 173.007 130.295 172.742 130.385C172.48 130.471 172.268 130.602 172.105 130.778C171.946 130.95 171.867 131.185 171.867 131.484C171.867 131.891 172.017 132.2 172.319 132.408C172.624 132.614 173.01 132.717 173.477 132.717ZM180.113 128.998V133.592H178.94V125.955H180.074V127.148H180.173C180.352 126.761 180.624 126.449 180.988 126.214C181.353 125.975 181.824 125.856 182.4 125.856C182.917 125.856 183.37 125.962 183.757 126.174C184.145 126.383 184.447 126.701 184.662 127.128C184.878 127.553 184.985 128.09 184.985 128.739V133.592H183.812V128.819C183.812 128.219 183.656 127.752 183.345 127.417C183.033 127.079 182.606 126.91 182.062 126.91C181.688 126.91 181.353 126.991 181.058 127.153C180.766 127.316 180.536 127.553 180.367 127.864C180.198 128.176 180.113 128.554 180.113 128.998ZM190.013 133.751C189.377 133.751 188.815 133.59 188.328 133.268C187.84 132.944 187.459 132.486 187.184 131.896C186.909 131.303 186.771 130.602 186.771 129.793C186.771 128.991 186.909 128.295 187.184 127.705C187.459 127.115 187.842 126.659 188.333 126.338C188.823 126.017 189.39 125.856 190.033 125.856C190.53 125.856 190.923 125.939 191.211 126.104C191.503 126.267 191.725 126.452 191.877 126.661C192.033 126.867 192.154 127.036 192.24 127.168H192.34V123.41H193.513V133.592H192.379V132.418H192.24C192.154 132.557 192.031 132.733 191.872 132.945C191.713 133.154 191.486 133.341 191.191 133.507C190.896 133.669 190.504 133.751 190.013 133.751ZM190.172 132.697C190.643 132.697 191.04 132.574 191.365 132.329C191.69 132.08 191.937 131.737 192.106 131.3C192.275 130.859 192.36 130.35 192.36 129.773C192.36 129.203 192.277 128.704 192.111 128.277C191.945 127.846 191.7 127.511 191.375 127.273C191.05 127.031 190.649 126.91 190.172 126.91C189.675 126.91 189.261 127.037 188.929 127.293C188.601 127.544 188.354 127.887 188.188 128.322C188.026 128.753 187.945 129.236 187.945 129.773C187.945 130.317 188.028 130.811 188.193 131.255C188.362 131.696 188.611 132.047 188.939 132.309C189.271 132.567 189.682 132.697 190.172 132.697ZM199.762 133.592V125.955H200.896V127.148H200.995C201.154 126.741 201.411 126.424 201.766 126.199C202.12 125.97 202.546 125.856 203.044 125.856C203.547 125.856 203.967 125.97 204.301 126.199C204.639 126.424 204.903 126.741 205.092 127.148H205.171C205.367 126.754 205.66 126.441 206.051 126.209C206.442 125.973 206.911 125.856 207.458 125.856C208.141 125.856 208.7 126.07 209.134 126.497C209.568 126.921 209.785 127.583 209.785 128.481V133.592H208.612V128.481C208.612 127.917 208.458 127.515 208.149 127.273C207.841 127.031 207.478 126.91 207.061 126.91C206.524 126.91 206.108 127.072 205.813 127.397C205.518 127.718 205.37 128.126 205.37 128.62V133.592H204.177V128.361C204.177 127.927 204.036 127.578 203.754 127.312C203.473 127.044 203.11 126.91 202.666 126.91C202.361 126.91 202.076 126.991 201.811 127.153C201.549 127.316 201.337 127.541 201.174 127.829C201.015 128.115 200.936 128.444 200.936 128.819V133.592H199.762ZM214.177 133.771C213.693 133.771 213.254 133.679 212.86 133.497C212.466 133.311 212.152 133.045 211.92 132.697C211.688 132.345 211.572 131.921 211.572 131.424C211.572 130.986 211.658 130.632 211.831 130.36C212.003 130.085 212.233 129.869 212.522 129.714C212.81 129.558 213.128 129.442 213.476 129.366C213.828 129.286 214.181 129.223 214.535 129.177C214.999 129.117 215.376 129.072 215.664 129.043C215.956 129.009 216.168 128.955 216.3 128.878C216.436 128.802 216.504 128.67 216.504 128.481V128.441C216.504 127.95 216.37 127.569 216.101 127.298C215.836 127.026 215.434 126.89 214.893 126.89C214.333 126.89 213.894 127.012 213.576 127.258C213.258 127.503 213.034 127.765 212.905 128.043L211.791 127.646C211.99 127.182 212.255 126.82 212.586 126.562C212.921 126.3 213.286 126.118 213.68 126.015C214.078 125.909 214.469 125.856 214.854 125.856C215.099 125.856 215.381 125.886 215.699 125.945C216.02 126.002 216.33 126.119 216.628 126.298C216.93 126.477 217.18 126.747 217.379 127.109C217.578 127.47 217.677 127.954 217.677 128.56V133.592H216.504V132.557H216.444C216.365 132.723 216.232 132.901 216.047 133.089C215.861 133.278 215.614 133.439 215.306 133.572C214.998 133.704 214.622 133.771 214.177 133.771ZM214.356 132.717C214.82 132.717 215.211 132.625 215.53 132.443C215.851 132.261 216.093 132.026 216.256 131.737C216.421 131.449 216.504 131.146 216.504 130.827V129.753C216.454 129.813 216.345 129.868 216.176 129.918C216.01 129.964 215.818 130.005 215.599 130.042C215.384 130.075 215.173 130.105 214.968 130.131C214.766 130.155 214.602 130.174 214.476 130.191C214.171 130.231 213.886 130.295 213.621 130.385C213.359 130.471 213.147 130.602 212.984 130.778C212.825 130.95 212.746 131.185 212.746 131.484C212.746 131.891 212.896 132.2 213.198 132.408C213.503 132.614 213.889 132.717 214.356 132.717ZM220.913 130.807L220.893 129.356H221.131L224.472 125.955H225.924L222.364 129.555H222.265L220.913 130.807ZM219.819 133.592V123.41H220.992V133.592H219.819ZM224.671 133.592L221.688 129.813L222.523 128.998L226.163 133.592H224.671ZM230.321 133.751C229.586 133.751 228.951 133.588 228.417 133.263C227.887 132.935 227.478 132.478 227.189 131.891C226.904 131.301 226.762 130.615 226.762 129.833C226.762 129.051 226.904 128.361 227.189 127.765C227.478 127.165 227.879 126.698 228.392 126.363C228.909 126.025 229.513 125.856 230.202 125.856C230.6 125.856 230.993 125.922 231.38 126.055C231.768 126.187 232.121 126.403 232.439 126.701C232.757 126.996 233.011 127.387 233.2 127.874C233.389 128.361 233.483 128.961 233.483 129.674V130.171H227.597V129.157H232.29C232.29 128.726 232.204 128.342 232.032 128.003C231.863 127.665 231.621 127.399 231.306 127.203C230.994 127.008 230.626 126.91 230.202 126.91C229.735 126.91 229.33 127.026 228.989 127.258C228.651 127.486 228.391 127.785 228.208 128.153C228.026 128.521 227.935 128.915 227.935 129.336V130.012C227.935 130.589 228.034 131.078 228.233 131.479C228.436 131.876 228.716 132.18 229.074 132.388C229.431 132.594 229.847 132.697 230.321 132.697C230.63 132.697 230.908 132.654 231.157 132.567C231.409 132.478 231.626 132.345 231.808 132.17C231.99 131.991 232.131 131.769 232.23 131.503L233.364 131.822C233.245 132.206 233.044 132.544 232.762 132.836C232.481 133.124 232.133 133.35 231.718 133.512C231.304 133.671 230.838 133.751 230.321 133.751ZM239.961 136.455C239.762 136.455 239.585 136.439 239.429 136.405C239.274 136.376 239.166 136.346 239.106 136.316L239.404 135.282C239.69 135.355 239.941 135.381 240.16 135.361C240.379 135.342 240.573 135.244 240.742 135.068C240.914 134.896 241.072 134.616 241.214 134.228L241.433 133.631L238.609 125.955H239.882L241.99 132.04H242.069L244.177 125.955H245.45L242.208 134.705C242.063 135.1 241.882 135.426 241.667 135.685C241.451 135.946 241.201 136.14 240.916 136.266C240.634 136.392 240.316 136.455 239.961 136.455ZM249.827 133.751C249.138 133.751 248.533 133.587 248.013 133.258C247.496 132.93 247.091 132.471 246.8 131.881C246.511 131.291 246.367 130.602 246.367 129.813C246.367 129.018 246.511 128.323 246.8 127.73C247.091 127.137 247.496 126.676 248.013 126.348C248.533 126.02 249.138 125.856 249.827 125.856C250.517 125.856 251.12 126.02 251.637 126.348C252.157 126.676 252.562 127.137 252.85 127.73C253.142 128.323 253.288 129.018 253.288 129.813C253.288 130.602 253.142 131.291 252.85 131.881C252.562 132.471 252.157 132.93 251.637 133.258C251.12 133.587 250.517 133.751 249.827 133.751ZM249.827 132.697C250.351 132.697 250.782 132.562 251.12 132.294C251.458 132.026 251.708 131.673 251.871 131.235C252.033 130.798 252.114 130.324 252.114 129.813C252.114 129.303 252.033 128.827 251.871 128.386C251.708 127.945 251.458 127.589 251.12 127.317C250.782 127.046 250.351 126.91 249.827 126.91C249.304 126.91 248.873 127.046 248.535 127.317C248.197 127.589 247.947 127.945 247.784 128.386C247.622 128.827 247.54 129.303 247.54 129.813C247.54 130.324 247.622 130.798 247.784 131.235C247.947 131.673 248.197 132.026 248.535 132.294C248.873 132.562 249.304 132.697 249.827 132.697ZM259.891 130.469V125.955H261.064V133.592H259.891V132.299H259.812C259.633 132.687 259.354 133.017 258.976 133.288C258.599 133.557 258.121 133.691 257.545 133.691C257.067 133.691 256.643 133.587 256.272 133.378C255.901 133.166 255.609 132.847 255.397 132.423C255.185 131.996 255.079 131.457 255.079 130.807V125.955H256.252V130.728C256.252 131.285 256.408 131.729 256.719 132.06C257.034 132.392 257.435 132.557 257.922 132.557C258.214 132.557 258.511 132.483 258.812 132.334C259.117 132.185 259.372 131.956 259.578 131.648C259.787 131.339 259.891 130.947 259.891 130.469ZM263.213 133.592V125.955H264.347V127.109H264.427C264.566 126.731 264.818 126.424 265.182 126.189C265.547 125.954 265.958 125.836 266.415 125.836C266.501 125.836 266.609 125.838 266.738 125.841C266.868 125.844 266.965 125.849 267.032 125.856V127.049C266.992 127.039 266.901 127.024 266.758 127.004C266.619 126.981 266.471 126.969 266.316 126.969C265.944 126.969 265.613 127.047 265.321 127.203C265.033 127.356 264.804 127.568 264.635 127.839C264.47 128.108 264.387 128.414 264.387 128.759V133.592H263.213ZM277.769 127.665L276.715 127.964C276.649 127.788 276.551 127.617 276.422 127.452C276.296 127.283 276.123 127.143 275.905 127.034C275.686 126.925 275.406 126.87 275.064 126.87C274.597 126.87 274.208 126.978 273.896 127.193C273.588 127.405 273.434 127.675 273.434 128.003C273.434 128.295 273.54 128.526 273.752 128.695C273.964 128.864 274.296 129.004 274.746 129.117L275.88 129.396C276.563 129.561 277.071 129.815 277.406 130.156C277.741 130.494 277.908 130.93 277.908 131.464C277.908 131.901 277.782 132.292 277.53 132.637C277.282 132.982 276.934 133.253 276.486 133.452C276.039 133.651 275.519 133.751 274.925 133.751C274.146 133.751 273.502 133.582 272.991 133.244C272.481 132.905 272.158 132.412 272.022 131.762L273.135 131.484C273.242 131.895 273.442 132.203 273.737 132.408C274.035 132.614 274.425 132.717 274.905 132.717C275.452 132.717 275.886 132.601 276.208 132.369C276.533 132.133 276.695 131.851 276.695 131.523C276.695 131.258 276.602 131.036 276.417 130.857C276.231 130.675 275.946 130.539 275.562 130.45L274.289 130.151C273.59 129.985 273.076 129.729 272.748 129.381C272.423 129.029 272.26 128.59 272.26 128.063C272.26 127.632 272.381 127.251 272.623 126.92C272.869 126.588 273.202 126.328 273.623 126.139C274.047 125.95 274.528 125.856 275.064 125.856C275.82 125.856 276.413 126.021 276.844 126.353C277.278 126.684 277.587 127.122 277.769 127.665ZM281.922 133.771C281.438 133.771 280.998 133.679 280.604 133.497C280.21 133.311 279.896 133.045 279.664 132.697C279.432 132.345 279.316 131.921 279.316 131.424C279.316 130.986 279.403 130.632 279.575 130.36C279.747 130.085 279.978 129.869 280.266 129.714C280.554 129.558 280.873 129.442 281.221 129.366C281.572 129.286 281.925 129.223 282.279 129.177C282.744 129.117 283.12 129.072 283.408 129.043C283.7 129.009 283.912 128.955 284.044 128.878C284.18 128.802 284.248 128.67 284.248 128.481V128.441C284.248 127.95 284.114 127.569 283.846 127.298C283.58 127.026 283.178 126.89 282.637 126.89C282.077 126.89 281.638 127.012 281.32 127.258C281.002 127.503 280.778 127.765 280.649 128.043L279.535 127.646C279.734 127.182 279.999 126.82 280.331 126.562C280.665 126.3 281.03 126.118 281.424 126.015C281.822 125.909 282.213 125.856 282.598 125.856C282.843 125.856 283.125 125.886 283.443 125.945C283.764 126.002 284.074 126.119 284.373 126.298C284.674 126.477 284.924 126.747 285.123 127.109C285.322 127.47 285.422 127.954 285.422 128.56V133.592H284.248V132.557H284.189C284.109 132.723 283.976 132.901 283.791 133.089C283.605 133.278 283.358 133.439 283.05 133.572C282.742 133.704 282.366 133.771 281.922 133.771ZM282.101 132.717C282.565 132.717 282.956 132.625 283.274 132.443C283.595 132.261 283.837 132.026 284 131.737C284.165 131.449 284.248 131.146 284.248 130.827V129.753C284.199 129.813 284.089 129.868 283.92 129.918C283.754 129.964 283.562 130.005 283.343 130.042C283.128 130.075 282.918 130.105 282.712 130.131C282.51 130.155 282.346 130.174 282.22 130.191C281.915 130.231 281.63 130.295 281.365 130.385C281.103 130.471 280.891 130.602 280.728 130.778C280.569 130.95 280.49 131.185 280.49 131.484C280.49 131.891 280.641 132.2 280.942 132.408C281.247 132.614 281.633 132.717 282.101 132.717ZM288.736 123.41V133.592H287.563V123.41H288.736ZM294.087 133.751C293.351 133.751 292.717 133.588 292.183 133.263C291.653 132.935 291.243 132.478 290.955 131.891C290.67 131.301 290.527 130.615 290.527 129.833C290.527 129.051 290.67 128.361 290.955 127.765C291.243 127.165 291.644 126.698 292.158 126.363C292.675 126.025 293.278 125.856 293.968 125.856C294.365 125.856 294.758 125.922 295.146 126.055C295.534 126.187 295.887 126.403 296.205 126.701C296.523 126.996 296.777 127.387 296.966 127.874C297.154 128.361 297.249 128.961 297.249 129.674V130.171H291.363V129.157H296.056C296.056 128.726 295.97 128.342 295.797 128.003C295.628 127.665 295.386 127.399 295.071 127.203C294.76 127.008 294.392 126.91 293.968 126.91C293.5 126.91 293.096 127.026 292.755 127.258C292.417 127.486 292.156 127.785 291.974 128.153C291.792 128.521 291.701 128.915 291.701 129.336V130.012C291.701 130.589 291.8 131.078 291.999 131.479C292.201 131.876 292.481 132.18 292.839 132.388C293.197 132.594 293.613 132.697 294.087 132.697C294.395 132.697 294.674 132.654 294.922 132.567C295.174 132.478 295.391 132.345 295.574 132.17C295.756 131.991 295.897 131.769 295.996 131.503L297.13 131.822C297.01 132.206 296.81 132.544 296.528 132.836C296.246 133.124 295.898 133.35 295.484 133.512C295.07 133.671 294.604 133.751 294.087 133.751ZM304.443 127.665L303.389 127.964C303.323 127.788 303.225 127.617 303.096 127.452C302.97 127.283 302.797 127.143 302.578 127.034C302.36 126.925 302.08 126.87 301.738 126.87C301.271 126.87 300.882 126.978 300.57 127.193C300.262 127.405 300.108 127.675 300.108 128.003C300.108 128.295 300.214 128.526 300.426 128.695C300.638 128.864 300.969 129.004 301.42 129.117L302.554 129.396C303.236 129.561 303.745 129.815 304.08 130.156C304.415 130.494 304.582 130.93 304.582 131.464C304.582 131.901 304.456 132.292 304.204 132.637C303.956 132.982 303.608 133.253 303.16 133.452C302.713 133.651 302.192 133.751 301.599 133.751C300.82 133.751 300.176 133.582 299.665 133.244C299.155 132.905 298.832 132.412 298.696 131.762L299.809 131.484C299.915 131.895 300.116 132.203 300.411 132.408C300.709 132.614 301.099 132.717 301.579 132.717C302.126 132.717 302.56 132.601 302.882 132.369C303.207 132.133 303.369 131.851 303.369 131.523C303.369 131.258 303.276 131.036 303.091 130.857C302.905 130.675 302.62 130.539 302.235 130.45L300.963 130.151C300.263 129.985 299.75 129.729 299.422 129.381C299.097 129.029 298.934 128.59 298.934 128.063C298.934 127.632 299.055 127.251 299.297 126.92C299.543 126.588 299.876 126.328 300.297 126.139C300.721 125.95 301.201 125.856 301.738 125.856C302.494 125.856 303.087 126.021 303.518 126.353C303.952 126.684 304.261 127.122 304.443 127.665ZM311.459 128.998V133.592H310.286V123.41H311.459V127.148H311.558C311.737 126.754 312.006 126.441 312.364 126.209C312.725 125.973 313.206 125.856 313.806 125.856C314.326 125.856 314.782 125.96 315.173 126.169C315.564 126.374 315.867 126.691 316.083 127.119C316.301 127.543 316.411 128.083 316.411 128.739V133.592H315.237V128.819C315.237 128.212 315.08 127.743 314.765 127.412C314.454 127.077 314.021 126.91 313.468 126.91C313.083 126.91 312.738 126.991 312.433 127.153C312.132 127.316 311.893 127.553 311.718 127.864C311.545 128.176 311.459 128.554 311.459 128.998ZM318.557 133.592V125.955H319.73V133.592H318.557ZM319.154 124.682C318.925 124.682 318.728 124.605 318.562 124.449C318.4 124.293 318.319 124.106 318.319 123.887C318.319 123.668 318.4 123.481 318.562 123.325C318.728 123.169 318.925 123.092 319.154 123.092C319.382 123.092 319.578 123.169 319.74 123.325C319.906 123.481 319.989 123.668 319.989 123.887C319.989 124.106 319.906 124.293 319.74 124.449C319.578 124.605 319.382 124.682 319.154 124.682ZM325.2 125.955V126.95H321.243V125.955H325.2ZM322.396 124.126H323.57V131.404C323.57 131.735 323.618 131.984 323.714 132.15C323.813 132.312 323.939 132.422 324.092 132.478C324.248 132.531 324.412 132.557 324.584 132.557C324.713 132.557 324.819 132.551 324.902 132.538C324.985 132.521 325.051 132.508 325.101 132.498L325.34 133.552C325.26 133.582 325.149 133.611 325.007 133.641C324.864 133.674 324.683 133.691 324.465 133.691C324.133 133.691 323.808 133.62 323.49 133.477C323.175 133.335 322.914 133.118 322.705 132.826C322.499 132.534 322.396 132.166 322.396 131.722V124.126ZM196.086 151.665L195.032 151.964C194.966 151.788 194.868 151.617 194.739 151.452C194.613 151.283 194.441 151.143 194.222 151.034C194.003 150.925 193.723 150.87 193.382 150.87C192.915 150.87 192.525 150.978 192.214 151.193C191.905 151.405 191.751 151.675 191.751 152.003C191.751 152.295 191.857 152.526 192.069 152.695C192.281 152.864 192.613 153.004 193.064 153.117L194.197 153.396C194.88 153.561 195.389 153.815 195.723 154.156C196.058 154.494 196.226 154.93 196.226 155.464C196.226 155.901 196.1 156.292 195.848 156.637C195.599 156.982 195.251 157.253 194.804 157.452C194.356 157.651 193.836 157.751 193.243 157.751C192.464 157.751 191.819 157.582 191.309 157.244C190.798 156.905 190.475 156.412 190.339 155.762L191.453 155.484C191.559 155.895 191.759 156.203 192.054 156.408C192.353 156.614 192.742 156.717 193.223 156.717C193.77 156.717 194.204 156.601 194.525 156.369C194.85 156.133 195.013 155.851 195.013 155.523C195.013 155.258 194.92 155.036 194.734 154.857C194.549 154.675 194.263 154.539 193.879 154.45L192.606 154.151C191.907 153.985 191.393 153.729 191.065 153.381C190.74 153.029 190.578 152.59 190.578 152.063C190.578 151.632 190.699 151.251 190.941 150.92C191.186 150.588 191.519 150.328 191.94 150.139C192.364 149.95 192.845 149.856 193.382 149.856C194.138 149.856 194.731 150.021 195.162 150.353C195.596 150.684 195.904 151.122 196.086 151.665ZM199.086 154.807L199.066 153.356H199.304L202.645 149.955H204.097L200.537 153.555H200.438L199.086 154.807ZM197.992 157.592V147.41H199.165V157.592H197.992ZM202.844 157.592L199.861 153.813L200.696 152.998L204.336 157.592H202.844ZM206.363 160.455C206.164 160.455 205.986 160.439 205.831 160.405C205.675 160.376 205.567 160.346 205.508 160.316L205.806 159.282C206.091 159.355 206.343 159.381 206.562 159.361C206.78 159.342 206.974 159.244 207.143 159.068C207.316 158.896 207.473 158.616 207.616 158.228L207.834 157.631L205.01 149.955H206.283L208.391 156.04H208.471L210.579 149.955H211.851L208.61 158.705C208.464 159.1 208.283 159.426 208.068 159.685C207.852 159.946 207.602 160.14 207.317 160.266C207.035 160.392 206.717 160.455 206.363 160.455ZM213.4 157.592V149.955H214.533V151.109H214.613C214.752 150.731 215.004 150.424 215.369 150.189C215.733 149.954 216.144 149.836 216.602 149.836C216.688 149.836 216.796 149.838 216.925 149.841C217.054 149.844 217.152 149.849 217.218 149.856V151.049C217.178 151.039 217.087 151.024 216.945 151.004C216.805 150.981 216.658 150.969 216.502 150.969C216.131 150.969 215.8 151.047 215.508 151.203C215.22 151.356 214.991 151.568 214.822 151.839C214.656 152.108 214.573 152.414 214.573 152.759V157.592H213.4ZM221.479 157.751C220.789 157.751 220.185 157.587 219.664 157.258C219.147 156.93 218.743 156.471 218.451 155.881C218.163 155.291 218.019 154.602 218.019 153.813C218.019 153.018 218.163 152.323 218.451 151.73C218.743 151.137 219.147 150.676 219.664 150.348C220.185 150.02 220.789 149.856 221.479 149.856C222.168 149.856 222.771 150.02 223.288 150.348C223.809 150.676 224.213 151.137 224.502 151.73C224.793 152.323 224.939 153.018 224.939 153.813C224.939 154.602 224.793 155.291 224.502 155.881C224.213 156.471 223.809 156.93 223.288 157.258C222.771 157.587 222.168 157.751 221.479 157.751ZM221.479 156.697C222.002 156.697 222.433 156.562 222.771 156.294C223.109 156.026 223.36 155.673 223.522 155.235C223.685 154.798 223.766 154.324 223.766 153.813C223.766 153.303 223.685 152.827 223.522 152.386C223.36 151.945 223.109 151.589 222.771 151.317C222.433 151.046 222.002 150.91 221.479 150.91C220.955 150.91 220.524 151.046 220.186 151.317C219.848 151.589 219.598 151.945 219.435 152.386C219.273 152.827 219.192 153.303 219.192 153.813C219.192 154.324 219.273 154.798 219.435 155.235C219.598 155.673 219.848 156.026 220.186 156.294C220.524 156.562 220.955 156.697 221.479 156.697ZM229.832 157.751C229.116 157.751 228.5 157.582 227.983 157.244C227.466 156.905 227.068 156.44 226.79 155.847C226.511 155.253 226.372 154.575 226.372 153.813C226.372 153.038 226.515 152.353 226.8 151.76C227.088 151.163 227.489 150.698 228.003 150.363C228.52 150.025 229.123 149.856 229.812 149.856C230.349 149.856 230.833 149.955 231.264 150.154C231.695 150.353 232.048 150.631 232.323 150.989C232.598 151.347 232.769 151.765 232.835 152.242H231.662C231.572 151.894 231.374 151.586 231.065 151.317C230.76 151.046 230.349 150.91 229.832 150.91C229.375 150.91 228.974 151.029 228.629 151.268C228.288 151.503 228.021 151.836 227.829 152.267C227.64 152.695 227.545 153.197 227.545 153.773C227.545 154.363 227.638 154.877 227.824 155.315C228.013 155.752 228.278 156.092 228.619 156.334C228.964 156.576 229.368 156.697 229.832 156.697C230.137 156.697 230.414 156.644 230.663 156.538C230.911 156.432 231.122 156.279 231.294 156.08C231.466 155.881 231.589 155.643 231.662 155.364H232.835C232.769 155.815 232.605 156.221 232.343 156.582C232.084 156.94 231.741 157.225 231.314 157.437C230.89 157.646 230.396 157.751 229.832 157.751ZM235.644 154.807L235.624 153.356H235.863L239.204 149.955H240.655L237.096 153.555H236.996L235.644 154.807ZM234.55 157.592V147.41H235.724V157.592H234.55ZM239.403 157.592L236.42 153.813L237.255 152.998L240.894 157.592H239.403Z" fill="black"/>
<defs>
<filter id="filter0_d_402_3244" x="0" y="0" width="428" height="262" filterUnits="userSpaceOnUse" color-interpolation-filters="sRGB">
<feFlood flood-opacity="0" result="BackgroundImageFix"/>
<feColorMatrix in="SourceAlpha" type="matrix" values="0 0 0 0 0 0 0 0 0 0 0 0 0 0 0 0 0 0 127 0" result="hardAlpha"/>
<feOffset dy="16"/>
<feGaussianBlur stdDeviation="34"/>
<feComposite in2="hardAlpha" operator="out"/>
<feColorMatrix type="matrix" values="0 0 0 0 0.917647 0 0 0 0 0 0 0 0 0 0.490196 0 0 0 0.27 0"/>
<feBlend mode="normal" in2="BackgroundImageFix" result="effect1_dropShadow_402_3244"/>
<feBlend mode="normal" in="SourceGraphic" in2="effect1_dropShadow_402_3244" result="shape"/>
</filter>
</defs>
</svg>
