<svg width="200" height="200" viewBox="0 0 200 200" fill="none" xmlns="http://www.w3.org/2000/svg">
<path d="M200 100C200 155.228 155.228 200 100 200C44.7715 200 0 155.228 0 100C0 44.7715 44.7715 0 100 0C155.228 0 200 44.7715 200 100Z" fill="#D13FBC" fill-opacity="0.21"/>
<g clip-path="url(#clip0_402_3161)">
<path fill-rule="evenodd" clip-rule="evenodd" d="M40.0002 108.6C39.9402 102.77 42.1602 97.6 47.3702 95.91L47.5002 95.69C47.6525 95.3907 47.8555 95.12 48.1002 94.89C48.4155 94.6586 48.7718 94.4889 49.1502 94.39L49.4402 94.28C74.7002 85 86.0902 71.07 92.6402 61.61C92.6402 70.9 94.9702 83.01 99.0702 94.73C103.28 106.73 109.36 118.44 116.78 126.49C109.05 124.29 99.3502 121.49 83.5702 123.64C82.9094 125.25 82.5305 126.962 82.4502 128.7C82.3982 129.242 82.4603 129.789 82.6325 130.306C82.8047 130.823 83.0833 131.297 83.4502 131.7L83.6902 131.92C84.6902 132.83 85.1802 133.28 85.4002 134.09C85.5473 135.163 85.5033 136.253 85.2702 137.31L85.1802 137.98C84.8102 140.91 86.2302 141.51 87.6402 142.11C89.0502 142.71 90.1502 143.19 90.7202 144.8C90.7603 144.93 90.7603 145.07 90.7202 145.2C90.1402 148.2 88.2202 149.84 86.2902 151.49C85.8202 151.9 85.3402 152.31 84.9302 152.7H84.8702C80.9502 155.84 78.3002 155 76.2902 152.48C74.7102 150.48 73.6102 147.48 72.5902 144.67L72.1502 143.45C70.4984 138.51 69.1624 133.47 68.1502 128.36L67.8102 126.86C66.9402 127.1 66.0302 127.37 65.0802 127.65C63.8802 128 62.6802 128.38 61.4902 128.76L61.1102 128.9C60.9127 129.03 60.6816 129.099 60.4452 129.099C60.2088 129.099 59.9777 129.03 59.7802 128.9C53.4702 131 48.2002 128 44.6802 123C43.1942 120.89 42.0439 118.562 41.2702 116.1C40.4778 113.677 40.0498 111.149 40.0002 108.6V108.6ZM127.81 57.16C127.494 57.401 127.133 57.5768 126.749 57.6772C126.364 57.7776 125.963 57.8006 125.57 57.7447C125.176 57.6889 124.798 57.5554 124.456 57.352C124.115 57.1486 123.817 56.8794 123.58 56.56L123.51 56.47C123.052 55.826 122.861 55.0293 122.979 54.2477C123.096 53.4661 123.513 52.7606 124.14 52.28C129 48.69 133.84 45.07 138.7 41.56C139.341 41.0959 140.136 40.8955 140.92 41C141.721 41.1227 142.44 41.5579 142.92 42.21V42.26C143.382 42.9053 143.569 43.7071 143.44 44.49C143.383 44.8873 143.246 45.2691 143.038 45.6127C142.83 45.9562 142.555 46.2545 142.23 46.49L127.81 57.16ZM143.6 114.86C143.205 114.852 142.814 114.765 142.452 114.606C142.09 114.446 141.763 114.216 141.49 113.93C141.215 113.647 140.998 113.312 140.852 112.945C140.706 112.578 140.634 112.185 140.64 111.79V111.72C140.64 111.32 140.72 110.924 140.875 110.556C141.03 110.187 141.257 109.853 141.543 109.574C141.83 109.294 142.169 109.074 142.541 108.928C142.913 108.781 143.31 108.711 143.71 108.72C149.08 108.72 154.54 108.92 159.91 109.02C160.717 109.038 161.485 109.374 162.046 109.954C162.608 110.534 162.918 111.313 162.91 112.12C162.894 112.931 162.56 113.703 161.98 114.27C161.696 114.55 161.358 114.77 160.987 114.918C160.616 115.065 160.219 115.138 159.82 115.13L143.63 114.82L143.6 114.86ZM144.07 99.15C143.674 99.1841 143.274 99.139 142.895 99.0172C142.516 98.8955 142.165 98.6995 141.863 98.4408C141.56 98.182 141.312 97.8657 141.133 97.5102C140.954 97.1546 140.848 96.767 140.82 96.37V96.3C140.775 95.508 141.038 94.7294 141.555 94.1272C142.071 93.5251 142.801 93.1462 143.59 93.07C148.59 92.67 153.68 92.24 158.69 91.92C159.491 91.8702 160.279 92.1368 160.885 92.6624C161.491 93.1879 161.866 93.9304 161.93 94.73V94.73C161.962 95.1284 161.914 95.5291 161.788 95.9086C161.663 96.2882 161.463 96.6388 161.2 96.94C160.673 97.5525 159.926 97.9333 159.12 98C154.27 98.48 148.94 98.88 144.07 99.14V99.15ZM141.91 84.56C141.523 84.6698 141.119 84.7023 140.72 84.6557C140.32 84.609 139.934 84.4842 139.583 84.2882C139.232 84.0923 138.923 83.8291 138.674 83.5136C138.424 83.1982 138.24 82.8368 138.13 82.45V82.45C138.021 82.0678 137.988 81.6677 138.034 81.2729C138.081 80.878 138.205 80.4963 138.4 80.15C138.796 79.4428 139.453 78.9187 140.23 78.69C145.44 77.32 150.63 75.64 155.84 74.24C156.222 74.1303 156.622 74.0977 157.017 74.1441C157.412 74.1904 157.794 74.3148 158.14 74.51C158.839 74.899 159.359 75.5445 159.59 76.31V76.31C159.81 77.0896 159.712 77.9244 159.319 78.6324C158.925 79.3404 158.268 79.8643 157.49 80.09L141.9 84.54L141.91 84.56ZM135.61 70.24C135.252 70.4186 134.862 70.5248 134.462 70.5526C134.062 70.5804 133.661 70.5292 133.281 70.402C132.902 70.2748 132.551 70.074 132.248 69.8112C131.946 69.5483 131.699 69.2285 131.52 68.87C131.337 68.5127 131.228 68.1224 131.199 67.7222C131.17 67.322 131.221 66.92 131.35 66.54C131.608 65.7722 132.158 65.1366 132.88 64.77L147.88 57.28C148.237 57.0945 148.628 56.9828 149.029 56.9514C149.431 56.9201 149.834 56.9699 150.216 57.0977C150.597 57.2255 150.949 57.4288 151.251 57.6955C151.552 57.9622 151.797 58.2868 151.97 58.65C152.151 59.0079 152.259 59.3985 152.286 59.7988C152.314 60.199 152.261 60.6006 152.13 60.98C151.872 61.745 151.322 62.3774 150.6 62.74L135.6 70.24H135.61ZM98.7502 53C98.8802 52.85 99.0202 52.71 99.1502 52.58C99.5605 52.1106 100.065 51.7325 100.63 51.47V51.47C101.276 51.2537 101.969 51.2259 102.63 51.39C104.88 51.75 107.29 53.39 109.74 55.9C115.74 62.09 122.06 73.9 126.56 86.31C131.06 98.72 133.76 111.67 132.41 120.08C131.9 123.21 130.84 125.74 129.1 127.41L129.01 127.48C128.279 128.006 127.432 128.349 126.54 128.48C126.461 128.408 126.378 128.341 126.29 128.28C120.3 124 115 116.9 110.54 108.55C111.68 108.77 113.14 107.92 114.54 106.47C121.54 99.09 118.1 86.19 109.37 83.2C105.81 82 102.27 82 100.87 82.69L100.72 82.77C97.5202 70.42 96.6102 59 98.7502 53Z" fill="url(#paint0_linear_402_3161)"/>
</g>
<defs>
<linearGradient id="paint0_linear_402_3161" x1="39.999" y1="40.9729" x2="153.417" y2="163.517" gradientUnits="userSpaceOnUse">
<stop stop-color="#FF0080"/>
<stop offset="1" stop-color="#7928CA"/>
</linearGradient>
<clipPath id="clip0_402_3161">
<rect width="122.88" height="113.8" fill="white" transform="translate(40 41)"/>
</clipPath>
</defs>
</svg>
