<svg width="428" height="262" viewBox="0 0 428 262" fill="none" xmlns="http://www.w3.org/2000/svg">
<g filter="url(#filter0_d_402_3201)">
<rect x="68" y="52" width="292" height="126" rx="10" fill="white"/>
</g>
<path d="M144.496 86L140.391 71.4545H143.224L145.845 82.1435H145.98L148.778 71.4545H151.357L154.162 82.1506H154.29L156.911 71.4545H159.744L155.639 86H153.04L150.128 75.794H150.014L147.095 86H144.496ZM165.174 86.2131C164.08 86.2131 163.136 85.9858 162.34 85.5312C161.549 85.072 160.941 84.4233 160.515 83.5852C160.089 82.7424 159.876 81.7505 159.876 80.6094C159.876 79.4872 160.089 78.5024 160.515 77.6548C160.946 76.8026 161.547 76.1397 162.319 75.6662C163.091 75.188 163.997 74.9489 165.039 74.9489C165.711 74.9489 166.346 75.0578 166.942 75.2756C167.544 75.4886 168.074 75.8201 168.533 76.2699C168.997 76.7197 169.362 77.2926 169.627 77.9886C169.892 78.6799 170.025 79.5038 170.025 80.4602V81.2486H161.083V79.5156H167.56C167.556 79.0232 167.449 78.5852 167.241 78.2017C167.032 77.8134 166.741 77.508 166.367 77.2855C165.998 77.063 165.567 76.9517 165.075 76.9517C164.549 76.9517 164.087 77.0795 163.69 77.3352C163.292 77.5862 162.982 77.9176 162.759 78.3295C162.541 78.7367 162.43 79.1842 162.425 79.6719V81.1847C162.425 81.8191 162.541 82.3636 162.773 82.8182C163.005 83.268 163.33 83.6136 163.746 83.8551C164.163 84.0919 164.651 84.2102 165.21 84.2102C165.584 84.2102 165.922 84.1581 166.225 84.054C166.528 83.9451 166.791 83.7865 167.013 83.5781C167.236 83.3698 167.404 83.1117 167.518 82.804L169.918 83.0739C169.767 83.7083 169.478 84.2623 169.052 84.7358C168.63 85.2045 168.091 85.5691 167.433 85.8295C166.774 86.0852 166.022 86.2131 165.174 86.2131ZM172.314 86V71.4545H174.885V76.8949H174.991C175.124 76.6297 175.311 76.348 175.552 76.0497C175.794 75.7467 176.12 75.4886 176.532 75.2756C176.944 75.0578 177.47 74.9489 178.109 74.9489C178.952 74.9489 179.712 75.1643 180.389 75.5952C181.071 76.0213 181.61 76.6534 182.008 77.4915C182.411 78.3248 182.612 79.3475 182.612 80.5597C182.612 81.7576 182.415 82.7756 182.022 83.6136C181.629 84.4517 181.094 85.0909 180.417 85.5312C179.74 85.9716 178.973 86.1918 178.116 86.1918C177.491 86.1918 176.973 86.0876 176.561 85.8793C176.149 85.6709 175.817 85.42 175.566 85.1264C175.32 84.8281 175.128 84.5464 174.991 84.2812H174.842V86H172.314ZM174.835 80.5455C174.835 81.2509 174.934 81.8688 175.133 82.3991C175.337 82.9295 175.628 83.3437 176.007 83.642C176.39 83.9356 176.854 84.0824 177.399 84.0824C177.967 84.0824 178.443 83.9309 178.826 83.6278C179.21 83.3201 179.499 82.901 179.693 82.3707C179.892 81.8357 179.991 81.2273 179.991 80.5455C179.991 79.8684 179.894 79.267 179.7 78.7415C179.506 78.2159 179.217 77.804 178.833 77.5057C178.45 77.2074 177.972 77.0582 177.399 77.0582C176.85 77.0582 176.383 77.2027 176 77.4915C175.616 77.7803 175.325 78.1851 175.126 78.706C174.932 79.2268 174.835 79.84 174.835 80.5455ZM194.801 86H189.872V71.4545H194.901C196.345 71.4545 197.585 71.7457 198.622 72.3281C199.664 72.9058 200.464 73.7367 201.023 74.821C201.581 75.9053 201.861 77.2027 201.861 78.7131C201.861 80.2282 201.579 81.5303 201.016 82.6193C200.457 83.7083 199.65 84.544 198.594 85.1264C197.543 85.7088 196.278 86 194.801 86ZM192.507 83.7202H194.673C195.687 83.7202 196.532 83.5355 197.209 83.1662C197.886 82.7921 198.395 82.2358 198.736 81.4972C199.077 80.7538 199.247 79.8258 199.247 78.7131C199.247 77.6004 199.077 76.6771 198.736 75.9432C198.395 75.2045 197.891 74.6529 197.223 74.2884C196.56 73.919 195.736 73.7344 194.751 73.7344H192.507V83.7202ZM209.08 86.2131C207.987 86.2131 207.042 85.9858 206.246 85.5312C205.456 85.072 204.847 84.4233 204.421 83.5852C203.995 82.7424 203.782 81.7505 203.782 80.6094C203.782 79.4872 203.995 78.5024 204.421 77.6548C204.852 76.8026 205.453 76.1397 206.225 75.6662C206.997 75.188 207.904 74.9489 208.945 74.9489C209.618 74.9489 210.252 75.0578 210.849 75.2756C211.45 75.4886 211.98 75.8201 212.44 76.2699C212.904 76.7197 213.268 77.2926 213.533 77.9886C213.799 78.6799 213.931 79.5038 213.931 80.4602V81.2486H204.989V79.5156H211.467C211.462 79.0232 211.355 78.5852 211.147 78.2017C210.939 77.8134 210.647 77.508 210.273 77.2855C209.904 77.063 209.473 76.9517 208.981 76.9517C208.455 76.9517 207.994 77.0795 207.596 77.3352C207.198 77.5862 206.888 77.9176 206.665 78.3295C206.448 78.7367 206.336 79.1842 206.332 79.6719V81.1847C206.332 81.8191 206.448 82.3636 206.68 82.8182C206.912 83.268 207.236 83.6136 207.653 83.8551C208.069 84.0919 208.557 84.2102 209.116 84.2102C209.49 84.2102 209.828 84.1581 210.131 84.054C210.434 83.9451 210.697 83.7865 210.92 83.5781C211.142 83.3698 211.31 83.1117 211.424 82.804L213.825 83.0739C213.673 83.7083 213.384 84.2623 212.958 84.7358C212.537 85.2045 211.997 85.5691 211.339 85.8295C210.681 86.0852 209.928 86.2131 209.08 86.2131ZM224.728 77.9744L222.385 78.2301C222.318 77.9934 222.202 77.7708 222.037 77.5625C221.876 77.3542 221.658 77.1861 221.383 77.0582C221.109 76.9304 220.772 76.8665 220.375 76.8665C219.84 76.8665 219.39 76.9825 219.025 77.2145C218.665 77.4465 218.488 77.7472 218.493 78.1165C218.488 78.4337 218.604 78.6918 218.841 78.8906C219.082 79.0895 219.48 79.2528 220.034 79.3807L221.895 79.7784C222.927 80.0009 223.694 80.3537 224.196 80.8366C224.702 81.3196 224.958 81.9517 224.963 82.733C224.958 83.4195 224.757 84.0256 224.359 84.5511C223.966 85.072 223.419 85.4792 222.718 85.7727C222.018 86.0663 221.213 86.2131 220.304 86.2131C218.968 86.2131 217.894 85.9337 217.079 85.375C216.265 84.8116 215.779 84.0279 215.623 83.0241L218.13 82.7827C218.244 83.2751 218.485 83.6468 218.855 83.8977C219.224 84.1487 219.705 84.2741 220.297 84.2741C220.907 84.2741 221.397 84.1487 221.767 83.8977C222.141 83.6468 222.328 83.3366 222.328 82.9673C222.328 82.6548 222.207 82.3968 221.966 82.1932C221.729 81.9896 221.359 81.8333 220.858 81.7244L218.997 81.3338C217.95 81.116 217.176 80.7491 216.674 80.233C216.172 79.7121 215.924 79.054 215.929 78.2585C215.924 77.5862 216.106 77.0038 216.475 76.5114C216.85 76.0142 217.368 75.6307 218.031 75.3608C218.699 75.0862 219.468 74.9489 220.339 74.9489C221.618 74.9489 222.624 75.2211 223.358 75.7656C224.096 76.3101 224.553 77.0464 224.728 77.9744ZM227.083 86V75.0909H229.654V86H227.083ZM228.375 73.5426C227.968 73.5426 227.618 73.4077 227.324 73.1378C227.031 72.8632 226.884 72.5341 226.884 72.1506C226.884 71.7623 227.031 71.4332 227.324 71.1634C227.618 70.8887 227.968 70.7514 228.375 70.7514C228.787 70.7514 229.138 70.8887 229.426 71.1634C229.72 71.4332 229.867 71.7623 229.867 72.1506C229.867 72.5341 229.72 72.8632 229.426 73.1378C229.138 73.4077 228.787 73.5426 228.375 73.5426ZM237.042 90.3182C236.119 90.3182 235.326 90.1927 234.663 89.9418C234 89.6955 233.467 89.3641 233.065 88.9474C232.662 88.5308 232.383 88.0691 232.227 87.5625L234.542 87.0014C234.646 87.2145 234.798 87.4252 234.996 87.6335C235.195 87.8466 235.463 88.0218 235.799 88.1591C236.14 88.3011 236.568 88.3722 237.085 88.3722C237.814 88.3722 238.417 88.1946 238.896 87.8395C239.374 87.4891 239.613 86.9115 239.613 86.1065V84.0398H239.485C239.353 84.3049 239.158 84.5772 238.903 84.8565C238.652 85.1359 238.318 85.3703 237.901 85.5597C237.489 85.7491 236.971 85.8438 236.346 85.8438C235.508 85.8438 234.748 85.6473 234.066 85.2543C233.389 84.8565 232.849 84.2647 232.447 83.4787C232.049 82.688 231.85 81.6984 231.85 80.5099C231.85 79.312 232.049 78.3011 232.447 77.4773C232.849 76.6487 233.391 76.0213 234.073 75.5952C234.755 75.1643 235.515 74.9489 236.353 74.9489C236.992 74.9489 237.518 75.0578 237.93 75.2756C238.346 75.4886 238.678 75.7467 238.924 76.0497C239.17 76.348 239.357 76.6297 239.485 76.8949H239.627V75.0909H242.163V86.1776C242.163 87.1103 241.94 87.8821 241.495 88.4929C241.05 89.1037 240.442 89.5606 239.67 89.8636C238.898 90.1667 238.022 90.3182 237.042 90.3182ZM237.063 83.8267C237.608 83.8267 238.072 83.6941 238.455 83.429C238.839 83.1638 239.13 82.7827 239.329 82.2855C239.528 81.7884 239.627 81.1918 239.627 80.4957C239.627 79.8092 239.528 79.2079 239.329 78.6918C239.135 78.1757 238.846 77.7756 238.462 77.4915C238.084 77.2027 237.617 77.0582 237.063 77.0582C236.49 77.0582 236.012 77.2074 235.629 77.5057C235.245 77.804 234.956 78.2135 234.762 78.7344C234.568 79.2505 234.471 79.8376 234.471 80.4957C234.471 81.1634 234.568 81.7481 234.762 82.25C234.961 82.7472 235.252 83.1354 235.636 83.4148C236.024 83.6894 236.5 83.8267 237.063 83.8267ZM247.369 79.608V86H244.798V75.0909H247.255V76.9446H247.383C247.634 76.3338 248.034 75.8485 248.583 75.4886C249.137 75.1288 249.821 74.9489 250.636 74.9489C251.388 74.9489 252.044 75.1098 252.603 75.4318C253.166 75.7538 253.602 76.2202 253.91 76.831C254.222 77.4418 254.376 78.1828 254.371 79.054V86H251.8V79.4517C251.8 78.7225 251.611 78.152 251.232 77.7401C250.858 77.3281 250.34 77.1222 249.677 77.1222C249.227 77.1222 248.827 77.2216 248.477 77.4205C248.131 77.6146 247.859 77.8963 247.66 78.2656C247.466 78.6349 247.369 79.0824 247.369 79.608ZM261.815 86.2131C260.721 86.2131 259.776 85.9858 258.981 85.5312C258.19 85.072 257.582 84.4233 257.156 83.5852C256.729 82.7424 256.516 81.7505 256.516 80.6094C256.516 79.4872 256.729 78.5024 257.156 77.6548C257.586 76.8026 258.188 76.1397 258.96 75.6662C259.731 75.188 260.638 74.9489 261.68 74.9489C262.352 74.9489 262.987 75.0578 263.583 75.2756C264.184 75.4886 264.715 75.8201 265.174 76.2699C265.638 76.7197 266.003 77.2926 266.268 77.9886C266.533 78.6799 266.665 79.5038 266.665 80.4602V81.2486H257.724V79.5156H264.201C264.196 79.0232 264.09 78.5852 263.881 78.2017C263.673 77.8134 263.382 77.508 263.008 77.2855C262.638 77.063 262.208 76.9517 261.715 76.9517C261.19 76.9517 260.728 77.0795 260.33 77.3352C259.933 77.5862 259.622 77.9176 259.4 78.3295C259.182 78.7367 259.071 79.1842 259.066 79.6719V81.1847C259.066 81.8191 259.182 82.3636 259.414 82.8182C259.646 83.268 259.97 83.6136 260.387 83.8551C260.804 84.0919 261.291 84.2102 261.85 84.2102C262.224 84.2102 262.563 84.1581 262.866 84.054C263.169 83.9451 263.432 83.7865 263.654 83.5781C263.877 83.3698 264.045 83.1117 264.158 82.804L266.559 83.0739C266.407 83.7083 266.119 84.2623 265.692 84.7358C265.271 85.2045 264.731 85.5691 264.073 85.8295C263.415 86.0852 262.662 86.2131 261.815 86.2131ZM268.841 86V75.0909H271.333V76.9091H271.447C271.646 76.2794 271.987 75.794 272.47 75.4531C272.958 75.1075 273.514 74.9347 274.139 74.9347C274.281 74.9347 274.44 74.9418 274.615 74.956C274.795 74.9654 274.944 74.982 275.062 75.0057V77.3707C274.953 77.3329 274.78 77.2997 274.544 77.2713C274.312 77.2382 274.087 77.2216 273.869 77.2216C273.4 77.2216 272.979 77.3234 272.605 77.527C272.235 77.7259 271.944 78.0028 271.731 78.358C271.518 78.7131 271.412 79.1226 271.412 79.5866V86H268.841Z" fill="#F1018A"/>
<path d="M107.575 109.592V99.4097H113.68V100.503H108.808V103.944H113.222V105.038H108.808V109.592H107.575ZM115.632 109.592V101.955H116.806V109.592H115.632ZM116.229 100.682C116 100.682 115.803 100.605 115.637 100.449C115.475 100.293 115.394 100.106 115.394 99.887C115.394 99.6683 115.475 99.481 115.637 99.3252C115.803 99.1694 116 99.0916 116.229 99.0916C116.458 99.0916 116.653 99.1694 116.816 99.3252C116.981 99.481 117.064 99.6683 117.064 99.887C117.064 100.106 116.981 100.293 116.816 100.449C116.653 100.605 116.458 100.682 116.229 100.682ZM120.128 104.998V109.592H118.955V101.955H120.088V103.148H120.188C120.367 102.761 120.638 102.449 121.003 102.214C121.368 101.975 121.838 101.856 122.415 101.856C122.932 101.856 123.384 101.962 123.772 102.174C124.16 102.383 124.462 102.701 124.677 103.128C124.892 103.553 125 104.09 125 104.739V109.592H123.827V104.819C123.827 104.219 123.671 103.752 123.359 103.417C123.048 103.079 122.62 102.91 122.077 102.91C121.702 102.91 121.368 102.991 121.073 103.153C120.781 103.316 120.551 103.553 120.381 103.864C120.212 104.176 120.128 104.554 120.128 104.998ZM130.028 109.751C129.391 109.751 128.829 109.59 128.342 109.268C127.855 108.944 127.474 108.486 127.199 107.896C126.924 107.303 126.786 106.602 126.786 105.793C126.786 104.991 126.924 104.295 127.199 103.705C127.474 103.115 127.857 102.659 128.347 102.338C128.838 102.017 129.405 101.856 130.048 101.856C130.545 101.856 130.937 101.939 131.226 102.104C131.517 102.267 131.74 102.452 131.892 102.661C132.048 102.867 132.169 103.036 132.255 103.168H132.354V99.4097H133.528V109.592H132.394V108.418H132.255C132.169 108.557 132.046 108.733 131.887 108.945C131.728 109.154 131.501 109.341 131.206 109.507C130.911 109.669 130.518 109.751 130.028 109.751ZM130.187 108.697C130.657 108.697 131.055 108.574 131.38 108.329C131.705 108.08 131.952 107.737 132.121 107.3C132.29 106.859 132.374 106.35 132.374 105.773C132.374 105.203 132.291 104.704 132.126 104.277C131.96 103.846 131.715 103.511 131.39 103.273C131.065 103.031 130.664 102.91 130.187 102.91C129.69 102.91 129.275 103.037 128.944 103.293C128.616 103.544 128.369 103.887 128.203 104.322C128.041 104.753 127.959 105.236 127.959 105.773C127.959 106.317 128.042 106.811 128.208 107.255C128.377 107.696 128.626 108.047 128.954 108.309C129.285 108.567 129.696 108.697 130.187 108.697ZM143.098 101.955V102.95H139.141V101.955H143.098ZM140.294 100.126H141.467V107.404C141.467 107.735 141.515 107.984 141.611 108.15C141.711 108.312 141.837 108.422 141.989 108.478C142.145 108.531 142.309 108.557 142.481 108.557C142.611 108.557 142.717 108.551 142.8 108.538C142.882 108.521 142.949 108.508 142.999 108.498L143.237 109.552C143.158 109.582 143.047 109.611 142.904 109.641C142.762 109.674 142.581 109.691 142.362 109.691C142.031 109.691 141.706 109.62 141.388 109.477C141.073 109.335 140.811 109.118 140.602 108.826C140.397 108.534 140.294 108.166 140.294 107.722V100.126ZM146.2 104.998V109.592H145.027V99.4097H146.2V103.148H146.3C146.479 102.754 146.747 102.441 147.105 102.209C147.466 101.973 147.947 101.856 148.547 101.856C149.067 101.856 149.523 101.96 149.914 102.169C150.305 102.374 150.608 102.691 150.824 103.119C151.043 103.543 151.152 104.083 151.152 104.739V109.592H149.979V104.819C149.979 104.212 149.821 103.743 149.506 103.412C149.195 103.077 148.762 102.91 148.209 102.91C147.824 102.91 147.48 102.991 147.175 103.153C146.873 103.316 146.634 103.553 146.459 103.864C146.286 104.176 146.2 104.554 146.2 104.998ZM156.5 109.751C155.764 109.751 155.13 109.588 154.596 109.263C154.066 108.935 153.656 108.478 153.368 107.891C153.083 107.301 152.94 106.615 152.94 105.833C152.94 105.051 153.083 104.361 153.368 103.765C153.656 103.165 154.057 102.698 154.571 102.363C155.088 102.025 155.691 101.856 156.381 101.856C156.779 101.856 157.171 101.922 157.559 102.055C157.947 102.187 158.3 102.403 158.618 102.701C158.936 102.996 159.19 103.387 159.379 103.874C159.568 104.361 159.662 104.961 159.662 105.674V106.171H153.776V105.157H158.469C158.469 104.726 158.383 104.342 158.21 104.003C158.041 103.665 157.799 103.399 157.484 103.203C157.173 103.008 156.805 102.91 156.381 102.91C155.913 102.91 155.509 103.026 155.168 103.258C154.83 103.486 154.569 103.785 154.387 104.153C154.205 104.521 154.114 104.915 154.114 105.336V106.012C154.114 106.589 154.213 107.078 154.412 107.479C154.614 107.876 154.894 108.18 155.252 108.388C155.61 108.594 156.026 108.697 156.5 108.697C156.808 108.697 157.087 108.654 157.335 108.567C157.587 108.478 157.804 108.345 157.987 108.17C158.169 107.991 158.31 107.769 158.409 107.503L159.543 107.822C159.423 108.206 159.223 108.544 158.941 108.836C158.659 109.124 158.311 109.35 157.897 109.512C157.483 109.671 157.017 109.751 156.5 109.751ZM165.543 109.592V99.4097H166.717V103.168H166.816C166.902 103.036 167.022 102.867 167.174 102.661C167.33 102.452 167.552 102.267 167.84 102.104C168.132 101.939 168.526 101.856 169.024 101.856C169.667 101.856 170.233 102.017 170.724 102.338C171.214 102.659 171.597 103.115 171.872 103.705C172.147 104.295 172.285 104.991 172.285 105.793C172.285 106.602 172.147 107.303 171.872 107.896C171.597 108.486 171.216 108.944 170.729 109.268C170.242 109.59 169.68 109.751 169.043 109.751C168.553 109.751 168.16 109.669 167.865 109.507C167.57 109.341 167.343 109.154 167.184 108.945C167.025 108.733 166.902 108.557 166.816 108.418H166.677V109.592H165.543ZM166.697 105.773C166.697 106.35 166.781 106.859 166.95 107.3C167.119 107.737 167.366 108.08 167.691 108.329C168.016 108.574 168.414 108.697 168.884 108.697C169.375 108.697 169.784 108.567 170.112 108.309C170.444 108.047 170.692 107.696 170.858 107.255C171.027 106.811 171.112 106.317 171.112 105.773C171.112 105.236 171.029 104.753 170.863 104.322C170.701 103.887 170.454 103.544 170.122 103.293C169.794 103.037 169.381 102.91 168.884 102.91C168.407 102.91 168.006 103.031 167.681 103.273C167.356 103.511 167.111 103.846 166.945 104.277C166.78 104.704 166.697 105.203 166.697 105.773ZM177.281 109.751C176.546 109.751 175.911 109.588 175.377 109.263C174.847 108.935 174.438 108.478 174.149 107.891C173.864 107.301 173.722 106.615 173.722 105.833C173.722 105.051 173.864 104.361 174.149 103.765C174.438 103.165 174.839 102.698 175.352 102.363C175.869 102.025 176.473 101.856 177.162 101.856C177.56 101.856 177.953 101.922 178.34 102.055C178.728 102.187 179.081 102.403 179.399 102.701C179.717 102.996 179.971 103.387 180.16 103.874C180.349 104.361 180.443 104.961 180.443 105.674V106.171H174.557V105.157H179.25C179.25 104.726 179.164 104.342 178.992 104.003C178.823 103.665 178.581 103.399 178.266 103.203C177.954 103.008 177.586 102.91 177.162 102.91C176.695 102.91 176.29 103.026 175.949 103.258C175.611 103.486 175.351 103.785 175.168 104.153C174.986 104.521 174.895 104.915 174.895 105.336V106.012C174.895 106.589 174.994 107.078 175.193 107.479C175.395 107.876 175.676 108.18 176.033 108.388C176.391 108.594 176.807 108.697 177.281 108.697C177.59 108.697 177.868 108.654 178.117 108.567C178.368 108.478 178.586 108.345 178.768 108.17C178.95 107.991 179.091 107.769 179.19 107.503L180.324 107.822C180.205 108.206 180.004 108.544 179.722 108.836C179.441 109.124 179.093 109.35 178.678 109.512C178.264 109.671 177.798 109.751 177.281 109.751ZM187.637 103.665L186.583 103.964C186.517 103.788 186.419 103.617 186.29 103.452C186.164 103.283 185.992 103.143 185.773 103.034C185.554 102.925 185.274 102.87 184.933 102.87C184.465 102.87 184.076 102.978 183.764 103.193C183.456 103.405 183.302 103.675 183.302 104.003C183.302 104.295 183.408 104.526 183.62 104.695C183.832 104.864 184.164 105.004 184.614 105.117L185.748 105.396C186.431 105.561 186.939 105.815 187.274 106.156C187.609 106.494 187.776 106.93 187.776 107.464C187.776 107.901 187.65 108.292 187.399 108.637C187.15 108.982 186.802 109.253 186.355 109.452C185.907 109.651 185.387 109.751 184.793 109.751C184.015 109.751 183.37 109.582 182.859 109.244C182.349 108.905 182.026 108.412 181.89 107.762L183.004 107.484C183.11 107.895 183.31 108.203 183.605 108.408C183.904 108.614 184.293 108.717 184.774 108.717C185.32 108.717 185.755 108.601 186.076 108.369C186.401 108.133 186.563 107.851 186.563 107.523C186.563 107.258 186.471 107.036 186.285 106.857C186.099 106.675 185.814 106.539 185.43 106.45L184.157 106.151C183.458 105.985 182.944 105.729 182.616 105.381C182.291 105.029 182.129 104.59 182.129 104.063C182.129 103.632 182.25 103.251 182.492 102.92C182.737 102.588 183.07 102.328 183.491 102.139C183.915 101.95 184.396 101.856 184.933 101.856C185.688 101.856 186.282 102.021 186.712 102.353C187.147 102.684 187.455 103.122 187.637 103.665ZM192.864 101.955V102.95H188.906V101.955H192.864ZM190.06 100.126H191.233V107.404C191.233 107.735 191.281 107.984 191.377 108.15C191.476 108.312 191.602 108.422 191.755 108.478C191.911 108.531 192.075 108.557 192.247 108.557C192.376 108.557 192.482 108.551 192.565 108.538C192.648 108.521 192.714 108.508 192.764 108.498L193.003 109.552C192.923 109.582 192.812 109.611 192.67 109.641C192.527 109.674 192.347 109.691 192.128 109.691C191.796 109.691 191.472 109.62 191.153 109.477C190.838 109.335 190.577 109.118 190.368 108.826C190.162 108.534 190.06 108.166 190.06 107.722V100.126ZM200.296 109.592L197.969 101.955H199.202L200.853 107.802H200.932L202.563 101.955H203.816L205.427 107.782H205.506L207.157 101.955H208.39L206.063 109.592H204.91L203.239 103.725H203.12L201.449 109.592H200.296ZM212.883 109.751C212.147 109.751 211.512 109.588 210.979 109.263C210.448 108.935 210.039 108.478 209.751 107.891C209.466 107.301 209.323 106.615 209.323 105.833C209.323 105.051 209.466 104.361 209.751 103.765C210.039 103.165 210.44 102.698 210.954 102.363C211.471 102.025 212.074 101.856 212.764 101.856C213.161 101.856 213.554 101.922 213.942 102.055C214.33 102.187 214.683 102.403 215.001 102.701C215.319 102.996 215.573 103.387 215.761 103.874C215.95 104.361 216.045 104.961 216.045 105.674V106.171H210.158V105.157H214.852C214.852 104.726 214.765 104.342 214.593 104.003C214.424 103.665 214.182 103.399 213.867 103.203C213.556 103.008 213.188 102.91 212.764 102.91C212.296 102.91 211.892 103.026 211.551 103.258C211.212 103.486 210.952 103.785 210.77 104.153C210.588 104.521 210.497 104.915 210.497 105.336V106.012C210.497 106.589 210.596 107.078 210.795 107.479C210.997 107.876 211.277 108.18 211.635 108.388C211.993 108.594 212.409 108.697 212.883 108.697C213.191 108.697 213.47 108.654 213.718 108.567C213.97 108.478 214.187 108.345 214.369 108.17C214.552 107.991 214.693 107.769 214.792 107.503L215.926 107.822C215.806 108.206 215.606 108.544 215.324 108.836C215.042 109.124 214.694 109.35 214.28 109.512C213.866 109.671 213.4 109.751 212.883 109.751ZM217.989 109.592V99.4097H219.162V103.168H219.261C219.348 103.036 219.467 102.867 219.619 102.661C219.775 102.452 219.997 102.267 220.286 102.104C220.577 101.939 220.972 101.856 221.469 101.856C222.112 101.856 222.679 102.017 223.169 102.338C223.66 102.659 224.042 103.115 224.318 103.705C224.593 104.295 224.73 104.991 224.73 105.793C224.73 106.602 224.593 107.303 224.318 107.896C224.042 108.486 223.661 108.944 223.174 109.268C222.687 109.59 222.125 109.751 221.489 109.751C220.998 109.751 220.605 109.669 220.31 109.507C220.015 109.341 219.788 109.154 219.629 108.945C219.47 108.733 219.348 108.557 219.261 108.418H219.122V109.592H217.989ZM219.142 105.773C219.142 106.35 219.227 106.859 219.396 107.3C219.565 107.737 219.812 108.08 220.136 108.329C220.461 108.574 220.859 108.697 221.33 108.697C221.82 108.697 222.23 108.567 222.558 108.309C222.889 108.047 223.138 107.696 223.303 107.255C223.472 106.811 223.557 106.317 223.557 105.773C223.557 105.236 223.474 104.753 223.308 104.322C223.146 103.887 222.899 103.544 222.568 103.293C222.239 103.037 221.827 102.91 221.33 102.91C220.852 102.91 220.451 103.031 220.127 103.273C219.802 103.511 219.556 103.846 219.391 104.277C219.225 104.704 219.142 105.203 219.142 105.773ZM233.346 109.751C232.71 109.751 232.148 109.59 231.661 109.268C231.173 108.944 230.792 108.486 230.517 107.896C230.242 107.303 230.105 106.602 230.105 105.793C230.105 104.991 230.242 104.295 230.517 103.705C230.792 103.115 231.175 102.659 231.666 102.338C232.156 102.017 232.723 101.856 233.366 101.856C233.863 101.856 234.256 101.939 234.544 102.104C234.836 102.267 235.058 102.452 235.21 102.661C235.366 102.867 235.487 103.036 235.573 103.168H235.673V99.4097H236.846V109.592H235.712V108.418H235.573C235.487 108.557 235.364 108.733 235.205 108.945C235.046 109.154 234.819 109.341 234.524 109.507C234.229 109.669 233.837 109.751 233.346 109.751ZM233.505 108.697C233.976 108.697 234.373 108.574 234.698 108.329C235.023 108.08 235.27 107.737 235.439 107.3C235.608 106.859 235.693 106.35 235.693 105.773C235.693 105.203 235.61 104.704 235.444 104.277C235.278 103.846 235.033 103.511 234.708 103.273C234.383 103.031 233.982 102.91 233.505 102.91C233.008 102.91 232.594 103.037 232.262 103.293C231.934 103.544 231.687 103.887 231.521 104.322C231.359 104.753 231.278 105.236 231.278 105.773C231.278 106.317 231.361 106.811 231.526 107.255C231.695 107.696 231.944 108.047 232.272 108.309C232.604 108.567 233.015 108.697 233.505 108.697ZM242.359 109.751C241.624 109.751 240.989 109.588 240.455 109.263C239.925 108.935 239.516 108.478 239.227 107.891C238.942 107.301 238.8 106.615 238.8 105.833C238.8 105.051 238.942 104.361 239.227 103.765C239.516 103.165 239.917 102.698 240.43 102.363C240.948 102.025 241.551 101.856 242.24 101.856C242.638 101.856 243.031 101.922 243.418 102.055C243.806 102.187 244.159 102.403 244.477 102.701C244.796 102.996 245.049 103.387 245.238 103.874C245.427 104.361 245.521 104.961 245.521 105.674V106.171H239.635V105.157H244.328C244.328 104.726 244.242 104.342 244.07 104.003C243.901 103.665 243.659 103.399 243.344 103.203C243.032 103.008 242.664 102.91 242.24 102.91C241.773 102.91 241.368 103.026 241.027 103.258C240.689 103.486 240.429 103.785 240.247 104.153C240.064 104.521 239.973 104.915 239.973 105.336V106.012C239.973 106.589 240.073 107.078 240.271 107.479C240.474 107.876 240.754 108.18 241.112 108.388C241.47 108.594 241.886 108.697 242.359 108.697C242.668 108.697 242.946 108.654 243.195 108.567C243.447 108.478 243.664 108.345 243.846 108.17C244.028 107.991 244.169 107.769 244.269 107.503L245.402 107.822C245.283 108.206 245.082 108.544 244.801 108.836C244.519 109.124 244.171 109.35 243.756 109.512C243.342 109.671 242.877 109.751 242.359 109.751ZM252.715 103.665L251.661 103.964C251.595 103.788 251.497 103.617 251.368 103.452C251.242 103.283 251.07 103.143 250.851 103.034C250.632 102.925 250.352 102.87 250.011 102.87C249.543 102.87 249.154 102.978 248.842 103.193C248.534 103.405 248.38 103.675 248.38 104.003C248.38 104.295 248.486 104.526 248.698 104.695C248.91 104.864 249.242 105.004 249.693 105.117L250.826 105.396C251.509 105.561 252.018 105.815 252.352 106.156C252.687 106.494 252.855 106.93 252.855 107.464C252.855 107.901 252.729 108.292 252.477 108.637C252.228 108.982 251.88 109.253 251.433 109.452C250.985 109.651 250.465 109.751 249.872 109.751C249.093 109.751 248.448 109.582 247.938 109.244C247.427 108.905 247.104 108.412 246.968 107.762L248.082 107.484C248.188 107.895 248.388 108.203 248.683 108.408C248.982 108.614 249.371 108.717 249.852 108.717C250.399 108.717 250.833 108.601 251.154 108.369C251.479 108.133 251.641 107.851 251.641 107.523C251.641 107.258 251.549 107.036 251.363 106.857C251.177 106.675 250.892 106.539 250.508 106.45L249.235 106.151C248.536 105.985 248.022 105.729 247.694 105.381C247.369 105.029 247.207 104.59 247.207 104.063C247.207 103.632 247.328 103.251 247.57 102.92C247.815 102.588 248.148 102.328 248.569 102.139C248.993 101.95 249.474 101.856 250.011 101.856C250.766 101.856 251.36 102.021 251.791 102.353C252.225 102.684 252.533 103.122 252.715 103.665ZM254.621 109.592V101.955H255.794V109.592H254.621ZM255.217 100.682C254.989 100.682 254.791 100.605 254.626 100.449C254.463 100.293 254.382 100.106 254.382 99.887C254.382 99.6683 254.463 99.481 254.626 99.3252C254.791 99.1694 254.989 99.0916 255.217 99.0916C255.446 99.0916 255.641 99.1694 255.804 99.3252C255.97 99.481 256.052 99.6683 256.052 99.887C256.052 100.106 255.97 100.293 255.804 100.449C255.641 100.605 255.446 100.682 255.217 100.682ZM261.025 112.614C260.459 112.614 259.971 112.541 259.564 112.396C259.156 112.253 258.816 112.064 258.544 111.829C258.276 111.597 258.062 111.348 257.903 111.083L258.838 110.427C258.944 110.566 259.078 110.725 259.241 110.904C259.403 111.086 259.625 111.244 259.907 111.376C260.192 111.512 260.565 111.58 261.025 111.58C261.642 111.58 262.151 111.431 262.552 111.133C262.953 110.834 263.153 110.367 263.153 109.731V108.18H263.054C262.968 108.319 262.845 108.491 262.686 108.697C262.53 108.899 262.305 109.079 262.01 109.239C261.718 109.394 261.324 109.472 260.826 109.472C260.21 109.472 259.656 109.326 259.166 109.035C258.679 108.743 258.293 108.319 258.008 107.762C257.726 107.205 257.585 106.529 257.585 105.734C257.585 104.951 257.723 104.27 257.998 103.69C258.273 103.107 258.656 102.656 259.146 102.338C259.637 102.017 260.203 101.856 260.846 101.856C261.343 101.856 261.738 101.939 262.03 102.104C262.325 102.267 262.55 102.452 262.706 102.661C262.865 102.867 262.987 103.036 263.074 103.168H263.193V101.955H264.326V109.81C264.326 110.467 264.177 111 263.879 111.411C263.584 111.825 263.186 112.129 262.686 112.321C262.189 112.517 261.635 112.614 261.025 112.614ZM260.986 108.418C261.456 108.418 261.854 108.311 262.179 108.095C262.504 107.88 262.75 107.57 262.919 107.165C263.089 106.761 263.173 106.277 263.173 105.714C263.173 105.164 263.09 104.678 262.924 104.257C262.759 103.836 262.513 103.506 262.189 103.268C261.864 103.029 261.463 102.91 260.986 102.91C260.488 102.91 260.074 103.036 259.743 103.288C259.415 103.539 259.168 103.878 259.002 104.302C258.839 104.726 258.758 105.197 258.758 105.714C258.758 106.244 258.841 106.713 259.007 107.121C259.176 107.525 259.424 107.843 259.753 108.075C260.084 108.304 260.495 108.418 260.986 108.418ZM267.647 104.998V109.592H266.474V101.955H267.608V103.148H267.707C267.886 102.761 268.158 102.449 268.522 102.214C268.887 101.975 269.358 101.856 269.934 101.856C270.451 101.856 270.904 101.962 271.292 102.174C271.679 102.383 271.981 102.701 272.196 103.128C272.412 103.553 272.52 104.09 272.52 104.739V109.592H271.346V104.819C271.346 104.219 271.191 103.752 270.879 103.417C270.567 103.079 270.14 102.91 269.596 102.91C269.222 102.91 268.887 102.991 268.592 103.153C268.3 103.316 268.07 103.553 267.901 103.864C267.732 104.176 267.647 104.554 267.647 104.998ZM277.865 109.751C277.13 109.751 276.495 109.588 275.961 109.263C275.431 108.935 275.022 108.478 274.733 107.891C274.448 107.301 274.306 106.615 274.306 105.833C274.306 105.051 274.448 104.361 274.733 103.765C275.022 103.165 275.423 102.698 275.936 102.363C276.453 102.025 277.057 101.856 277.746 101.856C278.144 101.856 278.537 101.922 278.924 102.055C279.312 102.187 279.665 102.403 279.983 102.701C280.301 102.996 280.555 103.387 280.744 103.874C280.933 104.361 281.027 104.961 281.027 105.674V106.171H275.141V105.157H279.834C279.834 104.726 279.748 104.342 279.576 104.003C279.407 103.665 279.165 103.399 278.85 103.203C278.538 103.008 278.17 102.91 277.746 102.91C277.279 102.91 276.874 103.026 276.533 103.258C276.195 103.486 275.935 103.785 275.752 104.153C275.57 104.521 275.479 104.915 275.479 105.336V106.012C275.479 106.589 275.578 107.078 275.777 107.479C275.979 107.876 276.26 108.18 276.617 108.388C276.975 108.594 277.391 108.697 277.865 108.697C278.174 108.697 278.452 108.654 278.701 108.567C278.952 108.478 279.17 108.345 279.352 108.17C279.534 107.991 279.675 107.769 279.774 107.503L280.908 107.822C280.789 108.206 280.588 108.544 280.306 108.836C280.025 109.124 279.677 109.35 279.262 109.512C278.848 109.671 278.382 109.751 277.865 109.751ZM282.812 109.592V101.955H283.946V103.109H284.025C284.164 102.731 284.416 102.424 284.781 102.189C285.145 101.954 285.556 101.836 286.014 101.836C286.1 101.836 286.208 101.838 286.337 101.841C286.466 101.844 286.564 101.849 286.63 101.856V103.049C286.59 103.039 286.499 103.024 286.357 103.004C286.218 102.981 286.07 102.969 285.914 102.969C285.543 102.969 285.212 103.047 284.92 103.203C284.632 103.356 284.403 103.568 284.234 103.839C284.068 104.108 283.985 104.414 283.985 104.759V109.592H282.812ZM293.132 104.998V109.592H291.959V99.4097H293.132V103.148H293.231C293.41 102.754 293.679 102.441 294.037 102.209C294.398 101.973 294.879 101.856 295.478 101.856C295.999 101.856 296.455 101.96 296.846 102.169C297.237 102.374 297.54 102.691 297.755 103.119C297.974 103.543 298.084 104.083 298.084 104.739V109.592H296.91V104.819C296.91 104.212 296.753 103.743 296.438 103.412C296.126 103.077 295.694 102.91 295.14 102.91C294.756 102.91 294.411 102.991 294.106 103.153C293.805 103.316 293.566 103.553 293.39 103.864C293.218 104.176 293.132 104.554 293.132 104.998ZM303.432 109.751C302.696 109.751 302.061 109.588 301.528 109.263C300.997 108.935 300.588 108.478 300.3 107.891C300.015 107.301 299.872 106.615 299.872 105.833C299.872 105.051 300.015 104.361 300.3 103.765C300.588 103.165 300.989 102.698 301.503 102.363C302.02 102.025 302.623 101.856 303.312 101.856C303.71 101.856 304.103 101.922 304.491 102.055C304.878 102.187 305.231 102.403 305.55 102.701C305.868 102.996 306.121 103.387 306.31 103.874C306.499 104.361 306.594 104.961 306.594 105.674V106.171H300.707V105.157H305.4C305.4 104.726 305.314 104.342 305.142 104.003C304.973 103.665 304.731 103.399 304.416 103.203C304.105 103.008 303.737 102.91 303.312 102.91C302.845 102.91 302.441 103.026 302.099 103.258C301.761 103.486 301.501 103.785 301.319 104.153C301.137 104.521 301.045 104.915 301.045 105.336V106.012C301.045 106.589 301.145 107.078 301.344 107.479C301.546 107.876 301.826 108.18 302.184 108.388C302.542 108.594 302.958 108.697 303.432 108.697C303.74 108.697 304.018 108.654 304.267 108.567C304.519 108.478 304.736 108.345 304.918 108.17C305.101 107.991 305.241 107.769 305.341 107.503L306.474 107.822C306.355 108.206 306.155 108.544 305.873 108.836C305.591 109.124 305.243 109.35 304.829 109.512C304.414 109.671 303.949 109.751 303.432 109.751ZM308.378 109.592V101.955H309.512V103.109H309.592C309.731 102.731 309.983 102.424 310.347 102.189C310.712 101.954 311.123 101.836 311.58 101.836C311.666 101.836 311.774 101.838 311.903 101.841C312.033 101.844 312.13 101.849 312.197 101.856V103.049C312.157 103.039 312.066 103.024 311.923 103.004C311.784 102.981 311.637 102.969 311.481 102.969C311.11 102.969 310.778 103.047 310.486 103.203C310.198 103.356 309.969 103.568 309.8 103.839C309.635 104.108 309.552 104.414 309.552 104.759V109.592H308.378ZM316.557 109.751C315.821 109.751 315.186 109.588 314.653 109.263C314.122 108.935 313.713 108.478 313.425 107.891C313.14 107.301 312.997 106.615 312.997 105.833C312.997 105.051 313.14 104.361 313.425 103.765C313.713 103.165 314.114 102.698 314.628 102.363C315.145 102.025 315.748 101.856 316.437 101.856C316.835 101.856 317.228 101.922 317.616 102.055C318.003 102.187 318.356 102.403 318.675 102.701C318.993 102.996 319.246 103.387 319.435 103.874C319.624 104.361 319.719 104.961 319.719 105.674V106.171H313.832V105.157H318.525C318.525 104.726 318.439 104.342 318.267 104.003C318.098 103.665 317.856 103.399 317.541 103.203C317.23 103.008 316.862 102.91 316.437 102.91C315.97 102.91 315.566 103.026 315.224 103.258C314.886 103.486 314.626 103.785 314.444 104.153C314.262 104.521 314.17 104.915 314.17 105.336V106.012C314.17 106.589 314.27 107.078 314.469 107.479C314.671 107.876 314.951 108.18 315.309 108.388C315.667 108.594 316.083 108.697 316.557 108.697C316.865 108.697 317.143 108.654 317.392 108.567C317.644 108.478 317.861 108.345 318.043 108.17C318.226 107.991 318.366 107.769 318.466 107.503L319.599 107.822C319.48 108.206 319.28 108.544 318.998 108.836C318.716 109.124 318.368 109.35 317.954 109.512C317.539 109.671 317.074 109.751 316.557 109.751ZM323.253 108.2L323.174 108.736C323.118 109.114 323.031 109.519 322.915 109.95C322.803 110.38 322.685 110.786 322.562 111.168C322.44 111.549 322.339 111.852 322.259 112.077H321.364C321.407 111.865 321.464 111.585 321.533 111.237C321.603 110.889 321.673 110.5 321.742 110.069C321.815 109.641 321.875 109.204 321.921 108.756L321.981 108.2H323.253ZM105.377 125.955V126.95H101.42V125.955H105.377ZM102.573 124.126H103.747V131.404C103.747 131.735 103.795 131.984 103.891 132.15C103.99 132.312 104.116 132.422 104.269 132.478C104.424 132.531 104.588 132.557 104.761 132.557C104.89 132.557 104.996 132.551 105.079 132.538C105.162 132.521 105.228 132.508 105.278 132.498L105.516 133.552C105.437 133.582 105.326 133.611 105.183 133.641C105.041 133.674 104.86 133.691 104.641 133.691C104.31 133.691 103.985 133.62 103.667 133.477C103.352 133.335 103.09 133.118 102.881 132.826C102.676 132.534 102.573 132.166 102.573 131.722V124.126ZM108.48 128.998V133.592H107.306V123.41H108.48V127.148H108.579C108.758 126.754 109.026 126.441 109.384 126.209C109.746 125.973 110.226 125.856 110.826 125.856C111.346 125.856 111.802 125.96 112.193 126.169C112.584 126.374 112.888 126.691 113.103 127.119C113.322 127.543 113.431 128.083 113.431 128.739V133.592H112.258V128.819C112.258 128.212 112.1 127.743 111.786 127.412C111.474 127.077 111.042 126.91 110.488 126.91C110.104 126.91 109.759 126.991 109.454 127.153C109.152 127.316 108.914 127.553 108.738 127.864C108.566 128.176 108.48 128.554 108.48 128.998ZM118.779 133.751C118.044 133.751 117.409 133.588 116.875 133.263C116.345 132.935 115.936 132.478 115.647 131.891C115.362 131.301 115.22 130.615 115.22 129.833C115.22 129.051 115.362 128.361 115.647 127.765C115.936 127.165 116.337 126.698 116.85 126.363C117.367 126.025 117.971 125.856 118.66 125.856C119.058 125.856 119.451 125.922 119.838 126.055C120.226 126.187 120.579 126.403 120.897 126.701C121.215 126.996 121.469 127.387 121.658 127.874C121.847 128.361 121.941 128.961 121.941 129.674V130.171H116.055V129.157H120.748C120.748 128.726 120.662 128.342 120.49 128.003C120.321 127.665 120.079 127.399 119.764 127.203C119.452 127.008 119.084 126.91 118.66 126.91C118.193 126.91 117.788 127.026 117.447 127.258C117.109 127.486 116.849 127.785 116.666 128.153C116.484 128.521 116.393 128.915 116.393 129.336V130.012C116.393 130.589 116.492 131.078 116.691 131.479C116.894 131.876 117.174 132.18 117.532 132.388C117.889 132.594 118.305 132.697 118.779 132.697C119.088 132.697 119.366 132.654 119.615 132.567C119.867 132.478 120.084 132.345 120.266 132.17C120.448 131.991 120.589 131.769 120.688 131.503L121.822 131.822C121.703 132.206 121.502 132.544 121.22 132.836C120.939 133.124 120.591 133.35 120.176 133.512C119.762 133.671 119.296 133.751 118.779 133.751ZM124.249 136.455C124.051 136.455 123.873 136.439 123.717 136.405C123.562 136.376 123.454 136.346 123.394 136.316L123.693 135.282C123.978 135.355 124.23 135.381 124.448 135.361C124.667 135.342 124.861 135.244 125.03 135.068C125.202 134.896 125.36 134.616 125.502 134.228L125.721 133.631L122.897 125.955H124.17L126.278 132.04H126.357L128.465 125.955H129.738L126.497 134.705C126.351 135.1 126.17 135.426 125.955 135.685C125.739 135.946 125.489 136.14 125.204 136.266C124.922 136.392 124.604 136.455 124.249 136.455ZM136.954 133.592L134.628 125.955H135.861L137.511 131.802H137.591L139.221 125.955H140.474L142.085 131.782H142.165L143.815 125.955H145.048L142.721 133.592H141.568L139.897 127.725H139.778L138.108 133.592H136.954ZM146.599 133.592V125.955H147.772V133.592H146.599ZM147.196 124.682C146.967 124.682 146.77 124.605 146.604 124.449C146.442 124.293 146.361 124.106 146.361 123.887C146.361 123.668 146.442 123.481 146.604 123.325C146.77 123.169 146.967 123.092 147.196 123.092C147.424 123.092 147.62 123.169 147.782 123.325C147.948 123.481 148.031 123.668 148.031 123.887C148.031 124.106 147.948 124.293 147.782 124.449C147.62 124.605 147.424 124.682 147.196 124.682ZM151.095 123.41V133.592H149.921V123.41H151.095ZM154.417 123.41V133.592H153.244V123.41H154.417ZM160.663 133.592V123.41H161.836V127.168H161.935C162.021 127.036 162.141 126.867 162.293 126.661C162.449 126.452 162.671 126.267 162.959 126.104C163.251 125.939 163.646 125.856 164.143 125.856C164.786 125.856 165.352 126.017 165.843 126.338C166.333 126.659 166.716 127.115 166.991 127.705C167.266 128.295 167.404 128.991 167.404 129.793C167.404 130.602 167.266 131.303 166.991 131.896C166.716 132.486 166.335 132.944 165.848 133.268C165.361 133.59 164.799 133.751 164.163 133.751C163.672 133.751 163.279 133.669 162.984 133.507C162.689 133.341 162.462 133.154 162.303 132.945C162.144 132.733 162.021 132.557 161.935 132.418H161.796V133.592H160.663ZM161.816 129.773C161.816 130.35 161.9 130.859 162.07 131.3C162.239 131.737 162.485 132.08 162.81 132.329C163.135 132.574 163.533 132.697 164.003 132.697C164.494 132.697 164.903 132.567 165.231 132.309C165.563 132.047 165.811 131.696 165.977 131.255C166.146 130.811 166.231 130.317 166.231 129.773C166.231 129.236 166.148 128.753 165.982 128.322C165.82 127.887 165.573 127.544 165.241 127.293C164.913 127.037 164.501 126.91 164.003 126.91C163.526 126.91 163.125 127.031 162.8 127.273C162.476 127.511 162.23 127.846 162.065 128.277C161.899 128.704 161.816 129.203 161.816 129.773ZM174.011 130.469V125.955H175.185V133.592H174.011V132.299H173.932C173.753 132.687 173.474 133.017 173.097 133.288C172.719 133.557 172.241 133.691 171.665 133.691C171.187 133.691 170.763 133.587 170.392 133.378C170.021 133.166 169.729 132.847 169.517 132.423C169.305 131.996 169.199 131.457 169.199 130.807V125.955H170.372V130.728C170.372 131.285 170.528 131.729 170.839 132.06C171.154 132.392 171.555 132.557 172.043 132.557C172.334 132.557 172.631 132.483 172.932 132.334C173.237 132.185 173.493 131.956 173.698 131.648C173.907 131.339 174.011 130.947 174.011 130.469ZM177.334 133.592V125.955H178.507V133.592H177.334ZM177.93 124.682C177.701 124.682 177.504 124.605 177.339 124.449C177.176 124.293 177.095 124.106 177.095 123.887C177.095 123.668 177.176 123.481 177.339 123.325C177.504 123.169 177.701 123.092 177.93 123.092C178.159 123.092 178.354 123.169 178.517 123.325C178.683 123.481 178.765 123.668 178.765 123.887C178.765 124.106 178.683 124.293 178.517 124.449C178.354 124.605 178.159 124.682 177.93 124.682ZM181.829 123.41V133.592H180.656V123.41H181.829ZM186.862 133.751C186.225 133.751 185.663 133.59 185.176 133.268C184.689 132.944 184.308 132.486 184.033 131.896C183.758 131.303 183.62 130.602 183.62 129.793C183.62 128.991 183.758 128.295 184.033 127.705C184.308 127.115 184.691 126.659 185.181 126.338C185.672 126.017 186.239 125.856 186.881 125.856C187.379 125.856 187.771 125.939 188.06 126.104C188.351 126.267 188.573 126.452 188.726 126.661C188.882 126.867 189.003 127.036 189.089 127.168H189.188V123.41H190.362V133.592H189.228V132.418H189.089C189.003 132.557 188.88 132.733 188.721 132.945C188.562 133.154 188.335 133.341 188.04 133.507C187.745 133.669 187.352 133.751 186.862 133.751ZM187.021 132.697C187.491 132.697 187.889 132.574 188.214 132.329C188.539 132.08 188.786 131.737 188.955 131.3C189.124 130.859 189.208 130.35 189.208 129.773C189.208 129.203 189.125 128.704 188.96 128.277C188.794 127.846 188.549 127.511 188.224 127.273C187.899 127.031 187.498 126.91 187.021 126.91C186.524 126.91 186.109 127.037 185.778 127.293C185.45 127.544 185.203 127.887 185.037 128.322C184.875 128.753 184.793 129.236 184.793 129.773C184.793 130.317 184.876 130.811 185.042 131.255C185.211 131.696 185.46 132.047 185.788 132.309C186.119 132.567 186.53 132.697 187.021 132.697ZM199.932 125.955V126.95H195.975V125.955H199.932ZM197.128 124.126H198.301V131.404C198.301 131.735 198.349 131.984 198.445 132.15C198.545 132.312 198.671 132.422 198.823 132.478C198.979 132.531 199.143 132.557 199.315 132.557C199.445 132.557 199.551 132.551 199.634 132.538C199.716 132.521 199.783 132.508 199.832 132.498L200.071 133.552C199.992 133.582 199.881 133.611 199.738 133.641C199.596 133.674 199.415 133.691 199.196 133.691C198.865 133.691 198.54 133.62 198.222 133.477C197.907 133.335 197.645 133.118 197.436 132.826C197.231 132.534 197.128 132.166 197.128 131.722V124.126ZM204.817 133.751C204.081 133.751 203.446 133.588 202.912 133.263C202.382 132.935 201.973 132.478 201.684 131.891C201.399 131.301 201.257 130.615 201.257 129.833C201.257 129.051 201.399 128.361 201.684 127.765C201.973 127.165 202.374 126.698 202.888 126.363C203.405 126.025 204.008 125.856 204.697 125.856C205.095 125.856 205.488 125.922 205.875 126.055C206.263 126.187 206.616 126.403 206.934 126.701C207.253 126.996 207.506 127.387 207.695 127.874C207.884 128.361 207.978 128.961 207.978 129.674V130.171H202.092V129.157H206.785C206.785 128.726 206.699 128.342 206.527 128.003C206.358 127.665 206.116 127.399 205.801 127.203C205.489 127.008 205.121 126.91 204.697 126.91C204.23 126.91 203.826 127.026 203.484 127.258C203.146 127.486 202.886 127.785 202.704 128.153C202.521 128.521 202.43 128.915 202.43 129.336V130.012C202.43 130.589 202.53 131.078 202.728 131.479C202.931 131.876 203.211 132.18 203.569 132.388C203.927 132.594 204.343 132.697 204.817 132.697C205.125 132.697 205.403 132.654 205.652 132.567C205.904 132.478 206.121 132.345 206.303 132.17C206.485 131.991 206.626 131.769 206.726 131.503L207.859 131.822C207.74 132.206 207.539 132.544 207.258 132.836C206.976 133.124 206.628 133.35 206.214 133.512C205.799 133.671 205.334 133.751 204.817 133.751ZM209.763 133.592V125.955H210.897V127.109H210.976C211.116 126.731 211.367 126.424 211.732 126.189C212.097 125.954 212.508 125.836 212.965 125.836C213.051 125.836 213.159 125.838 213.288 125.841C213.417 125.844 213.515 125.849 213.581 125.856V127.049C213.542 127.039 213.451 127.024 213.308 127.004C213.169 126.981 213.021 126.969 212.866 126.969C212.494 126.969 212.163 127.047 211.871 127.203C211.583 127.356 211.354 127.568 211.185 127.839C211.019 128.108 210.937 128.414 210.937 128.759V133.592H209.763ZM214.972 133.592V125.955H216.106V127.109H216.185C216.324 126.731 216.576 126.424 216.941 126.189C217.306 125.954 217.717 125.836 218.174 125.836C218.26 125.836 218.368 125.838 218.497 125.841C218.626 125.844 218.724 125.849 218.79 125.856V127.049C218.751 127.039 218.659 127.024 218.517 127.004C218.378 126.981 218.23 126.969 218.074 126.969C217.703 126.969 217.372 127.047 217.08 127.203C216.792 127.356 216.563 127.568 216.394 127.839C216.228 128.108 216.146 128.414 216.146 128.759V133.592H214.972ZM220.181 133.592V125.955H221.315V127.109H221.394C221.533 126.731 221.785 126.424 222.15 126.189C222.515 125.954 222.926 125.836 223.383 125.836C223.469 125.836 223.577 125.838 223.706 125.841C223.835 125.844 223.933 125.849 223.999 125.856V127.049C223.96 127.039 223.868 127.024 223.726 127.004C223.587 126.981 223.439 126.969 223.283 126.969C222.912 126.969 222.581 127.047 222.289 127.203C222.001 127.356 221.772 127.568 221.603 127.839C221.437 128.108 221.355 128.414 221.355 128.759V133.592H220.181ZM225.39 133.592V125.955H226.563V133.592H225.39ZM225.987 124.682C225.758 124.682 225.561 124.605 225.395 124.449C225.233 124.293 225.152 124.106 225.152 123.887C225.152 123.668 225.233 123.481 225.395 123.325C225.561 123.169 225.758 123.092 225.987 123.092C226.215 123.092 226.411 123.169 226.573 123.325C226.739 123.481 226.822 123.668 226.822 123.887C226.822 124.106 226.739 124.293 226.573 124.449C226.411 124.605 226.215 124.682 225.987 124.682ZM232.113 125.955V126.95H227.997V125.955H232.113ZM229.23 133.592V124.901C229.23 124.464 229.332 124.099 229.538 123.807C229.743 123.516 230.01 123.297 230.338 123.151C230.666 123.005 231.013 122.932 231.377 122.932C231.666 122.932 231.901 122.956 232.083 123.002C232.265 123.048 232.401 123.092 232.491 123.131L232.153 124.146C232.093 124.126 232.01 124.101 231.904 124.071C231.801 124.041 231.666 124.026 231.497 124.026C231.109 124.026 230.829 124.124 230.656 124.32C230.487 124.515 230.403 124.802 230.403 125.18V133.592H229.23ZM233.757 133.592V125.955H234.931V133.592H233.757ZM234.354 124.682C234.125 124.682 233.928 124.605 233.762 124.449C233.6 124.293 233.519 124.106 233.519 123.887C233.519 123.668 233.6 123.481 233.762 123.325C233.928 123.169 234.125 123.092 234.354 123.092C234.583 123.092 234.778 123.169 234.941 123.325C235.106 123.481 235.189 123.668 235.189 123.887C235.189 124.106 235.106 124.293 234.941 124.449C234.778 124.605 234.583 124.682 234.354 124.682ZM240.182 133.751C239.466 133.751 238.85 133.582 238.332 133.244C237.815 132.905 237.418 132.44 237.139 131.847C236.861 131.253 236.722 130.575 236.722 129.813C236.722 129.038 236.864 128.353 237.149 127.76C237.438 127.163 237.839 126.698 238.352 126.363C238.869 126.025 239.473 125.856 240.162 125.856C240.699 125.856 241.183 125.955 241.614 126.154C242.045 126.353 242.398 126.631 242.673 126.989C242.948 127.347 243.118 127.765 243.185 128.242H242.011C241.922 127.894 241.723 127.586 241.415 127.317C241.11 127.046 240.699 126.91 240.182 126.91C239.725 126.91 239.323 127.029 238.979 127.268C238.637 127.503 238.371 127.836 238.178 128.267C237.989 128.695 237.895 129.197 237.895 129.773C237.895 130.363 237.988 130.877 238.173 131.315C238.362 131.752 238.627 132.092 238.969 132.334C239.314 132.576 239.718 132.697 240.182 132.697C240.487 132.697 240.764 132.644 241.012 132.538C241.261 132.432 241.471 132.279 241.644 132.08C241.816 131.881 241.939 131.643 242.011 131.364H243.185C243.118 131.815 242.954 132.221 242.693 132.582C242.434 132.94 242.091 133.225 241.663 133.437C241.239 133.646 240.745 133.751 240.182 133.751ZM251.721 133.751C251.085 133.751 250.523 133.59 250.036 133.268C249.548 132.944 249.167 132.486 248.892 131.896C248.617 131.303 248.48 130.602 248.48 129.793C248.48 128.991 248.617 128.295 248.892 127.705C249.167 127.115 249.55 126.659 250.041 126.338C250.531 126.017 251.098 125.856 251.741 125.856C252.238 125.856 252.631 125.939 252.919 126.104C253.211 126.267 253.433 126.452 253.585 126.661C253.741 126.867 253.862 127.036 253.948 127.168H254.048V123.41H255.221V133.592H254.087V132.418H253.948C253.862 132.557 253.739 132.733 253.58 132.945C253.421 133.154 253.194 133.341 252.899 133.507C252.604 133.669 252.212 133.751 251.721 133.751ZM251.88 132.697C252.351 132.697 252.748 132.574 253.073 132.329C253.398 132.08 253.645 131.737 253.814 131.3C253.983 130.859 254.068 130.35 254.068 129.773C254.068 129.203 253.985 128.704 253.819 128.277C253.653 127.846 253.408 127.511 253.083 127.273C252.758 127.031 252.357 126.91 251.88 126.91C251.383 126.91 250.969 127.037 250.637 127.293C250.309 127.544 250.062 127.887 249.896 128.322C249.734 128.753 249.653 129.236 249.653 129.773C249.653 130.317 249.736 130.811 249.901 131.255C250.07 131.696 250.319 132.047 250.647 132.309C250.979 132.567 251.39 132.697 251.88 132.697ZM260.734 133.751C259.999 133.751 259.364 133.588 258.83 133.263C258.3 132.935 257.891 132.478 257.602 131.891C257.317 131.301 257.175 130.615 257.175 129.833C257.175 129.051 257.317 128.361 257.602 127.765C257.891 127.165 258.292 126.698 258.805 126.363C259.323 126.025 259.926 125.856 260.615 125.856C261.013 125.856 261.406 125.922 261.793 126.055C262.181 126.187 262.534 126.403 262.852 126.701C263.171 126.996 263.424 127.387 263.613 127.874C263.802 128.361 263.896 128.961 263.896 129.674V130.171H258.01V129.157H262.703C262.703 128.726 262.617 128.342 262.445 128.003C262.276 127.665 262.034 127.399 261.719 127.203C261.407 127.008 261.039 126.91 260.615 126.91C260.148 126.91 259.743 127.026 259.402 127.258C259.064 127.486 258.804 127.785 258.622 128.153C258.439 128.521 258.348 128.915 258.348 129.336V130.012C258.348 130.589 258.448 131.078 258.646 131.479C258.849 131.876 259.129 132.18 259.487 132.388C259.845 132.594 260.261 132.697 260.734 132.697C261.043 132.697 261.321 132.654 261.57 132.567C261.822 132.478 262.039 132.345 262.221 132.17C262.403 131.991 262.544 131.769 262.644 131.503L263.777 131.822C263.658 132.206 263.457 132.544 263.176 132.836C262.894 133.124 262.546 133.35 262.131 133.512C261.717 133.671 261.252 133.751 260.734 133.751ZM271.09 127.665L270.036 127.964C269.97 127.788 269.872 127.617 269.743 127.452C269.617 127.283 269.445 127.143 269.226 127.034C269.007 126.925 268.727 126.87 268.386 126.87C267.918 126.87 267.529 126.978 267.217 127.193C266.909 127.405 266.755 127.675 266.755 128.003C266.755 128.295 266.861 128.526 267.073 128.695C267.285 128.864 267.617 129.004 268.068 129.117L269.201 129.396C269.884 129.561 270.393 129.815 270.727 130.156C271.062 130.494 271.23 130.93 271.23 131.464C271.23 131.901 271.104 132.292 270.852 132.637C270.603 132.982 270.255 133.253 269.808 133.452C269.36 133.651 268.84 133.751 268.247 133.751C267.468 133.751 266.823 133.582 266.313 133.244C265.802 132.905 265.479 132.412 265.343 131.762L266.457 131.484C266.563 131.895 266.763 132.203 267.058 132.408C267.357 132.614 267.746 132.717 268.227 132.717C268.774 132.717 269.208 132.601 269.529 132.369C269.854 132.133 270.016 131.851 270.016 131.523C270.016 131.258 269.924 131.036 269.738 130.857C269.552 130.675 269.267 130.539 268.883 130.45L267.61 130.151C266.911 129.985 266.397 129.729 266.069 129.381C265.744 129.029 265.582 128.59 265.582 128.063C265.582 127.632 265.703 127.251 265.945 126.92C266.19 126.588 266.523 126.328 266.944 126.139C267.368 125.95 267.849 125.856 268.386 125.856C269.141 125.856 269.735 126.021 270.166 126.353C270.6 126.684 270.908 127.122 271.09 127.665ZM272.996 133.592V125.955H274.169V133.592H272.996ZM273.592 124.682C273.364 124.682 273.166 124.605 273.001 124.449C272.838 124.293 272.757 124.106 272.757 123.887C272.757 123.668 272.838 123.481 273.001 123.325C273.166 123.169 273.364 123.092 273.592 123.092C273.821 123.092 274.016 123.169 274.179 123.325C274.345 123.481 274.427 123.668 274.427 123.887C274.427 124.106 274.345 124.293 274.179 124.449C274.016 124.605 273.821 124.682 273.592 124.682ZM279.4 136.614C278.834 136.614 278.346 136.541 277.939 136.396C277.531 136.253 277.191 136.064 276.919 135.829C276.651 135.597 276.437 135.348 276.278 135.083L277.213 134.427C277.319 134.566 277.453 134.725 277.616 134.904C277.778 135.086 278 135.244 278.282 135.376C278.567 135.512 278.94 135.58 279.4 135.58C280.017 135.58 280.526 135.431 280.927 135.133C281.328 134.834 281.528 134.367 281.528 133.731V132.18H281.429C281.343 132.319 281.22 132.491 281.061 132.697C280.905 132.899 280.68 133.079 280.385 133.239C280.093 133.394 279.699 133.472 279.201 133.472C278.585 133.472 278.031 133.326 277.541 133.035C277.054 132.743 276.668 132.319 276.383 131.762C276.101 131.205 275.96 130.529 275.96 129.734C275.96 128.951 276.098 128.27 276.373 127.69C276.648 127.107 277.031 126.656 277.521 126.338C278.012 126.017 278.578 125.856 279.221 125.856C279.718 125.856 280.113 125.939 280.405 126.104C280.7 126.267 280.925 126.452 281.081 126.661C281.24 126.867 281.362 127.036 281.449 127.168H281.568V125.955H282.701V133.81C282.701 134.467 282.552 135 282.254 135.411C281.959 135.825 281.561 136.129 281.061 136.321C280.564 136.517 280.01 136.614 279.4 136.614ZM279.361 132.418C279.831 132.418 280.229 132.311 280.554 132.095C280.879 131.88 281.125 131.57 281.294 131.165C281.464 130.761 281.548 130.277 281.548 129.714C281.548 129.164 281.465 128.678 281.299 128.257C281.134 127.836 280.888 127.506 280.564 127.268C280.239 127.029 279.838 126.91 279.361 126.91C278.863 126.91 278.449 127.036 278.118 127.288C277.79 127.539 277.543 127.878 277.377 128.302C277.214 128.726 277.133 129.197 277.133 129.714C277.133 130.244 277.216 130.713 277.382 131.121C277.551 131.525 277.799 131.843 278.128 132.075C278.459 132.304 278.87 132.418 279.361 132.418ZM286.022 128.998V133.592H284.849V125.955H285.983V127.148H286.082C286.261 126.761 286.533 126.449 286.897 126.214C287.262 125.975 287.733 125.856 288.309 125.856C288.826 125.856 289.279 125.962 289.667 126.174C290.054 126.383 290.356 126.701 290.571 127.128C290.787 127.553 290.895 128.09 290.895 128.739V133.592H289.721V128.819C289.721 128.219 289.566 127.752 289.254 127.417C288.942 127.079 288.515 126.91 287.971 126.91C287.597 126.91 287.262 126.991 286.967 127.153C286.675 127.316 286.445 127.553 286.276 127.864C286.107 128.176 286.022 128.554 286.022 128.998ZM298.448 127.665L297.394 127.964C297.327 127.788 297.23 127.617 297.1 127.452C296.974 127.283 296.802 127.143 296.583 127.034C296.365 126.925 296.085 126.87 295.743 126.87C295.276 126.87 294.886 126.978 294.575 127.193C294.267 127.405 294.112 127.675 294.112 128.003C294.112 128.295 294.219 128.526 294.431 128.695C294.643 128.864 294.974 129.004 295.425 129.117L296.559 129.396C297.241 129.561 297.75 129.815 298.085 130.156C298.42 130.494 298.587 130.93 298.587 131.464C298.587 131.901 298.461 132.292 298.209 132.637C297.961 132.982 297.612 133.253 297.165 133.452C296.718 133.651 296.197 133.751 295.604 133.751C294.825 133.751 294.18 133.582 293.67 133.244C293.16 132.905 292.836 132.412 292.701 131.762L293.814 131.484C293.92 131.895 294.121 132.203 294.416 132.408C294.714 132.614 295.103 132.717 295.584 132.717C296.131 132.717 296.565 132.601 296.887 132.369C297.211 132.133 297.374 131.851 297.374 131.523C297.374 131.258 297.281 131.036 297.095 130.857C296.91 130.675 296.625 130.539 296.24 130.45L294.968 130.151C294.268 129.985 293.755 129.729 293.426 129.381C293.102 129.029 292.939 128.59 292.939 128.063C292.939 127.632 293.06 127.251 293.302 126.92C293.547 126.588 293.88 126.328 294.301 126.139C294.726 125.95 295.206 125.856 295.743 125.856C296.499 125.856 297.092 126.021 297.523 126.353C297.957 126.684 298.265 127.122 298.448 127.665ZM307.612 125.955V126.95H303.654V125.955H307.612ZM304.808 124.126H305.981V131.404C305.981 131.735 306.029 131.984 306.125 132.15C306.225 132.312 306.35 132.422 306.503 132.478C306.659 132.531 306.823 132.557 306.995 132.557C307.124 132.557 307.23 132.551 307.313 132.538C307.396 132.521 307.462 132.508 307.512 132.498L307.751 133.552C307.671 133.582 307.56 133.611 307.418 133.641C307.275 133.674 307.095 133.691 306.876 133.691C306.544 133.691 306.22 133.62 305.901 133.477C305.587 133.335 305.325 133.118 305.116 132.826C304.91 132.534 304.808 132.166 304.808 131.722V124.126ZM310.714 128.998V133.592H309.541V123.41H310.714V127.148H310.813C310.992 126.754 311.261 126.441 311.619 126.209C311.98 125.973 312.461 125.856 313.06 125.856C313.581 125.856 314.037 125.96 314.428 126.169C314.819 126.374 315.122 126.691 315.337 127.119C315.556 127.543 315.666 128.083 315.666 128.739V133.592H314.492V128.819C314.492 128.212 314.335 127.743 314.02 127.412C313.708 127.077 313.276 126.91 312.722 126.91C312.338 126.91 311.993 126.991 311.688 127.153C311.387 127.316 311.148 127.553 310.972 127.864C310.8 128.176 310.714 128.554 310.714 128.998ZM320.059 133.771C319.575 133.771 319.136 133.679 318.742 133.497C318.347 133.311 318.034 133.045 317.802 132.697C317.57 132.345 317.454 131.921 317.454 131.424C317.454 130.986 317.54 130.632 317.713 130.36C317.885 130.085 318.115 129.869 318.404 129.714C318.692 129.558 319.01 129.442 319.358 129.366C319.71 129.286 320.063 129.223 320.417 129.177C320.881 129.117 321.257 129.072 321.546 129.043C321.837 129.009 322.05 128.955 322.182 128.878C322.318 128.802 322.386 128.67 322.386 128.481V128.441C322.386 127.95 322.252 127.569 321.983 127.298C321.718 127.026 321.315 126.89 320.775 126.89C320.215 126.89 319.776 127.012 319.458 127.258C319.139 127.503 318.916 127.765 318.787 128.043L317.673 127.646C317.872 127.182 318.137 126.82 318.468 126.562C318.803 126.3 319.168 126.118 319.562 126.015C319.96 125.909 320.351 125.856 320.735 125.856C320.981 125.856 321.262 125.886 321.581 125.945C321.902 126.002 322.212 126.119 322.51 126.298C322.812 126.477 323.062 126.747 323.261 127.109C323.46 127.47 323.559 127.954 323.559 128.56V133.592H322.386V132.557H322.326C322.247 132.723 322.114 132.901 321.929 133.089C321.743 133.278 321.496 133.439 321.188 133.572C320.88 133.704 320.503 133.771 320.059 133.771ZM320.238 132.717C320.702 132.717 321.093 132.625 321.412 132.443C321.733 132.261 321.975 132.026 322.137 131.737C322.303 131.449 322.386 131.146 322.386 130.827V129.753C322.336 129.813 322.227 129.868 322.058 129.918C321.892 129.964 321.7 130.005 321.481 130.042C321.266 130.075 321.055 130.105 320.85 130.131C320.648 130.155 320.483 130.174 320.358 130.191C320.053 130.231 319.768 130.295 319.502 130.385C319.241 130.471 319.028 130.602 318.866 130.778C318.707 130.95 318.627 131.185 318.627 131.484C318.627 131.891 318.778 132.2 319.08 132.408C319.385 132.614 319.771 132.717 320.238 132.717ZM329.022 125.955V126.95H325.064V125.955H329.022ZM326.218 124.126H327.391V131.404C327.391 131.735 327.439 131.984 327.535 132.15C327.635 132.312 327.761 132.422 327.913 132.478C328.069 132.531 328.233 132.557 328.405 132.557C328.535 132.557 328.641 132.551 328.723 132.538C328.806 132.521 328.873 132.508 328.922 132.498L329.161 133.552C329.081 133.582 328.97 133.611 328.828 133.641C328.685 133.674 328.505 133.691 328.286 133.691C327.955 133.691 327.63 133.62 327.312 133.477C326.997 133.335 326.735 133.118 326.526 132.826C326.321 132.534 326.218 132.166 326.218 131.722V124.126ZM159.212 157.592L156.885 149.955H158.118L159.769 155.802H159.848L161.479 149.955H162.732L164.343 155.782H164.422L166.073 149.955H167.306L164.979 157.592H163.826L162.155 151.725H162.036L160.366 157.592H159.212ZM168.857 157.592V149.955H170.03V157.592H168.857ZM169.454 148.682C169.225 148.682 169.028 148.605 168.862 148.449C168.7 148.293 168.618 148.106 168.618 147.887C168.618 147.668 168.7 147.481 168.862 147.325C169.028 147.169 169.225 147.092 169.454 147.092C169.682 147.092 169.878 147.169 170.04 147.325C170.206 147.481 170.289 147.668 170.289 147.887C170.289 148.106 170.206 148.293 170.04 148.449C169.878 148.605 169.682 148.682 169.454 148.682ZM173.353 147.41V157.592H172.179V147.41H173.353ZM176.675 147.41V157.592H175.502V147.41H176.675ZM186.162 149.955V150.95H182.045V149.955H186.162ZM183.278 157.592V148.901C183.278 148.464 183.381 148.099 183.587 147.807C183.792 147.516 184.059 147.297 184.387 147.151C184.715 147.005 185.061 146.932 185.426 146.932C185.714 146.932 185.95 146.956 186.132 147.002C186.314 147.048 186.45 147.092 186.54 147.131L186.202 148.146C186.142 148.126 186.059 148.101 185.953 148.071C185.85 148.041 185.714 148.026 185.545 148.026C185.158 148.026 184.878 148.124 184.705 148.32C184.536 148.515 184.452 148.802 184.452 149.18V157.592H183.278ZM187.806 157.592V149.955H188.98V157.592H187.806ZM188.403 148.682C188.174 148.682 187.977 148.605 187.811 148.449C187.649 148.293 187.568 148.106 187.568 147.887C187.568 147.668 187.649 147.481 187.811 147.325C187.977 147.169 188.174 147.092 188.403 147.092C188.631 147.092 188.827 147.169 188.989 147.325C189.155 147.481 189.238 147.668 189.238 147.887C189.238 148.106 189.155 148.293 188.989 148.449C188.827 148.605 188.631 148.682 188.403 148.682ZM192.302 147.41V157.592H191.128V147.41H192.302ZM195.624 147.41V157.592H194.451V147.41H195.624ZM202.466 160.455C202.267 160.455 202.09 160.439 201.934 160.405C201.778 160.376 201.671 160.346 201.611 160.316L201.909 159.282C202.194 159.355 202.446 159.381 202.665 159.361C202.884 159.342 203.078 159.244 203.247 159.068C203.419 158.896 203.577 158.616 203.719 158.228L203.938 157.631L201.114 149.955H202.387L204.495 156.04H204.574L206.682 149.955H207.955L204.713 158.705C204.568 159.1 204.387 159.426 204.171 159.685C203.956 159.946 203.706 160.14 203.421 160.266C203.139 160.392 202.821 160.455 202.466 160.455ZM212.332 157.751C211.643 157.751 211.038 157.587 210.518 157.258C210.001 156.93 209.596 156.471 209.305 155.881C209.016 155.291 208.872 154.602 208.872 153.813C208.872 153.018 209.016 152.323 209.305 151.73C209.596 151.137 210.001 150.676 210.518 150.348C211.038 150.02 211.643 149.856 212.332 149.856C213.022 149.856 213.625 150.02 214.142 150.348C214.662 150.676 215.067 151.137 215.355 151.73C215.647 152.323 215.793 153.018 215.793 153.813C215.793 154.602 215.647 155.291 215.355 155.881C215.067 156.471 214.662 156.93 214.142 157.258C213.625 157.587 213.022 157.751 212.332 157.751ZM212.332 156.697C212.856 156.697 213.287 156.562 213.625 156.294C213.963 156.026 214.213 155.673 214.376 155.235C214.538 154.798 214.619 154.324 214.619 153.813C214.619 153.303 214.538 152.827 214.376 152.386C214.213 151.945 213.963 151.589 213.625 151.317C213.287 151.046 212.856 150.91 212.332 150.91C211.809 150.91 211.378 151.046 211.04 151.317C210.702 151.589 210.451 151.945 210.289 152.386C210.127 152.827 210.045 153.303 210.045 153.813C210.045 154.324 210.127 154.798 210.289 155.235C210.451 155.673 210.702 156.026 211.04 156.294C211.378 156.562 211.809 156.697 212.332 156.697ZM222.396 154.469V149.955H223.569V157.592H222.396V156.299H222.317C222.138 156.687 221.859 157.017 221.481 157.288C221.103 157.557 220.626 157.691 220.049 157.691C219.572 157.691 219.148 157.587 218.777 157.378C218.406 157.166 218.114 156.847 217.902 156.423C217.69 155.996 217.584 155.457 217.584 154.807V149.955H218.757V154.728C218.757 155.285 218.913 155.729 219.224 156.06C219.539 156.392 219.94 156.557 220.427 156.557C220.719 156.557 221.016 156.483 221.317 156.334C221.622 156.185 221.877 155.956 222.083 155.648C222.292 155.339 222.396 154.947 222.396 154.469ZM225.718 157.592V149.955H226.852V151.109H226.931C227.071 150.731 227.322 150.424 227.687 150.189C228.052 149.954 228.463 149.836 228.92 149.836C229.006 149.836 229.114 149.838 229.243 149.841C229.372 149.844 229.47 149.849 229.537 149.856V151.049C229.497 151.039 229.406 151.024 229.263 151.004C229.124 150.981 228.976 150.969 228.821 150.969C228.449 150.969 228.118 151.047 227.826 151.203C227.538 151.356 227.309 151.568 227.14 151.839C226.974 152.108 226.892 152.414 226.892 152.759V157.592H225.718ZM236.038 152.998V157.592H234.865V149.955H235.998V151.148H236.098C236.277 150.761 236.549 150.449 236.913 150.214C237.278 149.975 237.748 149.856 238.325 149.856C238.842 149.856 239.294 149.962 239.682 150.174C240.07 150.383 240.372 150.701 240.587 151.128C240.803 151.553 240.91 152.09 240.91 152.739V157.592H239.737V152.819C239.737 152.219 239.581 151.752 239.27 151.417C238.958 151.079 238.531 150.91 237.987 150.91C237.612 150.91 237.278 150.991 236.983 151.153C236.691 151.316 236.461 151.553 236.292 151.864C236.123 152.176 236.038 152.554 236.038 152.998ZM246.256 157.751C245.52 157.751 244.885 157.588 244.352 157.263C243.822 156.935 243.412 156.478 243.124 155.891C242.839 155.301 242.696 154.615 242.696 153.833C242.696 153.051 242.839 152.361 243.124 151.765C243.412 151.165 243.813 150.698 244.327 150.363C244.844 150.025 245.447 149.856 246.137 149.856C246.534 149.856 246.927 149.922 247.315 150.055C247.703 150.187 248.056 150.403 248.374 150.701C248.692 150.996 248.946 151.387 249.135 151.874C249.323 152.361 249.418 152.961 249.418 153.674V154.171H243.532V153.157H248.225C248.225 152.726 248.139 152.342 247.966 152.003C247.797 151.665 247.555 151.399 247.24 151.203C246.929 151.008 246.561 150.91 246.137 150.91C245.669 150.91 245.265 151.026 244.924 151.258C244.586 151.486 244.325 151.785 244.143 152.153C243.961 152.521 243.87 152.915 243.87 153.336V154.012C243.87 154.589 243.969 155.078 244.168 155.479C244.37 155.876 244.65 156.18 245.008 156.388C245.366 156.594 245.782 156.697 246.256 156.697C246.564 156.697 246.843 156.654 247.091 156.567C247.343 156.478 247.56 156.345 247.742 156.17C247.925 155.991 248.066 155.769 248.165 155.503L249.299 155.822C249.179 156.206 248.979 156.544 248.697 156.836C248.415 157.124 248.067 157.35 247.653 157.512C247.239 157.671 246.773 157.751 246.256 157.751ZM254.404 157.751C253.669 157.751 253.034 157.588 252.5 157.263C251.97 156.935 251.561 156.478 251.272 155.891C250.987 155.301 250.845 154.615 250.845 153.833C250.845 153.051 250.987 152.361 251.272 151.765C251.561 151.165 251.962 150.698 252.475 150.363C252.992 150.025 253.596 149.856 254.285 149.856C254.683 149.856 255.076 149.922 255.463 150.055C255.851 150.187 256.204 150.403 256.522 150.701C256.84 150.996 257.094 151.387 257.283 151.874C257.472 152.361 257.566 152.961 257.566 153.674V154.171H251.68V153.157H256.373C256.373 152.726 256.287 152.342 256.115 152.003C255.946 151.665 255.704 151.399 255.389 151.203C255.077 151.008 254.709 150.91 254.285 150.91C253.818 150.91 253.413 151.026 253.072 151.258C252.734 151.486 252.474 151.785 252.291 152.153C252.109 152.521 252.018 152.915 252.018 153.336V154.012C252.018 154.589 252.117 155.078 252.316 155.479C252.519 155.876 252.799 156.18 253.157 156.388C253.514 156.594 253.93 156.697 254.404 156.697C254.713 156.697 254.991 156.654 255.24 156.567C255.492 156.478 255.709 156.345 255.891 156.17C256.073 155.991 256.214 155.769 256.313 155.503L257.447 155.822C257.328 156.206 257.127 156.544 256.845 156.836C256.564 157.124 256.216 157.35 255.801 157.512C255.387 157.671 254.921 157.751 254.404 157.751ZM262.235 157.751C261.598 157.751 261.037 157.59 260.549 157.268C260.062 156.944 259.681 156.486 259.406 155.896C259.131 155.303 258.993 154.602 258.993 153.793C258.993 152.991 259.131 152.295 259.406 151.705C259.681 151.115 260.064 150.659 260.554 150.338C261.045 150.017 261.612 149.856 262.255 149.856C262.752 149.856 263.144 149.939 263.433 150.104C263.724 150.267 263.947 150.452 264.099 150.661C264.255 150.867 264.376 151.036 264.462 151.168H264.561V147.41H265.735V157.592H264.601V156.418H264.462C264.376 156.557 264.253 156.733 264.094 156.945C263.935 157.154 263.708 157.341 263.413 157.507C263.118 157.669 262.725 157.751 262.235 157.751ZM262.394 156.697C262.864 156.697 263.262 156.574 263.587 156.329C263.912 156.08 264.159 155.737 264.328 155.3C264.497 154.859 264.581 154.35 264.581 153.773C264.581 153.203 264.498 152.704 264.333 152.277C264.167 151.846 263.922 151.511 263.597 151.273C263.272 151.031 262.871 150.91 262.394 150.91C261.897 150.91 261.482 151.037 261.151 151.293C260.823 151.544 260.576 151.887 260.41 152.322C260.248 152.753 260.166 153.236 260.166 153.773C260.166 154.317 260.249 154.811 260.415 155.255C260.584 155.696 260.833 156.047 261.161 156.309C261.492 156.567 261.903 156.697 262.394 156.697ZM273.456 151.665L272.402 151.964C272.335 151.788 272.237 151.617 272.108 151.452C271.982 151.283 271.81 151.143 271.591 151.034C271.372 150.925 271.092 150.87 270.751 150.87C270.284 150.87 269.894 150.978 269.583 151.193C269.274 151.405 269.12 151.675 269.12 152.003C269.12 152.295 269.226 152.526 269.438 152.695C269.651 152.864 269.982 153.004 270.433 153.117L271.566 153.396C272.249 153.561 272.758 153.815 273.093 154.156C273.427 154.494 273.595 154.93 273.595 155.464C273.595 155.901 273.469 156.292 273.217 156.637C272.968 156.982 272.62 157.253 272.173 157.452C271.725 157.651 271.205 157.751 270.612 157.751C269.833 157.751 269.188 157.582 268.678 157.244C268.167 156.905 267.844 156.412 267.708 155.762L268.822 155.484C268.928 155.895 269.129 156.203 269.424 156.408C269.722 156.614 270.111 156.717 270.592 156.717C271.139 156.717 271.573 156.601 271.894 156.369C272.219 156.133 272.382 155.851 272.382 155.523C272.382 155.258 272.289 155.036 272.103 154.857C271.918 154.675 271.633 154.539 271.248 154.45L269.975 154.151C269.276 153.985 268.762 153.729 268.434 153.381C268.109 153.029 267.947 152.59 267.947 152.063C267.947 151.632 268.068 151.251 268.31 150.92C268.555 150.588 268.888 150.328 269.309 150.139C269.733 149.95 270.214 149.856 270.751 149.856C271.507 149.856 272.1 150.021 272.531 150.353C272.965 150.684 273.273 151.122 273.456 151.665Z" fill="black"/>
<defs>
<filter id="filter0_d_402_3201" x="0" y="0" width="428" height="262" filterUnits="userSpaceOnUse" color-interpolation-filters="sRGB">
<feFlood flood-opacity="0" result="BackgroundImageFix"/>
<feColorMatrix in="SourceAlpha" type="matrix" values="0 0 0 0 0 0 0 0 0 0 0 0 0 0 0 0 0 0 127 0" result="hardAlpha"/>
<feOffset dy="16"/>
<feGaussianBlur stdDeviation="34"/>
<feComposite in2="hardAlpha" operator="out"/>
<feColorMatrix type="matrix" values="0 0 0 0 0.917647 0 0 0 0 0 0 0 0 0 0.490196 0 0 0 0.27 0"/>
<feBlend mode="normal" in2="BackgroundImageFix" result="effect1_dropShadow_402_3201"/>
<feBlend mode="normal" in="SourceGraphic" in2="effect1_dropShadow_402_3201" result="shape"/>
</filter>
</defs>
</svg>
