<svg width="63" height="62" viewBox="0 0 63 62" fill="none" xmlns="http://www.w3.org/2000/svg">
<path d="M62.1927 31C62.1927 35.071 61.3909 39.1021 59.833 42.8632C58.2751 46.6243 55.9916 50.0417 53.113 52.9203C50.2344 55.7989 46.817 58.0824 43.0559 59.6403C39.2948 61.1982 35.2637 62 31.1927 62C27.1217 62 23.0906 61.1982 19.3295 59.6403C15.5684 58.0824 12.151 55.7989 9.27238 52.9203C6.39376 50.0417 4.11032 46.6243 2.55242 42.8632C0.994526 39.1021 0.192688 35.071 0.192688 31H2.9225C2.9225 34.7125 3.65373 38.3886 5.07444 41.8185C6.49515 45.2484 8.57751 48.3649 11.2026 50.99C13.8278 53.6152 16.9443 55.6975 20.3742 57.1182C23.8041 58.539 27.4802 59.2702 31.1927 59.2702C34.9052 59.2702 38.5813 58.539 42.0112 57.1182C45.4411 55.6975 48.5576 53.6152 51.1827 50.99C53.8079 48.3649 55.8902 45.2484 57.3109 41.8185C58.7316 38.3886 59.4629 34.7125 59.4629 31H62.1927Z" fill="#393938"/>
<path d="M31.3481 38.5V8" stroke="#393938" stroke-width="3" stroke-linecap="round" stroke-linejoin="round"/>
<path d="M24.1927 15L31.3481 8L38.5036 15" stroke="#393938" stroke-width="3" stroke-linecap="round" stroke-linejoin="round"/>
</svg>
