<svg width="629" height="616" viewBox="0 0 629 616" fill="none" xmlns="http://www.w3.org/2000/svg">
<g filter="url(#filter0_d_625_1213)">
<rect x="40" y="249.158" width="177" height="177" rx="15" transform="rotate(-45 40 249.158)" fill="#F8FAFD"/>
</g>
<g filter="url(#filter1_d_625_1213)">
<rect x="236" y="163.158" width="177" height="177" rx="15" transform="rotate(-45 236 163.158)" fill="#F8FAFD"/>
</g>
<g filter="url(#filter2_d_625_1213)">
<rect x="338" y="361.158" width="177" height="177" rx="15" transform="rotate(-45 338 361.158)" fill="#F8FAFD"/>
</g>
<g filter="url(#filter3_d_625_1213)">
<rect x="136" y="448.158" width="177" height="177" rx="15" transform="rotate(-45 136 448.158)" fill="#F8FAFD"/>
</g>
<circle cx="165" cy="249" r="68" fill="#ECB9DD"/>
<path d="M152.05 234.986C153.373 234.995 154.659 235.229 155.91 235.688C157.169 236.137 158.303 236.875 159.31 237.901C160.318 238.917 161.119 240.28 161.712 241.989C162.306 243.699 162.603 245.813 162.603 248.332C162.612 250.707 162.36 252.83 161.847 254.701C161.344 256.563 160.619 258.138 159.675 259.424C158.73 260.71 157.592 261.691 156.261 262.366C154.929 263.04 153.431 263.378 151.767 263.378C150.022 263.378 148.474 263.036 147.125 262.352C145.785 261.669 144.701 260.733 143.873 259.545C143.045 258.358 142.537 257 142.348 255.47H147.273C147.525 256.568 148.038 257.44 148.812 258.088C149.594 258.727 150.58 259.046 151.767 259.046C153.683 259.046 155.159 258.214 156.193 256.55C157.228 254.885 157.745 252.573 157.745 249.614H157.556C157.115 250.405 156.544 251.089 155.842 251.665C155.141 252.232 154.344 252.668 153.454 252.974C152.572 253.28 151.637 253.433 150.647 253.433C149.028 253.433 147.57 253.046 146.275 252.272C144.988 251.498 143.967 250.437 143.212 249.087C142.465 247.738 142.087 246.195 142.078 244.459C142.078 242.66 142.492 241.045 143.32 239.614C144.156 238.175 145.321 237.041 146.815 236.214C148.308 235.377 150.053 234.968 152.05 234.986ZM152.064 239.034C151.092 239.034 150.215 239.272 149.433 239.749C148.659 240.217 148.047 240.856 147.597 241.665C147.156 242.466 146.936 243.361 146.936 244.351C146.945 245.331 147.165 246.222 147.597 247.023C148.038 247.823 148.636 248.458 149.392 248.925C150.157 249.393 151.029 249.627 152.01 249.627C152.739 249.627 153.418 249.488 154.048 249.209C154.677 248.93 155.226 248.543 155.694 248.048C156.171 247.545 156.54 246.973 156.8 246.335C157.07 245.696 157.201 245.021 157.192 244.31C157.192 243.366 156.967 242.493 156.517 241.692C156.076 240.892 155.469 240.249 154.695 239.763C153.931 239.277 153.054 239.034 152.064 239.034ZM176.691 234.986C178.013 234.995 179.3 235.229 180.55 235.688C181.81 236.137 182.943 236.875 183.951 237.901C184.959 238.917 185.759 240.28 186.353 241.989C186.947 243.699 187.244 245.813 187.244 248.332C187.253 250.707 187.001 252.83 186.488 254.701C185.984 256.563 185.26 258.138 184.315 259.424C183.371 260.71 182.233 261.691 180.901 262.366C179.57 263.04 178.072 263.378 176.408 263.378C174.662 263.378 173.115 263.036 171.766 262.352C170.425 261.669 169.341 260.733 168.513 259.545C167.686 258.358 167.178 257 166.989 255.47H171.914C172.166 256.568 172.679 257.44 173.452 258.088C174.235 258.727 175.22 259.046 176.408 259.046C178.324 259.046 179.799 258.214 180.834 256.55C181.868 254.885 182.386 252.573 182.386 249.614H182.197C181.756 250.405 181.185 251.089 180.483 251.665C179.781 252.232 178.985 252.668 178.094 252.974C177.213 253.28 176.277 253.433 175.288 253.433C173.668 253.433 172.211 253.046 170.915 252.272C169.629 251.498 168.608 250.437 167.852 249.087C167.106 247.738 166.728 246.195 166.719 244.459C166.719 242.66 167.133 241.045 167.96 239.614C168.797 238.175 169.962 237.041 171.455 236.214C172.949 235.377 174.694 234.968 176.691 234.986ZM176.705 239.034C175.733 239.034 174.856 239.272 174.073 239.749C173.299 240.217 172.688 240.856 172.238 241.665C171.797 242.466 171.577 243.361 171.577 244.351C171.586 245.331 171.806 246.222 172.238 247.023C172.679 247.823 173.277 248.458 174.033 248.925C174.797 249.393 175.67 249.627 176.651 249.627C177.379 249.627 178.058 249.488 178.688 249.209C179.318 248.93 179.867 248.543 180.335 248.048C180.811 247.545 181.18 246.973 181.441 246.335C181.711 245.696 181.841 245.021 181.832 244.31C181.832 243.366 181.607 242.493 181.158 241.692C180.717 240.892 180.11 240.249 179.336 239.763C178.571 239.277 177.694 239.034 176.705 239.034Z" fill="url(#paint0_linear_625_1213)"/>
<path d="M233 249C233 266.62 226.161 283.552 213.923 296.229C201.685 308.906 185.005 316.337 167.396 316.958C149.787 317.579 132.624 311.34 119.524 299.557C106.424 287.773 98.4097 271.365 97.1689 253.789C95.9282 236.212 101.558 218.841 112.873 205.334C124.188 191.827 140.303 183.239 157.825 181.38C175.347 179.521 192.906 184.535 206.803 195.367C220.7 206.199 229.85 222.002 232.326 239.447" stroke="#EA007D" stroke-width="5" stroke-linecap="round"/>
<circle cx="361" cy="163" r="68" fill="#ECB9DD"/>
<path d="M429 163C429 180.224 422.464 196.805 410.713 209.397C398.961 221.988 382.869 229.651 365.687 230.839C348.504 232.026 331.512 226.648 318.14 215.792C304.769 204.936 296.015 189.411 293.646 172.351C291.278 155.291 295.471 137.968 305.38 123.88C315.288 109.793 330.173 99.9895 347.029 96.4508C363.885 92.9122 381.456 95.9018 396.193 104.816C410.931 113.73 421.736 127.904 426.428 144.476" stroke="#EA007D" stroke-width="4" stroke-linecap="round"/>
<path d="M348.051 148.986C349.373 148.995 350.66 149.229 351.91 149.688C353.169 150.138 354.303 150.875 355.311 151.901C356.318 152.917 357.119 154.28 357.713 155.99C358.306 157.699 358.603 159.813 358.603 162.332C358.612 164.707 358.36 166.83 357.848 168.701C357.344 170.563 356.62 172.138 355.675 173.424C354.73 174.711 353.592 175.691 352.261 176.366C350.929 177.041 349.432 177.378 347.767 177.378C346.022 177.378 344.475 177.036 343.125 176.353C341.785 175.669 340.701 174.733 339.873 173.546C339.045 172.358 338.537 171 338.348 169.47H343.274C343.526 170.568 344.038 171.441 344.812 172.088C345.595 172.727 346.58 173.046 347.767 173.046C349.683 173.046 351.159 172.214 352.193 170.55C353.228 168.886 353.745 166.574 353.745 163.614H353.556C353.116 164.406 352.544 165.089 351.843 165.665C351.141 166.232 350.345 166.668 349.454 166.974C348.572 167.28 347.637 167.433 346.647 167.433C345.028 167.433 343.571 167.046 342.275 166.272C340.989 165.499 339.968 164.437 339.212 163.088C338.465 161.738 338.087 160.195 338.078 158.459C338.078 156.66 338.492 155.045 339.32 153.615C340.156 152.175 341.321 151.042 342.815 150.214C344.308 149.377 346.053 148.968 348.051 148.986ZM348.064 153.034C347.093 153.034 346.215 153.273 345.433 153.75C344.659 154.217 344.047 154.856 343.598 155.666C343.157 156.466 342.936 157.362 342.936 158.351C342.945 159.332 343.166 160.222 343.598 161.023C344.038 161.824 344.637 162.458 345.392 162.926C346.157 163.393 347.03 163.627 348.01 163.627C348.739 163.627 349.418 163.488 350.048 163.209C350.678 162.93 351.226 162.543 351.694 162.049C352.171 161.545 352.54 160.973 352.801 160.335C353.071 159.696 353.201 159.021 353.192 158.311C353.192 157.366 352.967 156.493 352.517 155.693C352.076 154.892 351.469 154.249 350.696 153.763C349.931 153.277 349.054 153.034 348.064 153.034ZM363.367 177L375.12 153.736V153.547H361.477V149.364H380.302V153.642L368.562 177H363.367Z" fill="url(#paint1_linear_625_1213)"/>
<circle cx="465" cy="361" r="68" fill="#ECB9DD"/>
<circle cx="465" cy="361" r="65.5" stroke="#EA007D" stroke-width="5"/>
<path d="M444.697 347.364V375H439.69V352.235H439.528L433.065 356.364V351.776L439.933 347.364H444.697ZM461.929 375.526C459.707 375.526 457.8 374.964 456.207 373.839C454.624 372.706 453.405 371.073 452.55 368.941C451.705 366.8 451.282 364.223 451.282 361.209C451.291 358.195 451.718 355.631 452.564 353.517C453.419 351.394 454.638 349.775 456.221 348.659C457.813 347.544 459.716 346.986 461.929 346.986C464.142 346.986 466.045 347.544 467.637 348.659C469.229 349.775 470.448 351.394 471.294 353.517C472.149 355.64 472.576 358.204 472.576 361.209C472.576 364.232 472.149 366.813 471.294 368.955C470.448 371.087 469.229 372.715 467.637 373.839C466.054 374.964 464.151 375.526 461.929 375.526ZM461.929 371.303C463.656 371.303 465.019 370.452 466.018 368.752C467.025 367.043 467.529 364.528 467.529 361.209C467.529 359.014 467.3 357.17 466.841 355.676C466.382 354.183 465.734 353.058 464.898 352.303C464.061 351.538 463.071 351.156 461.929 351.156C460.211 351.156 458.852 352.01 457.854 353.719C456.855 355.42 456.351 357.916 456.342 361.209C456.333 363.413 456.554 365.266 457.004 366.768C457.462 368.271 458.11 369.404 458.947 370.169C459.783 370.925 460.777 371.303 461.929 371.303ZM487.275 375.526C485.053 375.526 483.145 374.964 481.553 373.839C479.97 372.706 478.751 371.073 477.896 368.941C477.05 366.8 476.628 364.223 476.628 361.209C476.637 358.195 477.064 355.631 477.91 353.517C478.764 351.394 479.983 349.775 481.567 348.659C483.159 347.544 485.062 346.986 487.275 346.986C489.488 346.986 491.39 347.544 492.983 348.659C494.575 349.775 495.794 351.394 496.64 353.517C497.494 355.64 497.922 358.204 497.922 361.209C497.922 364.232 497.494 366.813 496.64 368.955C495.794 371.087 494.575 372.715 492.983 373.839C491.399 374.964 489.497 375.526 487.275 375.526ZM487.275 371.303C489.002 371.303 490.365 370.452 491.363 368.752C492.371 367.043 492.875 364.528 492.875 361.209C492.875 359.014 492.645 357.17 492.187 355.676C491.728 354.183 491.08 353.058 490.243 352.303C489.407 351.538 488.417 351.156 487.275 351.156C485.556 351.156 484.198 352.01 483.199 353.719C482.201 355.42 481.697 357.916 481.688 361.209C481.679 363.413 481.899 365.266 482.349 366.768C482.808 368.271 483.456 369.404 484.292 370.169C485.129 370.925 486.123 371.303 487.275 371.303Z" fill="url(#paint2_linear_625_1213)"/>
<circle cx="261" cy="448" r="68" fill="#ECB9DD"/>
<path d="M248.05 433.986C249.373 433.995 250.659 434.229 251.91 434.688C253.169 435.137 254.303 435.875 255.31 436.901C256.318 437.917 257.119 439.28 257.712 440.989C258.306 442.699 258.603 444.813 258.603 447.332C258.612 449.707 258.36 451.83 257.847 453.701C257.344 455.563 256.619 457.138 255.675 458.424C254.73 459.71 253.592 460.691 252.261 461.366C250.929 462.04 249.431 462.378 247.767 462.378C246.022 462.378 244.474 462.036 243.125 461.352C241.785 460.669 240.701 459.733 239.873 458.545C239.045 457.358 238.537 456 238.348 454.47H243.273C243.525 455.568 244.038 456.44 244.812 457.088C245.594 457.727 246.58 458.046 247.767 458.046C249.683 458.046 251.159 457.214 252.193 455.55C253.228 453.885 253.745 451.573 253.745 448.614H253.556C253.115 449.405 252.544 450.089 251.842 450.665C251.141 451.232 250.344 451.668 249.454 451.974C248.572 452.28 247.637 452.433 246.647 452.433C245.028 452.433 243.57 452.046 242.275 451.272C240.988 450.498 239.967 449.437 239.212 448.087C238.465 446.738 238.087 445.195 238.078 443.459C238.078 441.66 238.492 440.045 239.32 438.614C240.156 437.175 241.321 436.041 242.815 435.214C244.308 434.377 246.053 433.968 248.05 433.986ZM248.064 438.034C247.092 438.034 246.215 438.272 245.433 438.749C244.659 439.217 244.047 439.856 243.597 440.665C243.156 441.466 242.936 442.361 242.936 443.351C242.945 444.331 243.165 445.222 243.597 446.023C244.038 446.823 244.636 447.458 245.392 447.925C246.157 448.393 247.029 448.627 248.01 448.627C248.739 448.627 249.418 448.488 250.048 448.209C250.677 447.93 251.226 447.543 251.694 447.048C252.171 446.545 252.54 445.973 252.8 445.335C253.07 444.696 253.201 444.021 253.192 443.31C253.192 442.366 252.967 441.493 252.517 440.692C252.076 439.892 251.469 439.249 250.695 438.763C249.931 438.277 249.054 438.034 248.064 438.034ZM272.691 433.986C274.013 433.995 275.3 434.229 276.55 434.688C277.81 435.137 278.943 435.875 279.951 436.901C280.959 437.917 281.759 439.28 282.353 440.989C282.947 442.699 283.244 444.813 283.244 447.332C283.253 449.707 283.001 451.83 282.488 453.701C281.984 455.563 281.26 457.138 280.315 458.424C279.371 459.71 278.233 460.691 276.901 461.366C275.57 462.04 274.072 462.378 272.408 462.378C270.662 462.378 269.115 462.036 267.766 461.352C266.425 460.669 265.341 459.733 264.513 458.545C263.686 457.358 263.178 456 262.989 454.47H267.914C268.166 455.568 268.679 456.44 269.452 457.088C270.235 457.727 271.22 458.046 272.408 458.046C274.324 458.046 275.799 457.214 276.834 455.55C277.868 453.885 278.386 451.573 278.386 448.614H278.197C277.756 449.405 277.185 450.089 276.483 450.665C275.781 451.232 274.985 451.668 274.094 451.974C273.213 452.28 272.277 452.433 271.288 452.433C269.668 452.433 268.211 452.046 266.915 451.272C265.629 450.498 264.608 449.437 263.852 448.087C263.106 446.738 262.728 445.195 262.719 443.459C262.719 441.66 263.133 440.045 263.96 438.614C264.797 437.175 265.962 436.041 267.455 435.214C268.949 434.377 270.694 433.968 272.691 433.986ZM272.705 438.034C271.733 438.034 270.856 438.272 270.073 438.749C269.299 439.217 268.688 439.856 268.238 440.665C267.797 441.466 267.577 442.361 267.577 443.351C267.586 444.331 267.806 445.222 268.238 446.023C268.679 446.823 269.277 447.458 270.033 447.925C270.797 448.393 271.67 448.627 272.651 448.627C273.379 448.627 274.058 448.488 274.688 448.209C275.318 447.93 275.867 447.543 276.335 447.048C276.811 446.545 277.18 445.973 277.441 445.335C277.711 444.696 277.841 444.021 277.832 443.31C277.832 442.366 277.607 441.493 277.158 440.692C276.717 439.892 276.11 439.249 275.336 438.763C274.571 438.277 273.694 438.034 272.705 438.034Z" fill="url(#paint3_linear_625_1213)"/>
<path d="M329 448C329 465.62 322.161 482.552 309.923 495.229C297.685 507.906 281.005 515.337 263.396 515.958C245.787 516.579 228.624 510.34 215.524 498.557C202.424 486.773 194.41 470.365 193.169 452.789C191.928 435.212 197.558 417.841 208.873 404.334C220.188 390.827 236.303 382.239 253.825 380.38C271.347 378.521 288.906 383.535 302.803 394.367C316.7 405.199 325.85 421.002 328.326 438.447" stroke="#EA007D" stroke-width="5" stroke-linecap="round"/>
<path d="M36.4387 232.134L26.3571 221.649L29.8999 218.243C30.7224 217.452 31.5375 216.954 32.3453 216.749C33.1531 216.537 33.9245 216.56 34.6595 216.819C35.3945 217.078 36.059 217.516 36.653 218.134C37.247 218.752 37.6605 219.435 37.8936 220.183C38.1302 220.927 38.1318 221.701 37.8984 222.503C37.6617 223.302 37.1355 224.094 36.3198 224.878L33.7804 227.32L32.6975 226.194L35.1958 223.792C35.759 223.25 36.1177 222.718 36.2719 222.195C36.4262 221.672 36.4209 221.172 36.2562 220.693C36.0916 220.208 35.8074 219.755 35.4038 219.335C35.0001 218.915 34.5606 218.615 34.0853 218.435C33.6134 218.252 33.1148 218.232 32.5896 218.376C32.0611 218.516 31.5119 218.86 30.9419 219.408L28.7098 221.555L37.7083 230.913L36.4387 232.134ZM45.5899 223.335L35.5084 212.85L41.8362 206.766L42.9191 207.892L37.861 212.755L41.2675 216.298L45.9979 211.75L47.0809 212.876L42.3504 217.424L45.7766 220.988L50.9166 216.045L51.9996 217.172L45.5899 223.335ZM54.2061 215.05L44.1246 204.565L47.6674 201.159C48.4865 200.371 49.2934 199.865 50.0881 199.639C50.8796 199.41 51.6346 199.417 52.3531 199.658C53.0717 199.9 53.728 200.33 54.322 200.948C54.916 201.565 55.3164 202.235 55.5233 202.955C55.7302 203.676 55.7038 204.424 55.4441 205.199C55.1812 205.971 54.6436 206.747 53.8313 207.528L50.9643 210.285L49.8616 209.138L52.6876 206.421C53.2474 205.883 53.6192 205.368 53.8029 204.876C53.9901 204.38 54.0161 203.909 53.8809 203.461C53.7458 203.006 53.4765 202.569 53.0728 202.149C52.6692 201.729 52.2379 201.438 51.779 201.275C51.32 201.111 50.8362 201.11 50.3274 201.271C49.8153 201.429 49.2759 201.78 48.7094 202.324L46.4772 204.471L55.4758 213.829L54.2061 215.05ZM54.6126 205.595L61.7217 207.824L60.2472 209.241L53.1791 206.973L54.6126 205.595ZM63.4278 206.183L53.3463 195.698L59.6331 189.653L60.7161 190.78L55.6989 195.604L59.1053 199.147L63.6515 194.775L64.7345 195.902L60.1883 200.273L64.6974 204.962L63.4278 206.183ZM75.695 184.299C76.7583 185.404 77.4775 186.552 77.8527 187.741C78.2279 188.931 78.2774 190.079 78.0012 191.185C77.725 192.292 77.1397 193.275 76.2455 194.134C75.3513 194.994 74.346 195.54 73.2297 195.773C72.1134 196.006 70.9683 195.911 69.7945 195.49C68.6207 195.068 67.5021 194.305 66.4388 193.199C65.3755 192.093 64.6563 190.945 64.2812 189.756C63.906 188.566 63.8565 187.418 64.1327 186.312C64.4089 185.206 64.9941 184.223 65.8883 183.363C66.7826 182.503 67.7878 181.957 68.9042 181.724C70.0205 181.492 71.1656 181.586 72.3394 182.008C73.5132 182.429 74.6317 183.193 75.695 184.299ZM74.4663 185.48C73.5934 184.572 72.7048 183.952 71.8004 183.619C70.8995 183.284 70.0371 183.203 69.2133 183.378C68.3928 183.549 67.6652 183.94 67.0304 184.551C66.3956 185.161 65.9747 185.874 65.7678 186.691C65.5643 187.504 65.611 188.369 65.9078 189.285C66.208 190.199 66.7946 191.109 67.6675 192.017C68.5405 192.925 69.4274 193.547 70.3283 193.883C71.2326 194.215 72.095 194.296 72.9155 194.124C73.7393 193.95 74.4687 193.557 75.1035 192.947C75.7383 192.336 76.1575 191.625 76.3609 190.811C76.5678 189.995 76.5212 189.13 76.2209 188.217C75.9241 187.3 75.3393 186.388 74.4663 185.48ZM82.8707 187.488L72.7891 177.003L76.3319 173.597C77.151 172.809 77.9579 172.303 78.7526 172.077C79.5441 171.848 80.2991 171.855 81.0177 172.097C81.7362 172.338 82.3925 172.768 82.9865 173.386C83.5805 174.004 83.9809 174.673 84.1878 175.394C84.3947 176.114 84.3683 176.862 84.1087 177.637C83.8457 178.409 83.3081 179.185 82.4958 179.966L79.6288 182.723L78.5262 181.576L81.3522 178.859C81.9119 178.321 82.2837 177.806 82.4674 177.314C82.6546 176.818 82.6806 176.347 82.5454 175.899C82.4104 175.444 82.141 175.007 81.7373 174.587C81.3337 174.167 80.9024 173.876 80.4435 173.713C79.9845 173.55 79.5007 173.549 78.9919 173.709C78.4798 173.867 77.9405 174.218 77.3739 174.763L75.1418 176.909L84.1403 186.267L82.8707 187.488ZM83.2771 178.033L90.3862 180.262L88.9118 181.68L81.8436 179.411L83.2771 178.033ZM82.0108 168.137L83.5262 166.679L95.4578 171.957L95.5807 171.838L90.7755 159.709L92.2909 158.252L102.372 168.737L101.185 169.879L93.5251 161.913L93.4227 162.011L97.8057 173.128L96.659 174.23L85.7228 169.415L85.6204 169.513L93.28 177.479L92.0923 178.621L82.0108 168.137ZM105.348 165.876L104.017 167.155L97.7855 152.969L99.0961 151.709L113.028 158.492L111.696 159.771L100.077 153.958L99.9947 154.037L105.348 165.876ZM101.902 161.307L107.267 156.148L108.35 157.275L102.985 162.434L101.902 161.307ZM112.893 138.442L122.975 148.927L121.746 150.108L108.117 147.37L108.015 147.468L115.93 155.7L114.661 156.921L104.579 146.436L105.808 145.255L119.477 147.994L119.579 147.896L111.644 139.643L112.893 138.442ZM127.021 131.163L125.752 132.384C125.326 132.091 124.886 131.897 124.432 131.801C123.982 131.701 123.534 131.686 123.087 131.754C122.64 131.816 122.211 131.953 121.798 132.166C121.385 132.379 121.005 132.653 120.657 132.987C120.022 133.598 119.601 134.311 119.394 135.128C119.191 135.941 119.237 136.805 119.534 137.722C119.834 138.636 120.421 139.546 121.294 140.454C122.167 141.362 123.054 141.984 123.955 142.32C124.859 142.652 125.721 142.733 126.542 142.561C127.366 142.386 128.095 141.994 128.73 141.383C129.078 141.049 129.366 140.679 129.595 140.275C129.824 139.871 129.98 139.449 130.062 139.009C130.145 138.561 130.145 138.111 130.064 137.657C129.982 137.197 129.805 136.75 129.532 136.316L130.802 135.095C131.222 135.723 131.509 136.37 131.663 137.036C131.817 137.702 131.85 138.364 131.76 139.022C131.667 139.676 131.46 140.305 131.14 140.908C130.824 141.508 130.401 142.063 129.872 142.571C128.978 143.431 127.972 143.977 126.856 144.21C125.74 144.442 124.595 144.348 123.421 143.926C122.247 143.505 121.128 142.741 120.065 141.635C119.002 140.53 118.283 139.382 117.907 138.193C117.532 137.003 117.483 135.855 117.759 134.749C118.035 133.643 118.62 132.659 119.515 131.8C120.044 131.291 120.614 130.89 121.226 130.598C121.841 130.301 122.479 130.121 123.14 130.057C123.798 129.99 124.457 130.046 125.116 130.227C125.772 130.404 126.407 130.716 127.021 131.163ZM136.004 136.399L125.923 125.914L132.25 119.83L133.333 120.956L128.275 125.819L131.682 129.362L136.412 124.814L137.495 125.94L132.765 130.489L136.191 134.052L141.331 129.109L142.414 130.236L136.004 136.399Z" fill="url(#paint4_linear_625_1213)"/>
<path d="M133.439 437.134L123.357 426.649L127.023 423.125C127.753 422.422 128.477 421.969 129.194 421.766C129.908 421.559 130.585 421.555 131.224 421.755C131.859 421.952 132.423 422.306 132.916 422.818C133.349 423.269 133.626 423.718 133.748 424.166C133.873 424.61 133.888 425.042 133.793 425.462C133.701 425.879 133.545 426.273 133.323 426.644L133.421 426.746C133.762 426.458 134.193 426.261 134.714 426.154C135.235 426.047 135.789 426.079 136.375 426.251C136.961 426.424 137.519 426.786 138.051 427.339C138.556 427.865 138.891 428.452 139.056 429.102C139.221 429.751 139.164 430.447 138.885 431.188C138.606 431.929 138.053 432.697 137.227 433.491L133.439 437.134ZM133.625 434.787L136.144 432.365C136.974 431.568 137.408 430.841 137.448 430.185C137.487 429.523 137.286 428.962 136.843 428.501C136.502 428.146 136.096 427.905 135.626 427.779C135.153 427.649 134.663 427.654 134.154 427.795C133.643 427.932 133.158 428.221 132.701 428.661L130.12 431.142L133.625 434.787ZM129.057 430.036L131.412 427.772C131.794 427.404 132.067 426.997 132.23 426.552C132.396 426.103 132.438 425.655 132.357 425.208C132.278 424.758 132.062 424.349 131.708 423.98C131.264 423.519 130.728 423.283 130.099 423.27C129.466 423.254 128.802 423.581 128.106 424.251L125.71 426.555L129.057 430.036ZM142.815 428.118L132.734 417.633L139.061 411.549L140.144 412.675L135.086 417.539L138.493 421.082L143.223 416.533L144.306 417.659L139.576 422.208L143.002 425.771L148.142 420.829L149.225 421.955L142.815 428.118ZM149.604 406.456C149.044 405.997 148.408 405.834 147.695 405.967C146.982 406.1 146.309 406.472 145.674 407.083C145.21 407.529 144.876 407.995 144.672 408.479C144.472 408.961 144.401 409.427 144.459 409.877C144.52 410.323 144.712 410.714 145.034 411.048C145.303 411.328 145.601 411.505 145.927 411.578C146.254 411.645 146.587 411.643 146.927 411.573C147.263 411.499 147.589 411.393 147.903 411.255C148.214 411.114 148.491 410.975 148.735 410.84L150.075 410.102C150.417 409.912 150.816 409.718 151.272 409.523C151.731 409.324 152.22 409.187 152.737 409.11C153.254 409.026 153.776 409.056 154.302 409.201C154.828 409.345 155.328 409.663 155.8 410.154C156.345 410.721 156.689 411.376 156.832 412.119C156.978 412.858 156.897 413.635 156.59 414.449C156.286 415.261 155.732 416.053 154.926 416.828C154.175 417.55 153.409 418.054 152.626 418.34C151.847 418.623 151.092 418.698 150.361 418.567C149.634 418.432 148.974 418.098 148.382 417.564L149.692 416.303C150.107 416.666 150.555 416.866 151.037 416.902C151.518 416.932 151.999 416.837 152.479 416.619C152.959 416.394 153.407 416.081 153.823 415.681C154.308 415.215 154.668 414.718 154.902 414.19C155.134 413.659 155.226 413.144 155.179 412.644C155.129 412.14 154.92 411.698 154.552 411.315C154.217 410.967 153.848 410.777 153.443 410.746C153.038 410.715 152.612 410.783 152.163 410.952C151.714 411.121 151.257 411.331 150.79 411.583L149.145 412.455C148.099 413.007 147.128 413.294 146.23 413.317C145.332 413.34 144.543 412.998 143.864 412.291C143.299 411.704 142.966 411.04 142.863 410.297C142.761 409.549 142.863 408.794 143.169 408.033C143.475 407.266 143.963 406.56 144.632 405.917C145.308 405.267 146.025 404.811 146.784 404.548C147.539 404.281 148.27 404.208 148.978 404.329C149.689 404.447 150.307 404.762 150.833 405.275L149.604 406.456ZM151.053 402.186L149.97 401.06L157.834 393.499L158.917 394.625L155.62 397.795L164.618 407.154L163.349 408.375L154.35 399.016L151.053 402.186ZM173.929 398.201L163.848 387.716L167.391 384.31C168.213 383.519 169.028 383.021 169.836 382.816C170.644 382.604 171.415 382.627 172.15 382.886C172.885 383.145 173.55 383.583 174.144 384.201C174.738 384.819 175.151 385.502 175.384 386.25C175.621 386.994 175.623 387.768 175.389 388.57C175.152 389.369 174.626 390.161 173.81 390.945L171.271 393.387L170.188 392.261L172.687 389.858C173.25 389.317 173.608 388.785 173.763 388.262C173.917 387.739 173.912 387.239 173.747 386.76C173.582 386.275 173.298 385.822 172.895 385.402C172.491 384.982 172.051 384.682 171.576 384.502C171.104 384.319 170.606 384.299 170.08 384.443C169.552 384.583 169.003 384.927 168.433 385.475L166.2 387.622L175.199 396.98L173.929 398.201ZM183.081 389.402L172.999 378.917L176.542 375.51C177.361 374.723 178.168 374.216 178.963 373.991C179.754 373.762 180.509 373.768 181.228 374.01C181.946 374.252 182.602 374.682 183.196 375.299C183.79 375.917 184.191 376.586 184.398 377.307C184.605 378.028 184.578 378.776 184.319 379.551C184.056 380.323 183.518 381.099 182.706 381.88L179.839 384.637L178.736 383.49L181.562 380.773C182.122 380.234 182.494 379.719 182.677 379.227C182.865 378.732 182.891 378.26 182.755 377.812C182.62 377.358 182.351 376.92 181.947 376.501C181.544 376.081 181.112 375.789 180.653 375.626C180.195 375.463 179.711 375.462 179.202 375.623C178.69 375.78 178.15 376.131 177.584 376.676L175.352 378.822L184.35 388.181L183.081 389.402ZM183.487 379.946L190.596 382.175L189.122 383.593L182.054 381.325L183.487 379.946ZM192.732 380.121L191.401 381.401L185.17 367.215L186.48 365.954L200.412 372.738L199.081 374.017L187.461 368.204L187.379 368.283L192.732 380.121ZM189.286 375.553L194.651 370.394L195.734 371.521L190.369 376.68L189.286 375.553ZM203.058 356.32L201.788 357.541C201.362 357.248 200.922 357.053 200.469 356.958C200.019 356.858 199.57 356.843 199.124 356.911C198.677 356.973 198.247 357.11 197.835 357.323C197.422 357.536 197.041 357.81 196.693 358.144C196.058 358.755 195.638 359.468 195.431 360.284C195.227 361.098 195.274 361.962 195.571 362.879C195.871 363.792 196.457 364.703 197.33 365.611C198.203 366.519 199.09 367.141 199.991 367.476C200.896 367.809 201.758 367.889 202.578 367.718C203.402 367.543 204.132 367.151 204.766 366.54C205.115 366.206 205.403 365.836 205.632 365.432C205.861 365.028 206.017 364.606 206.099 364.165C206.181 363.718 206.182 363.268 206.1 362.814C206.019 362.354 205.842 361.907 205.569 361.473L206.839 360.252C207.258 360.88 207.545 361.527 207.7 362.193C207.854 362.859 207.886 363.521 207.796 364.179C207.703 364.833 207.497 365.462 207.177 366.065C206.86 366.665 206.437 367.219 205.908 367.728C205.014 368.588 204.009 369.134 202.893 369.367C201.776 369.599 200.631 369.505 199.457 369.083C198.284 368.662 197.165 367.898 196.102 366.792C195.038 365.687 194.319 364.539 193.944 363.349C193.569 362.16 193.519 361.012 193.796 359.906C194.072 358.799 194.657 357.816 195.551 356.957C196.08 356.448 196.651 356.047 197.263 355.754C197.878 355.458 198.516 355.278 199.177 355.214C199.835 355.147 200.493 355.203 201.153 355.384C201.809 355.561 202.444 355.873 203.058 356.32ZM202.469 352.749L201.386 351.622L209.25 344.061L210.333 345.187L207.036 348.358L216.034 357.716L214.764 358.937L205.766 349.578L202.469 352.749ZM212.479 340.956L222.56 351.441L221.291 352.662L211.209 342.177L212.479 340.956ZM226.612 333.672L225.342 334.893C224.916 334.6 224.476 334.406 224.023 334.31C223.573 334.211 223.124 334.195 222.677 334.263C222.231 334.325 221.801 334.462 221.388 334.675C220.976 334.888 220.595 335.162 220.247 335.497C219.612 336.107 219.191 336.82 218.985 337.637C218.781 338.45 218.828 339.315 219.125 340.231C219.425 341.145 220.011 342.055 220.884 342.963C221.757 343.871 222.644 344.493 223.545 344.829C224.449 345.161 225.312 345.242 226.132 345.07C226.956 344.896 227.685 344.503 228.32 343.893C228.668 343.558 228.957 343.188 229.186 342.784C229.415 342.38 229.57 341.958 229.653 341.518C229.735 341.071 229.736 340.62 229.654 340.167C229.573 339.706 229.396 339.259 229.123 338.825L230.393 337.604C230.812 338.232 231.099 338.879 231.254 339.545C231.408 340.211 231.44 340.873 231.35 341.531C231.257 342.185 231.051 342.814 230.731 343.417C230.414 344.017 229.991 344.572 229.462 345.08C228.568 345.94 227.563 346.486 226.447 346.719C225.33 346.952 224.185 346.857 223.011 346.436C221.837 346.014 220.719 345.25 219.656 344.145C218.592 343.039 217.873 341.891 217.498 340.702C217.123 339.512 217.073 338.364 217.35 337.258C217.626 336.152 218.211 335.169 219.105 334.309C219.634 333.8 220.205 333.399 220.816 333.107C221.432 332.811 222.07 332.631 222.731 332.567C223.388 332.499 224.047 332.556 224.707 332.736C225.363 332.913 225.998 333.225 226.612 333.672ZM235.595 338.908L225.513 328.423L231.841 322.339L232.924 323.465L227.866 328.329L231.272 331.871L236.003 327.323L237.086 328.449L232.355 332.998L235.781 336.561L240.921 331.619L242.004 332.745L235.595 338.908Z" fill="url(#paint5_linear_625_1213)"/>
<path d="M380.611 296.822C380.051 296.362 379.415 296.199 378.702 296.333C377.99 296.466 377.316 296.838 376.681 297.448C376.217 297.895 375.883 298.36 375.679 298.845C375.479 299.327 375.408 299.793 375.466 300.242C375.528 300.689 375.719 301.08 376.041 301.414C376.31 301.694 376.608 301.871 376.935 301.944C377.261 302.011 377.595 302.009 377.934 301.938C378.271 301.865 378.596 301.759 378.91 301.621C379.221 301.48 379.498 301.341 379.742 301.205L381.082 300.468C381.424 300.277 381.823 300.084 382.279 299.889C382.739 299.69 383.227 299.552 383.744 299.476C384.261 299.392 384.783 299.422 385.309 299.566C385.836 299.711 386.335 300.029 386.808 300.52C387.352 301.087 387.696 301.741 387.839 302.484C387.985 303.224 387.905 304.001 387.597 304.815C387.294 305.626 386.739 306.419 385.933 307.194C385.182 307.916 384.416 308.42 383.633 308.706C382.854 308.988 382.099 309.064 381.368 308.933C380.641 308.798 379.981 308.463 379.389 307.929L380.7 306.669C381.114 307.032 381.563 307.232 382.044 307.268C382.526 307.298 383.006 307.203 383.486 306.985C383.966 306.76 384.414 306.447 384.831 306.047C385.315 305.581 385.675 305.084 385.91 304.556C386.141 304.025 386.233 303.509 386.186 303.009C386.136 302.506 385.927 302.063 385.559 301.681C385.225 301.333 384.855 301.143 384.45 301.112C384.046 301.08 383.619 301.149 383.17 301.318C382.722 301.486 382.264 301.697 381.797 301.949L380.152 302.821C379.107 303.373 378.135 303.66 377.237 303.683C376.339 303.705 375.551 303.363 374.871 302.657C374.307 302.07 373.973 301.405 373.871 300.663C373.768 299.914 373.87 299.16 374.176 298.399C374.483 297.631 374.97 296.926 375.639 296.283C376.315 295.633 377.032 295.176 377.791 294.913C378.546 294.647 379.278 294.574 379.985 294.695C380.696 294.813 381.314 295.128 381.84 295.641L380.611 296.822ZM391.632 301.359L381.551 290.875L387.878 284.79L388.961 285.916L383.903 290.78L387.31 294.323L392.04 289.774L393.123 290.901L388.393 295.449L391.819 299.012L396.959 294.07L398.042 295.196L391.632 301.359ZM404.054 279.326C405.118 280.432 405.837 281.579 406.212 282.769C406.587 283.958 406.637 285.106 406.36 286.212C406.084 287.319 405.499 288.302 404.605 289.162C403.711 290.022 402.705 290.568 401.589 290.8C400.473 291.033 399.328 290.939 398.154 290.517C396.98 290.095 395.861 289.332 394.798 288.226C393.735 287.12 393.016 285.973 392.64 284.783C392.265 283.594 392.216 282.446 392.492 281.339C392.768 280.233 393.353 279.25 394.248 278.39C395.142 277.53 396.147 276.984 397.263 276.752C398.38 276.519 399.525 276.613 400.699 277.035C401.872 277.456 402.991 278.22 404.054 279.326ZM402.826 280.507C401.953 279.599 401.064 278.979 400.16 278.647C399.259 278.311 398.396 278.23 397.573 278.405C396.752 278.577 396.024 278.967 395.39 279.578C394.755 280.188 394.334 280.902 394.127 281.718C393.924 282.531 393.97 283.396 394.267 284.313C394.567 285.226 395.154 286.137 396.027 287.045C396.9 287.952 397.787 288.574 398.688 288.91C399.592 289.243 400.454 289.323 401.275 289.152C402.099 288.977 402.828 288.584 403.463 287.974C404.098 287.364 404.517 286.652 404.72 285.839C404.927 285.022 404.88 284.158 404.58 283.244C404.283 282.327 403.698 281.415 402.826 280.507Z" fill="url(#paint6_linear_625_1213)"/>
<path d="M239.869 146.721L238.538 148L232.306 133.814L233.617 132.554L247.548 139.337L246.217 140.616L234.597 134.803L234.515 134.882L239.869 146.721ZM236.422 142.152L241.787 136.993L242.87 138.12L237.505 143.279L236.422 142.152ZM250.194 122.919L248.925 124.14C248.499 123.847 248.059 123.653 247.605 123.557C247.155 123.457 246.707 123.442 246.26 123.51C245.813 123.572 245.384 123.709 244.971 123.922C244.558 124.135 244.178 124.409 243.83 124.743C243.195 125.354 242.774 126.067 242.567 126.883C242.364 127.697 242.41 128.561 242.707 129.478C243.007 130.392 243.594 131.302 244.467 132.21C245.34 133.118 246.227 133.74 247.128 134.076C248.032 134.408 248.894 134.489 249.715 134.317C250.539 134.142 251.268 133.75 251.903 133.139C252.251 132.805 252.539 132.435 252.768 132.031C252.997 131.627 253.153 131.205 253.235 130.765C253.318 130.317 253.318 129.867 253.237 129.413C253.155 128.953 252.978 128.506 252.705 128.072L253.975 126.851C254.395 127.479 254.682 128.126 254.836 128.792C254.99 129.458 255.023 130.12 254.933 130.778C254.84 131.432 254.633 132.061 254.313 132.664C253.997 133.264 253.574 133.819 253.045 134.327C252.151 135.187 251.145 135.733 250.029 135.966C248.913 136.198 247.768 136.104 246.594 135.682C245.42 135.261 244.301 134.497 243.238 133.391C242.175 132.286 241.456 131.138 241.08 129.949C240.705 128.759 240.656 127.611 240.932 126.505C241.208 125.398 241.793 124.415 242.688 123.556C243.217 123.047 243.787 122.646 244.399 122.353C245.014 122.057 245.652 121.877 246.313 121.813C246.971 121.746 247.63 121.802 248.289 121.983C248.945 122.16 249.58 122.472 250.194 122.919ZM260.683 112.834L259.414 114.055C258.987 113.762 258.547 113.567 258.094 113.471C257.644 113.372 257.195 113.357 256.749 113.425C256.302 113.486 255.872 113.624 255.46 113.837C255.047 114.05 254.667 114.323 254.318 114.658C253.684 115.269 253.263 115.982 253.056 116.798C252.852 117.611 252.899 118.476 253.196 119.393C253.496 120.306 254.083 121.217 254.956 122.125C255.828 123.033 256.715 123.654 257.616 123.99C258.521 124.323 259.383 124.403 260.203 124.232C261.027 124.057 261.757 123.665 262.391 123.054C262.74 122.719 263.028 122.35 263.257 121.946C263.486 121.542 263.642 121.12 263.724 120.679C263.806 120.232 263.807 119.782 263.725 119.328C263.644 118.868 263.467 118.421 263.194 117.987L264.464 116.766C264.883 117.394 265.17 118.04 265.325 118.707C265.479 119.373 265.511 120.035 265.421 120.693C265.328 121.347 265.122 121.976 264.802 122.579C264.485 123.179 264.063 123.733 263.534 124.242C262.639 125.102 261.634 125.648 260.518 125.881C259.401 126.113 258.256 126.019 257.083 125.597C255.909 125.176 254.79 124.412 253.727 123.306C252.664 122.2 251.944 121.053 251.569 119.863C251.194 118.674 251.145 117.526 251.421 116.42C251.697 115.313 252.282 114.33 253.176 113.47C253.705 112.962 254.276 112.561 254.888 112.268C255.503 111.972 256.141 111.792 256.802 111.728C257.46 111.661 258.118 111.717 258.778 111.898C259.434 112.074 260.069 112.387 260.683 112.834ZM269.666 118.07L259.584 107.585L265.912 101.5L266.995 102.627L261.937 107.49L265.343 111.033L270.074 106.484L271.157 107.611L266.426 112.159L269.853 115.723L274.993 110.78L276.076 111.907L269.666 118.07ZM276.455 96.4078C275.895 95.9481 275.258 95.785 274.546 95.9183C273.833 96.0517 273.16 96.4236 272.525 97.034C272.061 97.4803 271.727 97.9459 271.523 98.4308C271.323 98.9125 271.251 99.3782 271.31 99.8281C271.371 100.275 271.563 100.665 271.884 101C272.153 101.28 272.451 101.456 272.778 101.53C273.105 101.596 273.438 101.594 273.778 101.524C274.114 101.45 274.439 101.344 274.753 101.207C275.064 101.065 275.342 100.927 275.585 100.791L276.926 100.054C277.268 99.8629 277.667 99.6698 278.123 99.4745C278.582 99.2759 279.07 99.1381 279.588 99.0612C280.105 98.9776 280.627 99.0079 281.153 99.1521C281.679 99.2964 282.179 99.6143 282.651 100.106C283.196 100.672 283.54 101.327 283.683 102.07C283.829 102.809 283.748 103.586 283.441 104.401C283.137 105.212 282.582 106.005 281.777 106.779C281.026 107.501 280.259 108.005 279.477 108.291C278.698 108.574 277.943 108.65 277.212 108.518C276.485 108.383 275.825 108.049 275.232 107.515L276.543 106.255C276.958 106.618 277.406 106.817 277.888 106.854C278.369 106.883 278.85 106.789 279.33 106.571C279.81 106.346 280.258 106.033 280.674 105.633C281.159 105.167 281.519 104.67 281.753 104.142C281.985 103.61 282.077 103.095 282.03 102.595C281.979 102.092 281.77 101.649 281.403 101.267C281.068 100.919 280.698 100.729 280.294 100.697C279.889 100.666 279.463 100.735 279.014 100.903C278.565 101.072 278.107 101.282 277.64 101.534L275.996 102.406C274.95 102.959 273.978 103.246 273.081 103.268C272.183 103.291 271.394 102.949 270.715 102.243C270.15 101.655 269.817 100.991 269.714 100.249C269.612 99.5001 269.713 98.7453 270.02 97.9844C270.326 97.2169 270.814 96.5115 271.483 95.8683C272.158 95.2185 272.876 94.7621 273.634 94.499C274.39 94.2326 275.121 94.1598 275.829 94.2809C276.54 94.3986 277.158 94.7138 277.684 95.2264L276.455 96.4078ZM285.648 87.568C285.088 87.1083 284.452 86.9452 283.739 87.0785C283.027 87.2119 282.353 87.5838 281.718 88.1942C281.254 88.6405 280.92 89.1061 280.716 89.591C280.516 90.0727 280.445 90.5384 280.503 90.9883C280.565 91.4349 280.756 91.8254 281.078 92.1599C281.347 92.4397 281.645 92.6164 281.972 92.6898C282.298 92.7564 282.632 92.7546 282.971 92.6842C283.308 92.6105 283.633 92.5047 283.947 92.3668C284.258 92.2256 284.535 92.087 284.779 91.9512L286.119 91.214C286.461 91.0231 286.86 90.83 287.316 90.6347C287.776 90.4361 288.264 90.2983 288.781 90.2214C289.298 90.1378 289.82 90.1681 290.346 90.3123C290.873 90.4566 291.372 90.7745 291.845 91.266C292.389 91.8325 292.733 92.4873 292.876 93.2301C293.022 93.9697 292.942 94.7467 292.634 95.5611C292.331 96.3722 291.776 97.165 290.97 97.9395C290.219 98.6615 289.453 99.1655 288.67 99.4515C287.891 99.7343 287.136 99.8099 286.405 99.6784C285.678 99.5435 285.018 99.2091 284.426 98.6751L285.737 97.4149C286.151 97.778 286.6 97.9777 287.081 98.0139C287.563 98.0435 288.043 97.9491 288.523 97.7308C289.003 97.5058 289.451 97.1931 289.868 96.7927C290.352 96.3267 290.712 95.8298 290.947 95.3019C291.178 94.7707 291.27 94.2551 291.223 93.7553C291.173 93.252 290.964 92.8092 290.596 92.4269C290.262 92.0788 289.892 91.889 289.487 91.8577C289.083 91.8263 288.656 91.8949 288.207 92.0636C287.759 92.2323 287.301 92.4427 286.834 92.6947L285.189 93.5666C284.144 94.1187 283.172 94.4061 282.274 94.4286C281.376 94.4512 280.588 94.1092 279.908 93.4027C279.344 92.8157 279.01 92.1511 278.908 91.4091C278.805 90.6603 278.907 89.9055 279.213 89.1446C279.52 88.3771 280.007 87.6717 280.676 87.0285C281.352 86.3787 282.069 85.9223 282.828 85.6592C283.583 85.3928 284.315 85.32 285.022 85.4411C285.733 85.5588 286.351 85.874 286.877 86.3866L285.648 87.568ZM287.857 80.3996L297.939 90.8844L296.669 92.1053L286.588 81.6204L287.857 80.3996ZM300.484 88.4367L290.403 77.9518L294.069 74.4272C294.799 73.7249 295.523 73.2719 296.24 73.0683C296.954 72.8613 297.631 72.8579 298.27 73.0579C298.905 73.2546 299.469 73.6089 299.962 74.1208C300.395 74.5713 300.672 75.0205 300.794 75.4683C300.919 75.9127 300.934 76.345 300.839 76.7651C300.747 77.1819 300.59 77.5756 300.369 77.9463L300.467 78.0487C300.808 77.7607 301.239 77.5632 301.76 77.4562C302.281 77.3492 302.834 77.3819 303.42 77.5541C304.006 77.7263 304.565 78.0889 305.097 78.6418C305.602 79.1674 305.937 79.755 306.102 80.4045C306.267 81.054 306.21 81.7495 305.931 82.4907C305.651 83.232 305.099 83.9998 304.273 84.7939L300.484 88.4367ZM300.671 86.0896L303.19 83.6676C304.019 82.8702 304.454 82.1436 304.494 81.4881C304.533 80.8258 304.332 80.2643 303.889 79.8035C303.547 79.4486 303.142 79.2079 302.672 79.0815C302.199 78.9517 301.709 78.9571 301.2 79.0978C300.688 79.2351 300.204 79.5237 299.747 79.9634L297.166 82.4444L300.671 86.0896ZM296.103 81.3386L298.458 79.0742C298.84 78.7066 299.113 78.3001 299.276 77.8546C299.442 77.4057 299.484 76.9578 299.402 76.5109C299.324 76.0606 299.108 75.6512 298.753 75.2826C298.31 74.8218 297.774 74.5853 297.145 74.5729C296.512 74.5572 295.848 74.884 295.152 75.5535L292.756 77.8573L296.103 81.3386ZM301.049 67.7152L311.131 78.2001L309.861 79.4209L299.779 68.936L301.049 67.7152ZM313.676 75.7523L303.595 65.2674L304.864 64.0466L313.863 73.4052L318.737 68.7189L319.82 69.8452L313.676 75.7523ZM312.974 56.2492L323.055 66.7341L321.786 67.9549L311.704 57.47L312.974 56.2492ZM316.029 55.479L314.946 54.3527L322.81 46.7916L323.893 47.9179L320.596 51.0881L329.594 60.4466L328.325 61.6675L319.326 52.3089L316.029 55.479ZM323.868 45.7738L325.322 44.3758L332.936 46.4741L333.059 46.3559L331.261 38.6656L332.715 37.2675L334.853 47.0743L339.008 51.3952L337.738 52.616L333.584 48.2951L323.868 45.7738Z" fill="url(#paint7_linear_625_1213)"/>
<defs>
<filter id="filter0_d_625_1213" x="0.213196" y="86.2134" width="329.889" height="329.889" filterUnits="userSpaceOnUse" color-interpolation-filters="sRGB">
<feFlood flood-opacity="0" result="BackgroundImageFix"/>
<feColorMatrix in="SourceAlpha" type="matrix" values="0 0 0 0 0 0 0 0 0 0 0 0 0 0 0 0 0 0 127 0" result="hardAlpha"/>
<feMorphology radius="2" operator="dilate" in="SourceAlpha" result="effect1_dropShadow_625_1213"/>
<feOffset dy="2"/>
<feGaussianBlur stdDeviation="22"/>
<feColorMatrix type="matrix" values="0 0 0 0 0.0901961 0 0 0 0 0.501961 0 0 0 0 0.878431 0 0 0 0.271031 0"/>
<feBlend mode="normal" in2="BackgroundImageFix" result="effect1_dropShadow_625_1213"/>
<feBlend mode="normal" in="SourceGraphic" in2="effect1_dropShadow_625_1213" result="shape"/>
</filter>
<filter id="filter1_d_625_1213" x="196.213" y="0.213379" width="329.889" height="329.889" filterUnits="userSpaceOnUse" color-interpolation-filters="sRGB">
<feFlood flood-opacity="0" result="BackgroundImageFix"/>
<feColorMatrix in="SourceAlpha" type="matrix" values="0 0 0 0 0 0 0 0 0 0 0 0 0 0 0 0 0 0 127 0" result="hardAlpha"/>
<feMorphology radius="2" operator="dilate" in="SourceAlpha" result="effect1_dropShadow_625_1213"/>
<feOffset dy="2"/>
<feGaussianBlur stdDeviation="22"/>
<feColorMatrix type="matrix" values="0 0 0 0 0.0901961 0 0 0 0 0.501961 0 0 0 0 0.878431 0 0 0 0.271031 0"/>
<feBlend mode="normal" in2="BackgroundImageFix" result="effect1_dropShadow_625_1213"/>
<feBlend mode="normal" in="SourceGraphic" in2="effect1_dropShadow_625_1213" result="shape"/>
</filter>
<filter id="filter2_d_625_1213" x="298.213" y="198.213" width="329.889" height="329.889" filterUnits="userSpaceOnUse" color-interpolation-filters="sRGB">
<feFlood flood-opacity="0" result="BackgroundImageFix"/>
<feColorMatrix in="SourceAlpha" type="matrix" values="0 0 0 0 0 0 0 0 0 0 0 0 0 0 0 0 0 0 127 0" result="hardAlpha"/>
<feMorphology radius="2" operator="dilate" in="SourceAlpha" result="effect1_dropShadow_625_1213"/>
<feOffset dy="2"/>
<feGaussianBlur stdDeviation="22"/>
<feColorMatrix type="matrix" values="0 0 0 0 0.0901961 0 0 0 0 0.501961 0 0 0 0 0.878431 0 0 0 0.271031 0"/>
<feBlend mode="normal" in2="BackgroundImageFix" result="effect1_dropShadow_625_1213"/>
<feBlend mode="normal" in="SourceGraphic" in2="effect1_dropShadow_625_1213" result="shape"/>
</filter>
<filter id="filter3_d_625_1213" x="96.2132" y="285.213" width="329.889" height="329.889" filterUnits="userSpaceOnUse" color-interpolation-filters="sRGB">
<feFlood flood-opacity="0" result="BackgroundImageFix"/>
<feColorMatrix in="SourceAlpha" type="matrix" values="0 0 0 0 0 0 0 0 0 0 0 0 0 0 0 0 0 0 127 0" result="hardAlpha"/>
<feMorphology radius="2" operator="dilate" in="SourceAlpha" result="effect1_dropShadow_625_1213"/>
<feOffset dy="2"/>
<feGaussianBlur stdDeviation="22"/>
<feColorMatrix type="matrix" values="0 0 0 0 0.0901961 0 0 0 0 0.501961 0 0 0 0 0.878431 0 0 0 0.271031 0"/>
<feBlend mode="normal" in2="BackgroundImageFix" result="effect1_dropShadow_625_1213"/>
<feBlend mode="normal" in="SourceGraphic" in2="effect1_dropShadow_625_1213" result="shape"/>
</filter>
<linearGradient id="paint0_linear_625_1213" x1="140" y1="226" x2="185.841" y2="275.827" gradientUnits="userSpaceOnUse">
<stop stop-color="#FF0080"/>
<stop offset="1" stop-color="#7928CA"/>
</linearGradient>
<linearGradient id="paint1_linear_625_1213" x1="336" y1="140" x2="381.99" y2="186.989" gradientUnits="userSpaceOnUse">
<stop stop-color="#FF0080"/>
<stop offset="1" stop-color="#7928CA"/>
</linearGradient>
<linearGradient id="paint2_linear_625_1213" x1="431" y1="338" x2="473.462" y2="401.692" gradientUnits="userSpaceOnUse">
<stop stop-color="#FF0080"/>
<stop offset="1" stop-color="#7928CA"/>
</linearGradient>
<linearGradient id="paint3_linear_625_1213" x1="236" y1="425" x2="281.841" y2="474.827" gradientUnits="userSpaceOnUse">
<stop stop-color="#FF0080"/>
<stop offset="1" stop-color="#7928CA"/>
</linearGradient>
<linearGradient id="paint4_linear_625_1213" x1="38.6345" y1="236.959" x2="80.3393" y2="252.3" gradientUnits="userSpaceOnUse">
<stop stop-color="#02C6F3"/>
<stop offset="1" stop-color="#2152FF"/>
</linearGradient>
<linearGradient id="paint5_linear_625_1213" x1="119" y1="424.659" x2="156.745" y2="453.377" gradientUnits="userSpaceOnUse">
<stop stop-color="#21D4FD"/>
<stop offset="1" stop-color="#2152FF"/>
</linearGradient>
<linearGradient id="paint6_linear_625_1213" x1="368" y1="297.724" x2="407.727" y2="308.488" gradientUnits="userSpaceOnUse">
<stop stop-color="#21D4FD"/>
<stop offset="1" stop-color="#2152FF"/>
</linearGradient>
<linearGradient id="paint7_linear_625_1213" x1="225" y1="134.659" x2="262.932" y2="163.024" gradientUnits="userSpaceOnUse">
<stop stop-color="#21D4FD"/>
<stop offset="1" stop-color="#2152FF"/>
</linearGradient>
</defs>
</svg>
