<svg width="364" height="350" viewBox="0 0 364 350" fill="none" xmlns="http://www.w3.org/2000/svg">
<g filter="url(#filter0_d_402_1701)">
<path d="M59.807 2.65183e-05H277.927C285.783 -0.00737144 293.563 1.53319 300.823 4.53354C308.082 7.5339 314.678 11.9351 320.233 17.4854C325.788 23.0356 330.193 29.6259 333.196 36.8791C336.199 44.1322 337.741 51.9059 337.734 59.7551V269.249C337.741 277.099 336.199 284.872 333.196 292.125C330.193 299.379 325.788 305.969 320.233 311.519C314.678 317.069 308.082 321.471 300.823 324.471C293.563 327.471 285.783 329.012 277.927 329.004H59.807C51.951 329.012 44.1706 327.471 36.9111 324.471C29.6517 321.471 23.0556 317.069 17.5006 311.519C11.9455 305.969 7.54044 299.379 4.53748 292.125C1.53452 284.872 -0.00737784 277.099 2.65413e-05 269.249V59.7551C-0.00737784 51.9059 1.53452 44.1322 4.53748 36.8791C7.54044 29.6259 11.9455 23.0356 17.5006 17.4854C23.0556 11.9351 29.6517 7.5339 36.9111 4.53354C44.1706 1.53319 51.951 -0.00737144 59.807 2.65183e-05Z" fill="#00005B"/>
<path d="M135.656 196.84H83.3078L72.6129 230.022C72.4934 230.624 72.1528 231.16 71.6581 231.524C71.1634 231.888 70.5503 232.055 69.9392 231.99H43.4834C41.9354 231.99 41.5133 231.147 41.9354 229.459L87.248 99.6855C87.6702 98.2795 88.0923 97.0141 88.6552 95.3269C89.2216 92.3136 89.5042 89.2539 89.4996 86.1879C89.4574 85.8357 89.55 85.4807 89.7587 85.1939C89.9675 84.9071 90.2771 84.7097 90.6253 84.6413H127.072C128.057 84.6413 128.761 85.0631 128.902 85.7661L180.265 229.881C180.688 231.428 180.265 232.131 178.858 232.131H149.447C148.95 232.179 148.451 232.05 148.04 231.767C147.628 231.484 147.329 231.065 147.196 230.584L135.656 196.84ZM91.4697 168.861H127.213C126.369 165.908 125.243 162.393 123.977 158.738C122.71 155.082 121.444 150.864 120.177 146.646C118.911 142.428 117.503 138.069 116.096 133.711C114.689 129.352 113.422 125.275 112.297 121.197C111.171 117.12 110.186 113.605 109.201 110.23H108.919C107.655 116.358 106.057 122.413 104.135 128.368C102.024 135.117 99.913 142.147 97.6615 149.177C95.8321 156.347 93.5805 162.956 91.4697 168.861ZM263.714 183.905H219.105C219.637 188.342 221.125 192.611 223.467 196.418C225.954 200.208 229.537 203.151 233.74 204.854C239.428 207.285 245.567 208.483 251.752 208.369C256.666 208.279 261.563 207.762 266.388 206.823C270.679 206.261 274.885 205.175 278.912 203.589C279.615 203.027 280.038 203.308 280.038 204.714V226.226C280.013 226.797 279.918 227.364 279.756 227.913C279.502 228.307 279.166 228.643 278.771 228.897C274.27 230.872 269.544 232.288 264.699 233.115C258.116 234.38 251.418 234.945 244.716 234.802C234.021 234.802 225.015 233.115 217.698 229.881C210.812 226.895 204.734 222.317 199.967 216.524C195.511 211.108 192.207 204.84 190.257 198.106C186.133 184.079 186.329 169.137 190.82 155.223C193.064 148.183 196.647 141.642 201.374 135.96C206.027 130.342 211.834 125.787 218.401 122.603C225.015 119.37 232.896 118.245 241.902 118.245C249.405 118.071 256.854 119.559 263.714 122.603C269.479 125.1 274.55 128.961 278.49 133.851C282.23 138.653 285.089 144.08 286.933 149.88C288.723 155.421 289.625 161.21 289.607 167.033C289.607 170.407 289.466 173.36 289.325 176.031C289.185 178.703 288.903 180.671 288.762 181.937C288.7 182.424 288.469 182.873 288.109 183.207C287.749 183.542 287.283 183.739 286.792 183.764C285.948 183.764 284.4 183.905 282.148 184.046C279.439 184.353 276.713 184.494 273.987 184.467C270.75 184.467 267.373 183.905 263.714 183.905ZM219.105 163.377H248.797C252.456 163.377 255.13 163.377 256.818 163.237C257.975 163.141 259.088 162.754 260.055 162.112V160.706C260.061 158.937 259.775 157.18 259.211 155.504C257.979 151.657 255.528 148.314 252.228 145.981C248.928 143.647 244.958 142.45 240.917 142.569C237.098 142.355 233.298 143.25 229.977 145.146C226.656 147.042 223.955 149.858 222.201 153.254C220.559 156.411 219.51 159.842 219.105 163.377Z" fill="#9999FF"/>
</g>
<defs>
<filter id="filter0_d_402_1701" x="0" y="0" width="363.734" height="349.004" filterUnits="userSpaceOnUse" color-interpolation-filters="sRGB">
<feFlood flood-opacity="0" result="BackgroundImageFix"/>
<feColorMatrix in="SourceAlpha" type="matrix" values="0 0 0 0 0 0 0 0 0 0 0 0 0 0 0 0 0 0 127 0" result="hardAlpha"/>
<feOffset dx="18" dy="12"/>
<feGaussianBlur stdDeviation="4"/>
<feComposite in2="hardAlpha" operator="out"/>
<feColorMatrix type="matrix" values="0 0 0 0 0 0 0 0 0 0 0 0 0 0 0 0 0 0 0.25 0"/>
<feBlend mode="normal" in2="BackgroundImageFix" result="effect1_dropShadow_402_1701"/>
<feBlend mode="normal" in="SourceGraphic" in2="effect1_dropShadow_402_1701" result="shape"/>
</filter>
</defs>
</svg>
