<svg width="274" height="261" viewBox="0 0 274 261" fill="none" xmlns="http://www.w3.org/2000/svg">
<g filter="url(#filter0_d_402_1658)">
<path d="M43.7714 1.9425e-05H203.408C209.158 -0.00539967 214.852 1.12308 220.165 3.32088C225.478 5.51868 230.306 8.74264 234.371 12.8083C238.437 16.8739 241.661 21.7014 243.859 27.0144C246.056 32.3274 247.185 38.0217 247.179 43.7714V197.229C247.185 202.978 246.056 208.673 243.859 213.986C241.661 219.299 238.437 224.126 234.371 228.192C230.306 232.257 225.478 235.481 220.165 237.679C214.852 239.877 209.158 241.005 203.408 241H43.7714C38.0217 241.005 32.3274 239.877 27.0144 237.679C21.7014 235.481 16.8739 232.257 12.8083 228.192C8.74264 224.126 5.51868 219.299 3.32088 213.986C1.12308 208.673 -0.00539967 202.978 1.9425e-05 197.229V43.7714C-0.00539967 38.0217 1.12308 32.3274 3.32088 27.0144C5.51868 21.7014 8.74264 16.8739 12.8083 12.8083C16.8739 8.74264 21.7014 5.51868 27.0144 3.32088C32.3274 1.12308 38.0217 -0.00539967 43.7714 1.9425e-05Z" fill="#330000"/>
<path d="M119.779 144.6H81.466L73.6387 168.803C73.5512 169.244 73.302 169.637 72.9399 169.903C72.5779 170.17 72.1291 170.292 71.6819 170.245H52.3195C51.1866 170.245 50.8776 169.627 51.1866 168.391L84.3498 72.9179C84.6588 71.888 84.9678 70.7551 85.3797 69.5192C85.7942 67.3119 86.0011 65.0707 85.9977 62.8248C85.9668 62.5668 86.0346 62.3068 86.1874 62.0967C86.3402 61.8866 86.5667 61.742 86.8216 61.6919H113.496C114.32 61.6919 114.732 62.0008 114.835 62.5158L152.427 168.597C152.736 169.73 152.427 170.245 151.397 170.245H129.872C129.508 170.28 129.143 170.186 128.842 169.978C128.54 169.771 128.322 169.464 128.224 169.112L119.779 144.6ZM87.4396 123.693H113.599C112.981 121.53 112.158 118.955 111.231 116.277C110.304 113.6 109.377 110.51 108.45 107.42C107.523 104.33 106.493 101.138 105.463 97.9449C104.433 94.7521 103.506 91.7654 102.682 88.7786C101.858 85.7919 101.137 83.2171 100.416 80.7453H100.21C99.2849 85.2341 98.1159 89.6693 96.7088 94.0312C95.1639 98.9748 93.619 104.124 91.9712 109.274C90.5293 114.526 88.9844 119.367 87.4396 123.693ZM174.879 79.3034C173.189 79.3404 171.508 79.0407 169.934 78.4219C168.36 77.803 166.926 76.8774 165.713 75.6987C163.353 73.1187 162.097 69.718 162.211 66.2235C162.151 64.5209 162.449 62.8246 163.088 61.2452C163.727 59.6658 164.692 58.2388 165.919 57.0573C168.395 54.7175 171.679 53.4258 175.085 53.4526C179.102 53.4526 182.192 54.6885 184.458 57.0573C186.739 59.5545 187.958 62.8424 187.856 66.2235C187.919 67.9636 187.632 69.6986 187.013 71.3261C186.394 72.9535 185.455 74.4404 184.252 75.6987C183.038 76.9348 181.573 77.8962 179.957 78.5181C178.34 79.1399 176.608 79.4077 174.879 79.3034ZM163.344 168.7V89.3966C163.344 88.3667 163.756 87.9547 164.683 87.9547H185.075C186.002 87.9547 186.414 88.4697 186.414 89.3966V168.7C186.414 169.833 186.002 170.348 185.075 170.348H164.889C164.673 170.366 164.455 170.334 164.252 170.256C164.05 170.178 163.867 170.055 163.719 169.897C163.57 169.739 163.459 169.549 163.395 169.341C163.33 169.134 163.312 168.915 163.344 168.7Z" fill="#FF9A00"/>
</g>
<defs>
<filter id="filter0_d_402_1658" x="0" y="0" width="273.179" height="261" filterUnits="userSpaceOnUse" color-interpolation-filters="sRGB">
<feFlood flood-opacity="0" result="BackgroundImageFix"/>
<feColorMatrix in="SourceAlpha" type="matrix" values="0 0 0 0 0 0 0 0 0 0 0 0 0 0 0 0 0 0 127 0" result="hardAlpha"/>
<feOffset dx="18" dy="12"/>
<feGaussianBlur stdDeviation="4"/>
<feComposite in2="hardAlpha" operator="out"/>
<feColorMatrix type="matrix" values="0 0 0 0 0 0 0 0 0 0 0 0 0 0 0 0 0 0 0.25 0"/>
<feBlend mode="normal" in2="BackgroundImageFix" result="effect1_dropShadow_402_1658"/>
<feBlend mode="normal" in="SourceGraphic" in2="effect1_dropShadow_402_1658" result="shape"/>
</filter>
</defs>
</svg>
