<svg width="201" height="236" viewBox="0 0 201 236" fill="none" xmlns="http://www.w3.org/2000/svg">
<path d="M61.4984 0.000333286C60.3966 0.010847 59.253 0.276642 58.2111 0.854181C54.9023 2.68826 53.6888 6.94026 55.5214 10.2465L62.9926 23.7373C44.9928 34.8745 33.0652 53.8972 33.0652 75.6084C33.0652 75.6995 33.065 75.8364 33.0652 75.9713C33.0653 76.0189 33.0648 76.046 33.0652 76.0994C33.0653 76.1703 33.0652 76.2739 33.0652 76.2915V79.6428C29.6082 75.6653 24.5265 73.1536 18.8487 73.1536C8.44668 73.1536 0 81.6003 0 92.0022V150.064C0 160.466 8.44668 168.912 18.8487 168.912C24.5265 168.912 29.6082 166.401 33.0652 162.423V170.556C33.0652 181.521 42.0376 190.493 53.0026 190.493H58.0616V216.322C58.0616 226.724 66.5083 235.171 76.9103 235.171C87.3123 235.171 95.759 226.724 95.759 216.322V190.493H104.511V216.322C104.511 226.724 112.958 235.171 123.36 235.171C133.762 235.171 142.208 226.724 142.208 216.322V190.493H147.267C158.232 190.493 167.205 181.521 167.205 170.556V162.423C170.662 166.401 175.743 168.912 181.421 168.912C191.823 168.912 200.27 160.466 200.27 150.064V92.0022C200.27 81.6003 191.823 73.1536 181.421 73.1536C175.743 73.1536 170.662 75.6653 167.205 79.6428V76.3555V76.2915C167.205 76.1887 167.205 76.0866 167.205 76.0994C167.206 75.8948 167.205 75.7317 167.205 75.6084C167.205 53.901 155.251 34.8966 137.256 23.7586L144.749 10.2465C146.581 6.94024 145.368 2.68824 142.059 0.854161C141.017 0.276621 139.873 0.0108403 138.772 0.000313085C136.328 -0.0230732 133.93 1.26464 132.667 3.54378L124.833 17.6963C117.172 14.8695 108.838 13.3203 100.135 13.3203C91.4412 13.3203 83.0912 14.8536 75.4374 17.6749L67.6034 3.54378C66.34 1.26463 63.9418 -0.0230193 61.4984 0.000313085V0.000333286Z" fill="white"/>
<path d="M18.8481 78.0708C11.0857 78.0708 4.90906 84.2474 4.90906 92.0098V150.071C4.90906 157.834 11.0857 164.01 18.8481 164.01C26.6105 164.01 32.7872 157.834 32.7872 150.071V92.0098C32.7872 84.2474 26.6105 78.0708 18.8481 78.0708ZM181.421 78.0708C173.658 78.0708 167.482 84.2474 167.482 92.0098V150.071C167.482 157.834 173.658 164.01 181.421 164.01C189.183 164.01 195.36 157.834 195.36 150.071V92.0098C195.36 84.2474 189.183 78.0708 181.421 78.0708Z" fill="#A4C639"/>
<path d="M76.9091 144.318C69.1467 144.318 62.9701 150.495 62.9701 158.257V216.319C62.9701 224.081 69.1467 230.258 76.9091 230.258C84.6715 230.258 90.8482 224.081 90.8482 216.319V158.257C90.8482 150.495 84.6715 144.318 76.9091 144.318ZM123.358 144.318C115.596 144.318 109.419 150.495 109.419 158.257V216.319C109.419 224.081 115.596 230.258 123.358 230.258C131.121 230.258 137.297 224.081 137.297 216.319V158.257C137.297 150.495 131.121 144.318 123.358 144.318Z" fill="#A4C639"/>
<path d="M61.5401 4.91562C61.2106 4.91899 60.9035 5.00401 60.6008 5.17177C59.6069 5.72274 59.28 6.86492 59.8324 7.8614L69.6516 25.6C50.7598 35.4299 37.9995 54.1107 37.9739 75.55H162.294C162.269 54.1107 149.508 35.4299 130.616 25.6L140.436 7.8614C140.988 6.86492 140.661 5.72274 139.667 5.17177C139.364 5.00401 139.057 4.91876 138.728 4.91562C138.022 4.90882 137.354 5.26127 136.977 5.94024L127.03 23.871C118.893 20.2616 109.766 18.2356 100.134 18.2356C90.5023 18.2356 81.3751 20.2616 73.2378 23.871L63.2905 5.94024C62.9141 5.26127 62.2455 4.90886 61.5401 4.91562ZM37.9739 80.4597V170.562C37.9739 178.887 44.6762 185.589 53.0016 185.589H147.266C155.592 185.589 162.294 178.887 162.294 170.562V80.4597H37.9739Z" fill="#A4C639"/>
<path d="M71.4451 42.4082C68.6071 42.4082 66.258 44.7573 66.258 47.5953C66.258 50.4333 68.6071 52.7824 71.4451 52.7824C74.2831 52.7824 76.6322 50.4333 76.6322 47.5953C76.6322 44.7573 74.2831 42.4082 71.4451 42.4082ZM128.824 42.4082C125.986 42.4082 123.636 44.7573 123.636 47.5953C123.636 50.4333 125.986 52.7824 128.824 52.7824C131.662 52.7824 134.011 50.4333 134.011 47.5953C134.011 44.7573 131.662 42.4082 128.824 42.4082Z" fill="white"/>
</svg>
