<svg width="365" height="312" viewBox="0 0 365 312" fill="none" xmlns="http://www.w3.org/2000/svg">
<g filter="url(#filter0_d_402_1687)">
<path opacity="0.549" d="M338.734 237.602C338.734 244.666 334.938 251.661 327.562 258.188C320.187 264.714 309.377 270.644 295.748 275.639C282.12 280.634 265.941 284.597 248.135 287.3C230.329 290.003 211.245 291.395 191.972 291.395C172.699 291.395 153.615 290.003 135.809 287.3C118.003 284.597 101.824 280.634 88.1956 275.639C74.5675 270.644 63.757 264.714 56.3816 258.188C49.0061 251.661 45.21 244.666 45.21 237.602C45.21 230.538 49.0062 223.543 56.3819 217.016C63.7576 210.49 74.5684 204.559 88.197 199.564C101.826 194.569 118.005 190.606 135.812 187.903C153.618 185.2 172.703 183.808 191.977 183.808C211.25 183.808 230.335 185.2 248.142 187.903C265.949 190.606 282.128 194.569 295.757 199.564C309.385 204.559 320.196 210.49 327.572 217.016C334.947 223.543 338.744 230.538 338.744 237.602H338.734Z" fill="url(#paint0_radial_402_1687)"/>
<path fill-rule="evenodd" clip-rule="evenodd" d="M101.971 172.138C102.045 176.395 103.438 184.661 105.485 191.143C109.93 205.058 117.397 217.843 127.361 228.602C138.047 240.222 151.087 249.484 165.632 255.785C181.464 262.69 198.589 266.214 215.891 266.128C233.199 266.144 250.317 262.56 266.134 255.608C280.672 249.248 293.703 239.949 304.391 228.308C314.332 217.505 321.785 204.697 326.236 190.768C328.426 183.858 329.788 176.845 330.354 169.81C331.905 149.241 326.782 128.72 315.731 111.231C308.985 100.56 300.369 91.1654 290.288 83.4881V83.4734L187.351 5.24024L187.09 5.04134C180.315 -0.0858059 168.96 -0.071072 161.537 5.07817C154.016 10.279 153.406 18.4117 160.077 23.8482C174.224 34.8981 188.312 46.4636 202.54 57.4988L71.8379 57.4104C56.9911 57.4104 48.2572 64.3939 46.4181 74.604C44.7949 83.6133 51.9875 94.7737 64.8835 94.7737C86.8932 94.8032 109.126 94.7221 131.225 94.6779L12.808 181.346L12.3613 181.677C1.19268 190.134 -2.4185 204.219 4.61772 213.118C11.7507 222.179 26.9252 222.179 38.2203 213.162L102.834 160.837C102.834 160.837 101.904 167.909 101.963 172.145L101.971 172.138Z" fill="#F57900" stroke="#CE5C00" stroke-width="0.99999"/>
<path d="M287.758 153.036C287.758 161.259 285.929 169.402 282.374 176.999C278.819 184.596 273.609 191.499 267.04 197.314C260.472 203.128 252.674 207.741 244.093 210.888C235.511 214.035 226.313 215.654 217.024 215.654C207.735 215.654 198.537 214.035 189.955 210.888C181.373 207.741 173.575 203.128 167.007 197.314C160.439 191.499 155.228 184.596 151.674 176.999C148.119 169.402 146.289 161.259 146.289 153.036C146.289 144.813 148.119 136.67 151.674 129.073C155.228 121.476 160.439 114.573 167.007 108.758C173.575 102.944 181.373 98.3312 189.955 95.1844C198.537 92.0375 207.735 90.4178 217.024 90.4178C226.313 90.4178 235.511 92.0375 244.093 95.1844C252.674 98.3312 260.472 102.944 267.04 108.758C273.609 114.573 278.819 121.476 282.374 129.073C285.929 136.67 287.758 144.813 287.758 153.036Z" fill="url(#paint1_linear_402_1687)"/>
<path opacity="0.486" d="M174.567 9.59388C171.551 9.59388 168.461 10.5147 166.414 11.9512H166.399C164.314 13.4024 163.89 14.6768 163.823 15.3545C163.763 16.0175 163.726 16.5774 165.237 17.8076C165.386 17.9255 165.513 18.0433 165.647 18.1759L208.117 52.3422C210.895 54.589 211.959 58.3238 210.761 61.6682C209.562 65.0127 206.368 64.4823 202.779 64.497C160.829 64.8653 71.6593 64.6443 71.6593 64.6443C64.5635 64.6443 54.1841 68.4455 53.6927 76.3204C53.2162 83.8711 60.4683 87.0535 65.4421 87.0535L131.188 86.9283C134.836 86.9283 138.06 88.5636 139.229 91.967C140.406 95.3556 139.259 95.8713 136.378 98.0813L18.0053 187.983L17.968 188.02C17.4915 188.366 17.3352 188.462 17.5064 188.337C13.3815 191.467 10.835 195.556 9.91176 199.217C9.01827 202.871 9.5767 205.722 11.3264 207.932C14.8855 212.447 24.4905 213.324 32.8968 206.606L97.4737 154.325C98.7878 153.252 100.398 152.597 102.095 152.443C103.792 152.29 105.496 152.646 106.984 153.465C108.473 154.284 109.678 155.529 110.441 157.036C111.205 158.543 111.491 160.242 111.263 161.913C111.263 161.913 110.422 169.132 110.466 172.005C111.904 191.438 121.263 208.219 133.667 222.952C155.089 246.326 184.671 256.514 215.883 257.722C247.178 257.398 276.834 245.472 298.099 222.672C336.966 175.629 327.45 124.225 285.091 90.118C251.615 63.171 216.494 37.9626 182.191 11.8849L182.095 11.8112C182.045 11.7724 181.995 11.7331 181.946 11.6934C180.367 10.5147 177.582 9.57178 174.574 9.57914L174.567 9.59388Z" stroke="url(#paint2_linear_402_1687)" stroke-width="0.99999"/>
<path fill-rule="evenodd" clip-rule="evenodd" d="M176.129 147.547C176.688 137.528 181.639 128.666 189.085 122.405C196.396 116.239 206.232 112.475 216.977 112.475C227.698 112.475 237.542 116.232 244.861 122.397C252.307 128.659 257.258 137.499 257.816 147.517C258.39 157.845 254.22 167.429 246.916 174.523C239.47 181.757 228.845 186.295 216.984 186.295C205.093 186.295 194.475 181.757 187.022 174.523C179.711 167.429 175.556 157.845 176.129 147.532V147.547Z" fill="#3465A4"/>
<path opacity="0.52" fill-rule="evenodd" clip-rule="evenodd" d="M174.678 9.61597C171.67 9.6307 168.364 10.5 166.309 11.9291C164.224 13.3656 163.807 14.6989 163.748 15.3766C163.673 16.0617 163.629 16.6805 165.14 17.9107C165.289 18.0286 165.483 18.0212 165.617 18.1465L208.192 52.4453C210.976 54.6847 211.952 58.3091 210.753 61.6535C209.562 64.9979 206.434 64.4012 202.845 64.416C160.896 64.7843 71.6143 64.637 71.6143 64.637C64.5111 64.637 54.1913 68.5044 53.6924 76.3793C53.2159 83.93 60.5723 86.9651 65.5535 86.9651H131.173C134.799 86.9651 138.135 88.6373 139.304 92.048C140.48 95.4366 139.155 95.8271 136.281 98.0149L18.0795 188.035H17.8561C17.3796 188.403 17.454 188.403 17.6327 188.256C13.5003 191.394 10.8571 195.659 9.94126 199.305C9.02544 202.952 9.59876 205.619 11.3411 207.836C14.915 212.352 24.5721 213.39 32.9784 206.679L97.4436 154.436C98.7579 153.359 100.367 152.695 102.065 152.53C103.764 152.365 105.473 152.705 106.974 153.507C110.027 155.187 111.62 158.612 111.166 162.031C111.166 162.031 110.436 169.044 110.481 171.916C111.181 181.508 113.832 190.495 117.852 198.915C137.36 232.75 189.257 108.056 311.494 120.115C305.18 109.168 296.327 99.1568 285.195 90.2064C251.719 63.2447 216.427 37.9994 182.117 11.9291C182.064 11.8922 181.938 11.7375 181.893 11.7081C180.33 10.5147 177.686 9.62333 174.671 9.62333L174.678 9.61597Z" fill="url(#paint3_radial_402_1687)"/>
</g>
<defs>
<filter id="filter0_d_402_1687" x="0.506348" y="0.706085" width="364.237" height="310.689" filterUnits="userSpaceOnUse" color-interpolation-filters="sRGB">
<feFlood flood-opacity="0" result="BackgroundImageFix"/>
<feColorMatrix in="SourceAlpha" type="matrix" values="0 0 0 0 0 0 0 0 0 0 0 0 0 0 0 0 0 0 127 0" result="hardAlpha"/>
<feOffset dx="18" dy="12"/>
<feGaussianBlur stdDeviation="4"/>
<feComposite in2="hardAlpha" operator="out"/>
<feColorMatrix type="matrix" values="0 0 0 0 0 0 0 0 0 0 0 0 0 0 0 0 0 0 0.25 0"/>
<feBlend mode="normal" in2="BackgroundImageFix" result="effect1_dropShadow_402_1687"/>
<feBlend mode="normal" in="SourceGraphic" in2="effect1_dropShadow_402_1687" result="shape"/>
</filter>
<radialGradient id="paint0_radial_402_1687" cx="0" cy="0" r="1" gradientUnits="userSpaceOnUse" gradientTransform="translate(191.972 237.603) scale(146.762 53.7961)">
<stop/>
<stop offset="1" stop-opacity="0"/>
</radialGradient>
<linearGradient id="paint1_linear_402_1687" x1="217.027" y1="110.519" x2="208.82" y2="206.36" gradientUnits="userSpaceOnUse">
<stop stop-color="white"/>
<stop offset="1" stop-color="#DADADA"/>
</linearGradient>
<linearGradient id="paint2_linear_402_1687" x1="244.538" y1="261.443" x2="246.76" y2="-65.8159" gradientUnits="userSpaceOnUse">
<stop stop-color="white"/>
<stop offset="1" stop-color="white" stop-opacity="0"/>
</linearGradient>
<radialGradient id="paint3_radial_402_1687" cx="0" cy="0" r="1" gradientUnits="userSpaceOnUse" gradientTransform="translate(187.49 106.209) scale(248.714 189.423)">
<stop stop-color="white"/>
<stop offset="1" stop-color="white" stop-opacity="0"/>
</radialGradient>
</defs>
</svg>
