<svg width="251" height="252" viewBox="0 0 251 252" fill="none" xmlns="http://www.w3.org/2000/svg">
<g filter="url(#filter0_d_1336_1264)">
<path d="M224.873 52.4C224.957 52.7088 225 53.0272 225 53.3471V103.065C225 104.364 224.305 105.564 223.178 106.21L181.449 130.235V177.855C181.449 179.151 180.76 180.347 179.637 181L92.5303 231.144C92.3309 231.257 92.1134 231.33 91.8959 231.407C91.8144 231.434 91.7373 231.484 91.6512 231.507C91.0423 231.667 90.4023 231.667 89.7934 231.507C89.6937 231.479 89.6031 231.425 89.5079 231.389C89.3085 231.316 89.1001 231.253 88.9098 231.144L1.82161 181C0.695542 180.353 0 179.154 0 177.855V28.701C0 28.3748 0.0453136 28.0576 0.126878 27.7495C0.154066 27.6452 0.217505 27.5501 0.253756 27.4459C0.321726 27.2555 0.385165 27.0607 0.484855 26.884C0.552826 26.7662 0.652515 26.671 0.73408 26.5622C0.838301 26.4172 0.93346 26.2677 1.05581 26.1408C1.16003 26.0366 1.29597 25.9596 1.41378 25.8689C1.54519 25.7602 1.66301 25.6424 1.81254 25.5563H1.81707L45.3634 0.484272C46.4855 -0.161424 47.8664 -0.161424 48.9885 0.484272L92.5348 25.5563H92.5439C92.6889 25.6469 92.8113 25.7602 92.9427 25.8644C93.0605 25.955 93.1919 26.0366 93.2961 26.1363C93.423 26.2677 93.5136 26.4172 93.6224 26.5622C93.6994 26.671 93.8036 26.7662 93.8671 26.884C93.9713 27.0652 94.0302 27.2555 94.1027 27.4459C94.1389 27.5501 94.2024 27.6452 94.2296 27.754C94.313 28.0628 94.3557 28.3812 94.3564 28.701V121.861L130.644 100.967V53.3426C130.644 53.0254 130.689 52.7036 130.77 52.4C130.802 52.2913 130.861 52.1961 130.897 52.0919C130.97 51.9016 131.033 51.7067 131.133 51.53C131.201 51.4122 131.301 51.3171 131.378 51.2083C131.486 51.0633 131.577 50.9138 131.704 50.7869C131.808 50.6827 131.94 50.6056 132.057 50.515C132.193 50.4062 132.311 50.2884 132.456 50.2023H132.461L176.012 25.1303C177.133 24.4837 178.515 24.4837 179.637 25.1303L223.183 50.2023C223.337 50.293 223.455 50.4062 223.591 50.5105C223.704 50.6011 223.835 50.6827 223.94 50.7824C224.067 50.9138 224.157 51.0633 224.266 51.2083C224.347 51.3171 224.447 51.4122 224.511 51.53C224.615 51.7067 224.674 51.9016 224.746 52.0919C224.787 52.1961 224.846 52.2913 224.873 52.4ZM217.741 100.967V59.623L202.502 68.3957L181.449 80.5171V121.861L217.745 100.967H217.741ZM174.194 175.757V134.386L153.486 146.213L94.3519 179.962V221.723L174.194 175.757ZM7.25923 34.977V175.757L87.0927 221.719V179.967L45.3861 156.363L45.3725 156.354L45.3544 156.345C45.2139 156.263 45.0961 156.146 44.9647 156.046C44.8514 155.955 44.72 155.883 44.6203 155.783L44.6112 155.769C44.4934 155.656 44.4118 155.516 44.3121 155.389C44.2215 155.266 44.1128 155.162 44.0403 155.035L44.0357 155.022C43.9542 154.886 43.9043 154.723 43.8454 154.569C43.7865 154.433 43.7095 154.306 43.6732 154.161V154.156C43.6279 153.984 43.6188 153.803 43.6007 153.626C43.5826 153.49 43.5463 153.354 43.5463 153.218V153.209V55.8711L22.4982 43.7452L7.25923 34.9815V34.977ZM47.1805 7.81601L10.8979 28.701L47.1714 49.5861L83.4495 28.6965L47.1714 7.81601H47.1805ZM66.0491 138.156L87.0972 126.039V34.977L71.8583 43.7497L50.8056 55.8711V146.933L66.0491 138.156ZM177.824 32.4621L141.546 53.3471L177.824 74.2321L214.098 53.3426L177.824 32.4621ZM174.194 80.5171L153.142 68.3957L137.903 59.623V100.967L158.951 113.084L174.194 121.861V80.5171ZM90.7178 173.686L143.929 143.308L170.529 128.128L134.278 107.257L92.5394 131.286L54.4986 153.187L90.7178 173.686Z" fill="#FF2D20"/>
</g>
<defs>
<filter id="filter0_d_1336_1264" x="0" y="0" width="251" height="251.627" filterUnits="userSpaceOnUse" color-interpolation-filters="sRGB">
<feFlood flood-opacity="0" result="BackgroundImageFix"/>
<feColorMatrix in="SourceAlpha" type="matrix" values="0 0 0 0 0 0 0 0 0 0 0 0 0 0 0 0 0 0 127 0" result="hardAlpha"/>
<feOffset dx="18" dy="12"/>
<feGaussianBlur stdDeviation="4"/>
<feComposite in2="hardAlpha" operator="out"/>
<feColorMatrix type="matrix" values="0 0 0 0 0 0 0 0 0 0 0 0 0 0 0 0 0 0 0.25 0"/>
<feBlend mode="normal" in2="BackgroundImageFix" result="effect1_dropShadow_1336_1264"/>
<feBlend mode="normal" in="SourceGraphic" in2="effect1_dropShadow_1336_1264" result="shape"/>
</filter>
</defs>
</svg>
