<svg width="240" height="230" viewBox="0 0 240 230" fill="none" xmlns="http://www.w3.org/2000/svg">
<g filter="url(#filter0_d_1336_1445)">
<path d="M196.942 162.328C185.308 162.038 176.292 163.202 168.73 166.401C166.549 167.273 163.059 167.274 162.768 170.036C163.932 171.2 164.077 173.09 165.095 174.69C166.841 177.597 169.893 181.524 172.657 183.561C175.71 185.887 178.765 188.213 181.963 190.249C187.635 193.74 194.033 195.775 199.559 199.266C202.759 201.3 205.957 203.919 209.156 206.1C210.757 207.263 211.774 209.154 213.81 209.881V209.445C212.792 208.136 212.501 206.245 211.484 204.791C210.03 203.337 208.575 202.028 207.121 200.574C202.904 194.903 197.669 189.958 191.997 185.887C187.345 182.688 177.164 178.325 175.274 172.944C175.274 172.944 175.128 172.799 174.983 172.654C178.183 172.363 181.963 171.2 185.017 170.327C189.962 169.018 194.47 169.309 199.559 168.001C201.886 167.419 204.213 166.692 206.539 165.964V164.656C203.923 162.038 202.031 158.549 199.268 156.076C191.852 149.677 183.708 143.425 175.274 138.19C170.766 135.282 164.949 133.39 160.15 130.919C158.406 130.045 155.497 129.61 154.48 128.156C151.861 124.956 150.407 120.74 148.517 116.958C144.301 108.959 140.228 100.09 136.592 91.6561C133.976 85.9844 132.376 80.3127 129.176 75.0781C114.199 50.3571 97.9115 35.3791 72.8994 20.6914C67.5188 17.638 61.121 16.3288 54.2861 14.7296C50.6516 14.5836 47.0152 14.2935 43.3797 14.1476C41.0534 13.1294 38.7261 10.3671 36.6899 9.05794C28.4027 3.82234 7.02512 -7.5192 0.917391 7.45871C-3.00909 16.9109 6.73412 26.2171 10.0785 31.0166C12.5517 34.361 15.7502 38.1415 17.4954 41.923C18.5135 44.3934 18.8036 47.0126 19.8217 49.63C22.149 56.0269 24.3293 63.1536 27.3837 69.1164C28.9838 72.1698 30.7281 75.3692 32.7643 78.1315C33.9275 79.7308 35.9628 80.4588 36.3998 83.0761C34.3645 85.9845 34.2185 90.347 33.0544 93.9825C27.8197 110.415 29.8559 130.773 37.2719 142.843C39.5982 146.477 45.1248 154.477 52.5409 151.423C59.0847 148.805 57.6305 140.516 59.5207 133.245C59.9577 131.499 59.6667 130.337 60.5388 129.174C60.5396 129.319 60.5388 129.465 60.5388 129.465C62.5751 133.536 64.6104 137.463 66.5006 141.534C71.0091 148.659 78.8612 156.076 85.405 161.021C88.8963 163.637 91.6587 168.146 96.0212 169.746V169.309H95.7302C94.8571 168 93.5489 167.419 92.3858 166.4C89.7684 163.783 86.8591 160.584 84.8238 157.675C78.717 149.531 73.3354 140.516 68.5368 131.209C66.2105 126.702 64.1743 121.757 62.2841 117.249C61.411 115.503 61.411 112.887 59.9568 112.015C57.7755 115.213 54.5771 117.976 52.9769 121.903C50.2154 128.156 49.9235 135.863 48.9054 143.861C48.3243 144.007 48.6144 143.861 48.3233 144.152C43.6707 142.988 42.0705 138.19 40.3253 134.117C35.9628 123.793 35.2357 107.215 39.0171 95.2916C40.0352 92.2373 44.3978 82.64 42.6526 79.7317C41.7804 76.9684 38.8711 75.3691 37.2719 73.1879C35.3816 70.4246 33.3454 66.9351 32.0372 63.8808C28.5468 55.7377 26.8016 46.7216 23.0211 38.5776C21.2759 34.7962 18.2225 30.8707 15.7502 27.3812C12.9878 23.4547 9.93347 20.6914 7.75217 16.0378C7.026 14.4386 6.00696 11.8212 7.17013 10.076C7.46115 8.91287 8.04227 8.4768 9.20635 8.18577C11.0966 6.58562 16.4773 8.62184 18.3675 9.49398C23.7481 11.6743 28.2557 13.7115 32.7643 16.7649C34.7996 18.2191 36.9808 20.9824 39.5982 21.7095H42.6525C47.3061 22.7267 52.5408 22.0005 56.9033 23.3087C64.6112 25.7801 71.5901 29.4165 77.8439 33.3429C96.8943 45.4124 112.598 62.5725 123.215 83.0761C124.96 86.4196 125.686 89.4749 127.286 92.9644C130.34 100.09 134.121 107.361 137.174 114.341C140.228 121.175 143.136 128.156 147.499 133.827C149.681 136.88 158.405 138.48 162.332 140.08C165.24 141.388 169.748 142.553 172.366 144.152C177.309 147.204 182.254 150.696 186.908 154.04C189.235 155.784 196.505 159.421 196.942 162.328L196.942 162.328Z" fill="#00546B"/>
<path d="M48.5853 35.9458C46.113 35.9458 44.3687 36.2377 42.6235 36.6738C42.6235 36.6731 42.6235 36.8198 42.6235 36.9648H42.9146C44.0786 39.2912 46.113 40.8913 47.5672 42.9266C48.7313 45.2529 49.7485 47.5802 50.9126 49.9074C51.0576 49.7615 51.2027 49.6164 51.2027 49.6164C53.2398 48.1613 54.257 45.835 54.257 42.3455C53.3839 41.3274 53.2389 40.3093 52.5118 39.2912C51.6397 37.836 49.7485 37.1099 48.5853 35.9458Z" fill="#00546B"/>
</g>
<defs>
<filter id="filter0_d_1336_1445" x="0" y="0" width="239.81" height="229.881" filterUnits="userSpaceOnUse" color-interpolation-filters="sRGB">
<feFlood flood-opacity="0" result="BackgroundImageFix"/>
<feColorMatrix in="SourceAlpha" type="matrix" values="0 0 0 0 0 0 0 0 0 0 0 0 0 0 0 0 0 0 127 0" result="hardAlpha"/>
<feOffset dx="18" dy="12"/>
<feGaussianBlur stdDeviation="4"/>
<feComposite in2="hardAlpha" operator="out"/>
<feColorMatrix type="matrix" values="0 0 0 0 0 0 0 0 0 0 0 0 0 0 0 0 0 0 0.25 0"/>
<feBlend mode="normal" in2="BackgroundImageFix" result="effect1_dropShadow_1336_1445"/>
<feBlend mode="normal" in="SourceGraphic" in2="effect1_dropShadow_1336_1445" result="shape"/>
</filter>
</defs>
</svg>
