<svg width="252" height="246" viewBox="0 0 252 246" fill="none" xmlns="http://www.w3.org/2000/svg">
<g filter="url(#filter0_d_1336_1294)">
<path d="M133.071 0C131.437 0 129.92 0.351573 128.519 0.820311C131.496 2.81249 133.13 5.44923 133.947 8.4375C134.005 8.84765 134.122 9.14063 134.18 9.55077C134.239 9.90234 134.297 10.2539 134.297 10.6055C134.531 15.7617 132.955 16.4062 131.846 19.4531C130.153 23.3789 130.62 27.5977 132.663 30.9961C132.838 31.4062 133.071 31.875 133.363 32.2851C131.145 17.4609 143.46 15.2344 145.737 10.6055C145.912 6.5625 142.585 3.86718 139.958 1.99218C137.449 0.468751 135.173 0 133.071 0ZM151.631 3.33984C151.398 4.6875 151.573 4.33593 151.515 5.03907C151.456 5.50781 151.456 6.09376 151.398 6.5625C151.282 7.03125 151.165 7.49999 150.99 7.96876C150.873 8.4375 150.698 8.90625 150.523 9.37499C150.289 9.84376 150.114 10.2539 149.881 10.7227C149.706 10.9571 149.589 11.1914 149.414 11.4258C149.297 11.6016 149.18 11.7773 149.064 11.9531C148.772 12.3633 148.48 12.7734 148.188 13.125C147.838 13.4766 147.546 13.8867 147.137 14.1797C147.137 14.2384 147.137 14.2384 147.137 14.2384C146.787 14.5313 146.437 14.8829 146.029 15.1759C144.803 16.1133 143.402 16.8165 142.118 17.6954C141.71 17.9883 141.301 18.2227 140.951 18.5743C140.542 18.8673 140.192 19.1602 139.842 19.5118C139.433 19.8633 139.142 20.2149 138.791 20.6251C138.5 20.9767 138.149 21.3868 137.916 21.797C137.624 22.2071 137.332 22.6173 137.099 23.0274C136.865 23.4961 136.69 23.9063 136.457 24.3751C136.282 24.8438 136.107 25.254 135.99 25.7227C135.815 26.2501 135.698 26.7188 135.581 27.1876C135.523 27.422 135.523 27.7149 135.465 27.9493C135.406 28.1838 135.406 28.418 135.348 28.6524C135.348 29.1212 135.29 29.6485 135.29 30.1172C135.29 30.4688 135.29 30.8204 135.348 31.172C135.348 31.6407 135.406 32.1094 135.523 32.6368C135.582 33.1055 135.698 33.5743 135.815 34.043C135.99 34.5118 136.107 34.9805 136.282 35.4493C136.398 35.7423 136.574 36.0352 136.69 36.2696L123.266 31.0547C120.99 30.4102 118.772 29.8243 116.496 29.2969C115.27 29.004 114.045 28.711 112.819 28.418C109.317 27.7149 105.757 27.1876 102.197 26.836C102.08 26.836 102.022 26.7773 101.905 26.7773C98.403 26.4258 94.9595 26.25 91.4576 26.25C88.8896 26.25 86.3215 26.3671 83.8118 26.543C80.2516 26.7774 76.6913 27.2461 73.1311 27.832C72.2556 27.9491 71.3801 28.125 70.5046 28.3008C68.6953 28.6523 66.9444 29.0625 65.2518 29.4727C64.3763 29.7071 63.5009 29.9414 62.6254 30.1758C61.7499 30.5273 60.9328 30.9375 60.1157 31.2891C59.4737 31.582 58.8317 31.875 58.1897 32.168C58.073 32.2267 57.9561 32.2267 57.8978 32.2851C57.3142 32.578 56.7889 32.8124 56.2636 33.1054C56.0885 33.1641 55.9718 33.2225 55.8551 33.2812C55.2131 33.5741 54.571 33.9257 54.0458 34.2187C53.6372 34.3944 53.2287 34.6288 52.8785 34.8046C52.7034 34.9217 52.4699 35.0391 52.3532 35.0976C51.8279 35.3905 51.3026 35.6835 50.8357 35.9765C50.3104 36.2694 49.8435 36.5624 49.4349 36.8554C49.0264 37.1484 48.6178 37.3827 48.2676 37.6757C48.2092 37.7343 48.151 37.7343 48.0925 37.7928C47.7423 38.0272 47.3338 38.3201 46.9836 38.6131C46.9836 38.6131 46.9251 38.6718 46.867 38.7302C46.5752 38.9647 46.2833 39.1989 45.9915 39.4333C45.8749 39.492 45.7579 39.6091 45.6413 39.6678C45.3495 39.9022 45.0577 40.1951 44.7658 40.4295C44.7074 40.5466 44.5908 40.6053 44.5323 40.664C44.1821 41.0155 43.8319 41.3085 43.4817 41.6601C43.4233 41.6601 43.4233 41.7187 43.3651 41.7772C43.0149 42.0701 42.6647 42.4217 42.3145 42.7733C42.256 42.8319 42.256 42.8903 42.1979 42.8903C41.9061 43.1833 41.6142 43.4763 41.3224 43.8278C41.2058 43.9449 41.0306 44.0623 40.9139 44.1794C40.622 44.531 40.2718 44.8825 39.9217 45.2341C39.8632 45.3512 39.7466 45.4099 39.6881 45.5271C39.2212 45.9958 38.8126 46.4646 38.3457 46.9333C38.2872 46.992 38.2291 47.0504 38.1706 47.1091C37.2368 48.1052 36.2446 49.1013 35.194 49.9802C34.1434 50.9177 33.0345 51.7966 31.9256 52.5583C30.7583 53.3786 29.6493 54.0817 28.4237 54.7849C27.2564 55.4294 26.0307 56.0153 24.7467 56.5427C23.521 57.07 22.237 57.5388 20.953 57.9489C18.5016 58.4763 15.992 59.4724 13.8325 59.6481C13.3655 59.6481 12.8403 59.7653 12.3733 59.8239C11.8481 59.941 11.3811 60.0584 10.9142 60.1755C10.4473 60.3513 9.98038 60.5271 9.51346 60.7028C9.04655 60.8786 8.57964 61.113 8.11272 61.3474C7.70416 61.6403 7.23725 61.8747 6.82868 62.1677C6.42014 62.4606 6.01157 62.8122 5.66138 63.1638C5.25284 63.4568 4.84428 63.8669 4.49409 64.2184C4.14389 64.6286 3.7937 64.9802 3.50189 65.3903C3.21007 65.8591 2.85988 66.2692 2.62641 66.738C2.33459 67.1482 2.04277 67.6169 1.8093 68.0856C1.57575 68.613 1.34239 69.0817 1.16729 69.6091C0.992197 70.0778 0.817101 70.6052 0.642006 71.1325C0.525367 71.6013 0.408453 72.07 0.350189 72.5387C0.350189 72.5975 0.291734 72.6559 0.291734 72.7145C0.175095 73.2419 0.175095 73.945 0.116638 74.2966C0.058183 74.7068 0 75.0583 0 75.4685C0 75.7029 0 75.9958 0.0584546 76.2302C0.116909 76.6403 0.175092 76.9919 0.292007 77.3435C0.408646 77.695 0.52556 78.0466 0.700546 78.3982C0.700546 78.4568 0.700546 78.4568 0.700546 78.4568C0.875641 78.8084 1.10911 79.16 1.34255 79.5115C1.57611 79.8631 1.8095 80.2147 2.10131 80.5662C2.39313 80.8592 2.74332 81.2107 3.09351 81.5037C3.4437 81.8553 3.7939 82.1482 4.20243 82.4412C5.6032 83.6717 5.95339 84.0818 7.7627 85.0193C8.05451 85.1951 8.34636 85.3123 8.69655 85.4881C8.75502 85.4881 8.81319 85.5468 8.87165 85.5468C8.87165 85.6638 8.87165 85.7225 8.93011 85.8398C8.98857 86.3085 9.10521 86.7772 9.22193 87.246C9.33857 87.7733 9.51377 88.2421 9.68887 88.6522C9.86397 89.0038 9.98069 89.3554 10.1558 89.7069C10.2142 89.8241 10.2724 89.9414 10.3309 89.9999C10.5644 90.4686 10.7978 90.8788 11.0312 91.289C11.3231 91.6991 11.6149 92.1093 11.9067 92.5194C12.1985 92.871 12.5487 93.2811 12.8989 93.6327C13.2491 93.9843 13.5993 94.2772 14.0079 94.6288C14.0079 94.6288 14.0663 94.6875 14.1245 94.6875C14.4747 94.9805 14.8249 95.2735 15.1751 95.5078C15.5836 95.8008 15.9922 96.0352 16.4591 96.2696C16.8677 96.504 17.3346 96.7383 17.8015 96.9141C18.1517 97.0899 18.5602 97.2071 18.9688 97.3243C19.0272 97.383 19.0854 97.383 19.2023 97.4414C19.4359 97.5001 19.7276 97.5585 19.9611 97.6171C19.786 100.781 19.7275 103.769 20.1946 104.824C20.7199 105.996 23.2879 102.422 25.856 98.3203C25.5058 102.363 25.2723 107.109 25.856 108.516C26.498 109.98 29.9999 105.41 33.0349 100.371C74.4155 90.7617 112.178 119.473 116.146 160.019C115.388 153.691 107.625 150.176 104.065 151.055C102.314 155.391 99.3373 160.957 94.5514 164.414C94.96 160.547 94.785 156.562 93.9678 152.695C92.6838 158.086 90.1741 163.125 86.7305 167.461C81.1859 167.871 75.6412 165.176 72.7229 161.133C72.4894 160.957 72.4311 160.605 72.256 160.371C72.0809 159.961 71.9058 159.551 71.7891 159.141C71.614 158.73 71.4973 158.32 71.4389 157.91C71.3805 157.5 71.3805 157.09 71.3805 156.621C71.3805 156.328 71.3805 156.035 71.3805 155.742C71.4389 155.332 71.5556 154.922 71.6723 154.512C71.7889 154.101 71.9058 153.691 72.0808 153.281C72.3144 152.871 72.4894 152.461 72.7812 152.051C73.7734 149.238 73.7734 146.953 71.9641 145.605C71.6139 145.371 71.2637 145.195 70.8552 145.019C70.6216 144.961 70.3299 144.844 70.0964 144.785C69.9213 144.726 69.8046 144.668 69.6295 144.609C69.221 144.492 68.8124 144.375 68.4039 144.316C67.9953 144.199 67.5868 144.14 67.1782 144.14C66.7697 144.082 66.3027 144.023 65.8942 144.023C65.6024 144.023 65.3105 144.082 65.0187 144.082C64.5518 144.082 64.1432 144.141 63.7347 144.258C63.3261 144.317 62.9176 144.375 62.509 144.492C62.1005 144.609 61.6919 144.727 61.2833 144.902C60.8748 145.078 60.5246 145.254 60.116 145.43C59.7659 145.606 59.4157 145.84 59.0071 146.016C45.4081 154.922 53.5208 175.781 62.8008 181.816C59.2989 182.461 55.7387 183.223 54.7465 183.984C54.688 184.043 54.6299 184.102 54.6299 184.102C57.1396 185.625 59.766 186.914 62.5091 188.027C66.2444 189.258 70.2133 190.371 71.9642 190.84V190.898C76.8085 191.895 81.7111 192.246 86.6722 191.953C112.528 190.137 133.714 170.391 137.566 144.375C137.683 144.902 137.8 145.371 137.917 145.899C138.092 146.953 138.325 148.066 138.442 149.18C138.442 149.18 138.442 149.18 138.442 149.239C138.558 149.766 138.617 150.293 138.675 150.762C138.675 150.879 138.675 150.938 138.675 150.996C138.734 151.524 138.792 152.051 138.792 152.52C138.85 153.164 138.909 153.809 138.909 154.453C138.909 154.746 138.909 155.039 138.909 155.391C138.909 155.684 138.967 156.035 138.967 156.328C138.967 156.68 138.909 157.032 138.909 157.383C138.909 157.676 138.909 157.969 138.909 158.203C138.909 158.614 138.85 158.965 138.85 159.375C138.85 159.61 138.85 159.844 138.792 160.137C138.792 160.547 138.733 160.957 138.733 161.426C138.675 161.602 138.675 161.778 138.675 161.953C138.616 162.422 138.558 162.832 138.5 163.301C138.5 163.477 138.5 163.653 138.441 163.828C138.383 164.414 138.266 164.942 138.208 165.528V165.586V165.645C138.091 166.172 137.974 166.758 137.857 167.286C137.857 167.344 137.857 167.403 137.857 167.461C137.741 167.989 137.624 168.516 137.507 169.043C137.507 169.102 137.449 169.219 137.449 169.278C137.332 169.805 137.215 170.333 137.04 170.86C137.04 170.919 137.04 170.977 137.04 171.036C136.865 171.622 136.69 172.149 136.573 172.676C136.515 172.735 136.515 172.793 136.515 172.793C136.34 173.379 136.165 173.965 135.99 174.551C135.756 175.137 135.581 175.665 135.348 176.251C135.114 176.836 134.939 177.422 134.706 177.95C134.472 178.536 134.239 179.063 134.005 179.649H133.947C133.713 180.176 133.48 180.762 133.188 181.29C133.129 181.465 133.071 181.583 133.013 181.7C132.954 181.758 132.954 181.817 132.896 181.876C129.102 189.551 123.499 196.29 116.496 201.563C116.029 201.856 115.562 202.208 115.095 202.559C114.978 202.676 114.803 202.735 114.686 202.852C114.278 203.145 113.869 203.438 113.402 203.731L113.577 204.083H113.636C114.453 203.965 115.27 203.848 116.087 203.731H116.146C117.663 203.497 119.181 203.204 120.698 202.911C121.107 202.852 121.574 202.735 121.982 202.618C122.274 202.559 122.507 202.501 122.799 202.442C123.208 202.383 123.616 202.266 124.025 202.207C124.375 202.09 124.725 202.032 125.075 201.914C130.912 200.508 136.573 198.575 142.001 196.289C132.721 209.004 120.29 219.258 105.757 225.996C112.469 225.528 119.181 224.414 125.659 222.539C149.18 215.567 168.966 199.688 180.814 178.301C178.421 191.836 173.051 204.727 165.114 215.977C170.775 212.227 175.97 207.891 180.697 202.969C193.771 189.258 202.351 171.856 205.269 153.164C207.253 162.422 207.837 171.973 206.961 181.407C249.101 122.403 210.463 61.2309 194.296 45.1177C194.238 45.0006 194.18 44.9419 194.18 44.8247C194.121 44.8834 194.121 44.8834 194.121 44.9418C194.121 44.8831 194.121 44.8831 194.063 44.8247C194.063 45.5278 194.004 46.2309 193.946 46.9341C193.771 48.2817 193.596 49.5708 193.362 50.8599C193.07 52.1489 192.72 53.438 192.37 54.727C191.961 55.9575 191.495 57.2466 190.969 58.477C190.444 59.6489 189.86 60.8794 189.218 62.0513C188.576 63.1645 187.876 64.3364 187.117 65.3911C186.358 66.5044 185.541 67.5591 184.724 68.5551C183.849 69.6098 182.915 70.5473 181.981 71.4848C181.397 72.0122 180.872 72.4809 180.289 72.9497C179.822 73.3598 179.413 73.7114 178.946 74.1215C177.896 74.9419 176.845 75.7036 175.678 76.4067C174.569 77.1098 173.402 77.813 172.234 78.3989C171.009 78.9848 169.783 79.5122 168.557 80.0395C167.332 80.5083 166.048 80.9184 164.763 81.27C163.479 81.6215 162.137 81.9145 160.853 82.1489C159.511 82.3834 158.168 82.5004 156.884 82.6177C155.95 82.6763 155.017 82.7348 154.083 82.7348C152.74 82.7348 151.398 82.6177 150.114 82.5003C148.772 82.3832 147.429 82.2073 146.145 81.9143C144.803 81.6799 143.519 81.3284 142.235 80.9183H142.176C143.46 80.8012 144.744 80.6838 146.028 80.4495C147.371 80.215 148.655 79.9222 149.939 79.5706C151.223 79.219 152.507 78.8088 153.732 78.3401C155.016 77.8714 156.242 77.2854 157.409 76.6995C158.635 76.1135 159.744 75.469 160.911 74.7659C162.02 74.0042 163.129 73.2425 164.18 72.4221C165.23 71.6018 166.223 70.7229 167.156 69.7854C168.149 68.9065 169.024 67.9104 169.9 66.9143C170.775 65.8597 171.592 64.805 172.351 63.7503C172.467 63.5745 172.584 63.3401 172.701 63.1644C173.285 62.2268 173.868 61.2893 174.394 60.3518C175.036 59.18 175.619 58.0081 176.145 56.7776C176.67 55.5472 177.137 54.3167 177.545 53.0276C177.954 51.7971 178.246 50.5081 178.538 49.2191C178.771 47.8714 179.004 46.5823 179.121 45.2933C179.238 43.9456 179.355 42.5979 179.355 41.3089C179.355 40.3714 179.296 39.4339 179.238 38.4964C179.121 37.1488 178.946 35.8597 178.771 34.5706C178.538 33.223 178.246 31.9339 177.896 30.6448C177.487 29.4144 177.079 28.1253 176.612 26.8949C176.145 25.6644 175.561 24.4339 174.977 23.262C174.335 22.0901 173.693 20.9183 172.993 19.805C172.234 18.6917 171.476 17.637 170.658 16.5823C169.783 15.5863 168.908 14.5902 167.974 13.5941C167.507 13.1253 166.981 12.598 166.456 12.1292C163.83 10.0784 161.087 8.14484 158.343 6.38704C157.935 6.15258 157.585 5.97688 157.176 5.80109C155.25 4.57064 153.441 3.92609 151.632 3.34017L151.631 3.33984Z" fill="#E0234E"/>
</g>
<defs>
<filter id="filter0_d_1336_1294" x="0" y="0" width="252" height="245.997" filterUnits="userSpaceOnUse" color-interpolation-filters="sRGB">
<feFlood flood-opacity="0" result="BackgroundImageFix"/>
<feColorMatrix in="SourceAlpha" type="matrix" values="0 0 0 0 0 0 0 0 0 0 0 0 0 0 0 0 0 0 127 0" result="hardAlpha"/>
<feOffset dx="18" dy="12"/>
<feGaussianBlur stdDeviation="4"/>
<feComposite in2="hardAlpha" operator="out"/>
<feColorMatrix type="matrix" values="0 0 0 0 0 0 0 0 0 0 0 0 0 0 0 0 0 0 0.25 0"/>
<feBlend mode="normal" in2="BackgroundImageFix" result="effect1_dropShadow_1336_1294"/>
<feBlend mode="normal" in="SourceGraphic" in2="effect1_dropShadow_1336_1294" result="shape"/>
</filter>
</defs>
</svg>
