<svg width="257" height="251" viewBox="0 0 257 251" fill="none" xmlns="http://www.w3.org/2000/svg">
<g filter="url(#filter0_d_1336_1280)">
<path d="M107.935 0.0621629C107.439 0.107318 105.858 0.265359 104.435 0.378246C71.6258 3.33588 40.8935 21.0365 21.429 48.2422C10.5903 63.369 3.65806 80.5278 1.03871 98.7025C0.112903 105.047 0 106.921 0 115.523C0 124.125 0.112903 125.998 1.03871 132.343C7.31613 175.714 38.1839 212.154 80.0484 225.655C87.5452 228.071 95.4484 229.719 104.435 230.712C107.935 231.096 123.065 231.096 126.565 230.712C142.077 228.996 155.219 225.158 168.181 218.543C170.168 217.527 170.552 217.256 170.281 217.03C170.1 216.895 161.632 205.538 151.471 191.811L133 166.863L109.855 132.614C97.1194 113.784 86.6419 98.3864 86.5516 98.3864C86.4613 98.3638 86.371 113.581 86.3258 132.162C86.2581 164.696 86.2355 166.006 85.829 166.773C85.2419 167.879 84.7903 168.331 83.8419 168.828C83.1194 169.189 82.4871 169.257 79.0774 169.257H75.171L74.1323 168.602C73.4548 168.173 72.9581 167.609 72.6194 166.954L72.1452 165.938L72.1903 120.67L72.2581 75.3801L72.9581 74.4996C73.3194 74.0255 74.0871 73.4159 74.629 73.1224C75.5548 72.6708 75.9161 72.6257 79.8226 72.6257C84.429 72.6257 85.1968 72.8063 86.3935 74.1158C86.7323 74.477 99.2645 93.3517 114.258 116.087C129.252 138.822 149.755 169.866 159.826 185.106L178.116 212.808L179.042 212.199C187.239 206.87 195.91 199.284 202.774 191.382C217.384 174.607 226.8 154.152 229.961 132.343C230.887 125.998 231 124.125 231 115.523C231 106.921 230.887 105.047 229.961 98.7025C223.684 55.3315 192.816 18.8917 150.952 5.39041C143.568 2.99722 135.71 1.34907 126.903 0.355668C124.735 0.129895 109.81 -0.118456 107.935 0.0621629ZM155.219 69.9164C156.303 70.4583 157.184 71.4968 157.5 72.5805C157.681 73.1676 157.726 85.7205 157.681 114.01L157.613 154.604L150.455 143.631L143.274 132.659V103.15C143.274 84.0724 143.365 73.3482 143.5 72.8289C143.861 71.5646 144.652 70.5712 145.735 69.9841C146.661 69.51 147 69.4649 150.545 69.4649C153.887 69.4649 154.474 69.51 155.219 69.9164Z" fill="black"/>
</g>
<defs>
<filter id="filter0_d_1336_1280" x="0" y="0" width="257" height="251" filterUnits="userSpaceOnUse" color-interpolation-filters="sRGB">
<feFlood flood-opacity="0" result="BackgroundImageFix"/>
<feColorMatrix in="SourceAlpha" type="matrix" values="0 0 0 0 0 0 0 0 0 0 0 0 0 0 0 0 0 0 127 0" result="hardAlpha"/>
<feOffset dx="18" dy="12"/>
<feGaussianBlur stdDeviation="4"/>
<feComposite in2="hardAlpha" operator="out"/>
<feColorMatrix type="matrix" values="0 0 0 0 0 0 0 0 0 0 0 0 0 0 0 0 0 0 0.25 0"/>
<feBlend mode="normal" in2="BackgroundImageFix" result="effect1_dropShadow_1336_1280"/>
<feBlend mode="normal" in="SourceGraphic" in2="effect1_dropShadow_1336_1280" result="shape"/>
</filter>
</defs>
</svg>
