<svg width="236" height="257" viewBox="0 0 236 257" fill="none" xmlns="http://www.w3.org/2000/svg">
<g filter="url(#filter0_d_1336_1212)">
<path d="M105 236.63C101.739 236.63 98.6956 235.761 95.8696 234.239L66.9565 217.065C62.6087 214.674 64.7826 213.804 66.087 213.37C71.9565 211.413 73.0435 210.978 79.1304 207.5C79.7826 207.065 80.6522 207.283 81.3043 207.717L103.478 220.978C104.348 221.413 105.435 221.413 106.087 220.978L192.826 170.761C193.696 170.326 194.13 169.457 194.13 168.37V68.1522C194.13 67.0652 193.696 66.1956 192.826 65.7609L106.087 15.7609C105.217 15.3261 104.13 15.3261 103.478 15.7609L16.7391 65.7609C15.8696 66.1956 15.4348 67.2826 15.4348 68.1522V168.37C15.4348 169.239 15.8696 170.326 16.7391 170.761L40.4348 184.457C53.2609 190.978 61.3043 183.37 61.3043 175.761V76.8478C61.3043 75.5435 62.3913 74.2391 63.913 74.2391H75C76.3044 74.2391 77.6087 75.3261 77.6087 76.8478V175.761C77.6087 192.935 68.2609 202.935 51.9565 202.935C46.9565 202.935 43.0435 202.935 31.9565 197.5L9.13043 184.457C3.47826 181.196 0 175.109 0 168.587V68.3696C0 61.8478 3.47826 55.7609 9.13043 52.5L95.8696 2.28261C101.304 -0.760869 108.696 -0.760869 114.13 2.28261L200.87 52.5C206.522 55.7609 210 61.8478 210 68.3696V168.587C210 175.109 206.522 181.196 200.87 184.457L114.13 234.674C111.304 235.978 108.043 236.63 105 236.63ZM131.739 167.717C93.6956 167.717 85.8696 150.326 85.8696 135.543C85.8696 134.239 86.9565 132.935 88.4783 132.935H99.7826C101.087 132.935 102.174 133.804 102.174 135.109C103.913 146.63 108.913 152.283 131.957 152.283C150.217 152.283 158.043 148.152 158.043 138.37C158.043 132.717 155.87 128.587 127.391 125.761C103.696 123.37 88.913 118.152 88.913 99.2391C88.913 81.6304 103.696 71.1956 128.478 71.1956C156.304 71.1956 170 80.7609 171.739 101.63C171.739 102.283 171.522 102.935 171.087 103.587C170.652 104.022 170 104.457 169.348 104.457H158.043C156.957 104.457 155.87 103.587 155.652 102.5C153.043 90.5435 146.304 86.6304 128.478 86.6304C108.478 86.6304 106.087 93.5869 106.087 98.8043C106.087 105.109 108.913 107.065 135.87 110.543C162.609 114.022 175.217 119.022 175.217 137.717C175 156.848 159.348 167.717 131.739 167.717Z" fill="#539E43"/>
</g>
<defs>
<filter id="filter0_d_1336_1212" x="0" y="0" width="236" height="256.63" filterUnits="userSpaceOnUse" color-interpolation-filters="sRGB">
<feFlood flood-opacity="0" result="BackgroundImageFix"/>
<feColorMatrix in="SourceAlpha" type="matrix" values="0 0 0 0 0 0 0 0 0 0 0 0 0 0 0 0 0 0 127 0" result="hardAlpha"/>
<feOffset dx="18" dy="12"/>
<feGaussianBlur stdDeviation="4"/>
<feComposite in2="hardAlpha" operator="out"/>
<feColorMatrix type="matrix" values="0 0 0 0 0 0 0 0 0 0 0 0 0 0 0 0 0 0 0.25 0"/>
<feBlend mode="normal" in2="BackgroundImageFix" result="effect1_dropShadow_1336_1212"/>
<feBlend mode="normal" in="SourceGraphic" in2="effect1_dropShadow_1336_1212" result="shape"/>
</filter>
</defs>
</svg>
