<svg width="274" height="261" viewBox="0 0 274 261" fill="none" xmlns="http://www.w3.org/2000/svg">
<g filter="url(#filter0_d_402_1710)">
<path d="M43.7714 1.9425e-05H203.408C209.158 -0.00539967 214.852 1.12308 220.165 3.32088C225.478 5.51868 230.306 8.74264 234.371 12.8083C238.437 16.8739 241.661 21.7014 243.859 27.0144C246.056 32.3274 247.185 38.0217 247.179 43.7714V197.229C247.185 202.978 246.056 208.673 243.859 213.986C241.661 219.299 238.437 224.126 234.371 228.192C230.306 232.257 225.478 235.481 220.165 237.679C214.852 239.877 209.158 241.005 203.408 241H43.7714C38.0217 241.005 32.3274 239.877 27.0144 237.679C21.7014 235.481 16.8739 232.257 12.8083 228.192C8.74264 224.126 5.51868 219.299 3.32088 213.986C1.12308 208.673 -0.00539967 202.978 1.9425e-05 197.229V43.7714C-0.00539967 38.0217 1.12308 32.3274 3.32088 27.0144C5.51868 21.7014 8.74264 16.8739 12.8083 12.8083C16.8739 8.74264 21.7014 5.51868 27.0144 3.32088C32.3274 1.12308 38.0217 -0.00539967 43.7714 1.9425e-05Z" fill="#001E36"/>
<path d="M55.6155 169.009V63.0308C55.6155 62.3098 55.9245 61.8979 56.6454 61.8979C58.3962 61.8979 60.0441 61.8979 62.4129 61.7949C64.7817 61.6919 67.4595 61.6919 70.2403 61.5889C73.021 61.4859 76.0078 61.4859 79.2005 61.3829C82.3933 61.2799 85.483 61.2799 88.5727 61.2799C97.018 61.2799 104.021 62.3098 109.789 64.4726C114.959 66.2284 119.673 69.1133 123.59 72.9179C126.909 76.2475 129.473 80.2516 131.108 84.659C132.667 88.9511 133.469 93.4814 133.477 98.0479C133.477 106.905 131.417 114.218 127.298 119.985C123.159 125.745 117.38 130.123 110.716 132.55C103.712 135.125 95.9881 136.052 87.5428 136.052C85.071 136.052 83.4232 136.052 82.3933 135.949C81.3633 135.846 79.9215 135.846 77.9646 135.846V168.906C77.9876 169.075 77.9763 169.248 77.9314 169.413C77.8866 169.578 77.809 169.732 77.7033 169.867C77.5977 170.001 77.4661 170.113 77.3163 170.196C77.1666 170.278 77.0018 170.33 76.8317 170.348H56.8514C56.0274 170.348 55.6155 169.936 55.6155 169.009ZM78.0676 81.7752V116.38C79.5095 116.483 80.8484 116.586 82.0843 116.586H87.5428C91.5635 116.591 95.56 115.966 99.3868 114.732C102.67 113.767 105.603 111.871 107.832 109.274C109.995 106.699 111.025 103.197 111.025 98.6658C111.122 95.4474 110.3 92.268 108.656 89.4996C106.939 86.8255 104.413 84.7689 101.447 83.6291C97.5802 82.1147 93.4432 81.4135 89.2937 81.5692C86.6159 81.5692 84.2471 81.5692 82.2903 81.6722C80.8825 81.5802 79.4693 81.6147 78.0676 81.7752ZM197.744 110.098C194.634 108.46 191.304 107.281 187.856 106.596C184.07 105.739 180.203 105.29 176.321 105.257C174.237 105.185 172.154 105.428 170.142 105.978C168.859 106.245 167.721 106.979 166.949 108.038C166.429 108.874 166.144 109.835 166.125 110.819C166.173 111.799 166.534 112.737 167.155 113.497C168.131 114.642 169.321 115.586 170.657 116.277C173.026 117.513 175.498 118.646 177.969 119.676C183.534 121.549 188.857 124.073 193.83 127.194C197.212 129.321 200.009 132.26 201.966 135.743C203.621 139.028 204.435 142.673 204.335 146.351C204.419 151.219 203.018 155.997 200.318 160.049C197.446 164.16 193.437 167.345 188.783 169.215C183.737 171.378 177.557 172.511 170.142 172.511C165.44 172.53 160.748 172.081 156.135 171.172C152.503 170.544 148.97 169.436 145.63 167.876C145.271 167.696 144.972 167.415 144.771 167.067C144.57 166.719 144.475 166.32 144.497 165.919V147.999C144.488 147.823 144.521 147.647 144.592 147.486C144.664 147.325 144.772 147.183 144.909 147.072C145.054 146.987 145.223 146.952 145.39 146.97C145.556 146.989 145.713 147.06 145.836 147.175C149.803 149.514 154.113 151.216 158.607 152.221C162.575 153.254 166.66 153.773 170.76 153.766C174.674 153.766 177.454 153.251 179.308 152.324C180.135 151.942 180.836 151.333 181.328 150.566C181.821 149.8 182.085 148.91 182.089 147.999C182.089 146.557 181.265 145.218 179.617 143.879C177.969 142.54 174.571 140.995 169.524 139.038C164.347 137.214 159.43 134.721 154.899 131.623C151.672 129.323 148.998 126.332 147.072 122.869C145.428 119.616 144.614 116.007 144.703 112.364C144.718 107.969 145.929 103.661 148.205 99.9017C150.821 95.7672 154.576 92.4768 159.019 90.4265C163.859 87.9547 169.936 86.8218 177.248 86.8218C181.522 86.823 185.79 87.1328 190.019 87.7487C193.06 88.1602 196.036 88.9561 198.877 90.1175C199.329 90.2779 199.699 90.6113 199.907 91.0444C200.025 91.4465 200.094 91.8615 200.112 92.2803V109.068C200.114 109.268 200.068 109.466 199.979 109.645C199.889 109.824 199.759 109.979 199.598 110.098C198.998 110.313 198.343 110.313 197.744 110.098Z" fill="#31A8FF"/>
</g>
<defs>
<filter id="filter0_d_402_1710" x="0" y="0" width="273.179" height="261" filterUnits="userSpaceOnUse" color-interpolation-filters="sRGB">
<feFlood flood-opacity="0" result="BackgroundImageFix"/>
<feColorMatrix in="SourceAlpha" type="matrix" values="0 0 0 0 0 0 0 0 0 0 0 0 0 0 0 0 0 0 127 0" result="hardAlpha"/>
<feOffset dx="18" dy="12"/>
<feGaussianBlur stdDeviation="4"/>
<feComposite in2="hardAlpha" operator="out"/>
<feColorMatrix type="matrix" values="0 0 0 0 0 0 0 0 0 0 0 0 0 0 0 0 0 0 0.25 0"/>
<feBlend mode="normal" in2="BackgroundImageFix" result="effect1_dropShadow_402_1710"/>
<feBlend mode="normal" in="SourceGraphic" in2="effect1_dropShadow_402_1710" result="shape"/>
</filter>
</defs>
</svg>
