<svg width="254" height="155" viewBox="0 0 254 155" fill="none" xmlns="http://www.w3.org/2000/svg">
<g filter="url(#filter0_d_1336_1283)">
<path d="M114 134.6C176.96 134.6 228 104.469 228 67.3C228 30.1312 176.96 0 114 0C51.0395 0 0 30.1312 0 67.3C0 104.469 51.0395 134.6 114 134.6Z" fill="url(#paint0_radial_1336_1283)"/>
<path d="M114 129.6C174.501 129.6 223.547 101.707 223.547 67.3C223.547 32.8927 174.501 5 114 5C53.4989 5 4.45312 32.8927 4.45312 67.3C4.45312 101.707 53.4989 129.6 114 129.6Z" fill="#6181B6"/>
<path d="M136.176 87.5001L141.609 56.1001C142.856 49.0001 141.787 43.7001 138.581 40.4001C135.463 37.2001 130.12 35.6001 122.282 35.6001H112.842L115.513 20.0001C115.603 19.4001 115.513 18.8001 115.157 18.3001C114.801 17.8001 114.356 17.6001 113.821 17.6001H100.818C99.9275 17.6001 99.215 18.3001 99.0369 19.2001L93.2478 52.5001C92.7135 48.7001 91.4666 45.5001 89.3291 42.9001C85.4994 38.0001 79.5322 35.5001 71.4275 35.5001H46.401C45.5103 35.5001 44.7978 36.2001 44.6197 37.1001L32.9525 104.7C32.8635 105.3 32.9525 105.9 33.3088 106.4C33.665 106.9 34.1103 107.1 34.6447 107.1H47.7369C48.6275 107.1 49.34 106.4 49.5182 105.5L52.3682 89.2001H62.076C67.1525 89.2001 71.5166 88.6001 74.8119 87.4001C78.2853 86.1001 81.4025 84.0001 84.1635 81.1001C86.39 78.8001 88.2603 76.2001 89.6853 73.4001L87.3697 86.9001C87.2807 87.5001 87.3697 88.1001 87.726 88.6001C88.0822 89.1001 88.5275 89.3001 89.0619 89.3001H102.065C102.956 89.3001 103.668 88.6001 103.846 87.7001L110.259 50.7001H119.165C122.995 50.7001 124.063 51.5001 124.42 51.9001C124.687 52.2001 125.221 53.4001 124.598 57.1001L119.432 87.0001C119.343 87.6001 119.432 88.2001 119.788 88.7001C120.145 89.2001 120.59 89.4001 121.124 89.4001H134.484C135.285 89.1001 135.998 88.4001 136.176 87.5001ZM75.9697 61.5001C75.1682 66.2001 73.6541 69.6001 71.4275 71.5001C69.201 73.4001 65.5494 74.4001 60.74 74.4001H54.951L59.1369 50.2001H66.6182C72.14 50.2001 74.3666 51.5001 75.2572 52.6001C76.415 54.2001 76.6822 57.3001 75.9697 61.5001Z" fill="white"/>
<path d="M191.75 42.9C187.92 38 181.953 35.5 173.848 35.5H148.643C147.753 35.5 147.04 36.2 146.862 37.1L135.195 104.6C135.106 105.2 135.195 105.8 135.551 106.3C135.907 106.8 136.353 107 136.887 107H149.979C150.87 107 151.582 106.3 151.761 105.4L154.611 89.1H164.318C169.395 89.1 173.759 88.5 177.054 87.3C180.528 86 183.645 83.9 186.406 81C188.722 78.6 190.681 75.9 192.106 73C193.531 70.1 194.6 66.9 195.223 63.4C196.737 54.7 195.579 47.9 191.75 42.9ZM178.123 61.5C177.322 66.2 175.807 69.6 173.581 71.5C171.354 73.4 167.703 74.4 162.893 74.4H157.104L161.29 50.2H168.772C174.293 50.2 176.52 51.5 177.411 52.6C178.657 54.2 178.925 57.3 178.123 61.5Z" fill="white"/>
<path d="M66.6187 48.2C71.6062 48.2 74.9015 49.2 76.5937 51.3C78.2859 53.4 78.6422 56.9 77.7515 61.9C76.8609 67.1 75.0797 70.9 72.4968 73.1C69.914 75.3 65.9953 76.4 60.7406 76.4H52.814L57.7125 48.2H66.6187ZM34.7344 105H47.8266L50.9437 87.1H62.1656C67.1531 87.1 71.1609 86.5 74.3672 85.3C77.5734 84.1 80.4234 82.2 83.0953 79.4C85.3218 77.1 87.1031 74.6 88.439 71.9C89.775 69.2 90.7546 66.2 91.289 62.9C92.714 54.9 91.6453 48.7 88.1718 44.2C84.6984 39.7 79.1765 37.5 71.6062 37.5H46.4016L34.7344 105Z" fill="#000004"/>
<path d="M100.909 19.6001H113.912L110.795 37.5001H122.373C129.676 37.5001 134.664 38.9001 137.425 41.8001C140.186 44.7001 140.987 49.3001 139.919 55.7001L134.486 87.1001H121.304L126.47 57.2001C127.093 53.8001 126.826 51.5001 125.847 50.3001C124.867 49.1001 122.64 48.4001 119.345 48.4001H108.925L102.245 87.1001H89.2419L100.909 19.6001Z" fill="#000004"/>
<path d="M168.775 48.2C173.762 48.2 177.058 49.2 178.75 51.3C180.442 53.4 180.798 56.9 179.908 61.9C179.017 67.1 177.236 70.9 174.653 73.1C172.07 75.3 168.151 76.4 162.897 76.4H154.97L159.868 48.2H168.775ZM136.89 105H149.983L153.1 87.1H164.322C169.309 87.1 173.317 86.5 176.523 85.3C179.729 84.1 182.579 82.2 185.251 79.4C187.478 77.1 189.259 74.6 190.595 71.9C191.931 69.2 192.911 66.2 193.445 62.9C194.87 54.9 193.801 48.7 190.328 44.2C186.854 39.7 181.333 37.5 173.762 37.5H148.558L136.89 105Z" fill="#000004"/>
</g>
<defs>
<filter id="filter0_d_1336_1283" x="0" y="0" width="254" height="154.6" filterUnits="userSpaceOnUse" color-interpolation-filters="sRGB">
<feFlood flood-opacity="0" result="BackgroundImageFix"/>
<feColorMatrix in="SourceAlpha" type="matrix" values="0 0 0 0 0 0 0 0 0 0 0 0 0 0 0 0 0 0 127 0" result="hardAlpha"/>
<feOffset dx="18" dy="12"/>
<feGaussianBlur stdDeviation="4"/>
<feComposite in2="hardAlpha" operator="out"/>
<feColorMatrix type="matrix" values="0 0 0 0 0 0 0 0 0 0 0 0 0 0 0 0 0 0 0.25 0"/>
<feBlend mode="normal" in2="BackgroundImageFix" result="effect1_dropShadow_1336_1283"/>
<feBlend mode="normal" in="SourceGraphic" in2="effect1_dropShadow_1336_1283" result="shape"/>
</filter>
<radialGradient id="paint0_radial_1336_1283" cx="0" cy="0" r="1" gradientUnits="userSpaceOnUse" gradientTransform="translate(68.4461 23.6677) scale(149.71 168.095)">
<stop stop-color="white"/>
<stop offset="0.5" stop-color="#4C6B97"/>
<stop offset="1" stop-color="#231F20"/>
</radialGradient>
</defs>
</svg>
