<svg width="250" height="251" viewBox="0 0 250 251" fill="none" xmlns="http://www.w3.org/2000/svg">
<g filter="url(#filter0_d_1336_1257)">
<path d="M222.799 137.961C221.456 133.895 217.939 131.063 213.39 130.383C211.246 130.063 208.789 130.199 205.883 130.798C200.817 131.844 197.058 132.241 194.315 132.319C204.669 114.838 213.088 94.9024 217.934 76.137C225.771 45.7947 221.584 31.9717 216.69 25.7188C203.738 9.16998 184.842 0.279101 162.044 0.00656212C149.884 -0.141861 139.207 2.25928 133.639 3.98553C128.453 3.07121 122.877 2.56026 117.027 2.46562C106.062 2.29082 96.3723 4.6811 88.0932 9.59405C83.5087 8.04466 76.1532 5.85969 67.658 4.46493C47.6773 1.18463 31.5742 3.74092 19.7956 12.0619C5.53251 22.1371 -1.07979 39.6416 0.143274 64.09C0.531138 71.8524 4.87366 95.4692 11.7104 117.868C15.6397 130.741 19.8297 141.432 24.1639 149.646C30.3103 161.292 36.8869 168.151 44.2703 170.614C48.409 171.993 55.9279 172.958 63.8367 166.373C64.839 167.586 66.1758 168.793 67.9512 169.913C70.2049 171.334 72.9613 172.496 75.7136 173.184C85.6341 175.665 94.9263 175.044 102.854 171.568C102.902 172.978 102.94 174.325 102.972 175.488C103.025 177.375 103.077 179.225 103.146 180.955C103.616 192.654 104.411 201.75 106.77 208.114C106.899 208.465 107.073 208.998 107.257 209.563C108.433 213.166 110.401 219.196 115.406 223.919C120.589 228.811 126.858 230.311 132.599 230.311C135.479 230.311 138.226 229.933 140.636 229.417C149.226 227.576 158.982 224.771 166.039 214.723C172.711 205.223 175.954 190.916 176.541 168.371C176.617 167.734 176.688 167.125 176.755 166.545C176.801 166.154 176.847 165.753 176.894 165.354L178.467 165.492L178.871 165.52C187.621 165.918 198.318 164.063 204.888 161.011C210.08 158.602 226.716 149.819 222.799 137.961Z" fill="black"/>
<path d="M207.839 140.262C181.826 145.628 180.037 136.821 180.037 136.821C207.504 96.065 218.986 44.3318 209.077 31.6703C182.045 -2.86763 135.253 13.4666 134.472 13.8907L134.22 13.9357C129.081 12.8688 123.329 12.2332 116.865 12.1277C105.094 11.9348 96.1652 15.2135 89.39 20.3514C89.39 20.3514 5.91607 -14.0366 9.79833 63.6008C10.6242 80.1176 33.4715 188.574 60.7228 155.815C70.6831 143.836 80.3068 133.708 80.3068 133.708C85.0868 136.883 90.8091 138.503 96.808 137.921L97.274 137.526C97.1292 139.013 97.1954 140.468 97.4607 142.19C90.4404 150.033 92.5033 151.411 78.4693 154.299C64.2689 157.226 72.611 162.436 78.0577 163.798C84.6607 165.449 99.9368 167.788 110.259 153.339L109.847 154.988C112.598 157.191 114.529 169.319 114.206 180.312C113.882 191.306 113.666 198.854 115.833 204.75C118 210.645 120.161 223.91 138.609 219.957C154.025 216.653 162.014 208.092 163.125 193.812C163.914 183.66 165.698 185.161 165.811 176.084L167.243 171.787C168.893 158.025 167.505 153.586 177.002 155.651L179.31 155.853C186.301 156.172 195.45 154.729 200.819 152.233C212.382 146.867 219.239 137.908 207.838 140.262H207.839Z" fill="#336791"/>
<path d="M94.2764 70.9871C91.9327 70.6608 89.8092 70.9628 88.7351 71.7758C88.1306 72.2335 87.9439 72.7636 87.8937 73.1287C87.7587 74.0952 88.4362 75.1637 88.852 75.715C90.029 77.2752 91.7491 78.3478 93.4515 78.5841C93.6982 78.6182 93.9434 78.6348 94.1874 78.6348C97.0266 78.6348 99.6072 76.4245 99.8348 74.7929C100.119 72.7496 97.1528 71.3874 94.2764 70.9871Z" fill="white"/>
<path d="M171.935 71.0548H171.935C171.711 69.4532 168.861 68.9965 166.156 69.3725C163.455 69.749 160.836 70.9679 161.055 72.5731C161.231 73.8215 163.484 75.9527 166.152 75.9522C166.377 75.9522 166.605 75.9372 166.834 75.9051C168.615 75.6585 169.922 74.5274 170.542 73.8753C171.488 72.8824 172.035 71.7747 171.935 71.0548Z" fill="white"/>
<path d="M216.495 139.66C215.503 136.661 212.31 135.695 207.006 136.791C191.257 140.041 185.617 137.79 183.764 136.426C196.006 117.776 206.077 95.2342 211.509 74.2011C214.083 64.2382 215.505 54.9858 215.621 47.4447C215.749 39.1662 214.34 33.0839 211.432 29.3682C199.709 14.3884 182.503 6.3534 161.676 6.13257C147.358 5.97174 135.261 9.63628 132.916 10.6664C127.977 9.43821 122.593 8.6842 116.732 8.58801C105.983 8.41425 96.6923 10.9876 88.9997 16.2325C85.6584 14.9893 77.023 12.025 66.4632 10.3241C48.2057 7.38408 33.698 9.61145 23.3447 16.9462C10.9909 25.6985 5.28778 41.3434 6.39293 63.4454C6.76476 70.882 11.0013 93.7572 17.688 115.665C26.4895 144.499 36.0563 160.822 46.1231 164.179C47.3012 164.572 48.6603 164.847 50.158 164.847C53.8303 164.847 58.3321 163.192 63.0164 157.561C70.797 148.2 78.0614 140.357 80.7392 137.507C84.6965 139.631 89.0431 140.817 93.4901 140.936C93.4979 141.052 93.5098 141.169 93.5201 141.284C92.628 142.343 91.8963 143.27 91.2726 144.062C88.1919 147.972 87.5506 148.786 77.6337 150.829C74.8132 151.41 67.3202 152.955 67.211 158.206C67.0916 163.944 76.0668 166.354 77.0897 166.609C80.6534 167.501 84.0862 167.942 87.3603 167.942C95.3234 167.941 102.33 165.324 107.931 160.261C107.758 180.717 108.611 200.874 111.067 207.015C113.078 212.043 117.993 224.33 133.516 224.329C135.793 224.329 138.301 224.064 141.059 223.473C157.259 220 164.294 212.84 167.016 197.054C168.472 188.618 170.971 168.472 172.146 157.666C174.627 158.439 177.821 158.794 181.274 158.793C188.474 158.793 196.783 157.263 201.994 154.845C207.847 152.127 218.41 145.455 216.495 139.66ZM177.915 66.6383C177.861 69.8286 177.422 72.7246 176.956 75.7479C176.456 78.9992 175.938 82.3607 175.807 86.4416C175.679 90.4128 176.174 94.5417 176.654 98.5341C177.624 106.599 178.618 114.901 174.768 123.094C174.169 122.031 173.592 120.872 173.062 119.588C172.584 118.428 171.545 116.565 170.107 113.986C164.509 103.948 151.401 80.4411 158.111 70.8489C160.11 67.9932 165.182 65.0584 177.915 66.6383ZM162.481 12.5928C181.142 13.005 195.903 19.986 206.355 33.341C214.371 43.5847 205.544 90.1956 179.991 130.407C179.739 130.086 179.482 129.762 179.216 129.43C179.11 129.297 179.002 129.162 178.893 129.026C185.496 118.121 184.204 107.331 183.055 97.7651C182.583 93.8394 182.137 90.1315 182.25 86.649C182.368 82.9565 182.856 79.791 183.328 76.7295C183.908 72.9563 184.499 69.0529 184.336 64.4507C184.457 63.9682 184.506 63.3978 184.443 62.7209C184.027 58.3075 178.989 45.101 168.719 33.146C163.102 26.6082 154.91 19.291 143.725 14.3558C148.536 13.3587 155.116 12.4289 162.481 12.5928ZM58.0595 153.439C52.8989 159.644 49.3347 158.455 48.1628 158.064C40.526 155.517 31.6656 139.377 23.8535 113.783C17.0938 91.6369 13.1433 69.3678 12.831 63.1232C11.8437 43.3742 16.631 29.6102 27.0604 22.2139C44.0333 10.1772 71.9389 17.3817 83.1517 21.0359C82.9904 21.1946 82.8228 21.3436 82.663 21.5049C64.2633 40.0877 64.6998 71.8367 64.7447 73.7771C64.7432 74.5259 64.8058 75.586 64.8921 77.0444C65.2086 82.384 65.7977 92.3226 64.224 103.578C62.761 114.037 65.9849 124.274 73.0678 131.664C73.8011 132.429 74.5665 133.147 75.3572 133.823C72.2041 137.199 65.3524 144.666 58.0595 153.439ZM77.7222 127.203C72.0133 121.247 69.4208 112.962 70.6082 104.471C72.2703 92.5807 71.6565 82.2258 71.3271 76.6628C71.281 75.8844 71.2402 75.2023 71.2159 74.664C73.904 72.2809 86.3607 65.6061 95.2438 67.6416C99.2983 68.5704 101.768 71.3304 102.795 76.0789C108.11 100.661 103.499 110.906 99.7932 119.14C99.0293 120.836 98.3079 122.439 97.6915 124.098L97.2141 125.38C96.005 128.622 94.8802 131.636 94.1831 134.498C88.1149 134.48 82.211 131.888 77.7222 127.203ZM78.6536 160.355C76.8818 159.913 75.2879 159.144 74.3529 158.506C75.1338 158.138 76.5239 157.639 78.9344 157.142C90.6008 154.74 92.402 153.046 96.3365 148.05C97.239 146.905 98.2614 145.606 99.6773 144.025C99.6779 144.024 99.6784 144.023 99.6789 144.023C101.788 141.661 102.753 142.062 104.502 142.787C105.92 143.374 107.301 145.151 107.861 147.107C108.126 148.031 108.424 149.784 107.45 151.148C99.231 162.656 87.2548 162.508 78.6536 160.355ZM139.707 217.17C125.436 220.228 120.383 212.946 117.053 204.622C114.903 199.247 113.847 175.012 114.597 148.248C114.606 147.892 114.556 147.548 114.458 147.225C114.372 146.601 114.241 145.969 114.059 145.334C112.944 141.44 110.228 138.182 106.97 136.832C105.676 136.296 103.299 135.311 100.444 136.042C101.053 133.533 102.11 130.7 103.254 127.633L103.734 126.342C104.275 124.887 104.953 123.38 105.671 121.785C109.549 113.171 114.859 101.372 109.096 74.7162C106.937 64.7326 99.7275 59.8574 88.7985 60.9894C82.2462 61.6674 76.2524 64.3111 73.2628 65.8269C72.6199 66.1527 72.0319 66.4671 71.4827 66.7738C72.3169 56.7142 75.47 37.9152 87.2631 26.0212C94.6879 18.5328 104.577 14.8347 116.625 15.0338C140.365 15.4227 155.589 27.6057 164.18 37.758C171.583 46.5066 175.592 55.3189 177.192 60.0715C165.161 58.8484 156.978 61.2237 152.829 67.1539C143.805 80.0537 157.766 105.092 164.476 117.125C165.707 119.331 166.769 121.237 167.103 122.046C169.288 127.342 172.117 130.877 174.182 133.458C174.815 134.249 175.43 135.016 175.897 135.686C172.253 136.737 165.707 139.164 166.304 151.297C165.823 157.385 162.401 185.888 160.664 195.959C158.369 209.263 153.474 214.219 139.707 217.17ZM199.279 148.998C195.553 150.728 189.317 152.025 183.393 152.303C176.85 152.61 173.52 151.571 172.736 150.931C172.368 143.371 175.183 142.58 178.161 141.744C178.629 141.612 179.086 141.485 179.527 141.331C179.801 141.553 180.101 141.775 180.429 141.991C185.688 145.463 195.068 145.837 208.31 143.104C208.358 143.093 208.407 143.084 208.455 143.074C206.669 144.744 203.613 146.986 199.279 148.998Z" fill="white"/>
</g>
<defs>
<filter id="filter0_d_1336_1257" x="0" y="0" width="249.39" height="250.311" filterUnits="userSpaceOnUse" color-interpolation-filters="sRGB">
<feFlood flood-opacity="0" result="BackgroundImageFix"/>
<feColorMatrix in="SourceAlpha" type="matrix" values="0 0 0 0 0 0 0 0 0 0 0 0 0 0 0 0 0 0 127 0" result="hardAlpha"/>
<feOffset dx="18" dy="12"/>
<feGaussianBlur stdDeviation="4"/>
<feComposite in2="hardAlpha" operator="out"/>
<feColorMatrix type="matrix" values="0 0 0 0 0 0 0 0 0 0 0 0 0 0 0 0 0 0 0.25 0"/>
<feBlend mode="normal" in2="BackgroundImageFix" result="effect1_dropShadow_1336_1257"/>
<feBlend mode="normal" in="SourceGraphic" in2="effect1_dropShadow_1336_1257" result="shape"/>
</filter>
</defs>
</svg>
