<svg width="362" height="347" viewBox="0 0 362 347" fill="none" xmlns="http://www.w3.org/2000/svg">
<g filter="url(#filter0_d_402_1677)">
<path d="M59.8718 0.441249H275.884C283.664 0.43391 291.369 1.96234 298.559 4.93906C305.748 7.91579 312.28 12.2824 317.782 17.7889C323.283 23.2954 327.646 29.8338 330.619 37.0299C333.593 44.2259 335.12 51.9383 335.113 59.7257V267.57C335.12 275.358 333.593 283.07 330.619 290.266C327.646 297.462 323.283 304.001 317.782 309.507C312.28 315.014 305.748 319.38 298.559 322.357C291.369 325.334 283.664 326.862 275.884 326.855H59.8718C52.0916 326.862 44.3864 325.334 37.1971 322.357C30.0077 319.38 23.4755 315.014 17.9741 309.507C12.4727 304.001 8.11017 297.462 5.13622 290.266C2.16227 283.07 0.635272 275.358 0.642604 267.57V59.7257C0.635272 51.9383 2.16227 44.2259 5.13622 37.0299C8.11017 29.8338 12.4727 23.2954 17.9741 17.7889C23.4755 12.2824 30.0077 7.91579 37.1971 4.93906C44.3864 1.96234 52.0916 0.43391 59.8718 0.441249Z" fill="#00005B"/>
<path d="M80.0793 229.349V85.811C80.0793 84.8345 80.4974 84.2765 81.473 84.2765C83.8421 84.2765 86.0719 84.2765 89.2773 84.137C92.4826 83.9975 96.1061 83.9975 99.8688 83.8581C103.632 83.7186 107.673 83.7186 111.993 83.5791C116.314 83.4396 120.495 83.4396 124.675 83.4396C136.103 83.4396 145.58 84.8345 153.384 87.7639C160.38 90.1419 166.759 94.0492 172.059 99.2023C176.549 103.712 180.019 109.135 182.232 115.104C184.342 120.918 185.426 127.054 185.438 133.239C185.438 145.235 182.65 155.139 177.076 162.951C171.475 170.751 163.656 176.682 154.638 179.969C145.162 183.456 134.71 184.711 123.282 184.711C119.937 184.711 117.707 184.711 116.314 184.572C114.92 184.432 112.969 184.432 110.321 184.432V229.21C110.352 229.439 110.337 229.673 110.276 229.896C110.215 230.12 110.11 230.329 109.967 230.511C109.824 230.693 109.646 230.845 109.444 230.957C109.241 231.068 109.018 231.139 108.788 231.163H81.7517C80.6368 231.163 80.0793 230.605 80.0793 229.349ZM110.46 111.199V158.068C112.411 158.208 114.223 158.347 115.896 158.347H123.282C128.722 158.354 134.13 157.507 139.308 155.836C143.751 154.529 147.72 151.961 150.736 148.443C153.663 144.956 155.056 140.213 155.056 134.076C155.188 129.717 154.076 125.41 151.851 121.661C149.527 118.039 146.11 115.253 142.096 113.71C136.864 111.659 131.266 110.709 125.651 110.92C122.028 110.92 118.822 110.92 116.174 111.059C114.269 110.935 112.357 110.981 110.46 111.199ZM204.948 119.289H229.337C229.997 119.305 230.636 119.53 231.162 119.93C231.687 120.331 232.073 120.888 232.263 121.521C232.689 122.643 232.97 123.815 233.1 125.008C233.378 126.403 233.657 127.938 233.796 129.333C233.936 130.728 234.075 132.541 234.075 134.355C238.26 129.465 243.316 125.397 248.987 122.358C255.465 118.756 262.76 116.883 270.17 116.918C270.399 116.887 270.633 116.902 270.856 116.963C271.079 117.024 271.288 117.129 271.47 117.272C271.652 117.415 271.803 117.593 271.915 117.796C272.027 117.999 272.097 118.222 272.121 118.452V146.211C272.121 147.327 271.424 147.746 269.891 147.746C264.836 147.58 259.779 148.049 254.84 149.141C250.814 149.973 246.89 151.235 243.134 152.907C240.437 154.124 238.019 155.88 236.026 158.068V229.21C236.026 230.605 235.469 231.163 234.214 231.163H206.76C206.503 231.206 206.24 231.197 205.986 231.135C205.733 231.073 205.495 230.961 205.286 230.804C205.078 230.648 204.903 230.45 204.773 230.224C204.643 229.998 204.561 229.748 204.53 229.489V151.652C204.53 148.304 204.53 144.816 204.391 141.19C204.252 137.563 204.252 133.936 204.112 130.309C204.112 127.101 203.833 124.032 203.555 120.824C203.518 120.659 203.514 120.488 203.543 120.322C203.572 120.155 203.633 119.996 203.724 119.854C203.815 119.711 203.933 119.588 204.071 119.491C204.209 119.394 204.365 119.326 204.53 119.289C204.53 119.15 204.809 119.15 204.948 119.289Z" fill="#9999FF"/>
</g>
<defs>
<filter id="filter0_d_402_1677" x="0.642578" y="0.441223" width="360.47" height="346.414" filterUnits="userSpaceOnUse" color-interpolation-filters="sRGB">
<feFlood flood-opacity="0" result="BackgroundImageFix"/>
<feColorMatrix in="SourceAlpha" type="matrix" values="0 0 0 0 0 0 0 0 0 0 0 0 0 0 0 0 0 0 127 0" result="hardAlpha"/>
<feOffset dx="18" dy="12"/>
<feGaussianBlur stdDeviation="4"/>
<feComposite in2="hardAlpha" operator="out"/>
<feColorMatrix type="matrix" values="0 0 0 0 0 0 0 0 0 0 0 0 0 0 0 0 0 0 0.25 0"/>
<feBlend mode="normal" in2="BackgroundImageFix" result="effect1_dropShadow_402_1677"/>
<feBlend mode="normal" in="SourceGraphic" in2="effect1_dropShadow_402_1677" result="shape"/>
</filter>
</defs>
</svg>
