<svg width="259" height="135" viewBox="0 0 259 135" fill="none" xmlns="http://www.w3.org/2000/svg">
<g filter="url(#filter0_d_1336_1220)">
<path d="M171.482 94.1893L178.213 71.9263H197.648L188.425 38.1547L199.96 0L233 114.74H208.634L202.988 94.1893H171.482Z" fill="#3D3D3D"/>
<path d="M150.693 114.74L186.063 0.000488281L162.613 0.000640746L138.418 74.1479L121.213 0.000793208H103.189L84.7155 74.1479L71.6874 40.3605L59.8975 87.8688L71.8678 114.74H94.9445L111.638 48.2459L127.555 114.74H150.693Z" fill="#5A0FC8"/>
<path d="M22.2584 75.3514H36.7018C41.077 75.3514 44.9729 74.7127 48.3895 73.4353L52.1248 58.3838L62.5642 16.3172C61.7688 14.6682 60.8606 13.109 59.8398 11.6399C54.4798 3.87989 46.6376 0 36.313 0H0V114.74H22.2584V75.3514ZM41.3764 26.397C43.4701 29.153 44.5168 32.8411 44.5168 37.4615C44.5168 42.1174 43.5961 45.81 41.7549 48.5394C39.7365 51.572 36.0199 53.0883 30.6053 53.0883H22.2584V22.2627H30.6667C35.713 22.2627 39.2829 23.6408 41.3764 26.397Z" fill="#3D3D3D"/>
</g>
<defs>
<filter id="filter0_d_1336_1220" x="0" y="0" width="259" height="134.74" filterUnits="userSpaceOnUse" color-interpolation-filters="sRGB">
<feFlood flood-opacity="0" result="BackgroundImageFix"/>
<feColorMatrix in="SourceAlpha" type="matrix" values="0 0 0 0 0 0 0 0 0 0 0 0 0 0 0 0 0 0 127 0" result="hardAlpha"/>
<feOffset dx="18" dy="12"/>
<feGaussianBlur stdDeviation="4"/>
<feComposite in2="hardAlpha" operator="out"/>
<feColorMatrix type="matrix" values="0 0 0 0 0 0 0 0 0 0 0 0 0 0 0 0 0 0 0.25 0"/>
<feBlend mode="normal" in2="BackgroundImageFix" result="effect1_dropShadow_1336_1220"/>
<feBlend mode="normal" in="SourceGraphic" in2="effect1_dropShadow_1336_1220" result="shape"/>
</filter>
</defs>
</svg>
