<svg width="260" height="228" viewBox="0 0 260 228" fill="none" xmlns="http://www.w3.org/2000/svg">
<g filter="url(#filter0_d_402_1647)">
<path d="M116.515 124.275C128.006 124.275 137.321 114.96 137.321 103.469C137.321 91.9782 128.006 82.663 116.515 82.663C105.024 82.663 95.7087 91.9782 95.7087 103.469C95.7087 114.96 105.024 124.275 116.515 124.275Z" fill="#00D8FF"/>
<path d="M116.515 151.174C91.507 151.779 66.5617 148.408 42.6112 141.187C31.5474 137.68 21.2285 132.155 12.1758 124.891C8.7214 122.41 5.84466 119.211 3.74298 115.513C1.6413 111.816 0.364439 107.707 0 103.469C0 89.7122 15.1137 76.2298 40.4307 67.408C65.0215 59.591 90.7146 55.8026 116.515 56.1892C141.971 55.8336 167.32 59.5536 191.601 67.2082C202.256 70.6051 212.225 75.863 221.046 82.738C224.441 85.1036 227.275 88.1869 229.346 91.7696C231.417 95.3522 232.675 99.3465 233.03 103.469C233.03 117.767 216.135 132.257 188.921 141.262C165.434 148.247 141.015 151.59 116.515 151.174ZM116.515 66.1429C91.8314 65.813 67.2527 69.4145 43.7014 76.8124C20.3984 84.9435 9.95371 96.0623 9.95371 103.444C9.95371 111.168 21.1808 123.31 45.832 131.741C68.7445 138.614 92.6012 141.813 116.515 141.22C139.955 141.639 163.32 138.468 185.8 131.816C211.392 123.335 223.043 111.176 223.043 103.469C222.623 100.825 221.659 98.2958 220.213 96.0425C218.766 93.7892 216.867 91.8605 214.637 90.378C206.745 84.2789 197.84 79.619 188.33 76.6126C165.102 69.3201 140.858 65.7857 116.515 66.1429Z" fill="#00D8FF"/>
<path d="M69.2433 207.242C65.3608 207.332 61.5242 206.39 58.1244 204.513C46.2066 197.638 42.0786 177.814 47.0804 151.473C52.5953 126.265 62.1509 102.115 75.377 79.9582C87.7836 57.7296 103.667 37.6292 122.424 20.419C130.69 12.8847 140.225 6.87449 150.587 2.6671C154.336 0.910551 158.424 0 162.563 0C166.703 0 170.791 0.910551 174.54 2.6671C186.932 9.80781 191.035 31.6793 185.251 59.7511C179.565 83.5915 170.258 106.419 157.653 127.438C145.683 149.404 130.3 169.329 112.079 186.47C103.514 194.299 93.5727 200.476 82.759 204.687C78.4298 206.294 73.8603 207.158 69.2433 207.242ZM83.9991 84.9017C71.383 106.119 62.2246 129.208 56.8677 153.304C52.2654 177.564 56.6846 192.154 63.1096 195.866C69.7676 199.719 85.9299 196.065 105.554 178.921C122.949 162.5 137.631 143.427 149.056 122.411C161.131 102.317 170.059 80.492 175.53 57.6955C180.973 31.2715 176.271 15.0926 169.596 11.2476C167.094 10.2891 164.421 9.85999 161.745 9.98748C159.069 10.115 156.449 10.7963 154.05 11.9883C144.826 15.7946 136.345 21.1982 128.999 27.9509C111.078 44.436 95.906 63.6788 84.0573 84.9517L83.9991 84.9017Z" fill="#00D8FF"/>
<path d="M163.762 207.351C152.485 207.351 138.162 200.526 123.248 187.701C104.162 170.334 88.0103 149.995 75.4185 127.471C62.3583 105.619 52.8785 81.8186 47.3384 56.9714C44.9358 46.0397 44.4906 34.7686 46.0235 23.6814C46.3779 19.5685 47.6302 15.5834 49.6923 12.0071C51.7544 8.43086 54.5759 5.35052 57.9579 2.98334C70.3335 -4.18234 91.3312 3.18308 112.762 22.2083C130.577 39.0379 145.705 58.5003 157.62 79.9165C170.672 101.258 180.251 124.538 186 148.885C188.506 160.218 188.892 171.917 187.14 183.39C186.723 187.621 185.396 191.712 183.25 195.383C181.103 199.053 178.189 202.216 174.706 204.654C171.362 206.508 167.585 207.438 163.762 207.351ZM84.0323 122.461C96.1119 143.987 111.541 163.452 129.74 180.128C148.457 196.232 163.304 199.694 169.688 195.94C176.346 192.071 181.256 176.274 176.196 150.716C170.652 127.471 161.464 105.249 148.973 84.8767C137.603 64.3794 123.163 45.7432 106.154 29.6153C85.9798 11.7053 69.6178 7.70219 62.9514 11.5638C60.8737 13.2523 59.1686 15.3533 57.9438 17.734C56.7191 20.1148 56.0012 22.7236 55.8357 25.3958C54.5125 35.2837 54.9435 45.3274 57.109 55.0655C62.438 78.8274 71.5298 101.585 84.0406 122.478L84.0323 122.461Z" fill="#00D8FF"/>
</g>
<defs>
<filter id="filter0_d_402_1647" x="0" y="0" width="259.03" height="227.356" filterUnits="userSpaceOnUse" color-interpolation-filters="sRGB">
<feFlood flood-opacity="0" result="BackgroundImageFix"/>
<feColorMatrix in="SourceAlpha" type="matrix" values="0 0 0 0 0 0 0 0 0 0 0 0 0 0 0 0 0 0 127 0" result="hardAlpha"/>
<feOffset dx="18" dy="12"/>
<feGaussianBlur stdDeviation="4"/>
<feComposite in2="hardAlpha" operator="out"/>
<feColorMatrix type="matrix" values="0 0 0 0 0 0 0 0 0 0 0 0 0 0 0 0 0 0 0.25 0"/>
<feBlend mode="normal" in2="BackgroundImageFix" result="effect1_dropShadow_402_1647"/>
<feBlend mode="normal" in="SourceGraphic" in2="effect1_dropShadow_402_1647" result="shape"/>
</filter>
</defs>
</svg>
