<svg width="246" height="208" viewBox="0 0 246 208" fill="none" xmlns="http://www.w3.org/2000/svg">
<g filter="url(#filter0_d_1336_1267)">
<path d="M211.38 144.684C199.64 150.804 138.82 175.811 125.871 182.561C112.924 189.312 105.73 189.247 95.5019 184.357C85.2733 179.467 20.55 153.323 8.89137 147.751C3.06377 144.965 0 142.615 0 140.394V118.157C0 118.157 84.2609 99.8131 97.8644 94.9334C111.467 90.0528 116.187 89.8767 127.763 94.117C139.34 98.3581 208.559 110.847 220 115.037C220 115.037 219.995 134.898 219.995 136.96C219.997 139.158 217.356 141.57 211.38 144.684Z" fill="#912626"/>
<path d="M211.376 122.584C199.636 128.701 138.818 153.709 125.87 160.458C112.923 167.21 105.73 167.144 95.5015 162.254C85.2724 157.368 20.5521 131.22 8.8938 125.65C-2.76447 120.077 -3.00939 116.242 8.44349 111.758C19.8955 107.272 84.2609 82.0189 97.8657 77.1385C111.468 72.2598 116.187 72.0819 127.762 76.3238C139.339 80.5639 199.794 104.627 211.234 108.817C222.677 113.011 223.116 116.464 211.376 122.584Z" fill="#C6302B"/>
<path d="M211.38 108.704C199.64 114.824 138.82 139.831 125.871 146.583C112.924 153.332 105.73 153.267 95.5019 148.377C85.2724 143.49 20.55 117.343 8.89137 111.771C3.06377 108.985 0 106.638 0 104.417V82.1772C0 82.1772 84.2609 63.8341 97.8644 58.9536C111.467 54.0739 116.187 53.8969 127.763 58.1372C139.34 62.3783 208.559 74.8646 220 79.0559C220 79.0559 219.995 98.9166 219.995 100.981C219.997 103.178 217.356 105.59 211.38 108.704Z" fill="#912626"/>
<path d="M211.376 86.6035C199.636 92.7223 138.818 117.728 125.87 124.48C112.923 131.23 105.73 131.164 95.5015 126.274C85.2724 121.388 20.5521 95.2402 8.8938 89.6698C-2.76447 84.0984 -3.00939 80.2622 8.44349 75.7762C19.8955 71.2929 84.2609 46.0384 97.8657 41.1589C111.468 36.2794 116.187 36.1023 127.762 40.3434C139.339 44.5835 199.794 68.6451 211.234 72.8363C222.677 77.0292 223.116 80.4839 211.376 86.6026V86.6035Z" fill="#C6302B"/>
<path d="M211.38 71.3823C199.64 77.5021 138.82 102.51 125.871 109.262C112.924 116.012 105.73 115.946 95.5019 111.056C85.2724 106.168 20.55 80.021 8.89137 74.4504C3.06377 71.6642 0 69.3155 0 67.0965V44.856C0 44.856 84.2609 26.5138 97.8644 21.6341C111.467 16.7535 116.187 16.5773 127.763 20.8176C139.34 25.0588 208.559 37.5451 220 41.7364C220 41.7364 219.995 61.5972 219.995 63.6606C219.997 65.8564 217.356 68.2678 211.38 71.3823Z" fill="#912626"/>
<path d="M211.376 49.2816C199.636 55.4004 138.818 80.4081 125.87 87.1585C112.923 93.908 105.73 93.8419 95.5015 88.9537C85.2733 84.0656 20.5521 57.92 8.8938 52.3487C-2.76447 46.7774 -3.00939 42.9403 8.44349 38.4552C19.8955 33.971 84.2609 8.71919 97.8657 3.83794C111.468 -1.04244 116.187 -1.21775 127.762 3.02326C139.339 7.26427 199.794 31.3259 211.234 35.517C222.677 39.7073 223.116 43.1629 211.376 49.2816Z" fill="#C6302B"/>
<path d="M136.88 27.6442L117.966 29.608L113.731 39.7962L106.892 28.427L85.0513 26.464L101.348 20.5871L96.4589 11.5654L111.716 17.5327L126.101 12.8232L122.213 22.1519L136.88 27.6442Z" fill="white"/>
<path d="M112.608 77.0779L77.3071 62.4368L127.891 54.6729L112.608 77.0779Z" fill="white"/>
<path d="M63.6633 33.314C78.5952 33.314 90.6994 38.0064 90.6994 43.7938C90.6994 49.582 78.5952 54.2736 63.6633 54.2736C48.7323 54.2736 36.6272 49.582 36.6272 43.7938C36.6272 38.0064 48.7323 33.314 63.6633 33.314Z" fill="white"/>
<path d="M159.236 30.4395L189.173 42.27L159.262 54.0886L159.236 30.4395Z" fill="#621B1C"/>
<path d="M126.118 43.5405L159.238 30.4395L159.264 54.0886L156.017 55.3591L126.118 43.5405Z" fill="#9A2928"/>
</g>
<defs>
<filter id="filter0_d_1336_1267" x="0" y="0" width="246" height="207.849" filterUnits="userSpaceOnUse" color-interpolation-filters="sRGB">
<feFlood flood-opacity="0" result="BackgroundImageFix"/>
<feColorMatrix in="SourceAlpha" type="matrix" values="0 0 0 0 0 0 0 0 0 0 0 0 0 0 0 0 0 0 127 0" result="hardAlpha"/>
<feOffset dx="18" dy="12"/>
<feGaussianBlur stdDeviation="4"/>
<feComposite in2="hardAlpha" operator="out"/>
<feColorMatrix type="matrix" values="0 0 0 0 0 0 0 0 0 0 0 0 0 0 0 0 0 0 0.25 0"/>
<feBlend mode="normal" in2="BackgroundImageFix" result="effect1_dropShadow_1336_1267"/>
<feBlend mode="normal" in="SourceGraphic" in2="effect1_dropShadow_1336_1267" result="shape"/>
</filter>
</defs>
</svg>
