<svg width="273" height="261" viewBox="0 0 273 261" fill="none" xmlns="http://www.w3.org/2000/svg">
<g filter="url(#filter0_d_1343_1203)">
<path d="M43.7396 1.94109e-05H203.26C209.006 -0.00539575 214.696 1.12227 220.005 3.31847C225.314 5.51467 230.138 8.7363 234.201 12.799C238.264 16.8616 241.485 21.6856 243.682 26.9948C245.878 32.304 247.005 37.9941 247 43.7396V197.085C247.005 202.831 245.878 208.521 243.682 213.83C241.485 219.139 238.264 223.963 234.201 228.026C230.138 232.089 225.314 235.31 220.005 237.507C214.696 239.703 209.006 240.83 203.26 240.825H43.7396C37.9941 240.83 32.304 239.703 26.9948 237.507C21.6856 235.31 16.8616 232.089 12.799 228.026C8.7363 223.963 5.51467 219.139 3.31847 213.83C1.12227 208.521 -0.00539575 202.831 1.94109e-05 197.085V43.7396C-0.00539575 37.9941 1.12227 32.304 3.31847 26.9948C5.51467 21.6856 8.7363 16.8616 12.799 12.799C16.8616 8.7363 21.6856 5.51467 26.9948 3.31847C32.304 1.12227 37.9941 -0.00539575 43.7396 1.94109e-05V1.94109e-05Z" fill="#470137"/>
<path d="M129.881 63.2937L99.0059 114.237L131.939 168.269C132.156 168.642 132.229 169.081 132.145 169.504C132.042 169.915 131.631 169.607 131.013 169.71H107.445C105.798 169.71 104.666 169.607 103.946 168.577C101.785 164.255 99.5205 160.035 97.3593 155.713C95.198 151.39 92.8309 147.171 90.3609 142.745C87.8909 138.32 85.4209 133.895 82.9509 129.366H82.7451C80.5838 133.792 78.2168 138.217 75.8497 142.642C73.4826 147.068 71.1155 151.493 68.8514 155.816C66.5872 160.138 64.1172 164.564 61.7501 168.783C61.3384 169.812 60.5151 169.915 59.383 169.915H36.7413C36.3297 169.915 36.0209 170.121 36.0209 169.607C35.975 169.414 35.9696 169.214 36.005 169.019C36.0404 168.824 36.116 168.639 36.2268 168.475L68.2339 115.987L37.0501 63.1908C36.7413 62.7791 36.6384 62.3675 36.8443 62.1616C36.9697 62.0149 37.1289 61.9008 37.3082 61.8291C37.4874 61.7574 37.6814 61.7303 37.8734 61.75H61.2355C61.7223 61.7606 62.2061 61.8297 62.6764 61.9558C63.0886 62.1777 63.4416 62.4953 63.7055 62.882C65.6609 67.3075 67.9251 71.7329 70.2922 76.1583C72.6593 80.5837 75.1293 84.9062 77.7022 89.2287C80.2751 93.5512 82.4363 97.8737 84.5976 102.299H84.8034C86.9647 97.7708 89.2288 93.3454 91.493 89.0229C93.7572 84.7004 96.1243 80.3779 98.4913 76.0554C100.858 71.7329 103.123 67.3075 105.387 63.0879C105.465 62.6827 105.684 62.3182 106.004 62.0587C106.412 61.8339 106.886 61.7609 107.342 61.8529H129.058C129.179 61.8256 129.305 61.8226 129.428 61.844C129.551 61.8655 129.668 61.911 129.773 61.9779C129.878 62.0449 129.969 62.1319 130.041 62.2341C130.112 62.3363 130.163 62.4515 130.19 62.5733C130.293 62.6762 130.087 63.0879 129.881 63.2937V63.2937ZM177.428 171.871C169.8 171.996 162.24 170.414 155.301 167.24C148.846 164.221 143.436 159.348 139.761 153.243C135.953 146.965 134.101 139.143 134.101 129.778C133.996 122.162 135.952 114.659 139.761 108.062C143.667 101.358 149.323 95.8439 156.125 92.1104C163.329 88.0966 171.974 86.1412 182.163 86.1412C182.884 86.133 183.606 86.1674 184.324 86.2441C185.25 86.3471 186.279 86.347 187.514 86.45V53.9283C187.514 53.2079 187.823 52.7962 188.543 52.7962H209.436C209.666 52.765 209.9 52.8218 210.091 52.9553C210.282 53.0888 210.415 53.2892 210.465 53.5166V151.699C210.465 153.552 210.568 155.61 210.671 157.874C210.773 160.138 210.979 162.094 211.082 163.843C211.104 164.191 211.017 164.537 210.832 164.832C210.647 165.127 210.375 165.357 210.053 165.49C204.662 167.756 199.036 169.412 193.278 170.43C188.047 171.373 182.743 171.855 177.428 171.871V171.871ZM187.514 151.287V106.004C186.598 105.783 185.67 105.611 184.736 105.49C183.603 105.387 182.471 105.284 181.339 105.284C177.305 105.238 173.318 106.156 169.71 107.96C166.193 109.712 163.182 112.333 160.962 115.575C158.698 118.869 157.566 123.294 157.566 128.646C157.476 132.258 158.069 135.854 159.315 139.246C160.31 141.989 161.891 144.482 163.946 146.553C165.93 148.447 168.326 149.856 170.945 150.67C173.701 151.573 176.586 152.025 179.487 152.008C181.031 152.008 182.471 151.905 183.809 151.802C185.067 151.892 186.329 151.716 187.514 151.287V151.287Z" fill="#FF61F6"/>
</g>
<defs>
<filter id="filter0_d_1343_1203" x="0" y="0" width="273" height="260.825" filterUnits="userSpaceOnUse" color-interpolation-filters="sRGB">
<feFlood flood-opacity="0" result="BackgroundImageFix"/>
<feColorMatrix in="SourceAlpha" type="matrix" values="0 0 0 0 0 0 0 0 0 0 0 0 0 0 0 0 0 0 127 0" result="hardAlpha"/>
<feOffset dx="18" dy="12"/>
<feGaussianBlur stdDeviation="4"/>
<feComposite in2="hardAlpha" operator="out"/>
<feColorMatrix type="matrix" values="0 0 0 0 0 0 0 0 0 0 0 0 0 0 0 0 0 0 0.25 0"/>
<feBlend mode="normal" in2="BackgroundImageFix" result="effect1_dropShadow_1343_1203"/>
<feBlend mode="normal" in="SourceGraphic" in2="effect1_dropShadow_1343_1203" result="shape"/>
</filter>
</defs>
</svg>
